%TF.GenerationSoftware,KiCad,Pcbnew,7.0.8-unknown-202310192121~e85eec2e6b~ubuntu22.04.1*%
%TF.CreationDate,2023-11-07T13:39:59+08:00*%
%TF.ProjectId,Cthulhu,43746875-6c68-4752-9e6b-696361645f70,rev?*%
%TF.SameCoordinates,Original*%
%TF.FileFunction,Soldermask,Top*%
%TF.FilePolarity,Negative*%
%FSLAX46Y46*%
G04 Gerber Fmt 4.6, Leading zero omitted, Abs format (unit mm)*
G04 Created by KiCad (PCBNEW 7.0.8-unknown-202310192121~e85eec2e6b~ubuntu22.04.1) date 2023-11-07 13:39:59*
%MOMM*%
%LPD*%
G01*
G04 APERTURE LIST*
G04 Aperture macros list*
%AMRoundRect*
0 Rectangle with rounded corners*
0 $1 Rounding radius*
0 $2 $3 $4 $5 $6 $7 $8 $9 X,Y pos of 4 corners*
0 Add a 4 corners polygon primitive as box body*
4,1,4,$2,$3,$4,$5,$6,$7,$8,$9,$2,$3,0*
0 Add four circle primitives for the rounded corners*
1,1,$1+$1,$2,$3*
1,1,$1+$1,$4,$5*
1,1,$1+$1,$6,$7*
1,1,$1+$1,$8,$9*
0 Add four rect primitives between the rounded corners*
20,1,$1+$1,$2,$3,$4,$5,0*
20,1,$1+$1,$4,$5,$6,$7,0*
20,1,$1+$1,$6,$7,$8,$9,0*
20,1,$1+$1,$8,$9,$2,$3,0*%
%AMHorizOval*
0 Thick line with rounded ends*
0 $1 width*
0 $2 $3 position (X,Y) of the first rounded end (center of the circle)*
0 $4 $5 position (X,Y) of the second rounded end (center of the circle)*
0 Add line between two ends*
20,1,$1,$2,$3,$4,$5,0*
0 Add two circle primitives to create the rounded ends*
1,1,$1,$2,$3*
1,1,$1,$4,$5*%
G04 Aperture macros list end*
%ADD10O,11.600000X5.000000*%
%ADD11C,5.000000*%
%ADD12C,1.700000*%
%ADD13C,1.750000*%
%ADD14C,3.987800*%
%ADD15C,2.000000*%
%ADD16HorizOval,2.250000X0.019771X0.290016X-0.019771X-0.290016X0*%
%ADD17C,2.250000*%
%ADD18HorizOval,2.250000X0.654995X0.730004X-0.654995X-0.730004X0*%
%ADD19C,3.048000*%
%ADD20C,2.286000*%
%ADD21R,1.800000X1.100000*%
%ADD22R,1.700000X1.700000*%
%ADD23O,1.700000X1.700000*%
%ADD24RoundRect,0.250000X-0.725000X0.600000X-0.725000X-0.600000X0.725000X-0.600000X0.725000X0.600000X0*%
%ADD25O,1.950000X1.700000*%
%ADD26C,1.800000*%
%ADD27RoundRect,0.450000X0.450000X0.450000X-0.450000X0.450000X-0.450000X-0.450000X0.450000X-0.450000X0*%
%ADD28O,1.800000X4.340000*%
G04 APERTURE END LIST*
%TO.C,G\u002A\u002A\u002A*%
G36*
X180359548Y-125920908D02*
G01*
X180361616Y-125921850D01*
X180972219Y-126353293D01*
X181016088Y-126859077D01*
X180558842Y-127427429D01*
X180155567Y-127728123D01*
X179773296Y-127728793D01*
X179164510Y-127424720D01*
X179121188Y-127400005D01*
X178222968Y-127092470D01*
X177498318Y-127324910D01*
X176898997Y-128113275D01*
X176885798Y-128139072D01*
X176582348Y-128540769D01*
X176380684Y-128567748D01*
X176239535Y-128164203D01*
X176189970Y-127580180D01*
X176445218Y-126717815D01*
X177122496Y-126067955D01*
X178089108Y-125683350D01*
X179212357Y-125616751D01*
X180359548Y-125920908D01*
G37*
G36*
X206791791Y-125708500D02*
G01*
X207759607Y-126247790D01*
X207808772Y-126295354D01*
X208292498Y-126999787D01*
X208509105Y-127768459D01*
X208422162Y-128399857D01*
X208228607Y-128617565D01*
X207980485Y-128553379D01*
X207939970Y-128352617D01*
X207717547Y-127893842D01*
X207182743Y-127413127D01*
X207182389Y-127412895D01*
X206626643Y-127100596D01*
X206187435Y-127099380D01*
X205565466Y-127409705D01*
X205555563Y-127415387D01*
X204940412Y-127728092D01*
X204556352Y-127731417D01*
X204148496Y-127427542D01*
X204148372Y-127427429D01*
X203674359Y-126816174D01*
X203762050Y-126317655D01*
X204345597Y-125921850D01*
X205596108Y-125593632D01*
X206791791Y-125708500D01*
G37*
G36*
X186500046Y-124800644D02*
G01*
X187398707Y-125004775D01*
X188059770Y-125281044D01*
X188312698Y-125573085D01*
X188074359Y-125784219D01*
X187452570Y-126154993D01*
X186670946Y-126560453D01*
X185053530Y-127492670D01*
X183420688Y-128672262D01*
X181964463Y-129947873D01*
X180952470Y-131067413D01*
X180315086Y-131800875D01*
X179748337Y-132117549D01*
X179041117Y-132104496D01*
X178643380Y-132019702D01*
X178039065Y-131789609D01*
X177804675Y-131633002D01*
X177811830Y-131269114D01*
X178178638Y-130607368D01*
X178833544Y-129733706D01*
X179704992Y-128734069D01*
X180721425Y-127694400D01*
X181811288Y-126700640D01*
X182140596Y-126425353D01*
X183171597Y-125606846D01*
X183916746Y-125100205D01*
X184520745Y-124832760D01*
X185128296Y-124731841D01*
X185534381Y-124720974D01*
X186500046Y-124800644D01*
G37*
G36*
X205241848Y-101069922D02*
G01*
X206015602Y-101743776D01*
X206346840Y-102423815D01*
X206354955Y-102938614D01*
X206100527Y-103078132D01*
X205775198Y-102784610D01*
X205339398Y-102538600D01*
X204662126Y-102506097D01*
X204021162Y-102665502D01*
X203708518Y-102945308D01*
X203769741Y-103443189D01*
X204144011Y-104205666D01*
X204439168Y-104652153D01*
X205026208Y-105511618D01*
X205279874Y-106066924D01*
X205224979Y-106466622D01*
X204886334Y-106859262D01*
X204818232Y-106921636D01*
X204462365Y-107180831D01*
X204141544Y-107141782D01*
X203684237Y-106748516D01*
X203407364Y-106461258D01*
X202317746Y-105082398D01*
X201735815Y-103796952D01*
X201670086Y-102643230D01*
X202129075Y-101659544D01*
X202298441Y-101472626D01*
X203222788Y-100896642D01*
X204257416Y-100774976D01*
X205241848Y-101069922D01*
G37*
G36*
X181653647Y-101000154D02*
G01*
X182507509Y-101562131D01*
X183026668Y-102373094D01*
X183117243Y-102927307D01*
X182909179Y-103933036D01*
X182357707Y-105090712D01*
X181571910Y-106193818D01*
X181165354Y-106622679D01*
X180315142Y-107430066D01*
X179840014Y-106704928D01*
X179588607Y-106260339D01*
X179556721Y-105871165D01*
X179778788Y-105353219D01*
X180230837Y-104614327D01*
X180780248Y-103717498D01*
X181028685Y-103169501D01*
X180997178Y-102840046D01*
X180706753Y-102598844D01*
X180568498Y-102522188D01*
X179898111Y-102415798D01*
X179226691Y-102661513D01*
X178630585Y-102918880D01*
X178297063Y-102966142D01*
X178290516Y-102960914D01*
X178305107Y-102622519D01*
X178575769Y-102051281D01*
X178979078Y-101449358D01*
X179391613Y-101018911D01*
X179522220Y-100943451D01*
X180610184Y-100767237D01*
X181653647Y-101000154D01*
G37*
G36*
X197962717Y-134987669D02*
G01*
X199218549Y-135406852D01*
X200187285Y-135833474D01*
X201785752Y-136510086D01*
X203032211Y-136813297D01*
X204012764Y-136745609D01*
X204813513Y-136309526D01*
X205152441Y-135977792D01*
X205910396Y-135334741D01*
X206758932Y-135116013D01*
X206931970Y-135111883D01*
X207625202Y-135175285D01*
X207905299Y-135426553D01*
X207939970Y-135703489D01*
X207710420Y-136676259D01*
X207094586Y-137745899D01*
X206375942Y-138557387D01*
X205708170Y-139021812D01*
X204835637Y-139273472D01*
X203967267Y-139362508D01*
X202938977Y-139379107D01*
X202132627Y-139231467D01*
X201273882Y-138850127D01*
X200724061Y-138541359D01*
X199615204Y-137908167D01*
X198471161Y-137272371D01*
X197851906Y-136937915D01*
X197060422Y-136473975D01*
X196488784Y-136057647D01*
X196340985Y-135901059D01*
X196117981Y-135286271D01*
X196353334Y-134928417D01*
X196987945Y-134828537D01*
X197962717Y-134987669D01*
G37*
G36*
X192071942Y-137145363D02*
G01*
X192439708Y-137832541D01*
X192694093Y-137144874D01*
X192975195Y-136694593D01*
X193247201Y-136743634D01*
X193458177Y-137215640D01*
X193556194Y-138034252D01*
X193553478Y-138408496D01*
X193598844Y-139351271D01*
X193898004Y-140081545D01*
X194402091Y-140728118D01*
X194909477Y-141356247D01*
X195027480Y-141670238D01*
X194814714Y-141750519D01*
X194271571Y-141536342D01*
X193611065Y-141014229D01*
X193016346Y-140364811D01*
X192670565Y-139768717D01*
X192642243Y-139607949D01*
X192493044Y-139209801D01*
X192353607Y-139152792D01*
X192101123Y-139388067D01*
X192064970Y-139607949D01*
X191847804Y-140143616D01*
X191318405Y-140795031D01*
X190659924Y-141381565D01*
X190055512Y-141722587D01*
X189892500Y-141750519D01*
X189681449Y-141654351D01*
X189829907Y-141314576D01*
X190333751Y-140695512D01*
X190921259Y-139924033D01*
X191141075Y-139286245D01*
X191113593Y-138737938D01*
X191124017Y-137859624D01*
X191335651Y-137146778D01*
X191704175Y-136458185D01*
X192071942Y-137145363D01*
G37*
G36*
X175955260Y-105153487D02*
G01*
X177666555Y-105546222D01*
X179100169Y-106434264D01*
X180197877Y-107779637D01*
X180320520Y-108000587D01*
X180648248Y-109057791D01*
X180771945Y-110468356D01*
X180700472Y-112049061D01*
X180442685Y-113616684D01*
X180007445Y-114988003D01*
X179979617Y-115051655D01*
X179507277Y-116001118D01*
X178884121Y-117099964D01*
X178183269Y-118237381D01*
X177477836Y-119302556D01*
X176840941Y-120184678D01*
X176345700Y-120772934D01*
X176081421Y-120959521D01*
X175604481Y-120790518D01*
X175251902Y-120566906D01*
X174845565Y-120142770D01*
X174746789Y-119899761D01*
X174903222Y-119549530D01*
X175321023Y-118856805D01*
X175922940Y-117946622D01*
X176204520Y-117540318D01*
X177547833Y-115453171D01*
X178436286Y-113642260D01*
X178886150Y-112050234D01*
X178913697Y-110619745D01*
X178540789Y-109306035D01*
X177750496Y-108050176D01*
X176724803Y-107235909D01*
X175546580Y-106919022D01*
X175035425Y-106946292D01*
X173987815Y-107346873D01*
X173180020Y-108115596D01*
X172756875Y-109096090D01*
X172726334Y-109439342D01*
X172615488Y-110108415D01*
X172358876Y-110251341D01*
X172070384Y-109852702D01*
X171972389Y-109541416D01*
X171949922Y-108424195D01*
X172326998Y-107217509D01*
X173019402Y-106146890D01*
X173367178Y-105806093D01*
X173971166Y-105361353D01*
X174555183Y-105151660D01*
X175351564Y-105118428D01*
X175955260Y-105153487D01*
G37*
G36*
X210172272Y-105196962D02*
G01*
X211330482Y-105798410D01*
X211362194Y-105824738D01*
X212214953Y-106856525D01*
X212692096Y-108104736D01*
X212715564Y-109359695D01*
X212702251Y-109424246D01*
X212456511Y-110100518D01*
X212194966Y-110251117D01*
X212012779Y-109874051D01*
X211980880Y-109439342D01*
X211729143Y-108382719D01*
X211063320Y-107572272D01*
X210117495Y-107073191D01*
X209025751Y-106950667D01*
X207922168Y-107269891D01*
X207737506Y-107376227D01*
X206643803Y-108374160D01*
X206004903Y-109678094D01*
X205828610Y-111228743D01*
X206122730Y-112966819D01*
X206784134Y-114618701D01*
X207467372Y-115884223D01*
X208265125Y-117234955D01*
X208845382Y-118138659D01*
X209403795Y-118989019D01*
X209803801Y-119649926D01*
X209960361Y-119980724D01*
X209960425Y-119982975D01*
X209738542Y-120322362D01*
X209243609Y-120705181D01*
X208731705Y-120944060D01*
X208625792Y-120959521D01*
X208335468Y-120736682D01*
X207827198Y-120131583D01*
X207187701Y-119252293D01*
X206838102Y-118731769D01*
X205776978Y-117054514D01*
X205021614Y-115692304D01*
X204522052Y-114505535D01*
X204228331Y-113354604D01*
X204090492Y-112099904D01*
X204059093Y-110966247D01*
X204062690Y-109698602D01*
X204116529Y-108847409D01*
X204257896Y-108251990D01*
X204524075Y-107751671D01*
X204929811Y-107213974D01*
X206097319Y-106096958D01*
X207438415Y-105371565D01*
X208835824Y-105063123D01*
X210172272Y-105196962D01*
G37*
G36*
X194703002Y-98898752D02*
G01*
X196532196Y-99611979D01*
X197022033Y-99836168D01*
X198166165Y-100418773D01*
X199139420Y-101002001D01*
X199797369Y-101495331D01*
X199962280Y-101678932D01*
X200298420Y-102333702D01*
X200726928Y-103358378D01*
X201196374Y-104604596D01*
X201655327Y-105923993D01*
X202052358Y-107168205D01*
X202336037Y-108188869D01*
X202454932Y-108837622D01*
X202455793Y-108872118D01*
X202294593Y-109389099D01*
X201798926Y-110238885D01*
X200950816Y-111448318D01*
X199732287Y-113044238D01*
X199266215Y-113634618D01*
X198085466Y-115139359D01*
X196900131Y-116682554D01*
X195812440Y-118128875D01*
X194924624Y-119342994D01*
X194530981Y-119902869D01*
X193820736Y-120879905D01*
X193247322Y-121555927D01*
X192878073Y-121856055D01*
X192789537Y-121839424D01*
X192389537Y-121648691D01*
X192076459Y-121686645D01*
X191763784Y-121651919D01*
X191344292Y-121329536D01*
X190758865Y-120657814D01*
X189948384Y-119575073D01*
X189643793Y-119148578D01*
X188719395Y-117876800D01*
X187567863Y-116340558D01*
X186327622Y-114722164D01*
X185137099Y-113203928D01*
X184989832Y-113019204D01*
X184016333Y-111761732D01*
X183199589Y-110631397D01*
X182601863Y-109720061D01*
X182285421Y-109119591D01*
X182251334Y-108978863D01*
X182352907Y-108412452D01*
X182624602Y-107458955D01*
X183016884Y-106255338D01*
X183480219Y-104938569D01*
X183965070Y-103645615D01*
X184421903Y-102513445D01*
X184801183Y-101679026D01*
X185026609Y-101305057D01*
X185463332Y-100992780D01*
X186295889Y-100531540D01*
X187387143Y-99994152D01*
X188141690Y-99651056D01*
X189998431Y-98929071D01*
X191600986Y-98560734D01*
X193114221Y-98549482D01*
X194703002Y-98898752D01*
G37*
G36*
X173556115Y-123355218D02*
G01*
X174256692Y-123696536D01*
X174595189Y-124070184D01*
X174640207Y-124649701D01*
X174460347Y-125608627D01*
X174455490Y-125630354D01*
X174296883Y-127460653D01*
X174655192Y-129080820D01*
X175493137Y-130442300D01*
X176773434Y-131496537D01*
X178458800Y-132194976D01*
X179673347Y-132425979D01*
X180521465Y-132503073D01*
X180944335Y-132444021D01*
X181086177Y-132207284D01*
X181096789Y-132016012D01*
X181255395Y-131450324D01*
X181636486Y-130773378D01*
X182097968Y-130193510D01*
X182497747Y-129919055D01*
X182528797Y-129916428D01*
X182731340Y-130168483D01*
X182925822Y-130788817D01*
X182953881Y-130926655D01*
X183152872Y-131626545D01*
X183478292Y-131886085D01*
X184045747Y-131732536D01*
X184728284Y-131345061D01*
X185828339Y-130380796D01*
X186599534Y-129130903D01*
X186923581Y-127788349D01*
X186924688Y-127761891D01*
X187163173Y-126801800D01*
X187778431Y-126270395D01*
X188403775Y-126164155D01*
X188707281Y-126422272D01*
X189019952Y-127082165D01*
X189284724Y-127972151D01*
X189444533Y-128920545D01*
X189467243Y-129363691D01*
X189232771Y-130119137D01*
X188604009Y-131037561D01*
X187692939Y-132004575D01*
X186611543Y-132905790D01*
X185471801Y-133626818D01*
X185131644Y-133792504D01*
X184186004Y-134240503D01*
X183673611Y-134574261D01*
X183490174Y-134890005D01*
X183528327Y-135271821D01*
X183451471Y-135938751D01*
X182902826Y-136390748D01*
X181981673Y-136555065D01*
X181546933Y-136426487D01*
X181392759Y-135938767D01*
X181385425Y-135691233D01*
X181342833Y-135139715D01*
X181104910Y-134902828D01*
X180506431Y-134863426D01*
X180230880Y-134872641D01*
X179419069Y-134947633D01*
X179133459Y-135158835D01*
X179324585Y-135613885D01*
X179674556Y-136083185D01*
X180433946Y-136681874D01*
X181457775Y-136850470D01*
X182783291Y-136587070D01*
X184447742Y-135889768D01*
X184560425Y-135833474D01*
X186096051Y-135168590D01*
X187352917Y-134847836D01*
X187713205Y-134823246D01*
X188441333Y-134844457D01*
X188716162Y-134990408D01*
X188661665Y-135384574D01*
X188564400Y-135671036D01*
X188050960Y-136435706D01*
X187497028Y-136690204D01*
X186896534Y-136915770D01*
X185977376Y-137365204D01*
X184908824Y-137953895D01*
X184573590Y-138151505D01*
X182857042Y-139026460D01*
X181365838Y-139430982D01*
X180010201Y-139378315D01*
X178905045Y-138987735D01*
X178137119Y-138387684D01*
X177428048Y-137475407D01*
X176924386Y-136474780D01*
X176767243Y-135722015D01*
X176865162Y-135311591D01*
X177263167Y-135129355D01*
X177849630Y-135087336D01*
X178438466Y-135065764D01*
X178577386Y-135014047D01*
X178228294Y-134897179D01*
X177425643Y-134697732D01*
X175497678Y-133953981D01*
X173919655Y-132760476D01*
X172732011Y-131154750D01*
X172154327Y-129804763D01*
X171967215Y-128786670D01*
X171912083Y-127457410D01*
X171978607Y-126037286D01*
X172156466Y-124746606D01*
X172435338Y-123805673D01*
X172435414Y-123805510D01*
X172753102Y-123281604D01*
X173136841Y-123205245D01*
X173556115Y-123355218D01*
G37*
G36*
X177673438Y-108535411D02*
G01*
X178224191Y-109215563D01*
X176482197Y-111029670D01*
X174908659Y-112923537D01*
X173868286Y-114739136D01*
X173349268Y-116438646D01*
X173339798Y-117984243D01*
X173828066Y-119338106D01*
X174802263Y-120462412D01*
X176250581Y-121319340D01*
X178161210Y-121871067D01*
X179927214Y-122063541D01*
X181604338Y-122079907D01*
X182822214Y-121933939D01*
X183682770Y-121598663D01*
X184287936Y-121047107D01*
X184407559Y-120877936D01*
X184719965Y-120105891D01*
X184587988Y-119559605D01*
X184116268Y-119286457D01*
X183409445Y-119333830D01*
X182572159Y-119749102D01*
X182329497Y-119936996D01*
X181497460Y-120637109D01*
X181084846Y-120009155D01*
X180275411Y-118386236D01*
X179982261Y-116816299D01*
X180200476Y-115365883D01*
X180925140Y-114101530D01*
X181566925Y-113486457D01*
X182395652Y-112834562D01*
X182644198Y-113885308D01*
X183012298Y-114752012D01*
X183565264Y-115376463D01*
X183582266Y-115387846D01*
X184091833Y-115872574D01*
X184280566Y-116311556D01*
X184330818Y-116595523D01*
X184520287Y-116382438D01*
X184603538Y-116242634D01*
X184770762Y-115578171D01*
X184763084Y-114607147D01*
X184736309Y-114378159D01*
X184657772Y-113740175D01*
X184669730Y-113410004D01*
X184822673Y-113422408D01*
X185167095Y-113812154D01*
X185753486Y-114614004D01*
X186388961Y-115516029D01*
X187036994Y-116453121D01*
X187377586Y-117008946D01*
X187441186Y-117270289D01*
X187258244Y-117323935D01*
X187010099Y-117286358D01*
X186467327Y-117277608D01*
X186295335Y-117606710D01*
X186292243Y-117704885D01*
X186395440Y-118267854D01*
X186757652Y-118825568D01*
X187457813Y-119462334D01*
X188574859Y-120262457D01*
X188873011Y-120461256D01*
X189928805Y-121206963D01*
X190710610Y-121918522D01*
X191261931Y-122701877D01*
X191626268Y-123662970D01*
X191847126Y-124907745D01*
X191968007Y-126542146D01*
X192020155Y-128125582D01*
X192012934Y-131142987D01*
X191823556Y-133669686D01*
X191437975Y-135767224D01*
X190842143Y-137497147D01*
X190022015Y-138921002D01*
X189380299Y-139692323D01*
X188093469Y-140741104D01*
X186710427Y-141338650D01*
X185332587Y-141469157D01*
X184061364Y-141116823D01*
X183351812Y-140631746D01*
X182422728Y-139801610D01*
X183570458Y-139216081D01*
X184637340Y-138825573D01*
X185504682Y-138780900D01*
X186504408Y-138698349D01*
X187422262Y-138088596D01*
X188227581Y-136999436D01*
X188889706Y-135478662D01*
X189377975Y-133574069D01*
X189549480Y-132475814D01*
X189724140Y-130025844D01*
X189582075Y-127991399D01*
X189127537Y-126396899D01*
X188364779Y-125266763D01*
X188280388Y-125187973D01*
X187352366Y-124356108D01*
X183422083Y-124555614D01*
X180389112Y-124597449D01*
X177833756Y-124380301D01*
X175711169Y-123890701D01*
X173976505Y-123115181D01*
X172584917Y-122040273D01*
X171754982Y-121051780D01*
X171278325Y-120271762D01*
X170991401Y-119472733D01*
X170829824Y-118435077D01*
X170772095Y-117699313D01*
X170725474Y-116464961D01*
X170800868Y-115556763D01*
X171036396Y-114729732D01*
X171347461Y-114001451D01*
X172254833Y-112454159D01*
X173515256Y-110867602D01*
X174956530Y-109441996D01*
X175912065Y-108694219D01*
X177122684Y-107855259D01*
X177673438Y-108535411D01*
G37*
G36*
X208476262Y-108522181D02*
G01*
X209396008Y-109158410D01*
X210396824Y-110030371D01*
X211395830Y-111058692D01*
X212310144Y-112163999D01*
X213056886Y-113266919D01*
X213553176Y-114288080D01*
X213584057Y-114377264D01*
X213948734Y-116123660D01*
X213956711Y-117935551D01*
X213625523Y-119629510D01*
X212972708Y-121022107D01*
X212944931Y-121062167D01*
X212019826Y-122188047D01*
X210964252Y-123061595D01*
X209699755Y-123708631D01*
X208147885Y-124154975D01*
X206230188Y-124426450D01*
X203868212Y-124548875D01*
X202311561Y-124561921D01*
X200878723Y-124563117D01*
X199792879Y-124575182D01*
X199114559Y-124596403D01*
X198904294Y-124625069D01*
X199115738Y-124652356D01*
X199829240Y-124741994D01*
X200453213Y-124942838D01*
X201127177Y-125330059D01*
X201990653Y-125978828D01*
X202779603Y-126626375D01*
X203728235Y-127471139D01*
X204689608Y-128417312D01*
X205583582Y-129373612D01*
X206330015Y-130248760D01*
X206848768Y-130951477D01*
X207059702Y-131390483D01*
X207036443Y-131474926D01*
X206727957Y-131669805D01*
X206352470Y-131885538D01*
X205981824Y-132140131D01*
X206044419Y-132219963D01*
X206429963Y-132144737D01*
X207028168Y-131934159D01*
X207635549Y-131656299D01*
X209015006Y-130694118D01*
X209919694Y-129445607D01*
X210356916Y-127889535D01*
X210333974Y-126004672D01*
X210071389Y-124574790D01*
X210144213Y-124042796D01*
X210696523Y-123546960D01*
X210813279Y-123475736D01*
X211468587Y-123171718D01*
X211924807Y-123105985D01*
X211961873Y-123121727D01*
X212231495Y-123551975D01*
X212478142Y-124400048D01*
X212674905Y-125506513D01*
X212794871Y-126711937D01*
X212811131Y-127856885D01*
X212798566Y-128078671D01*
X212409595Y-130189241D01*
X211586718Y-131924721D01*
X210348497Y-133268514D01*
X208713492Y-134204021D01*
X206700267Y-134714645D01*
X205270084Y-134810577D01*
X203321789Y-134823246D01*
X203321789Y-135689155D01*
X203222300Y-136312224D01*
X202861140Y-136541585D01*
X202144265Y-136411973D01*
X201746422Y-136271041D01*
X201215539Y-135957238D01*
X201134494Y-135478711D01*
X201174831Y-135287982D01*
X201217015Y-134890824D01*
X201037609Y-134575850D01*
X200532171Y-134245394D01*
X199596256Y-133801792D01*
X199575569Y-133792504D01*
X198440262Y-133148720D01*
X197329343Y-132290061D01*
X196354793Y-131330915D01*
X195628594Y-130385672D01*
X195262727Y-129568720D01*
X195239970Y-129363691D01*
X195325764Y-128450568D01*
X195545100Y-127509869D01*
X195840915Y-126713279D01*
X196156145Y-126232481D01*
X196303439Y-126164155D01*
X197196246Y-126392810D01*
X197716218Y-127050622D01*
X197837698Y-127799901D01*
X198102518Y-129093161D01*
X198823789Y-130317001D01*
X199891726Y-131289655D01*
X199978929Y-131345061D01*
X200814499Y-131801000D01*
X201318138Y-131865048D01*
X201605450Y-131509945D01*
X201753332Y-130926655D01*
X201937016Y-130260830D01*
X202144505Y-129925865D01*
X202178416Y-129916428D01*
X202558282Y-130146888D01*
X203020164Y-130698901D01*
X203418698Y-131363416D01*
X203608518Y-131931381D01*
X203610425Y-131975808D01*
X203721235Y-132333830D01*
X204152377Y-132471654D01*
X204692811Y-132474848D01*
X205232573Y-132425896D01*
X205301196Y-132349689D01*
X205186928Y-132318470D01*
X204678704Y-132035525D01*
X204020085Y-131439169D01*
X203621828Y-130986754D01*
X201949541Y-129220664D01*
X199997945Y-127668957D01*
X198098845Y-126560404D01*
X197229435Y-126121837D01*
X196615355Y-125763057D01*
X196394516Y-125568725D01*
X196622629Y-125320288D01*
X197043948Y-125073253D01*
X197395040Y-124839879D01*
X197310381Y-124740509D01*
X196875724Y-124917877D01*
X196272978Y-125382737D01*
X196110582Y-125537775D01*
X195449522Y-126585298D01*
X195068193Y-128107652D01*
X194972301Y-130071577D01*
X195069305Y-131605119D01*
X195410481Y-133869244D01*
X195931417Y-135758137D01*
X196608846Y-137229893D01*
X197419503Y-138242610D01*
X198340122Y-138754384D01*
X199058094Y-138789138D01*
X200250430Y-138878566D01*
X201143478Y-139224179D01*
X202284486Y-139801610D01*
X201355402Y-140631746D01*
X200214701Y-141282664D01*
X198852782Y-141466807D01*
X197405889Y-141170679D01*
X197116107Y-141051651D01*
X196366255Y-140590739D01*
X195552024Y-139913699D01*
X195330015Y-139691926D01*
X194324488Y-138345705D01*
X193566628Y-136668576D01*
X193045434Y-134612008D01*
X192749905Y-132127476D01*
X192669040Y-129166452D01*
X192688552Y-128040292D01*
X192763760Y-126077078D01*
X192899259Y-124582947D01*
X193140440Y-123449901D01*
X193532696Y-122569942D01*
X194121417Y-121835072D01*
X194951995Y-121137294D01*
X195852572Y-120512260D01*
X197081763Y-119641150D01*
X197867329Y-118933612D01*
X198286065Y-118303406D01*
X198414767Y-117664290D01*
X198414970Y-117634694D01*
X198248277Y-117283306D01*
X197837698Y-117300060D01*
X197375585Y-117355613D01*
X197260425Y-117288788D01*
X197410234Y-116993251D01*
X197797956Y-116374007D01*
X198331036Y-115566880D01*
X198916917Y-114707696D01*
X199463043Y-113932278D01*
X199876860Y-113376451D01*
X200063360Y-113175519D01*
X200090451Y-113432075D01*
X200043945Y-114085370D01*
X199990854Y-114546542D01*
X199937686Y-115581741D01*
X200122768Y-116271721D01*
X200270258Y-116494837D01*
X200581595Y-116860882D01*
X200614771Y-116771831D01*
X200540891Y-116544377D01*
X200589957Y-115995777D01*
X201123232Y-115319886D01*
X201261773Y-115189625D01*
X201946571Y-114350517D01*
X202167243Y-113614589D01*
X202224745Y-113099637D01*
X202484981Y-113051325D01*
X202724443Y-113164777D01*
X203527369Y-113853778D01*
X204210439Y-114897945D01*
X204637301Y-116075406D01*
X204687205Y-116358587D01*
X204605759Y-117873051D01*
X203983794Y-119491152D01*
X203668538Y-120029166D01*
X203257318Y-120677132D01*
X202401498Y-119957007D01*
X201446662Y-119357649D01*
X200660369Y-119305228D01*
X200147988Y-119668392D01*
X199953072Y-120089605D01*
X200131908Y-120610053D01*
X200272059Y-120835821D01*
X200863807Y-121482979D01*
X201692156Y-121885560D01*
X202875755Y-122084016D01*
X204047963Y-122123246D01*
X206391189Y-121972468D01*
X208263795Y-121522297D01*
X209653183Y-120775977D01*
X209821239Y-120636839D01*
X210826086Y-119409641D01*
X211317644Y-117977294D01*
X211302932Y-116384696D01*
X210788968Y-114676745D01*
X209782774Y-112898339D01*
X208336812Y-111141839D01*
X207429756Y-110127264D01*
X206939391Y-109388853D01*
X206832263Y-108841368D01*
X207074920Y-108399565D01*
X207211500Y-108274410D01*
X207720466Y-108201057D01*
X208476262Y-108522181D01*
G37*
%TD*%
D10*
%TO.C,*%
X52800362Y-107029695D03*
%TD*%
D11*
%TO.C,*%
X215916124Y-140367223D03*
%TD*%
D10*
%TO.C,*%
X331406846Y-107029695D03*
%TD*%
D11*
%TO.C,*%
X168291084Y-55237464D03*
%TD*%
%TO.C,*%
X68278500Y-69524976D03*
%TD*%
%TO.C,*%
X315928708Y-126675024D03*
%TD*%
%TO.C,*%
X315928708Y-69524976D03*
%TD*%
%TO.C,*%
X215916124Y-55237464D03*
%TD*%
%TO.C,*%
X168291084Y-140367223D03*
%TD*%
%TO.C,*%
X177816092Y-98100000D03*
%TD*%
D12*
%TO.C,S41*%
X130225000Y-116675000D03*
X130225000Y-116675000D03*
D13*
X130645000Y-116675000D03*
X130645000Y-116675000D03*
D14*
X135725000Y-116675000D03*
X135725000Y-116675000D03*
D13*
X140805000Y-116675000D03*
X140805000Y-116675000D03*
D12*
X141225000Y-116675000D03*
X141225000Y-116675000D03*
D15*
X130725000Y-120475000D03*
D16*
X138244771Y-111884984D03*
D17*
X138265000Y-111595000D03*
D18*
X132569995Y-113404996D03*
D17*
X133225000Y-112675000D03*
D15*
X135725000Y-122575000D03*
%TD*%
D12*
%TO.C,S39*%
X92125000Y-116675000D03*
X92125000Y-116675000D03*
D13*
X92545000Y-116675000D03*
X92545000Y-116675000D03*
D14*
X97625000Y-116675000D03*
X97625000Y-116675000D03*
D13*
X102705000Y-116675000D03*
X102705000Y-116675000D03*
D12*
X103125000Y-116675000D03*
X103125000Y-116675000D03*
D15*
X92625000Y-120475000D03*
D16*
X100144771Y-111884984D03*
D17*
X100165000Y-111595000D03*
D18*
X94469995Y-113404996D03*
D17*
X95125000Y-112675000D03*
D15*
X97625000Y-122575000D03*
%TD*%
D12*
%TO.C,S9*%
X262541092Y-59525000D03*
X262541092Y-59525000D03*
D13*
X262961092Y-59525000D03*
X262961092Y-59525000D03*
D14*
X268041092Y-59525000D03*
X268041092Y-59525000D03*
D13*
X273121092Y-59525000D03*
X273121092Y-59525000D03*
D12*
X273541092Y-59525000D03*
X273541092Y-59525000D03*
D15*
X263041092Y-63325000D03*
D16*
X270560863Y-54734984D03*
D17*
X270581092Y-54445000D03*
D18*
X264886087Y-56254996D03*
D17*
X265541092Y-55525000D03*
D15*
X268041092Y-65425000D03*
%TD*%
D12*
%TO.C,S48*%
X319691092Y-116675000D03*
X319691092Y-116675000D03*
D13*
X320111092Y-116675000D03*
X320111092Y-116675000D03*
D14*
X325191092Y-116675000D03*
X325191092Y-116675000D03*
D13*
X330271092Y-116675000D03*
X330271092Y-116675000D03*
D12*
X330691092Y-116675000D03*
X330691092Y-116675000D03*
D15*
X320191092Y-120475000D03*
D16*
X327710863Y-111884984D03*
D17*
X327731092Y-111595000D03*
D18*
X322036087Y-113404996D03*
D17*
X322691092Y-112675000D03*
D15*
X325191092Y-122575000D03*
%TD*%
D12*
%TO.C,S58*%
X281591092Y-135725000D03*
X281591092Y-135725000D03*
D13*
X282011092Y-135725000D03*
X282011092Y-135725000D03*
D14*
X287091092Y-135725000D03*
X287091092Y-135725000D03*
D13*
X292171092Y-135725000D03*
X292171092Y-135725000D03*
D12*
X292591092Y-135725000D03*
X292591092Y-135725000D03*
D15*
X282091092Y-139525000D03*
D16*
X289610863Y-130934984D03*
D17*
X289631092Y-130645000D03*
D18*
X283936087Y-132454996D03*
D17*
X284591092Y-131725000D03*
D15*
X287091092Y-141625000D03*
%TD*%
D12*
%TO.C,S33*%
X262541092Y-97625000D03*
X262541092Y-97625000D03*
D13*
X262961092Y-97625000D03*
X262961092Y-97625000D03*
D14*
X268041092Y-97625000D03*
X268041092Y-97625000D03*
D13*
X273121092Y-97625000D03*
X273121092Y-97625000D03*
D12*
X273541092Y-97625000D03*
X273541092Y-97625000D03*
D15*
X263041092Y-101425000D03*
D16*
X270560863Y-92834984D03*
D17*
X270581092Y-92545000D03*
D18*
X264886087Y-94354996D03*
D17*
X265541092Y-93625000D03*
D15*
X268041092Y-103525000D03*
%TD*%
D12*
%TO.C,S1*%
X54025000Y-59525000D03*
X54025000Y-59525000D03*
D13*
X54445000Y-59525000D03*
X54445000Y-59525000D03*
D14*
X59525000Y-59525000D03*
X59525000Y-59525000D03*
D13*
X64605000Y-59525000D03*
X64605000Y-59525000D03*
D12*
X65025000Y-59525000D03*
X65025000Y-59525000D03*
D15*
X54525000Y-63325000D03*
D16*
X62044771Y-54734984D03*
D17*
X62065000Y-54445000D03*
D18*
X56369995Y-56254996D03*
D17*
X57025000Y-55525000D03*
D15*
X59525000Y-65425000D03*
%TD*%
D12*
%TO.C,S2*%
X73075000Y-59525000D03*
X73075000Y-59525000D03*
D13*
X73495000Y-59525000D03*
X73495000Y-59525000D03*
D14*
X78575000Y-59525000D03*
X78575000Y-59525000D03*
D13*
X83655000Y-59525000D03*
X83655000Y-59525000D03*
D12*
X84075000Y-59525000D03*
X84075000Y-59525000D03*
D15*
X73575000Y-63325000D03*
D16*
X81094771Y-54734984D03*
D17*
X81115000Y-54445000D03*
D18*
X75419995Y-56254996D03*
D17*
X76075000Y-55525000D03*
D15*
X78575000Y-65425000D03*
%TD*%
D12*
%TO.C,S57*%
X262541092Y-135725000D03*
X262541092Y-135725000D03*
D13*
X262961092Y-135725000D03*
X262961092Y-135725000D03*
D14*
X268041092Y-135725000D03*
X268041092Y-135725000D03*
D13*
X273121092Y-135725000D03*
X273121092Y-135725000D03*
D12*
X273541092Y-135725000D03*
X273541092Y-135725000D03*
D15*
X263041092Y-139525000D03*
D16*
X270560863Y-130934984D03*
D17*
X270581092Y-130645000D03*
D18*
X264886087Y-132454996D03*
D17*
X265541092Y-131725000D03*
D15*
X268041092Y-141625000D03*
%TD*%
D12*
%TO.C,S32*%
X243491092Y-97625000D03*
X243491092Y-97625000D03*
D13*
X243911092Y-97625000D03*
X243911092Y-97625000D03*
D14*
X248991092Y-97625000D03*
X248991092Y-97625000D03*
D13*
X254071092Y-97625000D03*
X254071092Y-97625000D03*
D12*
X254491092Y-97625000D03*
X254491092Y-97625000D03*
D15*
X243991092Y-101425000D03*
D16*
X251510863Y-92834984D03*
D17*
X251531092Y-92545000D03*
D18*
X245836087Y-94354996D03*
D17*
X246491092Y-93625000D03*
D15*
X248991092Y-103525000D03*
%TD*%
D12*
%TO.C,S60*%
X319691092Y-135725000D03*
X319691092Y-135725000D03*
D13*
X320111092Y-135725000D03*
X320111092Y-135725000D03*
D14*
X325191092Y-135725000D03*
X325191092Y-135725000D03*
D13*
X330271092Y-135725000D03*
X330271092Y-135725000D03*
D12*
X330691092Y-135725000D03*
X330691092Y-135725000D03*
D15*
X320191092Y-139525000D03*
D16*
X327710863Y-130934984D03*
D17*
X327731092Y-130645000D03*
D18*
X322036087Y-132454996D03*
D17*
X322691092Y-131725000D03*
D15*
X325191092Y-141625000D03*
%TD*%
D12*
%TO.C,S8*%
X243491092Y-59525000D03*
X243491092Y-59525000D03*
D13*
X243911092Y-59525000D03*
X243911092Y-59525000D03*
D14*
X248991092Y-59525000D03*
X248991092Y-59525000D03*
D13*
X254071092Y-59525000D03*
X254071092Y-59525000D03*
D12*
X254491092Y-59525000D03*
X254491092Y-59525000D03*
D15*
X243991092Y-63325000D03*
D16*
X251510863Y-54734984D03*
D17*
X251531092Y-54445000D03*
D18*
X245836087Y-56254996D03*
D17*
X246491092Y-55525000D03*
D15*
X248991092Y-65425000D03*
%TD*%
D12*
%TO.C,S30*%
X149275000Y-97625000D03*
X149275000Y-97625000D03*
D13*
X149695000Y-97625000D03*
X149695000Y-97625000D03*
D14*
X154775000Y-97625000D03*
X154775000Y-97625000D03*
D13*
X159855000Y-97625000D03*
X159855000Y-97625000D03*
D12*
X160275000Y-97625000D03*
X160275000Y-97625000D03*
D15*
X149775000Y-101425000D03*
D16*
X157294771Y-92834984D03*
D17*
X157315000Y-92545000D03*
D18*
X151619995Y-94354996D03*
D17*
X152275000Y-93625000D03*
D15*
X154775000Y-103525000D03*
%TD*%
D12*
%TO.C,S14*%
X73075000Y-78575000D03*
X73075000Y-78575000D03*
D13*
X73495000Y-78575000D03*
X73495000Y-78575000D03*
D14*
X78575000Y-78575000D03*
X78575000Y-78575000D03*
D13*
X83655000Y-78575000D03*
X83655000Y-78575000D03*
D12*
X84075000Y-78575000D03*
X84075000Y-78575000D03*
D15*
X73575000Y-82375000D03*
D16*
X81094771Y-73784984D03*
D17*
X81115000Y-73495000D03*
D18*
X75419995Y-75304996D03*
D17*
X76075000Y-74575000D03*
D15*
X78575000Y-84475000D03*
%TD*%
D12*
%TO.C,S28*%
X111175000Y-97625000D03*
X111175000Y-97625000D03*
D13*
X111595000Y-97625000D03*
X111595000Y-97625000D03*
D14*
X116675000Y-97625000D03*
X116675000Y-97625000D03*
D13*
X121755000Y-97625000D03*
X121755000Y-97625000D03*
D12*
X122175000Y-97625000D03*
X122175000Y-97625000D03*
D15*
X111675000Y-101425000D03*
D16*
X119194771Y-92834984D03*
D17*
X119215000Y-92545000D03*
D18*
X113519995Y-94354996D03*
D17*
X114175000Y-93625000D03*
D15*
X116675000Y-103525000D03*
%TD*%
D12*
%TO.C,S53*%
X130225000Y-135725000D03*
X130225000Y-135725000D03*
D13*
X130645000Y-135725000D03*
X130645000Y-135725000D03*
D14*
X135725000Y-135725000D03*
X135725000Y-135725000D03*
D13*
X140805000Y-135725000D03*
X140805000Y-135725000D03*
D12*
X141225000Y-135725000D03*
X141225000Y-135725000D03*
D15*
X130725000Y-139525000D03*
D16*
X138244771Y-130934984D03*
D17*
X138265000Y-130645000D03*
D18*
X132569995Y-132454996D03*
D17*
X133225000Y-131725000D03*
D15*
X135725000Y-141625000D03*
%TD*%
D12*
%TO.C,S50*%
X73075000Y-135725000D03*
X73075000Y-135725000D03*
D13*
X73495000Y-135725000D03*
X73495000Y-135725000D03*
D14*
X78575000Y-135725000D03*
X78575000Y-135725000D03*
D13*
X83655000Y-135725000D03*
X83655000Y-135725000D03*
D12*
X84075000Y-135725000D03*
X84075000Y-135725000D03*
D15*
X73575000Y-139525000D03*
D16*
X81094771Y-130934984D03*
D17*
X81115000Y-130645000D03*
D18*
X75419995Y-132454996D03*
D17*
X76075000Y-131725000D03*
D15*
X78575000Y-141625000D03*
%TD*%
D12*
%TO.C,S42*%
X149275000Y-116675000D03*
X149275000Y-116675000D03*
D13*
X149695000Y-116675000D03*
X149695000Y-116675000D03*
D14*
X154775000Y-116675000D03*
X154775000Y-116675000D03*
D13*
X159855000Y-116675000D03*
X159855000Y-116675000D03*
D12*
X160275000Y-116675000D03*
X160275000Y-116675000D03*
D15*
X149775000Y-120475000D03*
D16*
X157294771Y-111884984D03*
D17*
X157315000Y-111595000D03*
D18*
X151619995Y-113404996D03*
D17*
X152275000Y-112675000D03*
D15*
X154775000Y-122575000D03*
%TD*%
D12*
%TO.C,S22*%
X281591092Y-78575000D03*
X281591092Y-78575000D03*
D13*
X282011092Y-78575000D03*
X282011092Y-78575000D03*
D14*
X287091092Y-78575000D03*
X287091092Y-78575000D03*
D13*
X292171092Y-78575000D03*
X292171092Y-78575000D03*
D12*
X292591092Y-78575000D03*
X292591092Y-78575000D03*
D15*
X282091092Y-82375000D03*
D16*
X289610863Y-73784984D03*
D17*
X289631092Y-73495000D03*
D18*
X283936087Y-75304996D03*
D17*
X284591092Y-74575000D03*
D15*
X287091092Y-84475000D03*
%TD*%
D12*
%TO.C,S20*%
X243618092Y-78575000D03*
X243618092Y-78575000D03*
D13*
X244038092Y-78575000D03*
X244038092Y-78575000D03*
D14*
X249118092Y-78575000D03*
X249118092Y-78575000D03*
D13*
X254198092Y-78575000D03*
X254198092Y-78575000D03*
D12*
X254618092Y-78575000D03*
X254618092Y-78575000D03*
D15*
X244118092Y-82375000D03*
D16*
X251637863Y-73784984D03*
D17*
X251658092Y-73495000D03*
D18*
X245963087Y-75304996D03*
D17*
X246618092Y-74575000D03*
D15*
X249118092Y-84475000D03*
%TD*%
%TO.C,J4*%
X177786092Y-75275000D03*
X175246092Y-75275000D03*
%TD*%
D12*
%TO.C,S49*%
X54025000Y-135725000D03*
X54025000Y-135725000D03*
D13*
X54445000Y-135725000D03*
X54445000Y-135725000D03*
D14*
X59525000Y-135725000D03*
X59525000Y-135725000D03*
D13*
X64605000Y-135725000D03*
X64605000Y-135725000D03*
D12*
X65025000Y-135725000D03*
X65025000Y-135725000D03*
D15*
X54525000Y-139525000D03*
D16*
X62044771Y-130934984D03*
D17*
X62065000Y-130645000D03*
D18*
X56369995Y-132454996D03*
D17*
X57025000Y-131725000D03*
D15*
X59525000Y-141625000D03*
%TD*%
D12*
%TO.C,S45*%
X262541092Y-116675000D03*
X262541092Y-116675000D03*
D13*
X262961092Y-116675000D03*
X262961092Y-116675000D03*
D14*
X268041092Y-116675000D03*
X268041092Y-116675000D03*
D13*
X273121092Y-116675000D03*
X273121092Y-116675000D03*
D12*
X273541092Y-116675000D03*
X273541092Y-116675000D03*
D15*
X263041092Y-120475000D03*
D16*
X270560863Y-111884984D03*
D17*
X270581092Y-111595000D03*
D18*
X264886087Y-113404996D03*
D17*
X265541092Y-112675000D03*
D15*
X268041092Y-122575000D03*
%TD*%
D12*
%TO.C,S44*%
X243491092Y-116675000D03*
X243491092Y-116675000D03*
D13*
X243911092Y-116675000D03*
X243911092Y-116675000D03*
D14*
X248991092Y-116675000D03*
X248991092Y-116675000D03*
D13*
X254071092Y-116675000D03*
X254071092Y-116675000D03*
D12*
X254491092Y-116675000D03*
X254491092Y-116675000D03*
D15*
X243991092Y-120475000D03*
D16*
X251510863Y-111884984D03*
D17*
X251531092Y-111595000D03*
D18*
X245836087Y-113404996D03*
D17*
X246491092Y-112675000D03*
D15*
X248991092Y-122575000D03*
%TD*%
D12*
%TO.C,S23*%
X300641092Y-78575000D03*
X300641092Y-78575000D03*
D13*
X301061092Y-78575000D03*
X301061092Y-78575000D03*
D14*
X306141092Y-78575000D03*
X306141092Y-78575000D03*
D13*
X311221092Y-78575000D03*
X311221092Y-78575000D03*
D12*
X311641092Y-78575000D03*
X311641092Y-78575000D03*
D15*
X301141092Y-82375000D03*
D16*
X308660863Y-73784984D03*
D17*
X308681092Y-73495000D03*
D18*
X302986087Y-75304996D03*
D17*
X303641092Y-74575000D03*
D15*
X306141092Y-84475000D03*
%TD*%
D12*
%TO.C,S55*%
X224441092Y-135725000D03*
X224441092Y-135725000D03*
D13*
X224861092Y-135725000D03*
X224861092Y-135725000D03*
D14*
X229941092Y-135725000D03*
X229941092Y-135725000D03*
D13*
X235021092Y-135725000D03*
X235021092Y-135725000D03*
D12*
X235441092Y-135725000D03*
X235441092Y-135725000D03*
D15*
X224941092Y-139525000D03*
D16*
X232460863Y-130934984D03*
D17*
X232481092Y-130645000D03*
D18*
X226786087Y-132454996D03*
D17*
X227441092Y-131725000D03*
D15*
X229941092Y-141625000D03*
%TD*%
D12*
%TO.C,S18*%
X149275000Y-78575000D03*
X149275000Y-78575000D03*
D13*
X149695000Y-78575000D03*
X149695000Y-78575000D03*
D14*
X154775000Y-78575000D03*
X154775000Y-78575000D03*
D13*
X159855000Y-78575000D03*
X159855000Y-78575000D03*
D12*
X160275000Y-78575000D03*
X160275000Y-78575000D03*
D15*
X149775000Y-82375000D03*
D16*
X157294771Y-73784984D03*
D17*
X157315000Y-73495000D03*
D18*
X151619995Y-75304996D03*
D17*
X152275000Y-74575000D03*
D15*
X154775000Y-84475000D03*
%TD*%
D14*
%TO.C,S61*%
X133185000Y-127343000D03*
D19*
X133185000Y-142583000D03*
D14*
X145123000Y-135598000D03*
X157061000Y-127343000D03*
D19*
X157061000Y-142583000D03*
D20*
X147663000Y-130518000D03*
X141313000Y-133058000D03*
%TD*%
D12*
%TO.C,S13*%
X54025000Y-78575000D03*
X54025000Y-78575000D03*
D13*
X54445000Y-78575000D03*
X54445000Y-78575000D03*
D14*
X59525000Y-78575000D03*
X59525000Y-78575000D03*
D13*
X64605000Y-78575000D03*
X64605000Y-78575000D03*
D12*
X65025000Y-78575000D03*
X65025000Y-78575000D03*
D15*
X54525000Y-82375000D03*
D16*
X62044771Y-73784984D03*
D17*
X62065000Y-73495000D03*
D18*
X56369995Y-75304996D03*
D17*
X57025000Y-74575000D03*
D15*
X59525000Y-84475000D03*
%TD*%
D12*
%TO.C,S15*%
X92125000Y-78575000D03*
X92125000Y-78575000D03*
D13*
X92545000Y-78575000D03*
X92545000Y-78575000D03*
D14*
X97625000Y-78575000D03*
X97625000Y-78575000D03*
D13*
X102705000Y-78575000D03*
X102705000Y-78575000D03*
D12*
X103125000Y-78575000D03*
X103125000Y-78575000D03*
D15*
X92625000Y-82375000D03*
D16*
X100144771Y-73784984D03*
D17*
X100165000Y-73495000D03*
D18*
X94469995Y-75304996D03*
D17*
X95125000Y-74575000D03*
D15*
X97625000Y-84475000D03*
%TD*%
D12*
%TO.C,S38*%
X73075000Y-116675000D03*
X73075000Y-116675000D03*
D13*
X73495000Y-116675000D03*
X73495000Y-116675000D03*
D14*
X78575000Y-116675000D03*
X78575000Y-116675000D03*
D13*
X83655000Y-116675000D03*
X83655000Y-116675000D03*
D12*
X84075000Y-116675000D03*
X84075000Y-116675000D03*
D15*
X73575000Y-120475000D03*
D16*
X81094771Y-111884984D03*
D17*
X81115000Y-111595000D03*
D18*
X75419995Y-113404996D03*
D17*
X76075000Y-112675000D03*
D15*
X78575000Y-122575000D03*
%TD*%
D12*
%TO.C,S11*%
X300641092Y-59525000D03*
X300641092Y-59525000D03*
D13*
X301061092Y-59525000D03*
X301061092Y-59525000D03*
D14*
X306141092Y-59525000D03*
X306141092Y-59525000D03*
D13*
X311221092Y-59525000D03*
X311221092Y-59525000D03*
D12*
X311641092Y-59525000D03*
X311641092Y-59525000D03*
D15*
X301141092Y-63325000D03*
D16*
X308660863Y-54734984D03*
D17*
X308681092Y-54445000D03*
D18*
X302986087Y-56254996D03*
D17*
X303641092Y-55525000D03*
D15*
X306141092Y-65425000D03*
%TD*%
D12*
%TO.C,S26*%
X73075000Y-97625000D03*
X73075000Y-97625000D03*
D13*
X73495000Y-97625000D03*
X73495000Y-97625000D03*
D14*
X78575000Y-97625000D03*
X78575000Y-97625000D03*
D13*
X83655000Y-97625000D03*
X83655000Y-97625000D03*
D12*
X84075000Y-97625000D03*
X84075000Y-97625000D03*
D15*
X73575000Y-101425000D03*
D16*
X81094771Y-92834984D03*
D17*
X81115000Y-92545000D03*
D18*
X75419995Y-94354996D03*
D17*
X76075000Y-93625000D03*
D15*
X78575000Y-103525000D03*
%TD*%
D12*
%TO.C,S12*%
X319691092Y-59525000D03*
X319691092Y-59525000D03*
D13*
X320111092Y-59525000D03*
X320111092Y-59525000D03*
D14*
X325191092Y-59525000D03*
X325191092Y-59525000D03*
D13*
X330271092Y-59525000D03*
X330271092Y-59525000D03*
D12*
X330691092Y-59525000D03*
X330691092Y-59525000D03*
D15*
X320191092Y-63325000D03*
D16*
X327710863Y-54734984D03*
D17*
X327731092Y-54445000D03*
D18*
X322036087Y-56254996D03*
D17*
X322691092Y-55525000D03*
D15*
X325191092Y-65425000D03*
%TD*%
D12*
%TO.C,S25*%
X54025000Y-97625000D03*
X54025000Y-97625000D03*
D13*
X54445000Y-97625000D03*
X54445000Y-97625000D03*
D14*
X59525000Y-97625000D03*
X59525000Y-97625000D03*
D13*
X64605000Y-97625000D03*
X64605000Y-97625000D03*
D12*
X65025000Y-97625000D03*
X65025000Y-97625000D03*
D15*
X54525000Y-101425000D03*
D16*
X62044771Y-92834984D03*
D17*
X62065000Y-92545000D03*
D18*
X56369995Y-94354996D03*
D17*
X57025000Y-93625000D03*
D15*
X59525000Y-103525000D03*
%TD*%
D14*
%TO.C,S62*%
X227655092Y-127343000D03*
D19*
X227655092Y-142583000D03*
D14*
X239593092Y-135598000D03*
X251531092Y-127343000D03*
D19*
X251531092Y-142583000D03*
D20*
X242133092Y-130518000D03*
X235783092Y-133058000D03*
%TD*%
D12*
%TO.C,S6*%
X149275000Y-59525000D03*
X149275000Y-59525000D03*
D13*
X149695000Y-59525000D03*
X149695000Y-59525000D03*
D14*
X154775000Y-59525000D03*
X154775000Y-59525000D03*
D13*
X159855000Y-59525000D03*
X159855000Y-59525000D03*
D12*
X160275000Y-59525000D03*
X160275000Y-59525000D03*
D15*
X149775000Y-63325000D03*
D16*
X157294771Y-54734984D03*
D17*
X157315000Y-54445000D03*
D18*
X151619995Y-56254996D03*
D17*
X152275000Y-55525000D03*
D15*
X154775000Y-65425000D03*
%TD*%
D12*
%TO.C,S52*%
X111175000Y-135725000D03*
X111175000Y-135725000D03*
D13*
X111595000Y-135725000D03*
X111595000Y-135725000D03*
D14*
X116675000Y-135725000D03*
X116675000Y-135725000D03*
D13*
X121755000Y-135725000D03*
X121755000Y-135725000D03*
D12*
X122175000Y-135725000D03*
X122175000Y-135725000D03*
D15*
X111675000Y-139525000D03*
D16*
X119194771Y-130934984D03*
D17*
X119215000Y-130645000D03*
D18*
X113519995Y-132454996D03*
D17*
X114175000Y-131725000D03*
D15*
X116675000Y-141625000D03*
%TD*%
D21*
%TO.C,SW1*%
X180841092Y-58775000D03*
X180841092Y-55075000D03*
X174641092Y-58775000D03*
X174641092Y-55075000D03*
%TD*%
D12*
%TO.C,S36*%
X319691092Y-97625000D03*
X319691092Y-97625000D03*
D13*
X320111092Y-97625000D03*
X320111092Y-97625000D03*
D14*
X325191092Y-97625000D03*
X325191092Y-97625000D03*
D13*
X330271092Y-97625000D03*
X330271092Y-97625000D03*
D12*
X330691092Y-97625000D03*
X330691092Y-97625000D03*
D15*
X320191092Y-101425000D03*
D16*
X327710863Y-92834984D03*
D17*
X327731092Y-92545000D03*
D18*
X322036087Y-94354996D03*
D17*
X322691092Y-93625000D03*
D15*
X325191092Y-103525000D03*
%TD*%
D12*
%TO.C,S27*%
X92125000Y-97625000D03*
X92125000Y-97625000D03*
D13*
X92545000Y-97625000D03*
X92545000Y-97625000D03*
D14*
X97625000Y-97625000D03*
X97625000Y-97625000D03*
D13*
X102705000Y-97625000D03*
X102705000Y-97625000D03*
D12*
X103125000Y-97625000D03*
X103125000Y-97625000D03*
D15*
X92625000Y-101425000D03*
D16*
X100144771Y-92834984D03*
D17*
X100165000Y-92545000D03*
D18*
X94469995Y-94354996D03*
D17*
X95125000Y-93625000D03*
D15*
X97625000Y-103525000D03*
%TD*%
D12*
%TO.C,S59*%
X300641092Y-135725000D03*
X300641092Y-135725000D03*
D13*
X301061092Y-135725000D03*
X301061092Y-135725000D03*
D14*
X306141092Y-135725000D03*
X306141092Y-135725000D03*
D13*
X311221092Y-135725000D03*
X311221092Y-135725000D03*
D12*
X311641092Y-135725000D03*
X311641092Y-135725000D03*
D15*
X301141092Y-139525000D03*
D16*
X308660863Y-130934984D03*
D17*
X308681092Y-130645000D03*
D18*
X302986087Y-132454996D03*
D17*
X303641092Y-131725000D03*
D15*
X306141092Y-141625000D03*
%TD*%
D12*
%TO.C,S43*%
X224441092Y-116675000D03*
X224441092Y-116675000D03*
D13*
X224861092Y-116675000D03*
X224861092Y-116675000D03*
D14*
X229941092Y-116675000D03*
X229941092Y-116675000D03*
D13*
X235021092Y-116675000D03*
X235021092Y-116675000D03*
D12*
X235441092Y-116675000D03*
X235441092Y-116675000D03*
D15*
X224941092Y-120475000D03*
D16*
X232460863Y-111884984D03*
D17*
X232481092Y-111595000D03*
D18*
X226786087Y-113404996D03*
D17*
X227441092Y-112675000D03*
D15*
X229941092Y-122575000D03*
%TD*%
D12*
%TO.C,S24*%
X319691092Y-78575000D03*
X319691092Y-78575000D03*
D13*
X320111092Y-78575000D03*
X320111092Y-78575000D03*
D14*
X325191092Y-78575000D03*
X325191092Y-78575000D03*
D13*
X330271092Y-78575000D03*
X330271092Y-78575000D03*
D12*
X330691092Y-78575000D03*
X330691092Y-78575000D03*
D15*
X320191092Y-82375000D03*
D16*
X327710863Y-73784984D03*
D17*
X327731092Y-73495000D03*
D18*
X322036087Y-75304996D03*
D17*
X322691092Y-74575000D03*
D15*
X325191092Y-84475000D03*
%TD*%
D12*
%TO.C,S16*%
X111175000Y-78575000D03*
X111175000Y-78575000D03*
D13*
X111595000Y-78575000D03*
X111595000Y-78575000D03*
D14*
X116675000Y-78575000D03*
X116675000Y-78575000D03*
D13*
X121755000Y-78575000D03*
X121755000Y-78575000D03*
D12*
X122175000Y-78575000D03*
X122175000Y-78575000D03*
D15*
X111675000Y-82375000D03*
D16*
X119194771Y-73784984D03*
D17*
X119215000Y-73495000D03*
D18*
X113519995Y-75304996D03*
D17*
X114175000Y-74575000D03*
D15*
X116675000Y-84475000D03*
%TD*%
D12*
%TO.C,S4*%
X111175000Y-59525000D03*
X111175000Y-59525000D03*
D13*
X111595000Y-59525000D03*
X111595000Y-59525000D03*
D14*
X116675000Y-59525000D03*
X116675000Y-59525000D03*
D13*
X121755000Y-59525000D03*
X121755000Y-59525000D03*
D12*
X122175000Y-59525000D03*
X122175000Y-59525000D03*
D15*
X111675000Y-63325000D03*
D16*
X119194771Y-54734984D03*
D17*
X119215000Y-54445000D03*
D18*
X113519995Y-56254996D03*
D17*
X114175000Y-55525000D03*
D15*
X116675000Y-65425000D03*
%TD*%
D12*
%TO.C,S51*%
X92125000Y-135725000D03*
X92125000Y-135725000D03*
D13*
X92545000Y-135725000D03*
X92545000Y-135725000D03*
D14*
X97625000Y-135725000D03*
X97625000Y-135725000D03*
D13*
X102705000Y-135725000D03*
X102705000Y-135725000D03*
D12*
X103125000Y-135725000D03*
X103125000Y-135725000D03*
D15*
X92625000Y-139525000D03*
D16*
X100144771Y-130934984D03*
D17*
X100165000Y-130645000D03*
D18*
X94469995Y-132454996D03*
D17*
X95125000Y-131725000D03*
D15*
X97625000Y-141625000D03*
%TD*%
D12*
%TO.C,S40*%
X111048000Y-116675000D03*
X111048000Y-116675000D03*
D13*
X111468000Y-116675000D03*
X111468000Y-116675000D03*
D14*
X116548000Y-116675000D03*
X116548000Y-116675000D03*
D13*
X121628000Y-116675000D03*
X121628000Y-116675000D03*
D12*
X122048000Y-116675000D03*
X122048000Y-116675000D03*
D15*
X111548000Y-120475000D03*
D16*
X119067771Y-111884984D03*
D17*
X119088000Y-111595000D03*
D18*
X113392995Y-113404996D03*
D17*
X114048000Y-112675000D03*
D15*
X116548000Y-122575000D03*
%TD*%
D12*
%TO.C,S10*%
X281591092Y-59525000D03*
X281591092Y-59525000D03*
D13*
X282011092Y-59525000D03*
X282011092Y-59525000D03*
D14*
X287091092Y-59525000D03*
X287091092Y-59525000D03*
D13*
X292171092Y-59525000D03*
X292171092Y-59525000D03*
D12*
X292591092Y-59525000D03*
X292591092Y-59525000D03*
D15*
X282091092Y-63325000D03*
D16*
X289610863Y-54734984D03*
D17*
X289631092Y-54445000D03*
D18*
X283936087Y-56254996D03*
D17*
X284591092Y-55525000D03*
D15*
X287091092Y-65425000D03*
%TD*%
D12*
%TO.C,S31*%
X224441092Y-97625000D03*
X224441092Y-97625000D03*
D13*
X224861092Y-97625000D03*
X224861092Y-97625000D03*
D14*
X229941092Y-97625000D03*
X229941092Y-97625000D03*
D13*
X235021092Y-97625000D03*
X235021092Y-97625000D03*
D12*
X235441092Y-97625000D03*
X235441092Y-97625000D03*
D15*
X224941092Y-101425000D03*
D16*
X232460863Y-92834984D03*
D17*
X232481092Y-92545000D03*
D18*
X226786087Y-94354996D03*
D17*
X227441092Y-93625000D03*
D15*
X229941092Y-103525000D03*
%TD*%
D12*
%TO.C,S29*%
X130225000Y-97625000D03*
X130225000Y-97625000D03*
D13*
X130645000Y-97625000D03*
X130645000Y-97625000D03*
D14*
X135725000Y-97625000D03*
X135725000Y-97625000D03*
D13*
X140805000Y-97625000D03*
X140805000Y-97625000D03*
D12*
X141225000Y-97625000D03*
X141225000Y-97625000D03*
D15*
X130725000Y-101425000D03*
D16*
X138244771Y-92834984D03*
D17*
X138265000Y-92545000D03*
D18*
X132569995Y-94354996D03*
D17*
X133225000Y-93625000D03*
D15*
X135725000Y-103525000D03*
%TD*%
D12*
%TO.C,S37*%
X54025000Y-116675000D03*
X54025000Y-116675000D03*
D13*
X54445000Y-116675000D03*
X54445000Y-116675000D03*
D14*
X59525000Y-116675000D03*
X59525000Y-116675000D03*
D13*
X64605000Y-116675000D03*
X64605000Y-116675000D03*
D12*
X65025000Y-116675000D03*
X65025000Y-116675000D03*
D15*
X54525000Y-120475000D03*
D16*
X62044771Y-111884984D03*
D17*
X62065000Y-111595000D03*
D18*
X56369995Y-113404996D03*
D17*
X57025000Y-112675000D03*
D15*
X59525000Y-122575000D03*
%TD*%
D12*
%TO.C,S3*%
X92125000Y-59525000D03*
X92125000Y-59525000D03*
D13*
X92545000Y-59525000D03*
X92545000Y-59525000D03*
D14*
X97625000Y-59525000D03*
X97625000Y-59525000D03*
D13*
X102705000Y-59525000D03*
X102705000Y-59525000D03*
D12*
X103125000Y-59525000D03*
X103125000Y-59525000D03*
D15*
X92625000Y-63325000D03*
D16*
X100144771Y-54734984D03*
D17*
X100165000Y-54445000D03*
D18*
X94469995Y-56254996D03*
D17*
X95125000Y-55525000D03*
D15*
X97625000Y-65425000D03*
%TD*%
D12*
%TO.C,S35*%
X300641092Y-97625000D03*
X300641092Y-97625000D03*
D13*
X301061092Y-97625000D03*
X301061092Y-97625000D03*
D14*
X306141092Y-97625000D03*
X306141092Y-97625000D03*
D13*
X311221092Y-97625000D03*
X311221092Y-97625000D03*
D12*
X311641092Y-97625000D03*
X311641092Y-97625000D03*
D15*
X301141092Y-101425000D03*
D16*
X308660863Y-92834984D03*
D17*
X308681092Y-92545000D03*
D18*
X302986087Y-94354996D03*
D17*
X303641092Y-93625000D03*
D15*
X306141092Y-103525000D03*
%TD*%
D12*
%TO.C,S46*%
X281591092Y-116675000D03*
X281591092Y-116675000D03*
D13*
X282011092Y-116675000D03*
X282011092Y-116675000D03*
D14*
X287091092Y-116675000D03*
X287091092Y-116675000D03*
D13*
X292171092Y-116675000D03*
X292171092Y-116675000D03*
D12*
X292591092Y-116675000D03*
X292591092Y-116675000D03*
D15*
X282091092Y-120475000D03*
D16*
X289610863Y-111884984D03*
D17*
X289631092Y-111595000D03*
D18*
X283936087Y-113404996D03*
D17*
X284591092Y-112675000D03*
D15*
X287091092Y-122575000D03*
%TD*%
D12*
%TO.C,S21*%
X262541092Y-78575000D03*
X262541092Y-78575000D03*
D13*
X262961092Y-78575000D03*
X262961092Y-78575000D03*
D14*
X268041092Y-78575000D03*
X268041092Y-78575000D03*
D13*
X273121092Y-78575000D03*
X273121092Y-78575000D03*
D12*
X273541092Y-78575000D03*
X273541092Y-78575000D03*
D15*
X263041092Y-82375000D03*
D16*
X270560863Y-73784984D03*
D17*
X270581092Y-73495000D03*
D18*
X264886087Y-75304996D03*
D17*
X265541092Y-74575000D03*
D15*
X268041092Y-84475000D03*
%TD*%
D12*
%TO.C,S56*%
X243491092Y-135725000D03*
X243491092Y-135725000D03*
D13*
X243911092Y-135725000D03*
X243911092Y-135725000D03*
D14*
X248991092Y-135725000D03*
X248991092Y-135725000D03*
D13*
X254071092Y-135725000D03*
X254071092Y-135725000D03*
D12*
X254491092Y-135725000D03*
X254491092Y-135725000D03*
D15*
X243991092Y-139525000D03*
D16*
X251510863Y-130934984D03*
D17*
X251531092Y-130645000D03*
D18*
X245836087Y-132454996D03*
D17*
X246491092Y-131725000D03*
D15*
X248991092Y-141625000D03*
%TD*%
D12*
%TO.C,S17*%
X130225000Y-78575000D03*
X130225000Y-78575000D03*
D13*
X130645000Y-78575000D03*
X130645000Y-78575000D03*
D14*
X135725000Y-78575000D03*
X135725000Y-78575000D03*
D13*
X140805000Y-78575000D03*
X140805000Y-78575000D03*
D12*
X141225000Y-78575000D03*
X141225000Y-78575000D03*
D15*
X130725000Y-82375000D03*
D16*
X138244771Y-73784984D03*
D17*
X138265000Y-73495000D03*
D18*
X132569995Y-75304996D03*
D17*
X133225000Y-74575000D03*
D15*
X135725000Y-84475000D03*
%TD*%
D22*
%TO.C,J3*%
X175236092Y-72720000D03*
D23*
X175236092Y-70180000D03*
X175236092Y-67640000D03*
X175236092Y-65100000D03*
%TD*%
D12*
%TO.C,S19*%
X224568092Y-78575000D03*
X224568092Y-78575000D03*
D13*
X224988092Y-78575000D03*
X224988092Y-78575000D03*
D14*
X230068092Y-78575000D03*
X230068092Y-78575000D03*
D13*
X235148092Y-78575000D03*
X235148092Y-78575000D03*
D12*
X235568092Y-78575000D03*
X235568092Y-78575000D03*
D15*
X225068092Y-82375000D03*
D16*
X232587863Y-73784984D03*
D17*
X232608092Y-73495000D03*
D18*
X226913087Y-75304996D03*
D17*
X227568092Y-74575000D03*
D15*
X230068092Y-84475000D03*
%TD*%
D12*
%TO.C,S5*%
X130225000Y-59525000D03*
X130225000Y-59525000D03*
D13*
X130645000Y-59525000D03*
X130645000Y-59525000D03*
D14*
X135725000Y-59525000D03*
X135725000Y-59525000D03*
D13*
X140805000Y-59525000D03*
X140805000Y-59525000D03*
D12*
X141225000Y-59525000D03*
X141225000Y-59525000D03*
D15*
X130725000Y-63325000D03*
D16*
X138244771Y-54734984D03*
D17*
X138265000Y-54445000D03*
D18*
X132569995Y-56254996D03*
D17*
X133225000Y-55525000D03*
D15*
X135725000Y-65425000D03*
%TD*%
D12*
%TO.C,S47*%
X300641092Y-116675000D03*
X300641092Y-116675000D03*
D13*
X301061092Y-116675000D03*
X301061092Y-116675000D03*
D14*
X306141092Y-116675000D03*
X306141092Y-116675000D03*
D13*
X311221092Y-116675000D03*
X311221092Y-116675000D03*
D12*
X311641092Y-116675000D03*
X311641092Y-116675000D03*
D15*
X301141092Y-120475000D03*
D16*
X308660863Y-111884984D03*
D17*
X308681092Y-111595000D03*
D18*
X302986087Y-113404996D03*
D17*
X303641092Y-112675000D03*
D15*
X306141092Y-122575000D03*
%TD*%
D12*
%TO.C,S54*%
X149275000Y-135725000D03*
X149275000Y-135725000D03*
D13*
X149695000Y-135725000D03*
X149695000Y-135725000D03*
D14*
X154775000Y-135725000D03*
X154775000Y-135725000D03*
D13*
X159855000Y-135725000D03*
X159855000Y-135725000D03*
D12*
X160275000Y-135725000D03*
X160275000Y-135725000D03*
D15*
X149775000Y-139525000D03*
D16*
X157294771Y-130934984D03*
D17*
X157315000Y-130645000D03*
D18*
X151619995Y-132454996D03*
D17*
X152275000Y-131725000D03*
D15*
X154775000Y-141625000D03*
%TD*%
D12*
%TO.C,S7*%
X224441092Y-59525000D03*
X224441092Y-59525000D03*
D13*
X224861092Y-59525000D03*
X224861092Y-59525000D03*
D14*
X229941092Y-59525000D03*
X229941092Y-59525000D03*
D13*
X235021092Y-59525000D03*
X235021092Y-59525000D03*
D12*
X235441092Y-59525000D03*
X235441092Y-59525000D03*
D15*
X224941092Y-63325000D03*
D16*
X232460863Y-54734984D03*
D17*
X232481092Y-54445000D03*
D18*
X226786087Y-56254996D03*
D17*
X227441092Y-55525000D03*
D15*
X229941092Y-65425000D03*
%TD*%
D12*
%TO.C,S34*%
X281591092Y-97625000D03*
X281591092Y-97625000D03*
D13*
X282011092Y-97625000D03*
X282011092Y-97625000D03*
D14*
X287091092Y-97625000D03*
X287091092Y-97625000D03*
D13*
X292171092Y-97625000D03*
X292171092Y-97625000D03*
D12*
X292591092Y-97625000D03*
X292591092Y-97625000D03*
D15*
X282091092Y-101425000D03*
D16*
X289610863Y-92834984D03*
D17*
X289631092Y-92545000D03*
D18*
X283936087Y-94354996D03*
D17*
X284591092Y-93625000D03*
D15*
X287091092Y-103525000D03*
%TD*%
D24*
%TO.C,J2*%
X222041092Y-124600000D03*
D25*
X222041092Y-127100000D03*
X222041092Y-129600000D03*
%TD*%
D26*
%TO.C,U1*%
X199986092Y-53810000D03*
X199986092Y-56350000D03*
D27*
X199986092Y-58890000D03*
X199986092Y-61430000D03*
D26*
X199986092Y-63970000D03*
X199986092Y-66510000D03*
X199986092Y-69050000D03*
X199986092Y-71590000D03*
X199986092Y-74130000D03*
X199986092Y-76670000D03*
X199986092Y-79210000D03*
X199986092Y-81750000D03*
D28*
X184746092Y-52540000D03*
D27*
X184746092Y-56350000D03*
D26*
X184746092Y-58890000D03*
X184746092Y-61430000D03*
X184746092Y-63970000D03*
X184746092Y-66510000D03*
X184746092Y-69050000D03*
X184746092Y-71590000D03*
X184746092Y-74130000D03*
X184746092Y-76670000D03*
X184746092Y-79210000D03*
X184746092Y-81750000D03*
X197446092Y-76670000D03*
X194906092Y-76670000D03*
X192366092Y-76670000D03*
D27*
X199986092Y-51270000D03*
D26*
X184746092Y-51270000D03*
%TD*%
M02*
