%TF.GenerationSoftware,KiCad,Pcbnew,7.0.8-unknown-202310192121~e85eec2e6b~ubuntu22.04.1*%
%TF.CreationDate,2023-11-07T13:40:00+08:00*%
%TF.ProjectId,Cthulhu,43746875-6c68-4752-9e6b-696361645f70,rev?*%
%TF.SameCoordinates,Original*%
%TF.FileFunction,Soldermask,Bot*%
%TF.FilePolarity,Negative*%
%FSLAX46Y46*%
G04 Gerber Fmt 4.6, Leading zero omitted, Abs format (unit mm)*
G04 Created by KiCad (PCBNEW 7.0.8-unknown-202310192121~e85eec2e6b~ubuntu22.04.1) date 2023-11-07 13:40:00*
%MOMM*%
%LPD*%
G01*
G04 APERTURE LIST*
G04 Aperture macros list*
%AMRoundRect*
0 Rectangle with rounded corners*
0 $1 Rounding radius*
0 $2 $3 $4 $5 $6 $7 $8 $9 X,Y pos of 4 corners*
0 Add a 4 corners polygon primitive as box body*
4,1,4,$2,$3,$4,$5,$6,$7,$8,$9,$2,$3,0*
0 Add four circle primitives for the rounded corners*
1,1,$1+$1,$2,$3*
1,1,$1+$1,$4,$5*
1,1,$1+$1,$6,$7*
1,1,$1+$1,$8,$9*
0 Add four rect primitives between the rounded corners*
20,1,$1+$1,$2,$3,$4,$5,0*
20,1,$1+$1,$4,$5,$6,$7,0*
20,1,$1+$1,$6,$7,$8,$9,0*
20,1,$1+$1,$8,$9,$2,$3,0*%
%AMHorizOval*
0 Thick line with rounded ends*
0 $1 width*
0 $2 $3 position (X,Y) of the first rounded end (center of the circle)*
0 $4 $5 position (X,Y) of the second rounded end (center of the circle)*
0 Add line between two ends*
20,1,$1,$2,$3,$4,$5,0*
0 Add two circle primitives to create the rounded ends*
1,1,$1,$2,$3*
1,1,$1,$4,$5*%
G04 Aperture macros list end*
%ADD10O,11.600000X5.000000*%
%ADD11C,5.000000*%
%ADD12C,1.700000*%
%ADD13C,1.750000*%
%ADD14C,3.987800*%
%ADD15C,2.000000*%
%ADD16HorizOval,2.250000X0.019771X0.290016X-0.019771X-0.290016X0*%
%ADD17C,2.250000*%
%ADD18HorizOval,2.250000X0.654995X0.730004X-0.654995X-0.730004X0*%
%ADD19C,3.048000*%
%ADD20C,2.286000*%
%ADD21R,1.700000X1.700000*%
%ADD22O,1.700000X1.700000*%
%ADD23RoundRect,0.225000X0.225000X0.375000X-0.225000X0.375000X-0.225000X-0.375000X0.225000X-0.375000X0*%
%ADD24RoundRect,0.225000X0.375000X-0.225000X0.375000X0.225000X-0.375000X0.225000X-0.375000X-0.225000X0*%
%ADD25RoundRect,0.250000X-0.725000X0.600000X-0.725000X-0.600000X0.725000X-0.600000X0.725000X0.600000X0*%
%ADD26O,1.950000X1.700000*%
%ADD27RoundRect,0.225000X-0.375000X0.225000X-0.375000X-0.225000X0.375000X-0.225000X0.375000X0.225000X0*%
G04 APERTURE END LIST*
D10*
%TO.C,*%
X52800362Y-107029695D03*
%TD*%
D11*
%TO.C,*%
X215916124Y-140367223D03*
%TD*%
D10*
%TO.C,*%
X331406846Y-107029695D03*
%TD*%
D11*
%TO.C,*%
X168291084Y-55237464D03*
%TD*%
%TO.C,*%
X68278500Y-69524976D03*
%TD*%
%TO.C,*%
X315928708Y-126675024D03*
%TD*%
%TO.C,*%
X315928708Y-69524976D03*
%TD*%
%TO.C,*%
X215916124Y-55237464D03*
%TD*%
%TO.C,*%
X168291084Y-140367223D03*
%TD*%
%TO.C,*%
X177816092Y-98100000D03*
%TD*%
D12*
%TO.C,S41*%
X130225000Y-116675000D03*
X130225000Y-116675000D03*
D13*
X130645000Y-116675000D03*
X130645000Y-116675000D03*
D14*
X135725000Y-116675000D03*
X135725000Y-116675000D03*
D13*
X140805000Y-116675000D03*
X140805000Y-116675000D03*
D12*
X141225000Y-116675000D03*
X141225000Y-116675000D03*
D15*
X130725000Y-120475000D03*
D16*
X138244771Y-111884984D03*
D17*
X138265000Y-111595000D03*
D18*
X132569995Y-113404996D03*
D17*
X133225000Y-112675000D03*
D15*
X135725000Y-122575000D03*
%TD*%
D12*
%TO.C,S39*%
X92125000Y-116675000D03*
X92125000Y-116675000D03*
D13*
X92545000Y-116675000D03*
X92545000Y-116675000D03*
D14*
X97625000Y-116675000D03*
X97625000Y-116675000D03*
D13*
X102705000Y-116675000D03*
X102705000Y-116675000D03*
D12*
X103125000Y-116675000D03*
X103125000Y-116675000D03*
D15*
X92625000Y-120475000D03*
D16*
X100144771Y-111884984D03*
D17*
X100165000Y-111595000D03*
D18*
X94469995Y-113404996D03*
D17*
X95125000Y-112675000D03*
D15*
X97625000Y-122575000D03*
%TD*%
D12*
%TO.C,S9*%
X262541092Y-59525000D03*
X262541092Y-59525000D03*
D13*
X262961092Y-59525000D03*
X262961092Y-59525000D03*
D14*
X268041092Y-59525000D03*
X268041092Y-59525000D03*
D13*
X273121092Y-59525000D03*
X273121092Y-59525000D03*
D12*
X273541092Y-59525000D03*
X273541092Y-59525000D03*
D15*
X263041092Y-63325000D03*
D16*
X270560863Y-54734984D03*
D17*
X270581092Y-54445000D03*
D18*
X264886087Y-56254996D03*
D17*
X265541092Y-55525000D03*
D15*
X268041092Y-65425000D03*
%TD*%
D12*
%TO.C,S48*%
X319691092Y-116675000D03*
X319691092Y-116675000D03*
D13*
X320111092Y-116675000D03*
X320111092Y-116675000D03*
D14*
X325191092Y-116675000D03*
X325191092Y-116675000D03*
D13*
X330271092Y-116675000D03*
X330271092Y-116675000D03*
D12*
X330691092Y-116675000D03*
X330691092Y-116675000D03*
D15*
X320191092Y-120475000D03*
D16*
X327710863Y-111884984D03*
D17*
X327731092Y-111595000D03*
D18*
X322036087Y-113404996D03*
D17*
X322691092Y-112675000D03*
D15*
X325191092Y-122575000D03*
%TD*%
D12*
%TO.C,S58*%
X281591092Y-135725000D03*
X281591092Y-135725000D03*
D13*
X282011092Y-135725000D03*
X282011092Y-135725000D03*
D14*
X287091092Y-135725000D03*
X287091092Y-135725000D03*
D13*
X292171092Y-135725000D03*
X292171092Y-135725000D03*
D12*
X292591092Y-135725000D03*
X292591092Y-135725000D03*
D15*
X282091092Y-139525000D03*
D16*
X289610863Y-130934984D03*
D17*
X289631092Y-130645000D03*
D18*
X283936087Y-132454996D03*
D17*
X284591092Y-131725000D03*
D15*
X287091092Y-141625000D03*
%TD*%
D12*
%TO.C,S33*%
X262541092Y-97625000D03*
X262541092Y-97625000D03*
D13*
X262961092Y-97625000D03*
X262961092Y-97625000D03*
D14*
X268041092Y-97625000D03*
X268041092Y-97625000D03*
D13*
X273121092Y-97625000D03*
X273121092Y-97625000D03*
D12*
X273541092Y-97625000D03*
X273541092Y-97625000D03*
D15*
X263041092Y-101425000D03*
D16*
X270560863Y-92834984D03*
D17*
X270581092Y-92545000D03*
D18*
X264886087Y-94354996D03*
D17*
X265541092Y-93625000D03*
D15*
X268041092Y-103525000D03*
%TD*%
D12*
%TO.C,S1*%
X54025000Y-59525000D03*
X54025000Y-59525000D03*
D13*
X54445000Y-59525000D03*
X54445000Y-59525000D03*
D14*
X59525000Y-59525000D03*
X59525000Y-59525000D03*
D13*
X64605000Y-59525000D03*
X64605000Y-59525000D03*
D12*
X65025000Y-59525000D03*
X65025000Y-59525000D03*
D15*
X54525000Y-63325000D03*
D16*
X62044771Y-54734984D03*
D17*
X62065000Y-54445000D03*
D18*
X56369995Y-56254996D03*
D17*
X57025000Y-55525000D03*
D15*
X59525000Y-65425000D03*
%TD*%
D12*
%TO.C,S2*%
X73075000Y-59525000D03*
X73075000Y-59525000D03*
D13*
X73495000Y-59525000D03*
X73495000Y-59525000D03*
D14*
X78575000Y-59525000D03*
X78575000Y-59525000D03*
D13*
X83655000Y-59525000D03*
X83655000Y-59525000D03*
D12*
X84075000Y-59525000D03*
X84075000Y-59525000D03*
D15*
X73575000Y-63325000D03*
D16*
X81094771Y-54734984D03*
D17*
X81115000Y-54445000D03*
D18*
X75419995Y-56254996D03*
D17*
X76075000Y-55525000D03*
D15*
X78575000Y-65425000D03*
%TD*%
D12*
%TO.C,S57*%
X262541092Y-135725000D03*
X262541092Y-135725000D03*
D13*
X262961092Y-135725000D03*
X262961092Y-135725000D03*
D14*
X268041092Y-135725000D03*
X268041092Y-135725000D03*
D13*
X273121092Y-135725000D03*
X273121092Y-135725000D03*
D12*
X273541092Y-135725000D03*
X273541092Y-135725000D03*
D15*
X263041092Y-139525000D03*
D16*
X270560863Y-130934984D03*
D17*
X270581092Y-130645000D03*
D18*
X264886087Y-132454996D03*
D17*
X265541092Y-131725000D03*
D15*
X268041092Y-141625000D03*
%TD*%
D12*
%TO.C,S32*%
X243491092Y-97625000D03*
X243491092Y-97625000D03*
D13*
X243911092Y-97625000D03*
X243911092Y-97625000D03*
D14*
X248991092Y-97625000D03*
X248991092Y-97625000D03*
D13*
X254071092Y-97625000D03*
X254071092Y-97625000D03*
D12*
X254491092Y-97625000D03*
X254491092Y-97625000D03*
D15*
X243991092Y-101425000D03*
D16*
X251510863Y-92834984D03*
D17*
X251531092Y-92545000D03*
D18*
X245836087Y-94354996D03*
D17*
X246491092Y-93625000D03*
D15*
X248991092Y-103525000D03*
%TD*%
D12*
%TO.C,S60*%
X319691092Y-135725000D03*
X319691092Y-135725000D03*
D13*
X320111092Y-135725000D03*
X320111092Y-135725000D03*
D14*
X325191092Y-135725000D03*
X325191092Y-135725000D03*
D13*
X330271092Y-135725000D03*
X330271092Y-135725000D03*
D12*
X330691092Y-135725000D03*
X330691092Y-135725000D03*
D15*
X320191092Y-139525000D03*
D16*
X327710863Y-130934984D03*
D17*
X327731092Y-130645000D03*
D18*
X322036087Y-132454996D03*
D17*
X322691092Y-131725000D03*
D15*
X325191092Y-141625000D03*
%TD*%
D12*
%TO.C,S8*%
X243491092Y-59525000D03*
X243491092Y-59525000D03*
D13*
X243911092Y-59525000D03*
X243911092Y-59525000D03*
D14*
X248991092Y-59525000D03*
X248991092Y-59525000D03*
D13*
X254071092Y-59525000D03*
X254071092Y-59525000D03*
D12*
X254491092Y-59525000D03*
X254491092Y-59525000D03*
D15*
X243991092Y-63325000D03*
D16*
X251510863Y-54734984D03*
D17*
X251531092Y-54445000D03*
D18*
X245836087Y-56254996D03*
D17*
X246491092Y-55525000D03*
D15*
X248991092Y-65425000D03*
%TD*%
D12*
%TO.C,S30*%
X149275000Y-97625000D03*
X149275000Y-97625000D03*
D13*
X149695000Y-97625000D03*
X149695000Y-97625000D03*
D14*
X154775000Y-97625000D03*
X154775000Y-97625000D03*
D13*
X159855000Y-97625000D03*
X159855000Y-97625000D03*
D12*
X160275000Y-97625000D03*
X160275000Y-97625000D03*
D15*
X149775000Y-101425000D03*
D16*
X157294771Y-92834984D03*
D17*
X157315000Y-92545000D03*
D18*
X151619995Y-94354996D03*
D17*
X152275000Y-93625000D03*
D15*
X154775000Y-103525000D03*
%TD*%
D12*
%TO.C,S14*%
X73075000Y-78575000D03*
X73075000Y-78575000D03*
D13*
X73495000Y-78575000D03*
X73495000Y-78575000D03*
D14*
X78575000Y-78575000D03*
X78575000Y-78575000D03*
D13*
X83655000Y-78575000D03*
X83655000Y-78575000D03*
D12*
X84075000Y-78575000D03*
X84075000Y-78575000D03*
D15*
X73575000Y-82375000D03*
D16*
X81094771Y-73784984D03*
D17*
X81115000Y-73495000D03*
D18*
X75419995Y-75304996D03*
D17*
X76075000Y-74575000D03*
D15*
X78575000Y-84475000D03*
%TD*%
D12*
%TO.C,S28*%
X111175000Y-97625000D03*
X111175000Y-97625000D03*
D13*
X111595000Y-97625000D03*
X111595000Y-97625000D03*
D14*
X116675000Y-97625000D03*
X116675000Y-97625000D03*
D13*
X121755000Y-97625000D03*
X121755000Y-97625000D03*
D12*
X122175000Y-97625000D03*
X122175000Y-97625000D03*
D15*
X111675000Y-101425000D03*
D16*
X119194771Y-92834984D03*
D17*
X119215000Y-92545000D03*
D18*
X113519995Y-94354996D03*
D17*
X114175000Y-93625000D03*
D15*
X116675000Y-103525000D03*
%TD*%
D12*
%TO.C,S53*%
X130225000Y-135725000D03*
X130225000Y-135725000D03*
D13*
X130645000Y-135725000D03*
X130645000Y-135725000D03*
D14*
X135725000Y-135725000D03*
X135725000Y-135725000D03*
D13*
X140805000Y-135725000D03*
X140805000Y-135725000D03*
D12*
X141225000Y-135725000D03*
X141225000Y-135725000D03*
D15*
X130725000Y-139525000D03*
D16*
X138244771Y-130934984D03*
D17*
X138265000Y-130645000D03*
D18*
X132569995Y-132454996D03*
D17*
X133225000Y-131725000D03*
D15*
X135725000Y-141625000D03*
%TD*%
D12*
%TO.C,S50*%
X73075000Y-135725000D03*
X73075000Y-135725000D03*
D13*
X73495000Y-135725000D03*
X73495000Y-135725000D03*
D14*
X78575000Y-135725000D03*
X78575000Y-135725000D03*
D13*
X83655000Y-135725000D03*
X83655000Y-135725000D03*
D12*
X84075000Y-135725000D03*
X84075000Y-135725000D03*
D15*
X73575000Y-139525000D03*
D16*
X81094771Y-130934984D03*
D17*
X81115000Y-130645000D03*
D18*
X75419995Y-132454996D03*
D17*
X76075000Y-131725000D03*
D15*
X78575000Y-141625000D03*
%TD*%
D12*
%TO.C,S42*%
X149275000Y-116675000D03*
X149275000Y-116675000D03*
D13*
X149695000Y-116675000D03*
X149695000Y-116675000D03*
D14*
X154775000Y-116675000D03*
X154775000Y-116675000D03*
D13*
X159855000Y-116675000D03*
X159855000Y-116675000D03*
D12*
X160275000Y-116675000D03*
X160275000Y-116675000D03*
D15*
X149775000Y-120475000D03*
D16*
X157294771Y-111884984D03*
D17*
X157315000Y-111595000D03*
D18*
X151619995Y-113404996D03*
D17*
X152275000Y-112675000D03*
D15*
X154775000Y-122575000D03*
%TD*%
D12*
%TO.C,S22*%
X281591092Y-78575000D03*
X281591092Y-78575000D03*
D13*
X282011092Y-78575000D03*
X282011092Y-78575000D03*
D14*
X287091092Y-78575000D03*
X287091092Y-78575000D03*
D13*
X292171092Y-78575000D03*
X292171092Y-78575000D03*
D12*
X292591092Y-78575000D03*
X292591092Y-78575000D03*
D15*
X282091092Y-82375000D03*
D16*
X289610863Y-73784984D03*
D17*
X289631092Y-73495000D03*
D18*
X283936087Y-75304996D03*
D17*
X284591092Y-74575000D03*
D15*
X287091092Y-84475000D03*
%TD*%
D12*
%TO.C,S20*%
X243618092Y-78575000D03*
X243618092Y-78575000D03*
D13*
X244038092Y-78575000D03*
X244038092Y-78575000D03*
D14*
X249118092Y-78575000D03*
X249118092Y-78575000D03*
D13*
X254198092Y-78575000D03*
X254198092Y-78575000D03*
D12*
X254618092Y-78575000D03*
X254618092Y-78575000D03*
D15*
X244118092Y-82375000D03*
D16*
X251637863Y-73784984D03*
D17*
X251658092Y-73495000D03*
D18*
X245963087Y-75304996D03*
D17*
X246618092Y-74575000D03*
D15*
X249118092Y-84475000D03*
%TD*%
%TO.C,J4*%
X177786092Y-75275000D03*
X175246092Y-75275000D03*
%TD*%
D12*
%TO.C,S49*%
X54025000Y-135725000D03*
X54025000Y-135725000D03*
D13*
X54445000Y-135725000D03*
X54445000Y-135725000D03*
D14*
X59525000Y-135725000D03*
X59525000Y-135725000D03*
D13*
X64605000Y-135725000D03*
X64605000Y-135725000D03*
D12*
X65025000Y-135725000D03*
X65025000Y-135725000D03*
D15*
X54525000Y-139525000D03*
D16*
X62044771Y-130934984D03*
D17*
X62065000Y-130645000D03*
D18*
X56369995Y-132454996D03*
D17*
X57025000Y-131725000D03*
D15*
X59525000Y-141625000D03*
%TD*%
D12*
%TO.C,S45*%
X262541092Y-116675000D03*
X262541092Y-116675000D03*
D13*
X262961092Y-116675000D03*
X262961092Y-116675000D03*
D14*
X268041092Y-116675000D03*
X268041092Y-116675000D03*
D13*
X273121092Y-116675000D03*
X273121092Y-116675000D03*
D12*
X273541092Y-116675000D03*
X273541092Y-116675000D03*
D15*
X263041092Y-120475000D03*
D16*
X270560863Y-111884984D03*
D17*
X270581092Y-111595000D03*
D18*
X264886087Y-113404996D03*
D17*
X265541092Y-112675000D03*
D15*
X268041092Y-122575000D03*
%TD*%
D12*
%TO.C,S44*%
X243491092Y-116675000D03*
X243491092Y-116675000D03*
D13*
X243911092Y-116675000D03*
X243911092Y-116675000D03*
D14*
X248991092Y-116675000D03*
X248991092Y-116675000D03*
D13*
X254071092Y-116675000D03*
X254071092Y-116675000D03*
D12*
X254491092Y-116675000D03*
X254491092Y-116675000D03*
D15*
X243991092Y-120475000D03*
D16*
X251510863Y-111884984D03*
D17*
X251531092Y-111595000D03*
D18*
X245836087Y-113404996D03*
D17*
X246491092Y-112675000D03*
D15*
X248991092Y-122575000D03*
%TD*%
D12*
%TO.C,S23*%
X300641092Y-78575000D03*
X300641092Y-78575000D03*
D13*
X301061092Y-78575000D03*
X301061092Y-78575000D03*
D14*
X306141092Y-78575000D03*
X306141092Y-78575000D03*
D13*
X311221092Y-78575000D03*
X311221092Y-78575000D03*
D12*
X311641092Y-78575000D03*
X311641092Y-78575000D03*
D15*
X301141092Y-82375000D03*
D16*
X308660863Y-73784984D03*
D17*
X308681092Y-73495000D03*
D18*
X302986087Y-75304996D03*
D17*
X303641092Y-74575000D03*
D15*
X306141092Y-84475000D03*
%TD*%
D12*
%TO.C,S55*%
X224441092Y-135725000D03*
X224441092Y-135725000D03*
D13*
X224861092Y-135725000D03*
X224861092Y-135725000D03*
D14*
X229941092Y-135725000D03*
X229941092Y-135725000D03*
D13*
X235021092Y-135725000D03*
X235021092Y-135725000D03*
D12*
X235441092Y-135725000D03*
X235441092Y-135725000D03*
D15*
X224941092Y-139525000D03*
D16*
X232460863Y-130934984D03*
D17*
X232481092Y-130645000D03*
D18*
X226786087Y-132454996D03*
D17*
X227441092Y-131725000D03*
D15*
X229941092Y-141625000D03*
%TD*%
D12*
%TO.C,S18*%
X149275000Y-78575000D03*
X149275000Y-78575000D03*
D13*
X149695000Y-78575000D03*
X149695000Y-78575000D03*
D14*
X154775000Y-78575000D03*
X154775000Y-78575000D03*
D13*
X159855000Y-78575000D03*
X159855000Y-78575000D03*
D12*
X160275000Y-78575000D03*
X160275000Y-78575000D03*
D15*
X149775000Y-82375000D03*
D16*
X157294771Y-73784984D03*
D17*
X157315000Y-73495000D03*
D18*
X151619995Y-75304996D03*
D17*
X152275000Y-74575000D03*
D15*
X154775000Y-84475000D03*
%TD*%
D14*
%TO.C,S61*%
X133185000Y-127343000D03*
D19*
X133185000Y-142583000D03*
D14*
X145123000Y-135598000D03*
X157061000Y-127343000D03*
D19*
X157061000Y-142583000D03*
D20*
X147663000Y-130518000D03*
X141313000Y-133058000D03*
%TD*%
D12*
%TO.C,S13*%
X54025000Y-78575000D03*
X54025000Y-78575000D03*
D13*
X54445000Y-78575000D03*
X54445000Y-78575000D03*
D14*
X59525000Y-78575000D03*
X59525000Y-78575000D03*
D13*
X64605000Y-78575000D03*
X64605000Y-78575000D03*
D12*
X65025000Y-78575000D03*
X65025000Y-78575000D03*
D15*
X54525000Y-82375000D03*
D16*
X62044771Y-73784984D03*
D17*
X62065000Y-73495000D03*
D18*
X56369995Y-75304996D03*
D17*
X57025000Y-74575000D03*
D15*
X59525000Y-84475000D03*
%TD*%
D12*
%TO.C,S15*%
X92125000Y-78575000D03*
X92125000Y-78575000D03*
D13*
X92545000Y-78575000D03*
X92545000Y-78575000D03*
D14*
X97625000Y-78575000D03*
X97625000Y-78575000D03*
D13*
X102705000Y-78575000D03*
X102705000Y-78575000D03*
D12*
X103125000Y-78575000D03*
X103125000Y-78575000D03*
D15*
X92625000Y-82375000D03*
D16*
X100144771Y-73784984D03*
D17*
X100165000Y-73495000D03*
D18*
X94469995Y-75304996D03*
D17*
X95125000Y-74575000D03*
D15*
X97625000Y-84475000D03*
%TD*%
D12*
%TO.C,S38*%
X73075000Y-116675000D03*
X73075000Y-116675000D03*
D13*
X73495000Y-116675000D03*
X73495000Y-116675000D03*
D14*
X78575000Y-116675000D03*
X78575000Y-116675000D03*
D13*
X83655000Y-116675000D03*
X83655000Y-116675000D03*
D12*
X84075000Y-116675000D03*
X84075000Y-116675000D03*
D15*
X73575000Y-120475000D03*
D16*
X81094771Y-111884984D03*
D17*
X81115000Y-111595000D03*
D18*
X75419995Y-113404996D03*
D17*
X76075000Y-112675000D03*
D15*
X78575000Y-122575000D03*
%TD*%
D12*
%TO.C,S11*%
X300641092Y-59525000D03*
X300641092Y-59525000D03*
D13*
X301061092Y-59525000D03*
X301061092Y-59525000D03*
D14*
X306141092Y-59525000D03*
X306141092Y-59525000D03*
D13*
X311221092Y-59525000D03*
X311221092Y-59525000D03*
D12*
X311641092Y-59525000D03*
X311641092Y-59525000D03*
D15*
X301141092Y-63325000D03*
D16*
X308660863Y-54734984D03*
D17*
X308681092Y-54445000D03*
D18*
X302986087Y-56254996D03*
D17*
X303641092Y-55525000D03*
D15*
X306141092Y-65425000D03*
%TD*%
D12*
%TO.C,S26*%
X73075000Y-97625000D03*
X73075000Y-97625000D03*
D13*
X73495000Y-97625000D03*
X73495000Y-97625000D03*
D14*
X78575000Y-97625000D03*
X78575000Y-97625000D03*
D13*
X83655000Y-97625000D03*
X83655000Y-97625000D03*
D12*
X84075000Y-97625000D03*
X84075000Y-97625000D03*
D15*
X73575000Y-101425000D03*
D16*
X81094771Y-92834984D03*
D17*
X81115000Y-92545000D03*
D18*
X75419995Y-94354996D03*
D17*
X76075000Y-93625000D03*
D15*
X78575000Y-103525000D03*
%TD*%
D12*
%TO.C,S12*%
X319691092Y-59525000D03*
X319691092Y-59525000D03*
D13*
X320111092Y-59525000D03*
X320111092Y-59525000D03*
D14*
X325191092Y-59525000D03*
X325191092Y-59525000D03*
D13*
X330271092Y-59525000D03*
X330271092Y-59525000D03*
D12*
X330691092Y-59525000D03*
X330691092Y-59525000D03*
D15*
X320191092Y-63325000D03*
D16*
X327710863Y-54734984D03*
D17*
X327731092Y-54445000D03*
D18*
X322036087Y-56254996D03*
D17*
X322691092Y-55525000D03*
D15*
X325191092Y-65425000D03*
%TD*%
D12*
%TO.C,S25*%
X54025000Y-97625000D03*
X54025000Y-97625000D03*
D13*
X54445000Y-97625000D03*
X54445000Y-97625000D03*
D14*
X59525000Y-97625000D03*
X59525000Y-97625000D03*
D13*
X64605000Y-97625000D03*
X64605000Y-97625000D03*
D12*
X65025000Y-97625000D03*
X65025000Y-97625000D03*
D15*
X54525000Y-101425000D03*
D16*
X62044771Y-92834984D03*
D17*
X62065000Y-92545000D03*
D18*
X56369995Y-94354996D03*
D17*
X57025000Y-93625000D03*
D15*
X59525000Y-103525000D03*
%TD*%
D14*
%TO.C,S62*%
X227655092Y-127343000D03*
D19*
X227655092Y-142583000D03*
D14*
X239593092Y-135598000D03*
X251531092Y-127343000D03*
D19*
X251531092Y-142583000D03*
D20*
X242133092Y-130518000D03*
X235783092Y-133058000D03*
%TD*%
D12*
%TO.C,S6*%
X149275000Y-59525000D03*
X149275000Y-59525000D03*
D13*
X149695000Y-59525000D03*
X149695000Y-59525000D03*
D14*
X154775000Y-59525000D03*
X154775000Y-59525000D03*
D13*
X159855000Y-59525000D03*
X159855000Y-59525000D03*
D12*
X160275000Y-59525000D03*
X160275000Y-59525000D03*
D15*
X149775000Y-63325000D03*
D16*
X157294771Y-54734984D03*
D17*
X157315000Y-54445000D03*
D18*
X151619995Y-56254996D03*
D17*
X152275000Y-55525000D03*
D15*
X154775000Y-65425000D03*
%TD*%
D12*
%TO.C,S52*%
X111175000Y-135725000D03*
X111175000Y-135725000D03*
D13*
X111595000Y-135725000D03*
X111595000Y-135725000D03*
D14*
X116675000Y-135725000D03*
X116675000Y-135725000D03*
D13*
X121755000Y-135725000D03*
X121755000Y-135725000D03*
D12*
X122175000Y-135725000D03*
X122175000Y-135725000D03*
D15*
X111675000Y-139525000D03*
D16*
X119194771Y-130934984D03*
D17*
X119215000Y-130645000D03*
D18*
X113519995Y-132454996D03*
D17*
X114175000Y-131725000D03*
D15*
X116675000Y-141625000D03*
%TD*%
D12*
%TO.C,S36*%
X319691092Y-97625000D03*
X319691092Y-97625000D03*
D13*
X320111092Y-97625000D03*
X320111092Y-97625000D03*
D14*
X325191092Y-97625000D03*
X325191092Y-97625000D03*
D13*
X330271092Y-97625000D03*
X330271092Y-97625000D03*
D12*
X330691092Y-97625000D03*
X330691092Y-97625000D03*
D15*
X320191092Y-101425000D03*
D16*
X327710863Y-92834984D03*
D17*
X327731092Y-92545000D03*
D18*
X322036087Y-94354996D03*
D17*
X322691092Y-93625000D03*
D15*
X325191092Y-103525000D03*
%TD*%
D12*
%TO.C,S27*%
X92125000Y-97625000D03*
X92125000Y-97625000D03*
D13*
X92545000Y-97625000D03*
X92545000Y-97625000D03*
D14*
X97625000Y-97625000D03*
X97625000Y-97625000D03*
D13*
X102705000Y-97625000D03*
X102705000Y-97625000D03*
D12*
X103125000Y-97625000D03*
X103125000Y-97625000D03*
D15*
X92625000Y-101425000D03*
D16*
X100144771Y-92834984D03*
D17*
X100165000Y-92545000D03*
D18*
X94469995Y-94354996D03*
D17*
X95125000Y-93625000D03*
D15*
X97625000Y-103525000D03*
%TD*%
D12*
%TO.C,S59*%
X300641092Y-135725000D03*
X300641092Y-135725000D03*
D13*
X301061092Y-135725000D03*
X301061092Y-135725000D03*
D14*
X306141092Y-135725000D03*
X306141092Y-135725000D03*
D13*
X311221092Y-135725000D03*
X311221092Y-135725000D03*
D12*
X311641092Y-135725000D03*
X311641092Y-135725000D03*
D15*
X301141092Y-139525000D03*
D16*
X308660863Y-130934984D03*
D17*
X308681092Y-130645000D03*
D18*
X302986087Y-132454996D03*
D17*
X303641092Y-131725000D03*
D15*
X306141092Y-141625000D03*
%TD*%
D12*
%TO.C,S43*%
X224441092Y-116675000D03*
X224441092Y-116675000D03*
D13*
X224861092Y-116675000D03*
X224861092Y-116675000D03*
D14*
X229941092Y-116675000D03*
X229941092Y-116675000D03*
D13*
X235021092Y-116675000D03*
X235021092Y-116675000D03*
D12*
X235441092Y-116675000D03*
X235441092Y-116675000D03*
D15*
X224941092Y-120475000D03*
D16*
X232460863Y-111884984D03*
D17*
X232481092Y-111595000D03*
D18*
X226786087Y-113404996D03*
D17*
X227441092Y-112675000D03*
D15*
X229941092Y-122575000D03*
%TD*%
D12*
%TO.C,S24*%
X319691092Y-78575000D03*
X319691092Y-78575000D03*
D13*
X320111092Y-78575000D03*
X320111092Y-78575000D03*
D14*
X325191092Y-78575000D03*
X325191092Y-78575000D03*
D13*
X330271092Y-78575000D03*
X330271092Y-78575000D03*
D12*
X330691092Y-78575000D03*
X330691092Y-78575000D03*
D15*
X320191092Y-82375000D03*
D16*
X327710863Y-73784984D03*
D17*
X327731092Y-73495000D03*
D18*
X322036087Y-75304996D03*
D17*
X322691092Y-74575000D03*
D15*
X325191092Y-84475000D03*
%TD*%
D12*
%TO.C,S16*%
X111175000Y-78575000D03*
X111175000Y-78575000D03*
D13*
X111595000Y-78575000D03*
X111595000Y-78575000D03*
D14*
X116675000Y-78575000D03*
X116675000Y-78575000D03*
D13*
X121755000Y-78575000D03*
X121755000Y-78575000D03*
D12*
X122175000Y-78575000D03*
X122175000Y-78575000D03*
D15*
X111675000Y-82375000D03*
D16*
X119194771Y-73784984D03*
D17*
X119215000Y-73495000D03*
D18*
X113519995Y-75304996D03*
D17*
X114175000Y-74575000D03*
D15*
X116675000Y-84475000D03*
%TD*%
D12*
%TO.C,S4*%
X111175000Y-59525000D03*
X111175000Y-59525000D03*
D13*
X111595000Y-59525000D03*
X111595000Y-59525000D03*
D14*
X116675000Y-59525000D03*
X116675000Y-59525000D03*
D13*
X121755000Y-59525000D03*
X121755000Y-59525000D03*
D12*
X122175000Y-59525000D03*
X122175000Y-59525000D03*
D15*
X111675000Y-63325000D03*
D16*
X119194771Y-54734984D03*
D17*
X119215000Y-54445000D03*
D18*
X113519995Y-56254996D03*
D17*
X114175000Y-55525000D03*
D15*
X116675000Y-65425000D03*
%TD*%
D12*
%TO.C,S51*%
X92125000Y-135725000D03*
X92125000Y-135725000D03*
D13*
X92545000Y-135725000D03*
X92545000Y-135725000D03*
D14*
X97625000Y-135725000D03*
X97625000Y-135725000D03*
D13*
X102705000Y-135725000D03*
X102705000Y-135725000D03*
D12*
X103125000Y-135725000D03*
X103125000Y-135725000D03*
D15*
X92625000Y-139525000D03*
D16*
X100144771Y-130934984D03*
D17*
X100165000Y-130645000D03*
D18*
X94469995Y-132454996D03*
D17*
X95125000Y-131725000D03*
D15*
X97625000Y-141625000D03*
%TD*%
D12*
%TO.C,S40*%
X111048000Y-116675000D03*
X111048000Y-116675000D03*
D13*
X111468000Y-116675000D03*
X111468000Y-116675000D03*
D14*
X116548000Y-116675000D03*
X116548000Y-116675000D03*
D13*
X121628000Y-116675000D03*
X121628000Y-116675000D03*
D12*
X122048000Y-116675000D03*
X122048000Y-116675000D03*
D15*
X111548000Y-120475000D03*
D16*
X119067771Y-111884984D03*
D17*
X119088000Y-111595000D03*
D18*
X113392995Y-113404996D03*
D17*
X114048000Y-112675000D03*
D15*
X116548000Y-122575000D03*
%TD*%
D12*
%TO.C,S10*%
X281591092Y-59525000D03*
X281591092Y-59525000D03*
D13*
X282011092Y-59525000D03*
X282011092Y-59525000D03*
D14*
X287091092Y-59525000D03*
X287091092Y-59525000D03*
D13*
X292171092Y-59525000D03*
X292171092Y-59525000D03*
D12*
X292591092Y-59525000D03*
X292591092Y-59525000D03*
D15*
X282091092Y-63325000D03*
D16*
X289610863Y-54734984D03*
D17*
X289631092Y-54445000D03*
D18*
X283936087Y-56254996D03*
D17*
X284591092Y-55525000D03*
D15*
X287091092Y-65425000D03*
%TD*%
D12*
%TO.C,S31*%
X224441092Y-97625000D03*
X224441092Y-97625000D03*
D13*
X224861092Y-97625000D03*
X224861092Y-97625000D03*
D14*
X229941092Y-97625000D03*
X229941092Y-97625000D03*
D13*
X235021092Y-97625000D03*
X235021092Y-97625000D03*
D12*
X235441092Y-97625000D03*
X235441092Y-97625000D03*
D15*
X224941092Y-101425000D03*
D16*
X232460863Y-92834984D03*
D17*
X232481092Y-92545000D03*
D18*
X226786087Y-94354996D03*
D17*
X227441092Y-93625000D03*
D15*
X229941092Y-103525000D03*
%TD*%
D12*
%TO.C,S29*%
X130225000Y-97625000D03*
X130225000Y-97625000D03*
D13*
X130645000Y-97625000D03*
X130645000Y-97625000D03*
D14*
X135725000Y-97625000D03*
X135725000Y-97625000D03*
D13*
X140805000Y-97625000D03*
X140805000Y-97625000D03*
D12*
X141225000Y-97625000D03*
X141225000Y-97625000D03*
D15*
X130725000Y-101425000D03*
D16*
X138244771Y-92834984D03*
D17*
X138265000Y-92545000D03*
D18*
X132569995Y-94354996D03*
D17*
X133225000Y-93625000D03*
D15*
X135725000Y-103525000D03*
%TD*%
D12*
%TO.C,S37*%
X54025000Y-116675000D03*
X54025000Y-116675000D03*
D13*
X54445000Y-116675000D03*
X54445000Y-116675000D03*
D14*
X59525000Y-116675000D03*
X59525000Y-116675000D03*
D13*
X64605000Y-116675000D03*
X64605000Y-116675000D03*
D12*
X65025000Y-116675000D03*
X65025000Y-116675000D03*
D15*
X54525000Y-120475000D03*
D16*
X62044771Y-111884984D03*
D17*
X62065000Y-111595000D03*
D18*
X56369995Y-113404996D03*
D17*
X57025000Y-112675000D03*
D15*
X59525000Y-122575000D03*
%TD*%
D12*
%TO.C,S3*%
X92125000Y-59525000D03*
X92125000Y-59525000D03*
D13*
X92545000Y-59525000D03*
X92545000Y-59525000D03*
D14*
X97625000Y-59525000D03*
X97625000Y-59525000D03*
D13*
X102705000Y-59525000D03*
X102705000Y-59525000D03*
D12*
X103125000Y-59525000D03*
X103125000Y-59525000D03*
D15*
X92625000Y-63325000D03*
D16*
X100144771Y-54734984D03*
D17*
X100165000Y-54445000D03*
D18*
X94469995Y-56254996D03*
D17*
X95125000Y-55525000D03*
D15*
X97625000Y-65425000D03*
%TD*%
D12*
%TO.C,S35*%
X300641092Y-97625000D03*
X300641092Y-97625000D03*
D13*
X301061092Y-97625000D03*
X301061092Y-97625000D03*
D14*
X306141092Y-97625000D03*
X306141092Y-97625000D03*
D13*
X311221092Y-97625000D03*
X311221092Y-97625000D03*
D12*
X311641092Y-97625000D03*
X311641092Y-97625000D03*
D15*
X301141092Y-101425000D03*
D16*
X308660863Y-92834984D03*
D17*
X308681092Y-92545000D03*
D18*
X302986087Y-94354996D03*
D17*
X303641092Y-93625000D03*
D15*
X306141092Y-103525000D03*
%TD*%
D12*
%TO.C,S46*%
X281591092Y-116675000D03*
X281591092Y-116675000D03*
D13*
X282011092Y-116675000D03*
X282011092Y-116675000D03*
D14*
X287091092Y-116675000D03*
X287091092Y-116675000D03*
D13*
X292171092Y-116675000D03*
X292171092Y-116675000D03*
D12*
X292591092Y-116675000D03*
X292591092Y-116675000D03*
D15*
X282091092Y-120475000D03*
D16*
X289610863Y-111884984D03*
D17*
X289631092Y-111595000D03*
D18*
X283936087Y-113404996D03*
D17*
X284591092Y-112675000D03*
D15*
X287091092Y-122575000D03*
%TD*%
D12*
%TO.C,S21*%
X262541092Y-78575000D03*
X262541092Y-78575000D03*
D13*
X262961092Y-78575000D03*
X262961092Y-78575000D03*
D14*
X268041092Y-78575000D03*
X268041092Y-78575000D03*
D13*
X273121092Y-78575000D03*
X273121092Y-78575000D03*
D12*
X273541092Y-78575000D03*
X273541092Y-78575000D03*
D15*
X263041092Y-82375000D03*
D16*
X270560863Y-73784984D03*
D17*
X270581092Y-73495000D03*
D18*
X264886087Y-75304996D03*
D17*
X265541092Y-74575000D03*
D15*
X268041092Y-84475000D03*
%TD*%
D12*
%TO.C,S56*%
X243491092Y-135725000D03*
X243491092Y-135725000D03*
D13*
X243911092Y-135725000D03*
X243911092Y-135725000D03*
D14*
X248991092Y-135725000D03*
X248991092Y-135725000D03*
D13*
X254071092Y-135725000D03*
X254071092Y-135725000D03*
D12*
X254491092Y-135725000D03*
X254491092Y-135725000D03*
D15*
X243991092Y-139525000D03*
D16*
X251510863Y-130934984D03*
D17*
X251531092Y-130645000D03*
D18*
X245836087Y-132454996D03*
D17*
X246491092Y-131725000D03*
D15*
X248991092Y-141625000D03*
%TD*%
D12*
%TO.C,S17*%
X130225000Y-78575000D03*
X130225000Y-78575000D03*
D13*
X130645000Y-78575000D03*
X130645000Y-78575000D03*
D14*
X135725000Y-78575000D03*
X135725000Y-78575000D03*
D13*
X140805000Y-78575000D03*
X140805000Y-78575000D03*
D12*
X141225000Y-78575000D03*
X141225000Y-78575000D03*
D15*
X130725000Y-82375000D03*
D16*
X138244771Y-73784984D03*
D17*
X138265000Y-73495000D03*
D18*
X132569995Y-75304996D03*
D17*
X133225000Y-74575000D03*
D15*
X135725000Y-84475000D03*
%TD*%
D21*
%TO.C,J3*%
X175236092Y-72720000D03*
D22*
X175236092Y-70180000D03*
X175236092Y-67640000D03*
X175236092Y-65100000D03*
%TD*%
D12*
%TO.C,S19*%
X224568092Y-78575000D03*
X224568092Y-78575000D03*
D13*
X224988092Y-78575000D03*
X224988092Y-78575000D03*
D14*
X230068092Y-78575000D03*
X230068092Y-78575000D03*
D13*
X235148092Y-78575000D03*
X235148092Y-78575000D03*
D12*
X235568092Y-78575000D03*
X235568092Y-78575000D03*
D15*
X225068092Y-82375000D03*
D16*
X232587863Y-73784984D03*
D17*
X232608092Y-73495000D03*
D18*
X226913087Y-75304996D03*
D17*
X227568092Y-74575000D03*
D15*
X230068092Y-84475000D03*
%TD*%
D12*
%TO.C,S5*%
X130225000Y-59525000D03*
X130225000Y-59525000D03*
D13*
X130645000Y-59525000D03*
X130645000Y-59525000D03*
D14*
X135725000Y-59525000D03*
X135725000Y-59525000D03*
D13*
X140805000Y-59525000D03*
X140805000Y-59525000D03*
D12*
X141225000Y-59525000D03*
X141225000Y-59525000D03*
D15*
X130725000Y-63325000D03*
D16*
X138244771Y-54734984D03*
D17*
X138265000Y-54445000D03*
D18*
X132569995Y-56254996D03*
D17*
X133225000Y-55525000D03*
D15*
X135725000Y-65425000D03*
%TD*%
D12*
%TO.C,S47*%
X300641092Y-116675000D03*
X300641092Y-116675000D03*
D13*
X301061092Y-116675000D03*
X301061092Y-116675000D03*
D14*
X306141092Y-116675000D03*
X306141092Y-116675000D03*
D13*
X311221092Y-116675000D03*
X311221092Y-116675000D03*
D12*
X311641092Y-116675000D03*
X311641092Y-116675000D03*
D15*
X301141092Y-120475000D03*
D16*
X308660863Y-111884984D03*
D17*
X308681092Y-111595000D03*
D18*
X302986087Y-113404996D03*
D17*
X303641092Y-112675000D03*
D15*
X306141092Y-122575000D03*
%TD*%
D12*
%TO.C,S54*%
X149275000Y-135725000D03*
X149275000Y-135725000D03*
D13*
X149695000Y-135725000D03*
X149695000Y-135725000D03*
D14*
X154775000Y-135725000D03*
X154775000Y-135725000D03*
D13*
X159855000Y-135725000D03*
X159855000Y-135725000D03*
D12*
X160275000Y-135725000D03*
X160275000Y-135725000D03*
D15*
X149775000Y-139525000D03*
D16*
X157294771Y-130934984D03*
D17*
X157315000Y-130645000D03*
D18*
X151619995Y-132454996D03*
D17*
X152275000Y-131725000D03*
D15*
X154775000Y-141625000D03*
%TD*%
D12*
%TO.C,S7*%
X224441092Y-59525000D03*
X224441092Y-59525000D03*
D13*
X224861092Y-59525000D03*
X224861092Y-59525000D03*
D14*
X229941092Y-59525000D03*
X229941092Y-59525000D03*
D13*
X235021092Y-59525000D03*
X235021092Y-59525000D03*
D12*
X235441092Y-59525000D03*
X235441092Y-59525000D03*
D15*
X224941092Y-63325000D03*
D16*
X232460863Y-54734984D03*
D17*
X232481092Y-54445000D03*
D18*
X226786087Y-56254996D03*
D17*
X227441092Y-55525000D03*
D15*
X229941092Y-65425000D03*
%TD*%
D12*
%TO.C,S34*%
X281591092Y-97625000D03*
X281591092Y-97625000D03*
D13*
X282011092Y-97625000D03*
X282011092Y-97625000D03*
D14*
X287091092Y-97625000D03*
X287091092Y-97625000D03*
D13*
X292171092Y-97625000D03*
X292171092Y-97625000D03*
D12*
X292591092Y-97625000D03*
X292591092Y-97625000D03*
D15*
X282091092Y-101425000D03*
D16*
X289610863Y-92834984D03*
D17*
X289631092Y-92545000D03*
D18*
X283936087Y-94354996D03*
D17*
X284591092Y-93625000D03*
D15*
X287091092Y-103525000D03*
%TD*%
D23*
%TO.C,D30*%
X142016092Y-103450000D03*
X138716092Y-103450000D03*
%TD*%
%TO.C,D48*%
X312441092Y-122525000D03*
X309141092Y-122525000D03*
%TD*%
%TO.C,D18*%
X142016092Y-84400000D03*
X138716092Y-84400000D03*
%TD*%
%TO.C,D25*%
X331507184Y-84400000D03*
X328207184Y-84400000D03*
%TD*%
%TO.C,D36*%
X312466092Y-103425000D03*
X309166092Y-103425000D03*
%TD*%
D24*
%TO.C,D55*%
X163016542Y-142024308D03*
X163016542Y-138724308D03*
%TD*%
D23*
%TO.C,D49*%
X331491092Y-122525000D03*
X328191092Y-122525000D03*
%TD*%
%TO.C,D28*%
X103941092Y-103475000D03*
X100641092Y-103475000D03*
%TD*%
%TO.C,D34*%
X274341092Y-103500000D03*
X271041092Y-103500000D03*
%TD*%
%TO.C,D20*%
X236384184Y-84425000D03*
X233084184Y-84425000D03*
%TD*%
D25*
%TO.C,J2*%
X222041092Y-124600000D03*
D26*
X222041092Y-127100000D03*
X222041092Y-129600000D03*
%TD*%
D23*
%TO.C,D44*%
X236266092Y-122525000D03*
X232966092Y-122525000D03*
%TD*%
%TO.C,D2*%
X65816092Y-65350000D03*
X62516092Y-65350000D03*
%TD*%
%TO.C,D40*%
X103925000Y-122525000D03*
X100625000Y-122525000D03*
%TD*%
%TO.C,D6*%
X142016092Y-65350000D03*
X138716092Y-65350000D03*
%TD*%
%TO.C,D29*%
X122966092Y-103475000D03*
X119666092Y-103475000D03*
%TD*%
%TO.C,D46*%
X274341092Y-122525000D03*
X271041092Y-122525000D03*
%TD*%
%TO.C,D12*%
X312457184Y-65350000D03*
X309157184Y-65350000D03*
%TD*%
%TO.C,D56*%
X236241092Y-141575000D03*
X232941092Y-141575000D03*
%TD*%
%TO.C,D17*%
X122966092Y-84425000D03*
X119666092Y-84425000D03*
%TD*%
%TO.C,D26*%
X65816908Y-103472032D03*
X62516908Y-103472032D03*
%TD*%
%TO.C,D60*%
X312441092Y-141575000D03*
X309141092Y-141575000D03*
%TD*%
%TO.C,D27*%
X84866092Y-103475000D03*
X81566092Y-103475000D03*
%TD*%
%TO.C,D38*%
X65850000Y-122500000D03*
X62550000Y-122500000D03*
%TD*%
%TO.C,D23*%
X293382184Y-84400000D03*
X290082184Y-84400000D03*
%TD*%
%TO.C,D16*%
X103916092Y-84425000D03*
X100616092Y-84425000D03*
%TD*%
%TO.C,D7*%
X161066092Y-65375000D03*
X157766092Y-65375000D03*
%TD*%
%TO.C,D3*%
X84866092Y-65350000D03*
X81566092Y-65350000D03*
%TD*%
%TO.C,D61*%
X331491092Y-141575000D03*
X328191092Y-141575000D03*
%TD*%
%TO.C,D58*%
X274341092Y-141575000D03*
X271041092Y-141575000D03*
%TD*%
%TO.C,D42*%
X142025000Y-122500000D03*
X138725000Y-122500000D03*
%TD*%
%TO.C,D51*%
X84875000Y-141575000D03*
X81575000Y-141575000D03*
%TD*%
%TO.C,D39*%
X84875000Y-122500000D03*
X81575000Y-122500000D03*
%TD*%
%TO.C,D53*%
X122975000Y-141600000D03*
X119675000Y-141600000D03*
%TD*%
%TO.C,D13*%
X331482184Y-65350000D03*
X328182184Y-65350000D03*
%TD*%
%TO.C,D15*%
X84866092Y-84425000D03*
X81566092Y-84425000D03*
%TD*%
%TO.C,D35*%
X293391092Y-103475000D03*
X290091092Y-103475000D03*
%TD*%
%TO.C,D11*%
X293382184Y-65350000D03*
X290082184Y-65350000D03*
%TD*%
%TO.C,D47*%
X293391092Y-122525000D03*
X290091092Y-122525000D03*
%TD*%
%TO.C,D45*%
X255291092Y-122525000D03*
X251991092Y-122525000D03*
%TD*%
%TO.C,D41*%
X122841092Y-122550000D03*
X119541092Y-122550000D03*
%TD*%
%TO.C,D10*%
X274332184Y-65375000D03*
X271032184Y-65375000D03*
%TD*%
%TO.C,D59*%
X293416092Y-140425000D03*
X290116092Y-140425000D03*
%TD*%
%TO.C,D14*%
X65816092Y-84425000D03*
X62516092Y-84425000D03*
%TD*%
%TO.C,D5*%
X122966092Y-65375000D03*
X119666092Y-65375000D03*
%TD*%
%TO.C,D50*%
X65825000Y-141575000D03*
X62525000Y-141575000D03*
%TD*%
%TO.C,D4*%
X103916092Y-65350000D03*
X100616092Y-65350000D03*
%TD*%
%TO.C,D54*%
X142025000Y-141550000D03*
X138725000Y-141550000D03*
%TD*%
D27*
%TO.C,D31*%
X162966092Y-100650000D03*
X162966092Y-103950000D03*
%TD*%
D23*
%TO.C,D21*%
X255434184Y-84425000D03*
X252134184Y-84425000D03*
%TD*%
D27*
%TO.C,D57*%
X257216092Y-138725000D03*
X257216092Y-142025000D03*
%TD*%
D23*
%TO.C,D22*%
X274332184Y-84425000D03*
X271032184Y-84425000D03*
%TD*%
%TO.C,D32*%
X236241092Y-103475000D03*
X232941092Y-103475000D03*
%TD*%
%TO.C,D8*%
X236232184Y-65375000D03*
X232932184Y-65375000D03*
%TD*%
%TO.C,D37*%
X331466092Y-102150000D03*
X328166092Y-102150000D03*
%TD*%
%TO.C,D9*%
X255282184Y-65375000D03*
X251982184Y-65375000D03*
%TD*%
%TO.C,D24*%
X312432184Y-84425000D03*
X309132184Y-84425000D03*
%TD*%
%TO.C,D19*%
X161066092Y-84425000D03*
X157766092Y-84425000D03*
%TD*%
%TO.C,D33*%
X255291092Y-103450000D03*
X251991092Y-103450000D03*
%TD*%
%TO.C,D52*%
X103925000Y-141575000D03*
X100625000Y-141575000D03*
%TD*%
%TO.C,D43*%
X161075000Y-122525000D03*
X157775000Y-122525000D03*
%TD*%
M02*
