M48
; DRILL file {KiCad 7.0.8-unknown-202310192121~e85eec2e6b~ubuntu22.04.1} date Tue 07 Nov 2023 13:40:34
; FORMAT={-:-/ absolute / inch / decimal}
; #@! TF.CreationDate,2023-11-07T13:40:34+08:00
; #@! TF.GenerationSoftware,Kicad,Pcbnew,7.0.8-unknown-202310192121~e85eec2e6b~ubuntu22.04.1
; #@! TF.FileFunction,Plated,1,2,PTH
FMAT,2
INCH
; #@! TA.AperFunction,Plated,PTH,ViaDrill
T1C0.0157
; #@! TA.AperFunction,Plated,PTH,ComponentDrill
T2C0.0374
; #@! TA.AperFunction,Plated,PTH,ComponentDrill
T3C0.0394
; #@! TA.AperFunction,Plated,PTH,ComponentDrill
T4C0.0472
; #@! TA.AperFunction,Plated,PTH,ComponentDrill
T5C0.0579
; #@! TA.AperFunction,Plated,PTH,ComponentDrill
T6C0.0590
%
G90
G05
T1
X5.7408Y-2.628
X5.7546Y-3.4547
X6.2575Y-2.8258
X6.2585Y-2.747
X6.2605Y-2.6781
X6.3599Y-5.563
X6.4711Y-3.4675
X6.5469Y-4.8071
X6.6119Y-3.9626
X7.418Y-3.064
X7.4918Y-3.3307
X7.5932Y-3.3337
X8.6266Y-3.0667
X8.6847Y-3.1142
X8.7152Y-2.4242
X8.7556Y-2.1063
X8.8658Y-2.7667
X8.8737Y-2.8652
X8.916Y-2.8071
X9.0302Y-2.6713
X9.0607Y-2.8199
X9.1099Y-2.9823
X9.1148Y-2.7697
X9.1266Y-2.7205
X11.4028Y-2.7205
T2
X8.7418Y-4.9055
X8.7418Y-5.0039
X8.7418Y-5.1024
T3
X6.8991Y-2.563
X6.8991Y-2.663
X6.8991Y-2.763
X6.8991Y-2.863
X6.8995Y-2.9636
X6.9995Y-2.9636
X7.2735Y-2.0185
X7.2735Y-2.1185
X7.2735Y-2.2185
X7.2735Y-2.3185
X7.2735Y-2.4185
X7.2735Y-2.5185
X7.2735Y-2.6185
X7.2735Y-2.7185
X7.2735Y-2.8185
X7.2735Y-2.9185
X7.2735Y-3.0185
X7.2735Y-3.1185
X7.2735Y-3.2185
X7.5735Y-3.0185
X7.6735Y-3.0185
X7.7735Y-3.0185
X7.8735Y-2.0185
X7.8735Y-2.1185
X7.8735Y-2.2185
X7.8735Y-2.3185
X7.8735Y-2.4185
X7.8735Y-2.5185
X7.8735Y-2.6185
X7.8735Y-2.7185
X7.8735Y-2.8185
X7.8735Y-2.9185
X7.8735Y-3.0185
X7.8735Y-3.1185
X7.8735Y-3.2185
T4
X2.1467Y-2.4931
X2.1467Y-3.2431
X2.1467Y-3.9931
X2.1467Y-4.7431
X2.1467Y-5.4931
X2.3435Y-2.5758
X2.3435Y-3.3258
X2.3435Y-4.0758
X2.3435Y-4.8258
X2.3435Y-5.5758
X2.8967Y-2.4931
X2.8967Y-3.2431
X2.8967Y-3.9931
X2.8967Y-4.7431
X2.8967Y-5.4931
X3.0935Y-2.5758
X3.0935Y-3.3258
X3.0935Y-4.0758
X3.0935Y-4.8258
X3.0935Y-5.5758
X3.6467Y-2.4931
X3.6467Y-3.2431
X3.6467Y-3.9931
X3.6467Y-4.7431
X3.6467Y-5.4931
X3.8435Y-2.5758
X3.8435Y-3.3258
X3.8435Y-4.0758
X3.8435Y-4.8258
X3.8435Y-5.5758
X4.3917Y-4.7431
X4.3967Y-2.4931
X4.3967Y-3.2431
X4.3967Y-3.9931
X4.3967Y-5.4931
X4.5885Y-4.8258
X4.5935Y-2.5758
X4.5935Y-3.3258
X4.5935Y-4.0758
X4.5935Y-5.5758
X5.1467Y-2.4931
X5.1467Y-3.2431
X5.1467Y-3.9931
X5.1467Y-4.7431
X5.1467Y-5.4931
X5.3435Y-2.5758
X5.3435Y-3.3258
X5.3435Y-4.0758
X5.3435Y-4.8258
X5.3435Y-5.5758
X5.8967Y-2.4931
X5.8967Y-3.2431
X5.8967Y-3.9931
X5.8967Y-4.7431
X5.8967Y-5.4931
X6.0935Y-2.5758
X6.0935Y-3.3258
X6.0935Y-4.0758
X6.0935Y-4.8258
X6.0935Y-5.5758
X8.8559Y-2.4931
X8.8559Y-3.9931
X8.8559Y-4.7431
X8.8559Y-5.4931
X8.8609Y-3.2431
X9.0528Y-2.5758
X9.0528Y-4.0758
X9.0528Y-4.8258
X9.0528Y-5.5758
X9.0578Y-3.3258
X9.6059Y-2.4931
X9.6059Y-3.9931
X9.6059Y-4.7431
X9.6059Y-5.4931
X9.6109Y-3.2431
X9.8028Y-2.5758
X9.8028Y-4.0758
X9.8028Y-4.8258
X9.8028Y-5.5758
X9.8078Y-3.3258
X10.3559Y-2.4931
X10.3559Y-3.2431
X10.3559Y-3.9931
X10.3559Y-4.7431
X10.3559Y-5.4931
X10.5528Y-2.5758
X10.5528Y-3.3258
X10.5528Y-4.0758
X10.5528Y-4.8258
X10.5528Y-5.5758
X11.1059Y-2.4931
X11.1059Y-3.2431
X11.1059Y-3.9931
X11.1059Y-4.7431
X11.1059Y-5.4931
X11.3028Y-2.5758
X11.3028Y-3.3258
X11.3028Y-4.0758
X11.3028Y-4.8258
X11.3028Y-5.5758
X11.8559Y-2.4931
X11.8559Y-3.2431
X11.8559Y-3.9931
X11.8559Y-4.7431
X11.8559Y-5.4931
X12.0528Y-2.5758
X12.0528Y-3.3258
X12.0528Y-4.0758
X12.0528Y-4.8258
X12.0528Y-5.5758
X12.6059Y-2.4931
X12.6059Y-3.2431
X12.6059Y-3.9931
X12.6059Y-4.7431
X12.6059Y-5.4931
X12.8028Y-2.5758
X12.8028Y-3.3258
X12.8028Y-4.0758
X12.8028Y-4.8258
X12.8028Y-5.5758
T5
X2.1935Y-2.2435
X2.1935Y-2.9935
X2.1935Y-3.7435
X2.1935Y-4.4935
X2.1935Y-5.2435
X2.2451Y-2.186
X2.2451Y-2.936
X2.2451Y-3.686
X2.2451Y-4.436
X2.2451Y-5.186
X2.4419Y-2.1663
X2.4419Y-2.9163
X2.4419Y-3.6663
X2.4419Y-4.4163
X2.4419Y-5.1663
X2.4435Y-2.1435
X2.4435Y-2.8935
X2.4435Y-3.6435
X2.4435Y-4.3935
X2.4435Y-5.1435
X2.9435Y-2.2435
X2.9435Y-2.9935
X2.9435Y-3.7435
X2.9435Y-4.4935
X2.9435Y-5.2435
X2.9951Y-2.186
X2.9951Y-2.936
X2.9951Y-3.686
X2.9951Y-4.436
X2.9951Y-5.186
X3.1919Y-2.1663
X3.1919Y-2.9163
X3.1919Y-3.6663
X3.1919Y-4.4163
X3.1919Y-5.1663
X3.1935Y-2.1435
X3.1935Y-2.8935
X3.1935Y-3.6435
X3.1935Y-4.3935
X3.1935Y-5.1435
X3.6935Y-2.2435
X3.6935Y-2.9935
X3.6935Y-3.7435
X3.6935Y-4.4935
X3.6935Y-5.2435
X3.7451Y-2.186
X3.7451Y-2.936
X3.7451Y-3.686
X3.7451Y-4.436
X3.7451Y-5.186
X3.9419Y-2.1663
X3.9419Y-2.9163
X3.9419Y-3.6663
X3.9419Y-4.4163
X3.9419Y-5.1663
X3.9435Y-2.1435
X3.9435Y-2.8935
X3.9435Y-3.6435
X3.9435Y-4.3935
X3.9435Y-5.1435
X4.4385Y-4.4935
X4.4435Y-2.2435
X4.4435Y-2.9935
X4.4435Y-3.7435
X4.4435Y-5.2435
X4.4901Y-4.436
X4.4951Y-2.186
X4.4951Y-2.936
X4.4951Y-3.686
X4.4951Y-5.186
X4.6869Y-4.4163
X4.6885Y-4.3935
X4.6919Y-2.1663
X4.6919Y-2.9163
X4.6919Y-3.6663
X4.6919Y-5.1663
X4.6935Y-2.1435
X4.6935Y-2.8935
X4.6935Y-3.6435
X4.6935Y-5.1435
X5.1935Y-2.2435
X5.1935Y-2.9935
X5.1935Y-3.7435
X5.1935Y-4.4935
X5.1935Y-5.2435
X5.2451Y-2.186
X5.2451Y-2.936
X5.2451Y-3.686
X5.2451Y-4.436
X5.2451Y-5.186
X5.4419Y-2.1663
X5.4419Y-2.9163
X5.4419Y-3.6663
X5.4419Y-4.4163
X5.4419Y-5.1663
X5.4435Y-2.1435
X5.4435Y-2.8935
X5.4435Y-3.6435
X5.4435Y-4.3935
X5.4435Y-5.1435
X5.9435Y-2.2435
X5.9435Y-2.9935
X5.9435Y-3.7435
X5.9435Y-4.4935
X5.9435Y-5.2435
X5.9951Y-2.186
X5.9951Y-2.936
X5.9951Y-3.686
X5.9951Y-4.436
X5.9951Y-5.186
X6.1919Y-2.1663
X6.1919Y-2.9163
X6.1919Y-3.6663
X6.1919Y-4.4163
X6.1919Y-5.1663
X6.1935Y-2.1435
X6.1935Y-2.8935
X6.1935Y-3.6435
X6.1935Y-4.3935
X6.1935Y-5.1435
X8.9028Y-2.2435
X8.9028Y-3.7435
X8.9028Y-4.4935
X8.9028Y-5.2435
X8.9078Y-2.9935
X8.9544Y-2.186
X8.9544Y-3.686
X8.9544Y-4.436
X8.9544Y-5.186
X8.9594Y-2.936
X9.1512Y-2.1663
X9.1512Y-3.6663
X9.1512Y-4.4163
X9.1512Y-5.1663
X9.1528Y-2.1435
X9.1528Y-3.6435
X9.1528Y-4.3935
X9.1528Y-5.1435
X9.1562Y-2.9163
X9.1578Y-2.8935
X9.6528Y-2.2435
X9.6528Y-3.7435
X9.6528Y-4.4935
X9.6528Y-5.2435
X9.6578Y-2.9935
X9.7044Y-2.186
X9.7044Y-3.686
X9.7044Y-4.436
X9.7044Y-5.186
X9.7094Y-2.936
X9.9012Y-2.1663
X9.9012Y-3.6663
X9.9012Y-4.4163
X9.9012Y-5.1663
X9.9028Y-2.1435
X9.9028Y-3.6435
X9.9028Y-4.3935
X9.9028Y-5.1435
X9.9062Y-2.9163
X9.9078Y-2.8935
X10.4028Y-2.2435
X10.4028Y-2.9935
X10.4028Y-3.7435
X10.4028Y-4.4935
X10.4028Y-5.2435
X10.4544Y-2.186
X10.4544Y-2.936
X10.4544Y-3.686
X10.4544Y-4.436
X10.4544Y-5.186
X10.6512Y-2.1663
X10.6512Y-2.9163
X10.6512Y-3.6663
X10.6512Y-4.4163
X10.6512Y-5.1663
X10.6528Y-2.1435
X10.6528Y-2.8935
X10.6528Y-3.6435
X10.6528Y-4.3935
X10.6528Y-5.1435
X11.1528Y-2.2435
X11.1528Y-2.9935
X11.1528Y-3.7435
X11.1528Y-4.4935
X11.1528Y-5.2435
X11.2044Y-2.186
X11.2044Y-2.936
X11.2044Y-3.686
X11.2044Y-4.436
X11.2044Y-5.186
X11.4012Y-2.1663
X11.4012Y-2.9163
X11.4012Y-3.6663
X11.4012Y-4.4163
X11.4012Y-5.1663
X11.4028Y-2.1435
X11.4028Y-2.8935
X11.4028Y-3.6435
X11.4028Y-4.3935
X11.4028Y-5.1435
X11.9028Y-2.2435
X11.9028Y-2.9935
X11.9028Y-3.7435
X11.9028Y-4.4935
X11.9028Y-5.2435
X11.9544Y-2.186
X11.9544Y-2.936
X11.9544Y-3.686
X11.9544Y-4.436
X11.9544Y-5.186
X12.1512Y-2.1663
X12.1512Y-2.9163
X12.1512Y-3.6663
X12.1512Y-4.4163
X12.1512Y-5.1663
X12.1528Y-2.1435
X12.1528Y-2.8935
X12.1528Y-3.6435
X12.1528Y-4.3935
X12.1528Y-5.1435
X12.6528Y-2.2435
X12.6528Y-2.9935
X12.6528Y-3.7435
X12.6528Y-4.4935
X12.6528Y-5.2435
X12.7044Y-2.186
X12.7044Y-2.936
X12.7044Y-3.686
X12.7044Y-4.436
X12.7044Y-5.186
X12.9012Y-2.1663
X12.9012Y-2.9163
X12.9012Y-3.6663
X12.9012Y-4.4163
X12.9012Y-5.1663
X12.9028Y-2.1435
X12.9028Y-2.8935
X12.9028Y-3.6435
X12.9028Y-4.3935
X12.9028Y-5.1435
T6
X5.5635Y-5.2385
X5.8135Y-5.1385
X9.2828Y-5.2385
X9.5328Y-5.1385
T0
M30
