%TF.GenerationSoftware,KiCad,Pcbnew,7.0.8-unknown-202310192121~e85eec2e6b~ubuntu22.04.1*%
%TF.CreationDate,2023-11-07T13:39:59+08:00*%
%TF.ProjectId,Cthulhu,43746875-6c68-4752-9e6b-696361645f70,rev?*%
%TF.SameCoordinates,Original*%
%TF.FileFunction,Legend,Top*%
%TF.FilePolarity,Positive*%
%FSLAX46Y46*%
G04 Gerber Fmt 4.6, Leading zero omitted, Abs format (unit mm)*
G04 Created by KiCad (PCBNEW 7.0.8-unknown-202310192121~e85eec2e6b~ubuntu22.04.1) date 2023-11-07 13:39:59*
%MOMM*%
%LPD*%
G01*
G04 APERTURE LIST*
%ADD10C,0.150000*%
%ADD11C,0.120000*%
%ADD12C,0.203200*%
G04 APERTURE END LIST*
D10*
X134486905Y-120257200D02*
X134629762Y-120304819D01*
X134629762Y-120304819D02*
X134867857Y-120304819D01*
X134867857Y-120304819D02*
X134963095Y-120257200D01*
X134963095Y-120257200D02*
X135010714Y-120209580D01*
X135010714Y-120209580D02*
X135058333Y-120114342D01*
X135058333Y-120114342D02*
X135058333Y-120019104D01*
X135058333Y-120019104D02*
X135010714Y-119923866D01*
X135010714Y-119923866D02*
X134963095Y-119876247D01*
X134963095Y-119876247D02*
X134867857Y-119828628D01*
X134867857Y-119828628D02*
X134677381Y-119781009D01*
X134677381Y-119781009D02*
X134582143Y-119733390D01*
X134582143Y-119733390D02*
X134534524Y-119685771D01*
X134534524Y-119685771D02*
X134486905Y-119590533D01*
X134486905Y-119590533D02*
X134486905Y-119495295D01*
X134486905Y-119495295D02*
X134534524Y-119400057D01*
X134534524Y-119400057D02*
X134582143Y-119352438D01*
X134582143Y-119352438D02*
X134677381Y-119304819D01*
X134677381Y-119304819D02*
X134915476Y-119304819D01*
X134915476Y-119304819D02*
X135058333Y-119352438D01*
X135915476Y-119638152D02*
X135915476Y-120304819D01*
X135677381Y-119257200D02*
X135439286Y-119971485D01*
X135439286Y-119971485D02*
X136058333Y-119971485D01*
X136963095Y-120304819D02*
X136391667Y-120304819D01*
X136677381Y-120304819D02*
X136677381Y-119304819D01*
X136677381Y-119304819D02*
X136582143Y-119447676D01*
X136582143Y-119447676D02*
X136486905Y-119542914D01*
X136486905Y-119542914D02*
X136391667Y-119590533D01*
X96386905Y-120257200D02*
X96529762Y-120304819D01*
X96529762Y-120304819D02*
X96767857Y-120304819D01*
X96767857Y-120304819D02*
X96863095Y-120257200D01*
X96863095Y-120257200D02*
X96910714Y-120209580D01*
X96910714Y-120209580D02*
X96958333Y-120114342D01*
X96958333Y-120114342D02*
X96958333Y-120019104D01*
X96958333Y-120019104D02*
X96910714Y-119923866D01*
X96910714Y-119923866D02*
X96863095Y-119876247D01*
X96863095Y-119876247D02*
X96767857Y-119828628D01*
X96767857Y-119828628D02*
X96577381Y-119781009D01*
X96577381Y-119781009D02*
X96482143Y-119733390D01*
X96482143Y-119733390D02*
X96434524Y-119685771D01*
X96434524Y-119685771D02*
X96386905Y-119590533D01*
X96386905Y-119590533D02*
X96386905Y-119495295D01*
X96386905Y-119495295D02*
X96434524Y-119400057D01*
X96434524Y-119400057D02*
X96482143Y-119352438D01*
X96482143Y-119352438D02*
X96577381Y-119304819D01*
X96577381Y-119304819D02*
X96815476Y-119304819D01*
X96815476Y-119304819D02*
X96958333Y-119352438D01*
X97291667Y-119304819D02*
X97910714Y-119304819D01*
X97910714Y-119304819D02*
X97577381Y-119685771D01*
X97577381Y-119685771D02*
X97720238Y-119685771D01*
X97720238Y-119685771D02*
X97815476Y-119733390D01*
X97815476Y-119733390D02*
X97863095Y-119781009D01*
X97863095Y-119781009D02*
X97910714Y-119876247D01*
X97910714Y-119876247D02*
X97910714Y-120114342D01*
X97910714Y-120114342D02*
X97863095Y-120209580D01*
X97863095Y-120209580D02*
X97815476Y-120257200D01*
X97815476Y-120257200D02*
X97720238Y-120304819D01*
X97720238Y-120304819D02*
X97434524Y-120304819D01*
X97434524Y-120304819D02*
X97339286Y-120257200D01*
X97339286Y-120257200D02*
X97291667Y-120209580D01*
X98386905Y-120304819D02*
X98577381Y-120304819D01*
X98577381Y-120304819D02*
X98672619Y-120257200D01*
X98672619Y-120257200D02*
X98720238Y-120209580D01*
X98720238Y-120209580D02*
X98815476Y-120066723D01*
X98815476Y-120066723D02*
X98863095Y-119876247D01*
X98863095Y-119876247D02*
X98863095Y-119495295D01*
X98863095Y-119495295D02*
X98815476Y-119400057D01*
X98815476Y-119400057D02*
X98767857Y-119352438D01*
X98767857Y-119352438D02*
X98672619Y-119304819D01*
X98672619Y-119304819D02*
X98482143Y-119304819D01*
X98482143Y-119304819D02*
X98386905Y-119352438D01*
X98386905Y-119352438D02*
X98339286Y-119400057D01*
X98339286Y-119400057D02*
X98291667Y-119495295D01*
X98291667Y-119495295D02*
X98291667Y-119733390D01*
X98291667Y-119733390D02*
X98339286Y-119828628D01*
X98339286Y-119828628D02*
X98386905Y-119876247D01*
X98386905Y-119876247D02*
X98482143Y-119923866D01*
X98482143Y-119923866D02*
X98672619Y-119923866D01*
X98672619Y-119923866D02*
X98767857Y-119876247D01*
X98767857Y-119876247D02*
X98815476Y-119828628D01*
X98815476Y-119828628D02*
X98863095Y-119733390D01*
X267279187Y-63107200D02*
X267422044Y-63154819D01*
X267422044Y-63154819D02*
X267660139Y-63154819D01*
X267660139Y-63154819D02*
X267755377Y-63107200D01*
X267755377Y-63107200D02*
X267802996Y-63059580D01*
X267802996Y-63059580D02*
X267850615Y-62964342D01*
X267850615Y-62964342D02*
X267850615Y-62869104D01*
X267850615Y-62869104D02*
X267802996Y-62773866D01*
X267802996Y-62773866D02*
X267755377Y-62726247D01*
X267755377Y-62726247D02*
X267660139Y-62678628D01*
X267660139Y-62678628D02*
X267469663Y-62631009D01*
X267469663Y-62631009D02*
X267374425Y-62583390D01*
X267374425Y-62583390D02*
X267326806Y-62535771D01*
X267326806Y-62535771D02*
X267279187Y-62440533D01*
X267279187Y-62440533D02*
X267279187Y-62345295D01*
X267279187Y-62345295D02*
X267326806Y-62250057D01*
X267326806Y-62250057D02*
X267374425Y-62202438D01*
X267374425Y-62202438D02*
X267469663Y-62154819D01*
X267469663Y-62154819D02*
X267707758Y-62154819D01*
X267707758Y-62154819D02*
X267850615Y-62202438D01*
X268326806Y-63154819D02*
X268517282Y-63154819D01*
X268517282Y-63154819D02*
X268612520Y-63107200D01*
X268612520Y-63107200D02*
X268660139Y-63059580D01*
X268660139Y-63059580D02*
X268755377Y-62916723D01*
X268755377Y-62916723D02*
X268802996Y-62726247D01*
X268802996Y-62726247D02*
X268802996Y-62345295D01*
X268802996Y-62345295D02*
X268755377Y-62250057D01*
X268755377Y-62250057D02*
X268707758Y-62202438D01*
X268707758Y-62202438D02*
X268612520Y-62154819D01*
X268612520Y-62154819D02*
X268422044Y-62154819D01*
X268422044Y-62154819D02*
X268326806Y-62202438D01*
X268326806Y-62202438D02*
X268279187Y-62250057D01*
X268279187Y-62250057D02*
X268231568Y-62345295D01*
X268231568Y-62345295D02*
X268231568Y-62583390D01*
X268231568Y-62583390D02*
X268279187Y-62678628D01*
X268279187Y-62678628D02*
X268326806Y-62726247D01*
X268326806Y-62726247D02*
X268422044Y-62773866D01*
X268422044Y-62773866D02*
X268612520Y-62773866D01*
X268612520Y-62773866D02*
X268707758Y-62726247D01*
X268707758Y-62726247D02*
X268755377Y-62678628D01*
X268755377Y-62678628D02*
X268802996Y-62583390D01*
X323952997Y-120257200D02*
X324095854Y-120304819D01*
X324095854Y-120304819D02*
X324333949Y-120304819D01*
X324333949Y-120304819D02*
X324429187Y-120257200D01*
X324429187Y-120257200D02*
X324476806Y-120209580D01*
X324476806Y-120209580D02*
X324524425Y-120114342D01*
X324524425Y-120114342D02*
X324524425Y-120019104D01*
X324524425Y-120019104D02*
X324476806Y-119923866D01*
X324476806Y-119923866D02*
X324429187Y-119876247D01*
X324429187Y-119876247D02*
X324333949Y-119828628D01*
X324333949Y-119828628D02*
X324143473Y-119781009D01*
X324143473Y-119781009D02*
X324048235Y-119733390D01*
X324048235Y-119733390D02*
X324000616Y-119685771D01*
X324000616Y-119685771D02*
X323952997Y-119590533D01*
X323952997Y-119590533D02*
X323952997Y-119495295D01*
X323952997Y-119495295D02*
X324000616Y-119400057D01*
X324000616Y-119400057D02*
X324048235Y-119352438D01*
X324048235Y-119352438D02*
X324143473Y-119304819D01*
X324143473Y-119304819D02*
X324381568Y-119304819D01*
X324381568Y-119304819D02*
X324524425Y-119352438D01*
X325381568Y-119638152D02*
X325381568Y-120304819D01*
X325143473Y-119257200D02*
X324905378Y-119971485D01*
X324905378Y-119971485D02*
X325524425Y-119971485D01*
X326048235Y-119733390D02*
X325952997Y-119685771D01*
X325952997Y-119685771D02*
X325905378Y-119638152D01*
X325905378Y-119638152D02*
X325857759Y-119542914D01*
X325857759Y-119542914D02*
X325857759Y-119495295D01*
X325857759Y-119495295D02*
X325905378Y-119400057D01*
X325905378Y-119400057D02*
X325952997Y-119352438D01*
X325952997Y-119352438D02*
X326048235Y-119304819D01*
X326048235Y-119304819D02*
X326238711Y-119304819D01*
X326238711Y-119304819D02*
X326333949Y-119352438D01*
X326333949Y-119352438D02*
X326381568Y-119400057D01*
X326381568Y-119400057D02*
X326429187Y-119495295D01*
X326429187Y-119495295D02*
X326429187Y-119542914D01*
X326429187Y-119542914D02*
X326381568Y-119638152D01*
X326381568Y-119638152D02*
X326333949Y-119685771D01*
X326333949Y-119685771D02*
X326238711Y-119733390D01*
X326238711Y-119733390D02*
X326048235Y-119733390D01*
X326048235Y-119733390D02*
X325952997Y-119781009D01*
X325952997Y-119781009D02*
X325905378Y-119828628D01*
X325905378Y-119828628D02*
X325857759Y-119923866D01*
X325857759Y-119923866D02*
X325857759Y-120114342D01*
X325857759Y-120114342D02*
X325905378Y-120209580D01*
X325905378Y-120209580D02*
X325952997Y-120257200D01*
X325952997Y-120257200D02*
X326048235Y-120304819D01*
X326048235Y-120304819D02*
X326238711Y-120304819D01*
X326238711Y-120304819D02*
X326333949Y-120257200D01*
X326333949Y-120257200D02*
X326381568Y-120209580D01*
X326381568Y-120209580D02*
X326429187Y-120114342D01*
X326429187Y-120114342D02*
X326429187Y-119923866D01*
X326429187Y-119923866D02*
X326381568Y-119828628D01*
X326381568Y-119828628D02*
X326333949Y-119781009D01*
X326333949Y-119781009D02*
X326238711Y-119733390D01*
X285852997Y-139307200D02*
X285995854Y-139354819D01*
X285995854Y-139354819D02*
X286233949Y-139354819D01*
X286233949Y-139354819D02*
X286329187Y-139307200D01*
X286329187Y-139307200D02*
X286376806Y-139259580D01*
X286376806Y-139259580D02*
X286424425Y-139164342D01*
X286424425Y-139164342D02*
X286424425Y-139069104D01*
X286424425Y-139069104D02*
X286376806Y-138973866D01*
X286376806Y-138973866D02*
X286329187Y-138926247D01*
X286329187Y-138926247D02*
X286233949Y-138878628D01*
X286233949Y-138878628D02*
X286043473Y-138831009D01*
X286043473Y-138831009D02*
X285948235Y-138783390D01*
X285948235Y-138783390D02*
X285900616Y-138735771D01*
X285900616Y-138735771D02*
X285852997Y-138640533D01*
X285852997Y-138640533D02*
X285852997Y-138545295D01*
X285852997Y-138545295D02*
X285900616Y-138450057D01*
X285900616Y-138450057D02*
X285948235Y-138402438D01*
X285948235Y-138402438D02*
X286043473Y-138354819D01*
X286043473Y-138354819D02*
X286281568Y-138354819D01*
X286281568Y-138354819D02*
X286424425Y-138402438D01*
X287329187Y-138354819D02*
X286852997Y-138354819D01*
X286852997Y-138354819D02*
X286805378Y-138831009D01*
X286805378Y-138831009D02*
X286852997Y-138783390D01*
X286852997Y-138783390D02*
X286948235Y-138735771D01*
X286948235Y-138735771D02*
X287186330Y-138735771D01*
X287186330Y-138735771D02*
X287281568Y-138783390D01*
X287281568Y-138783390D02*
X287329187Y-138831009D01*
X287329187Y-138831009D02*
X287376806Y-138926247D01*
X287376806Y-138926247D02*
X287376806Y-139164342D01*
X287376806Y-139164342D02*
X287329187Y-139259580D01*
X287329187Y-139259580D02*
X287281568Y-139307200D01*
X287281568Y-139307200D02*
X287186330Y-139354819D01*
X287186330Y-139354819D02*
X286948235Y-139354819D01*
X286948235Y-139354819D02*
X286852997Y-139307200D01*
X286852997Y-139307200D02*
X286805378Y-139259580D01*
X287948235Y-138783390D02*
X287852997Y-138735771D01*
X287852997Y-138735771D02*
X287805378Y-138688152D01*
X287805378Y-138688152D02*
X287757759Y-138592914D01*
X287757759Y-138592914D02*
X287757759Y-138545295D01*
X287757759Y-138545295D02*
X287805378Y-138450057D01*
X287805378Y-138450057D02*
X287852997Y-138402438D01*
X287852997Y-138402438D02*
X287948235Y-138354819D01*
X287948235Y-138354819D02*
X288138711Y-138354819D01*
X288138711Y-138354819D02*
X288233949Y-138402438D01*
X288233949Y-138402438D02*
X288281568Y-138450057D01*
X288281568Y-138450057D02*
X288329187Y-138545295D01*
X288329187Y-138545295D02*
X288329187Y-138592914D01*
X288329187Y-138592914D02*
X288281568Y-138688152D01*
X288281568Y-138688152D02*
X288233949Y-138735771D01*
X288233949Y-138735771D02*
X288138711Y-138783390D01*
X288138711Y-138783390D02*
X287948235Y-138783390D01*
X287948235Y-138783390D02*
X287852997Y-138831009D01*
X287852997Y-138831009D02*
X287805378Y-138878628D01*
X287805378Y-138878628D02*
X287757759Y-138973866D01*
X287757759Y-138973866D02*
X287757759Y-139164342D01*
X287757759Y-139164342D02*
X287805378Y-139259580D01*
X287805378Y-139259580D02*
X287852997Y-139307200D01*
X287852997Y-139307200D02*
X287948235Y-139354819D01*
X287948235Y-139354819D02*
X288138711Y-139354819D01*
X288138711Y-139354819D02*
X288233949Y-139307200D01*
X288233949Y-139307200D02*
X288281568Y-139259580D01*
X288281568Y-139259580D02*
X288329187Y-139164342D01*
X288329187Y-139164342D02*
X288329187Y-138973866D01*
X288329187Y-138973866D02*
X288281568Y-138878628D01*
X288281568Y-138878628D02*
X288233949Y-138831009D01*
X288233949Y-138831009D02*
X288138711Y-138783390D01*
X266802997Y-101207200D02*
X266945854Y-101254819D01*
X266945854Y-101254819D02*
X267183949Y-101254819D01*
X267183949Y-101254819D02*
X267279187Y-101207200D01*
X267279187Y-101207200D02*
X267326806Y-101159580D01*
X267326806Y-101159580D02*
X267374425Y-101064342D01*
X267374425Y-101064342D02*
X267374425Y-100969104D01*
X267374425Y-100969104D02*
X267326806Y-100873866D01*
X267326806Y-100873866D02*
X267279187Y-100826247D01*
X267279187Y-100826247D02*
X267183949Y-100778628D01*
X267183949Y-100778628D02*
X266993473Y-100731009D01*
X266993473Y-100731009D02*
X266898235Y-100683390D01*
X266898235Y-100683390D02*
X266850616Y-100635771D01*
X266850616Y-100635771D02*
X266802997Y-100540533D01*
X266802997Y-100540533D02*
X266802997Y-100445295D01*
X266802997Y-100445295D02*
X266850616Y-100350057D01*
X266850616Y-100350057D02*
X266898235Y-100302438D01*
X266898235Y-100302438D02*
X266993473Y-100254819D01*
X266993473Y-100254819D02*
X267231568Y-100254819D01*
X267231568Y-100254819D02*
X267374425Y-100302438D01*
X267707759Y-100254819D02*
X268326806Y-100254819D01*
X268326806Y-100254819D02*
X267993473Y-100635771D01*
X267993473Y-100635771D02*
X268136330Y-100635771D01*
X268136330Y-100635771D02*
X268231568Y-100683390D01*
X268231568Y-100683390D02*
X268279187Y-100731009D01*
X268279187Y-100731009D02*
X268326806Y-100826247D01*
X268326806Y-100826247D02*
X268326806Y-101064342D01*
X268326806Y-101064342D02*
X268279187Y-101159580D01*
X268279187Y-101159580D02*
X268231568Y-101207200D01*
X268231568Y-101207200D02*
X268136330Y-101254819D01*
X268136330Y-101254819D02*
X267850616Y-101254819D01*
X267850616Y-101254819D02*
X267755378Y-101207200D01*
X267755378Y-101207200D02*
X267707759Y-101159580D01*
X268660140Y-100254819D02*
X269279187Y-100254819D01*
X269279187Y-100254819D02*
X268945854Y-100635771D01*
X268945854Y-100635771D02*
X269088711Y-100635771D01*
X269088711Y-100635771D02*
X269183949Y-100683390D01*
X269183949Y-100683390D02*
X269231568Y-100731009D01*
X269231568Y-100731009D02*
X269279187Y-100826247D01*
X269279187Y-100826247D02*
X269279187Y-101064342D01*
X269279187Y-101064342D02*
X269231568Y-101159580D01*
X269231568Y-101159580D02*
X269183949Y-101207200D01*
X269183949Y-101207200D02*
X269088711Y-101254819D01*
X269088711Y-101254819D02*
X268802997Y-101254819D01*
X268802997Y-101254819D02*
X268707759Y-101207200D01*
X268707759Y-101207200D02*
X268660140Y-101159580D01*
X58763095Y-63107200D02*
X58905952Y-63154819D01*
X58905952Y-63154819D02*
X59144047Y-63154819D01*
X59144047Y-63154819D02*
X59239285Y-63107200D01*
X59239285Y-63107200D02*
X59286904Y-63059580D01*
X59286904Y-63059580D02*
X59334523Y-62964342D01*
X59334523Y-62964342D02*
X59334523Y-62869104D01*
X59334523Y-62869104D02*
X59286904Y-62773866D01*
X59286904Y-62773866D02*
X59239285Y-62726247D01*
X59239285Y-62726247D02*
X59144047Y-62678628D01*
X59144047Y-62678628D02*
X58953571Y-62631009D01*
X58953571Y-62631009D02*
X58858333Y-62583390D01*
X58858333Y-62583390D02*
X58810714Y-62535771D01*
X58810714Y-62535771D02*
X58763095Y-62440533D01*
X58763095Y-62440533D02*
X58763095Y-62345295D01*
X58763095Y-62345295D02*
X58810714Y-62250057D01*
X58810714Y-62250057D02*
X58858333Y-62202438D01*
X58858333Y-62202438D02*
X58953571Y-62154819D01*
X58953571Y-62154819D02*
X59191666Y-62154819D01*
X59191666Y-62154819D02*
X59334523Y-62202438D01*
X60286904Y-63154819D02*
X59715476Y-63154819D01*
X60001190Y-63154819D02*
X60001190Y-62154819D01*
X60001190Y-62154819D02*
X59905952Y-62297676D01*
X59905952Y-62297676D02*
X59810714Y-62392914D01*
X59810714Y-62392914D02*
X59715476Y-62440533D01*
X77813095Y-63107200D02*
X77955952Y-63154819D01*
X77955952Y-63154819D02*
X78194047Y-63154819D01*
X78194047Y-63154819D02*
X78289285Y-63107200D01*
X78289285Y-63107200D02*
X78336904Y-63059580D01*
X78336904Y-63059580D02*
X78384523Y-62964342D01*
X78384523Y-62964342D02*
X78384523Y-62869104D01*
X78384523Y-62869104D02*
X78336904Y-62773866D01*
X78336904Y-62773866D02*
X78289285Y-62726247D01*
X78289285Y-62726247D02*
X78194047Y-62678628D01*
X78194047Y-62678628D02*
X78003571Y-62631009D01*
X78003571Y-62631009D02*
X77908333Y-62583390D01*
X77908333Y-62583390D02*
X77860714Y-62535771D01*
X77860714Y-62535771D02*
X77813095Y-62440533D01*
X77813095Y-62440533D02*
X77813095Y-62345295D01*
X77813095Y-62345295D02*
X77860714Y-62250057D01*
X77860714Y-62250057D02*
X77908333Y-62202438D01*
X77908333Y-62202438D02*
X78003571Y-62154819D01*
X78003571Y-62154819D02*
X78241666Y-62154819D01*
X78241666Y-62154819D02*
X78384523Y-62202438D01*
X78765476Y-62250057D02*
X78813095Y-62202438D01*
X78813095Y-62202438D02*
X78908333Y-62154819D01*
X78908333Y-62154819D02*
X79146428Y-62154819D01*
X79146428Y-62154819D02*
X79241666Y-62202438D01*
X79241666Y-62202438D02*
X79289285Y-62250057D01*
X79289285Y-62250057D02*
X79336904Y-62345295D01*
X79336904Y-62345295D02*
X79336904Y-62440533D01*
X79336904Y-62440533D02*
X79289285Y-62583390D01*
X79289285Y-62583390D02*
X78717857Y-63154819D01*
X78717857Y-63154819D02*
X79336904Y-63154819D01*
X266802997Y-139307200D02*
X266945854Y-139354819D01*
X266945854Y-139354819D02*
X267183949Y-139354819D01*
X267183949Y-139354819D02*
X267279187Y-139307200D01*
X267279187Y-139307200D02*
X267326806Y-139259580D01*
X267326806Y-139259580D02*
X267374425Y-139164342D01*
X267374425Y-139164342D02*
X267374425Y-139069104D01*
X267374425Y-139069104D02*
X267326806Y-138973866D01*
X267326806Y-138973866D02*
X267279187Y-138926247D01*
X267279187Y-138926247D02*
X267183949Y-138878628D01*
X267183949Y-138878628D02*
X266993473Y-138831009D01*
X266993473Y-138831009D02*
X266898235Y-138783390D01*
X266898235Y-138783390D02*
X266850616Y-138735771D01*
X266850616Y-138735771D02*
X266802997Y-138640533D01*
X266802997Y-138640533D02*
X266802997Y-138545295D01*
X266802997Y-138545295D02*
X266850616Y-138450057D01*
X266850616Y-138450057D02*
X266898235Y-138402438D01*
X266898235Y-138402438D02*
X266993473Y-138354819D01*
X266993473Y-138354819D02*
X267231568Y-138354819D01*
X267231568Y-138354819D02*
X267374425Y-138402438D01*
X268279187Y-138354819D02*
X267802997Y-138354819D01*
X267802997Y-138354819D02*
X267755378Y-138831009D01*
X267755378Y-138831009D02*
X267802997Y-138783390D01*
X267802997Y-138783390D02*
X267898235Y-138735771D01*
X267898235Y-138735771D02*
X268136330Y-138735771D01*
X268136330Y-138735771D02*
X268231568Y-138783390D01*
X268231568Y-138783390D02*
X268279187Y-138831009D01*
X268279187Y-138831009D02*
X268326806Y-138926247D01*
X268326806Y-138926247D02*
X268326806Y-139164342D01*
X268326806Y-139164342D02*
X268279187Y-139259580D01*
X268279187Y-139259580D02*
X268231568Y-139307200D01*
X268231568Y-139307200D02*
X268136330Y-139354819D01*
X268136330Y-139354819D02*
X267898235Y-139354819D01*
X267898235Y-139354819D02*
X267802997Y-139307200D01*
X267802997Y-139307200D02*
X267755378Y-139259580D01*
X268660140Y-138354819D02*
X269326806Y-138354819D01*
X269326806Y-138354819D02*
X268898235Y-139354819D01*
X247752997Y-101207200D02*
X247895854Y-101254819D01*
X247895854Y-101254819D02*
X248133949Y-101254819D01*
X248133949Y-101254819D02*
X248229187Y-101207200D01*
X248229187Y-101207200D02*
X248276806Y-101159580D01*
X248276806Y-101159580D02*
X248324425Y-101064342D01*
X248324425Y-101064342D02*
X248324425Y-100969104D01*
X248324425Y-100969104D02*
X248276806Y-100873866D01*
X248276806Y-100873866D02*
X248229187Y-100826247D01*
X248229187Y-100826247D02*
X248133949Y-100778628D01*
X248133949Y-100778628D02*
X247943473Y-100731009D01*
X247943473Y-100731009D02*
X247848235Y-100683390D01*
X247848235Y-100683390D02*
X247800616Y-100635771D01*
X247800616Y-100635771D02*
X247752997Y-100540533D01*
X247752997Y-100540533D02*
X247752997Y-100445295D01*
X247752997Y-100445295D02*
X247800616Y-100350057D01*
X247800616Y-100350057D02*
X247848235Y-100302438D01*
X247848235Y-100302438D02*
X247943473Y-100254819D01*
X247943473Y-100254819D02*
X248181568Y-100254819D01*
X248181568Y-100254819D02*
X248324425Y-100302438D01*
X248657759Y-100254819D02*
X249276806Y-100254819D01*
X249276806Y-100254819D02*
X248943473Y-100635771D01*
X248943473Y-100635771D02*
X249086330Y-100635771D01*
X249086330Y-100635771D02*
X249181568Y-100683390D01*
X249181568Y-100683390D02*
X249229187Y-100731009D01*
X249229187Y-100731009D02*
X249276806Y-100826247D01*
X249276806Y-100826247D02*
X249276806Y-101064342D01*
X249276806Y-101064342D02*
X249229187Y-101159580D01*
X249229187Y-101159580D02*
X249181568Y-101207200D01*
X249181568Y-101207200D02*
X249086330Y-101254819D01*
X249086330Y-101254819D02*
X248800616Y-101254819D01*
X248800616Y-101254819D02*
X248705378Y-101207200D01*
X248705378Y-101207200D02*
X248657759Y-101159580D01*
X249657759Y-100350057D02*
X249705378Y-100302438D01*
X249705378Y-100302438D02*
X249800616Y-100254819D01*
X249800616Y-100254819D02*
X250038711Y-100254819D01*
X250038711Y-100254819D02*
X250133949Y-100302438D01*
X250133949Y-100302438D02*
X250181568Y-100350057D01*
X250181568Y-100350057D02*
X250229187Y-100445295D01*
X250229187Y-100445295D02*
X250229187Y-100540533D01*
X250229187Y-100540533D02*
X250181568Y-100683390D01*
X250181568Y-100683390D02*
X249610140Y-101254819D01*
X249610140Y-101254819D02*
X250229187Y-101254819D01*
X323952997Y-139307200D02*
X324095854Y-139354819D01*
X324095854Y-139354819D02*
X324333949Y-139354819D01*
X324333949Y-139354819D02*
X324429187Y-139307200D01*
X324429187Y-139307200D02*
X324476806Y-139259580D01*
X324476806Y-139259580D02*
X324524425Y-139164342D01*
X324524425Y-139164342D02*
X324524425Y-139069104D01*
X324524425Y-139069104D02*
X324476806Y-138973866D01*
X324476806Y-138973866D02*
X324429187Y-138926247D01*
X324429187Y-138926247D02*
X324333949Y-138878628D01*
X324333949Y-138878628D02*
X324143473Y-138831009D01*
X324143473Y-138831009D02*
X324048235Y-138783390D01*
X324048235Y-138783390D02*
X324000616Y-138735771D01*
X324000616Y-138735771D02*
X323952997Y-138640533D01*
X323952997Y-138640533D02*
X323952997Y-138545295D01*
X323952997Y-138545295D02*
X324000616Y-138450057D01*
X324000616Y-138450057D02*
X324048235Y-138402438D01*
X324048235Y-138402438D02*
X324143473Y-138354819D01*
X324143473Y-138354819D02*
X324381568Y-138354819D01*
X324381568Y-138354819D02*
X324524425Y-138402438D01*
X325381568Y-138354819D02*
X325191092Y-138354819D01*
X325191092Y-138354819D02*
X325095854Y-138402438D01*
X325095854Y-138402438D02*
X325048235Y-138450057D01*
X325048235Y-138450057D02*
X324952997Y-138592914D01*
X324952997Y-138592914D02*
X324905378Y-138783390D01*
X324905378Y-138783390D02*
X324905378Y-139164342D01*
X324905378Y-139164342D02*
X324952997Y-139259580D01*
X324952997Y-139259580D02*
X325000616Y-139307200D01*
X325000616Y-139307200D02*
X325095854Y-139354819D01*
X325095854Y-139354819D02*
X325286330Y-139354819D01*
X325286330Y-139354819D02*
X325381568Y-139307200D01*
X325381568Y-139307200D02*
X325429187Y-139259580D01*
X325429187Y-139259580D02*
X325476806Y-139164342D01*
X325476806Y-139164342D02*
X325476806Y-138926247D01*
X325476806Y-138926247D02*
X325429187Y-138831009D01*
X325429187Y-138831009D02*
X325381568Y-138783390D01*
X325381568Y-138783390D02*
X325286330Y-138735771D01*
X325286330Y-138735771D02*
X325095854Y-138735771D01*
X325095854Y-138735771D02*
X325000616Y-138783390D01*
X325000616Y-138783390D02*
X324952997Y-138831009D01*
X324952997Y-138831009D02*
X324905378Y-138926247D01*
X326095854Y-138354819D02*
X326191092Y-138354819D01*
X326191092Y-138354819D02*
X326286330Y-138402438D01*
X326286330Y-138402438D02*
X326333949Y-138450057D01*
X326333949Y-138450057D02*
X326381568Y-138545295D01*
X326381568Y-138545295D02*
X326429187Y-138735771D01*
X326429187Y-138735771D02*
X326429187Y-138973866D01*
X326429187Y-138973866D02*
X326381568Y-139164342D01*
X326381568Y-139164342D02*
X326333949Y-139259580D01*
X326333949Y-139259580D02*
X326286330Y-139307200D01*
X326286330Y-139307200D02*
X326191092Y-139354819D01*
X326191092Y-139354819D02*
X326095854Y-139354819D01*
X326095854Y-139354819D02*
X326000616Y-139307200D01*
X326000616Y-139307200D02*
X325952997Y-139259580D01*
X325952997Y-139259580D02*
X325905378Y-139164342D01*
X325905378Y-139164342D02*
X325857759Y-138973866D01*
X325857759Y-138973866D02*
X325857759Y-138735771D01*
X325857759Y-138735771D02*
X325905378Y-138545295D01*
X325905378Y-138545295D02*
X325952997Y-138450057D01*
X325952997Y-138450057D02*
X326000616Y-138402438D01*
X326000616Y-138402438D02*
X326095854Y-138354819D01*
X248229187Y-63107200D02*
X248372044Y-63154819D01*
X248372044Y-63154819D02*
X248610139Y-63154819D01*
X248610139Y-63154819D02*
X248705377Y-63107200D01*
X248705377Y-63107200D02*
X248752996Y-63059580D01*
X248752996Y-63059580D02*
X248800615Y-62964342D01*
X248800615Y-62964342D02*
X248800615Y-62869104D01*
X248800615Y-62869104D02*
X248752996Y-62773866D01*
X248752996Y-62773866D02*
X248705377Y-62726247D01*
X248705377Y-62726247D02*
X248610139Y-62678628D01*
X248610139Y-62678628D02*
X248419663Y-62631009D01*
X248419663Y-62631009D02*
X248324425Y-62583390D01*
X248324425Y-62583390D02*
X248276806Y-62535771D01*
X248276806Y-62535771D02*
X248229187Y-62440533D01*
X248229187Y-62440533D02*
X248229187Y-62345295D01*
X248229187Y-62345295D02*
X248276806Y-62250057D01*
X248276806Y-62250057D02*
X248324425Y-62202438D01*
X248324425Y-62202438D02*
X248419663Y-62154819D01*
X248419663Y-62154819D02*
X248657758Y-62154819D01*
X248657758Y-62154819D02*
X248800615Y-62202438D01*
X249372044Y-62583390D02*
X249276806Y-62535771D01*
X249276806Y-62535771D02*
X249229187Y-62488152D01*
X249229187Y-62488152D02*
X249181568Y-62392914D01*
X249181568Y-62392914D02*
X249181568Y-62345295D01*
X249181568Y-62345295D02*
X249229187Y-62250057D01*
X249229187Y-62250057D02*
X249276806Y-62202438D01*
X249276806Y-62202438D02*
X249372044Y-62154819D01*
X249372044Y-62154819D02*
X249562520Y-62154819D01*
X249562520Y-62154819D02*
X249657758Y-62202438D01*
X249657758Y-62202438D02*
X249705377Y-62250057D01*
X249705377Y-62250057D02*
X249752996Y-62345295D01*
X249752996Y-62345295D02*
X249752996Y-62392914D01*
X249752996Y-62392914D02*
X249705377Y-62488152D01*
X249705377Y-62488152D02*
X249657758Y-62535771D01*
X249657758Y-62535771D02*
X249562520Y-62583390D01*
X249562520Y-62583390D02*
X249372044Y-62583390D01*
X249372044Y-62583390D02*
X249276806Y-62631009D01*
X249276806Y-62631009D02*
X249229187Y-62678628D01*
X249229187Y-62678628D02*
X249181568Y-62773866D01*
X249181568Y-62773866D02*
X249181568Y-62964342D01*
X249181568Y-62964342D02*
X249229187Y-63059580D01*
X249229187Y-63059580D02*
X249276806Y-63107200D01*
X249276806Y-63107200D02*
X249372044Y-63154819D01*
X249372044Y-63154819D02*
X249562520Y-63154819D01*
X249562520Y-63154819D02*
X249657758Y-63107200D01*
X249657758Y-63107200D02*
X249705377Y-63059580D01*
X249705377Y-63059580D02*
X249752996Y-62964342D01*
X249752996Y-62964342D02*
X249752996Y-62773866D01*
X249752996Y-62773866D02*
X249705377Y-62678628D01*
X249705377Y-62678628D02*
X249657758Y-62631009D01*
X249657758Y-62631009D02*
X249562520Y-62583390D01*
X153536905Y-101207200D02*
X153679762Y-101254819D01*
X153679762Y-101254819D02*
X153917857Y-101254819D01*
X153917857Y-101254819D02*
X154013095Y-101207200D01*
X154013095Y-101207200D02*
X154060714Y-101159580D01*
X154060714Y-101159580D02*
X154108333Y-101064342D01*
X154108333Y-101064342D02*
X154108333Y-100969104D01*
X154108333Y-100969104D02*
X154060714Y-100873866D01*
X154060714Y-100873866D02*
X154013095Y-100826247D01*
X154013095Y-100826247D02*
X153917857Y-100778628D01*
X153917857Y-100778628D02*
X153727381Y-100731009D01*
X153727381Y-100731009D02*
X153632143Y-100683390D01*
X153632143Y-100683390D02*
X153584524Y-100635771D01*
X153584524Y-100635771D02*
X153536905Y-100540533D01*
X153536905Y-100540533D02*
X153536905Y-100445295D01*
X153536905Y-100445295D02*
X153584524Y-100350057D01*
X153584524Y-100350057D02*
X153632143Y-100302438D01*
X153632143Y-100302438D02*
X153727381Y-100254819D01*
X153727381Y-100254819D02*
X153965476Y-100254819D01*
X153965476Y-100254819D02*
X154108333Y-100302438D01*
X154441667Y-100254819D02*
X155060714Y-100254819D01*
X155060714Y-100254819D02*
X154727381Y-100635771D01*
X154727381Y-100635771D02*
X154870238Y-100635771D01*
X154870238Y-100635771D02*
X154965476Y-100683390D01*
X154965476Y-100683390D02*
X155013095Y-100731009D01*
X155013095Y-100731009D02*
X155060714Y-100826247D01*
X155060714Y-100826247D02*
X155060714Y-101064342D01*
X155060714Y-101064342D02*
X155013095Y-101159580D01*
X155013095Y-101159580D02*
X154965476Y-101207200D01*
X154965476Y-101207200D02*
X154870238Y-101254819D01*
X154870238Y-101254819D02*
X154584524Y-101254819D01*
X154584524Y-101254819D02*
X154489286Y-101207200D01*
X154489286Y-101207200D02*
X154441667Y-101159580D01*
X155679762Y-100254819D02*
X155775000Y-100254819D01*
X155775000Y-100254819D02*
X155870238Y-100302438D01*
X155870238Y-100302438D02*
X155917857Y-100350057D01*
X155917857Y-100350057D02*
X155965476Y-100445295D01*
X155965476Y-100445295D02*
X156013095Y-100635771D01*
X156013095Y-100635771D02*
X156013095Y-100873866D01*
X156013095Y-100873866D02*
X155965476Y-101064342D01*
X155965476Y-101064342D02*
X155917857Y-101159580D01*
X155917857Y-101159580D02*
X155870238Y-101207200D01*
X155870238Y-101207200D02*
X155775000Y-101254819D01*
X155775000Y-101254819D02*
X155679762Y-101254819D01*
X155679762Y-101254819D02*
X155584524Y-101207200D01*
X155584524Y-101207200D02*
X155536905Y-101159580D01*
X155536905Y-101159580D02*
X155489286Y-101064342D01*
X155489286Y-101064342D02*
X155441667Y-100873866D01*
X155441667Y-100873866D02*
X155441667Y-100635771D01*
X155441667Y-100635771D02*
X155489286Y-100445295D01*
X155489286Y-100445295D02*
X155536905Y-100350057D01*
X155536905Y-100350057D02*
X155584524Y-100302438D01*
X155584524Y-100302438D02*
X155679762Y-100254819D01*
X77336905Y-82157200D02*
X77479762Y-82204819D01*
X77479762Y-82204819D02*
X77717857Y-82204819D01*
X77717857Y-82204819D02*
X77813095Y-82157200D01*
X77813095Y-82157200D02*
X77860714Y-82109580D01*
X77860714Y-82109580D02*
X77908333Y-82014342D01*
X77908333Y-82014342D02*
X77908333Y-81919104D01*
X77908333Y-81919104D02*
X77860714Y-81823866D01*
X77860714Y-81823866D02*
X77813095Y-81776247D01*
X77813095Y-81776247D02*
X77717857Y-81728628D01*
X77717857Y-81728628D02*
X77527381Y-81681009D01*
X77527381Y-81681009D02*
X77432143Y-81633390D01*
X77432143Y-81633390D02*
X77384524Y-81585771D01*
X77384524Y-81585771D02*
X77336905Y-81490533D01*
X77336905Y-81490533D02*
X77336905Y-81395295D01*
X77336905Y-81395295D02*
X77384524Y-81300057D01*
X77384524Y-81300057D02*
X77432143Y-81252438D01*
X77432143Y-81252438D02*
X77527381Y-81204819D01*
X77527381Y-81204819D02*
X77765476Y-81204819D01*
X77765476Y-81204819D02*
X77908333Y-81252438D01*
X78860714Y-82204819D02*
X78289286Y-82204819D01*
X78575000Y-82204819D02*
X78575000Y-81204819D01*
X78575000Y-81204819D02*
X78479762Y-81347676D01*
X78479762Y-81347676D02*
X78384524Y-81442914D01*
X78384524Y-81442914D02*
X78289286Y-81490533D01*
X79717857Y-81538152D02*
X79717857Y-82204819D01*
X79479762Y-81157200D02*
X79241667Y-81871485D01*
X79241667Y-81871485D02*
X79860714Y-81871485D01*
X115436905Y-101207200D02*
X115579762Y-101254819D01*
X115579762Y-101254819D02*
X115817857Y-101254819D01*
X115817857Y-101254819D02*
X115913095Y-101207200D01*
X115913095Y-101207200D02*
X115960714Y-101159580D01*
X115960714Y-101159580D02*
X116008333Y-101064342D01*
X116008333Y-101064342D02*
X116008333Y-100969104D01*
X116008333Y-100969104D02*
X115960714Y-100873866D01*
X115960714Y-100873866D02*
X115913095Y-100826247D01*
X115913095Y-100826247D02*
X115817857Y-100778628D01*
X115817857Y-100778628D02*
X115627381Y-100731009D01*
X115627381Y-100731009D02*
X115532143Y-100683390D01*
X115532143Y-100683390D02*
X115484524Y-100635771D01*
X115484524Y-100635771D02*
X115436905Y-100540533D01*
X115436905Y-100540533D02*
X115436905Y-100445295D01*
X115436905Y-100445295D02*
X115484524Y-100350057D01*
X115484524Y-100350057D02*
X115532143Y-100302438D01*
X115532143Y-100302438D02*
X115627381Y-100254819D01*
X115627381Y-100254819D02*
X115865476Y-100254819D01*
X115865476Y-100254819D02*
X116008333Y-100302438D01*
X116389286Y-100350057D02*
X116436905Y-100302438D01*
X116436905Y-100302438D02*
X116532143Y-100254819D01*
X116532143Y-100254819D02*
X116770238Y-100254819D01*
X116770238Y-100254819D02*
X116865476Y-100302438D01*
X116865476Y-100302438D02*
X116913095Y-100350057D01*
X116913095Y-100350057D02*
X116960714Y-100445295D01*
X116960714Y-100445295D02*
X116960714Y-100540533D01*
X116960714Y-100540533D02*
X116913095Y-100683390D01*
X116913095Y-100683390D02*
X116341667Y-101254819D01*
X116341667Y-101254819D02*
X116960714Y-101254819D01*
X117532143Y-100683390D02*
X117436905Y-100635771D01*
X117436905Y-100635771D02*
X117389286Y-100588152D01*
X117389286Y-100588152D02*
X117341667Y-100492914D01*
X117341667Y-100492914D02*
X117341667Y-100445295D01*
X117341667Y-100445295D02*
X117389286Y-100350057D01*
X117389286Y-100350057D02*
X117436905Y-100302438D01*
X117436905Y-100302438D02*
X117532143Y-100254819D01*
X117532143Y-100254819D02*
X117722619Y-100254819D01*
X117722619Y-100254819D02*
X117817857Y-100302438D01*
X117817857Y-100302438D02*
X117865476Y-100350057D01*
X117865476Y-100350057D02*
X117913095Y-100445295D01*
X117913095Y-100445295D02*
X117913095Y-100492914D01*
X117913095Y-100492914D02*
X117865476Y-100588152D01*
X117865476Y-100588152D02*
X117817857Y-100635771D01*
X117817857Y-100635771D02*
X117722619Y-100683390D01*
X117722619Y-100683390D02*
X117532143Y-100683390D01*
X117532143Y-100683390D02*
X117436905Y-100731009D01*
X117436905Y-100731009D02*
X117389286Y-100778628D01*
X117389286Y-100778628D02*
X117341667Y-100873866D01*
X117341667Y-100873866D02*
X117341667Y-101064342D01*
X117341667Y-101064342D02*
X117389286Y-101159580D01*
X117389286Y-101159580D02*
X117436905Y-101207200D01*
X117436905Y-101207200D02*
X117532143Y-101254819D01*
X117532143Y-101254819D02*
X117722619Y-101254819D01*
X117722619Y-101254819D02*
X117817857Y-101207200D01*
X117817857Y-101207200D02*
X117865476Y-101159580D01*
X117865476Y-101159580D02*
X117913095Y-101064342D01*
X117913095Y-101064342D02*
X117913095Y-100873866D01*
X117913095Y-100873866D02*
X117865476Y-100778628D01*
X117865476Y-100778628D02*
X117817857Y-100731009D01*
X117817857Y-100731009D02*
X117722619Y-100683390D01*
X134486905Y-139307200D02*
X134629762Y-139354819D01*
X134629762Y-139354819D02*
X134867857Y-139354819D01*
X134867857Y-139354819D02*
X134963095Y-139307200D01*
X134963095Y-139307200D02*
X135010714Y-139259580D01*
X135010714Y-139259580D02*
X135058333Y-139164342D01*
X135058333Y-139164342D02*
X135058333Y-139069104D01*
X135058333Y-139069104D02*
X135010714Y-138973866D01*
X135010714Y-138973866D02*
X134963095Y-138926247D01*
X134963095Y-138926247D02*
X134867857Y-138878628D01*
X134867857Y-138878628D02*
X134677381Y-138831009D01*
X134677381Y-138831009D02*
X134582143Y-138783390D01*
X134582143Y-138783390D02*
X134534524Y-138735771D01*
X134534524Y-138735771D02*
X134486905Y-138640533D01*
X134486905Y-138640533D02*
X134486905Y-138545295D01*
X134486905Y-138545295D02*
X134534524Y-138450057D01*
X134534524Y-138450057D02*
X134582143Y-138402438D01*
X134582143Y-138402438D02*
X134677381Y-138354819D01*
X134677381Y-138354819D02*
X134915476Y-138354819D01*
X134915476Y-138354819D02*
X135058333Y-138402438D01*
X135963095Y-138354819D02*
X135486905Y-138354819D01*
X135486905Y-138354819D02*
X135439286Y-138831009D01*
X135439286Y-138831009D02*
X135486905Y-138783390D01*
X135486905Y-138783390D02*
X135582143Y-138735771D01*
X135582143Y-138735771D02*
X135820238Y-138735771D01*
X135820238Y-138735771D02*
X135915476Y-138783390D01*
X135915476Y-138783390D02*
X135963095Y-138831009D01*
X135963095Y-138831009D02*
X136010714Y-138926247D01*
X136010714Y-138926247D02*
X136010714Y-139164342D01*
X136010714Y-139164342D02*
X135963095Y-139259580D01*
X135963095Y-139259580D02*
X135915476Y-139307200D01*
X135915476Y-139307200D02*
X135820238Y-139354819D01*
X135820238Y-139354819D02*
X135582143Y-139354819D01*
X135582143Y-139354819D02*
X135486905Y-139307200D01*
X135486905Y-139307200D02*
X135439286Y-139259580D01*
X136344048Y-138354819D02*
X136963095Y-138354819D01*
X136963095Y-138354819D02*
X136629762Y-138735771D01*
X136629762Y-138735771D02*
X136772619Y-138735771D01*
X136772619Y-138735771D02*
X136867857Y-138783390D01*
X136867857Y-138783390D02*
X136915476Y-138831009D01*
X136915476Y-138831009D02*
X136963095Y-138926247D01*
X136963095Y-138926247D02*
X136963095Y-139164342D01*
X136963095Y-139164342D02*
X136915476Y-139259580D01*
X136915476Y-139259580D02*
X136867857Y-139307200D01*
X136867857Y-139307200D02*
X136772619Y-139354819D01*
X136772619Y-139354819D02*
X136486905Y-139354819D01*
X136486905Y-139354819D02*
X136391667Y-139307200D01*
X136391667Y-139307200D02*
X136344048Y-139259580D01*
X77336905Y-139307200D02*
X77479762Y-139354819D01*
X77479762Y-139354819D02*
X77717857Y-139354819D01*
X77717857Y-139354819D02*
X77813095Y-139307200D01*
X77813095Y-139307200D02*
X77860714Y-139259580D01*
X77860714Y-139259580D02*
X77908333Y-139164342D01*
X77908333Y-139164342D02*
X77908333Y-139069104D01*
X77908333Y-139069104D02*
X77860714Y-138973866D01*
X77860714Y-138973866D02*
X77813095Y-138926247D01*
X77813095Y-138926247D02*
X77717857Y-138878628D01*
X77717857Y-138878628D02*
X77527381Y-138831009D01*
X77527381Y-138831009D02*
X77432143Y-138783390D01*
X77432143Y-138783390D02*
X77384524Y-138735771D01*
X77384524Y-138735771D02*
X77336905Y-138640533D01*
X77336905Y-138640533D02*
X77336905Y-138545295D01*
X77336905Y-138545295D02*
X77384524Y-138450057D01*
X77384524Y-138450057D02*
X77432143Y-138402438D01*
X77432143Y-138402438D02*
X77527381Y-138354819D01*
X77527381Y-138354819D02*
X77765476Y-138354819D01*
X77765476Y-138354819D02*
X77908333Y-138402438D01*
X78813095Y-138354819D02*
X78336905Y-138354819D01*
X78336905Y-138354819D02*
X78289286Y-138831009D01*
X78289286Y-138831009D02*
X78336905Y-138783390D01*
X78336905Y-138783390D02*
X78432143Y-138735771D01*
X78432143Y-138735771D02*
X78670238Y-138735771D01*
X78670238Y-138735771D02*
X78765476Y-138783390D01*
X78765476Y-138783390D02*
X78813095Y-138831009D01*
X78813095Y-138831009D02*
X78860714Y-138926247D01*
X78860714Y-138926247D02*
X78860714Y-139164342D01*
X78860714Y-139164342D02*
X78813095Y-139259580D01*
X78813095Y-139259580D02*
X78765476Y-139307200D01*
X78765476Y-139307200D02*
X78670238Y-139354819D01*
X78670238Y-139354819D02*
X78432143Y-139354819D01*
X78432143Y-139354819D02*
X78336905Y-139307200D01*
X78336905Y-139307200D02*
X78289286Y-139259580D01*
X79479762Y-138354819D02*
X79575000Y-138354819D01*
X79575000Y-138354819D02*
X79670238Y-138402438D01*
X79670238Y-138402438D02*
X79717857Y-138450057D01*
X79717857Y-138450057D02*
X79765476Y-138545295D01*
X79765476Y-138545295D02*
X79813095Y-138735771D01*
X79813095Y-138735771D02*
X79813095Y-138973866D01*
X79813095Y-138973866D02*
X79765476Y-139164342D01*
X79765476Y-139164342D02*
X79717857Y-139259580D01*
X79717857Y-139259580D02*
X79670238Y-139307200D01*
X79670238Y-139307200D02*
X79575000Y-139354819D01*
X79575000Y-139354819D02*
X79479762Y-139354819D01*
X79479762Y-139354819D02*
X79384524Y-139307200D01*
X79384524Y-139307200D02*
X79336905Y-139259580D01*
X79336905Y-139259580D02*
X79289286Y-139164342D01*
X79289286Y-139164342D02*
X79241667Y-138973866D01*
X79241667Y-138973866D02*
X79241667Y-138735771D01*
X79241667Y-138735771D02*
X79289286Y-138545295D01*
X79289286Y-138545295D02*
X79336905Y-138450057D01*
X79336905Y-138450057D02*
X79384524Y-138402438D01*
X79384524Y-138402438D02*
X79479762Y-138354819D01*
X153536905Y-120257200D02*
X153679762Y-120304819D01*
X153679762Y-120304819D02*
X153917857Y-120304819D01*
X153917857Y-120304819D02*
X154013095Y-120257200D01*
X154013095Y-120257200D02*
X154060714Y-120209580D01*
X154060714Y-120209580D02*
X154108333Y-120114342D01*
X154108333Y-120114342D02*
X154108333Y-120019104D01*
X154108333Y-120019104D02*
X154060714Y-119923866D01*
X154060714Y-119923866D02*
X154013095Y-119876247D01*
X154013095Y-119876247D02*
X153917857Y-119828628D01*
X153917857Y-119828628D02*
X153727381Y-119781009D01*
X153727381Y-119781009D02*
X153632143Y-119733390D01*
X153632143Y-119733390D02*
X153584524Y-119685771D01*
X153584524Y-119685771D02*
X153536905Y-119590533D01*
X153536905Y-119590533D02*
X153536905Y-119495295D01*
X153536905Y-119495295D02*
X153584524Y-119400057D01*
X153584524Y-119400057D02*
X153632143Y-119352438D01*
X153632143Y-119352438D02*
X153727381Y-119304819D01*
X153727381Y-119304819D02*
X153965476Y-119304819D01*
X153965476Y-119304819D02*
X154108333Y-119352438D01*
X154965476Y-119638152D02*
X154965476Y-120304819D01*
X154727381Y-119257200D02*
X154489286Y-119971485D01*
X154489286Y-119971485D02*
X155108333Y-119971485D01*
X155441667Y-119400057D02*
X155489286Y-119352438D01*
X155489286Y-119352438D02*
X155584524Y-119304819D01*
X155584524Y-119304819D02*
X155822619Y-119304819D01*
X155822619Y-119304819D02*
X155917857Y-119352438D01*
X155917857Y-119352438D02*
X155965476Y-119400057D01*
X155965476Y-119400057D02*
X156013095Y-119495295D01*
X156013095Y-119495295D02*
X156013095Y-119590533D01*
X156013095Y-119590533D02*
X155965476Y-119733390D01*
X155965476Y-119733390D02*
X155394048Y-120304819D01*
X155394048Y-120304819D02*
X156013095Y-120304819D01*
X285852997Y-82157200D02*
X285995854Y-82204819D01*
X285995854Y-82204819D02*
X286233949Y-82204819D01*
X286233949Y-82204819D02*
X286329187Y-82157200D01*
X286329187Y-82157200D02*
X286376806Y-82109580D01*
X286376806Y-82109580D02*
X286424425Y-82014342D01*
X286424425Y-82014342D02*
X286424425Y-81919104D01*
X286424425Y-81919104D02*
X286376806Y-81823866D01*
X286376806Y-81823866D02*
X286329187Y-81776247D01*
X286329187Y-81776247D02*
X286233949Y-81728628D01*
X286233949Y-81728628D02*
X286043473Y-81681009D01*
X286043473Y-81681009D02*
X285948235Y-81633390D01*
X285948235Y-81633390D02*
X285900616Y-81585771D01*
X285900616Y-81585771D02*
X285852997Y-81490533D01*
X285852997Y-81490533D02*
X285852997Y-81395295D01*
X285852997Y-81395295D02*
X285900616Y-81300057D01*
X285900616Y-81300057D02*
X285948235Y-81252438D01*
X285948235Y-81252438D02*
X286043473Y-81204819D01*
X286043473Y-81204819D02*
X286281568Y-81204819D01*
X286281568Y-81204819D02*
X286424425Y-81252438D01*
X286805378Y-81300057D02*
X286852997Y-81252438D01*
X286852997Y-81252438D02*
X286948235Y-81204819D01*
X286948235Y-81204819D02*
X287186330Y-81204819D01*
X287186330Y-81204819D02*
X287281568Y-81252438D01*
X287281568Y-81252438D02*
X287329187Y-81300057D01*
X287329187Y-81300057D02*
X287376806Y-81395295D01*
X287376806Y-81395295D02*
X287376806Y-81490533D01*
X287376806Y-81490533D02*
X287329187Y-81633390D01*
X287329187Y-81633390D02*
X286757759Y-82204819D01*
X286757759Y-82204819D02*
X287376806Y-82204819D01*
X287757759Y-81300057D02*
X287805378Y-81252438D01*
X287805378Y-81252438D02*
X287900616Y-81204819D01*
X287900616Y-81204819D02*
X288138711Y-81204819D01*
X288138711Y-81204819D02*
X288233949Y-81252438D01*
X288233949Y-81252438D02*
X288281568Y-81300057D01*
X288281568Y-81300057D02*
X288329187Y-81395295D01*
X288329187Y-81395295D02*
X288329187Y-81490533D01*
X288329187Y-81490533D02*
X288281568Y-81633390D01*
X288281568Y-81633390D02*
X287710140Y-82204819D01*
X287710140Y-82204819D02*
X288329187Y-82204819D01*
X247879997Y-82157200D02*
X248022854Y-82204819D01*
X248022854Y-82204819D02*
X248260949Y-82204819D01*
X248260949Y-82204819D02*
X248356187Y-82157200D01*
X248356187Y-82157200D02*
X248403806Y-82109580D01*
X248403806Y-82109580D02*
X248451425Y-82014342D01*
X248451425Y-82014342D02*
X248451425Y-81919104D01*
X248451425Y-81919104D02*
X248403806Y-81823866D01*
X248403806Y-81823866D02*
X248356187Y-81776247D01*
X248356187Y-81776247D02*
X248260949Y-81728628D01*
X248260949Y-81728628D02*
X248070473Y-81681009D01*
X248070473Y-81681009D02*
X247975235Y-81633390D01*
X247975235Y-81633390D02*
X247927616Y-81585771D01*
X247927616Y-81585771D02*
X247879997Y-81490533D01*
X247879997Y-81490533D02*
X247879997Y-81395295D01*
X247879997Y-81395295D02*
X247927616Y-81300057D01*
X247927616Y-81300057D02*
X247975235Y-81252438D01*
X247975235Y-81252438D02*
X248070473Y-81204819D01*
X248070473Y-81204819D02*
X248308568Y-81204819D01*
X248308568Y-81204819D02*
X248451425Y-81252438D01*
X248832378Y-81300057D02*
X248879997Y-81252438D01*
X248879997Y-81252438D02*
X248975235Y-81204819D01*
X248975235Y-81204819D02*
X249213330Y-81204819D01*
X249213330Y-81204819D02*
X249308568Y-81252438D01*
X249308568Y-81252438D02*
X249356187Y-81300057D01*
X249356187Y-81300057D02*
X249403806Y-81395295D01*
X249403806Y-81395295D02*
X249403806Y-81490533D01*
X249403806Y-81490533D02*
X249356187Y-81633390D01*
X249356187Y-81633390D02*
X248784759Y-82204819D01*
X248784759Y-82204819D02*
X249403806Y-82204819D01*
X250022854Y-81204819D02*
X250118092Y-81204819D01*
X250118092Y-81204819D02*
X250213330Y-81252438D01*
X250213330Y-81252438D02*
X250260949Y-81300057D01*
X250260949Y-81300057D02*
X250308568Y-81395295D01*
X250308568Y-81395295D02*
X250356187Y-81585771D01*
X250356187Y-81585771D02*
X250356187Y-81823866D01*
X250356187Y-81823866D02*
X250308568Y-82014342D01*
X250308568Y-82014342D02*
X250260949Y-82109580D01*
X250260949Y-82109580D02*
X250213330Y-82157200D01*
X250213330Y-82157200D02*
X250118092Y-82204819D01*
X250118092Y-82204819D02*
X250022854Y-82204819D01*
X250022854Y-82204819D02*
X249927616Y-82157200D01*
X249927616Y-82157200D02*
X249879997Y-82109580D01*
X249879997Y-82109580D02*
X249832378Y-82014342D01*
X249832378Y-82014342D02*
X249784759Y-81823866D01*
X249784759Y-81823866D02*
X249784759Y-81585771D01*
X249784759Y-81585771D02*
X249832378Y-81395295D01*
X249832378Y-81395295D02*
X249879997Y-81300057D01*
X249879997Y-81300057D02*
X249927616Y-81252438D01*
X249927616Y-81252438D02*
X250022854Y-81204819D01*
X176352758Y-72629819D02*
X176352758Y-73344104D01*
X176352758Y-73344104D02*
X176305139Y-73486961D01*
X176305139Y-73486961D02*
X176209901Y-73582200D01*
X176209901Y-73582200D02*
X176067044Y-73629819D01*
X176067044Y-73629819D02*
X175971806Y-73629819D01*
X177257520Y-72963152D02*
X177257520Y-73629819D01*
X177019425Y-72582200D02*
X176781330Y-73296485D01*
X176781330Y-73296485D02*
X177400377Y-73296485D01*
X58286905Y-139307200D02*
X58429762Y-139354819D01*
X58429762Y-139354819D02*
X58667857Y-139354819D01*
X58667857Y-139354819D02*
X58763095Y-139307200D01*
X58763095Y-139307200D02*
X58810714Y-139259580D01*
X58810714Y-139259580D02*
X58858333Y-139164342D01*
X58858333Y-139164342D02*
X58858333Y-139069104D01*
X58858333Y-139069104D02*
X58810714Y-138973866D01*
X58810714Y-138973866D02*
X58763095Y-138926247D01*
X58763095Y-138926247D02*
X58667857Y-138878628D01*
X58667857Y-138878628D02*
X58477381Y-138831009D01*
X58477381Y-138831009D02*
X58382143Y-138783390D01*
X58382143Y-138783390D02*
X58334524Y-138735771D01*
X58334524Y-138735771D02*
X58286905Y-138640533D01*
X58286905Y-138640533D02*
X58286905Y-138545295D01*
X58286905Y-138545295D02*
X58334524Y-138450057D01*
X58334524Y-138450057D02*
X58382143Y-138402438D01*
X58382143Y-138402438D02*
X58477381Y-138354819D01*
X58477381Y-138354819D02*
X58715476Y-138354819D01*
X58715476Y-138354819D02*
X58858333Y-138402438D01*
X59715476Y-138688152D02*
X59715476Y-139354819D01*
X59477381Y-138307200D02*
X59239286Y-139021485D01*
X59239286Y-139021485D02*
X59858333Y-139021485D01*
X60286905Y-139354819D02*
X60477381Y-139354819D01*
X60477381Y-139354819D02*
X60572619Y-139307200D01*
X60572619Y-139307200D02*
X60620238Y-139259580D01*
X60620238Y-139259580D02*
X60715476Y-139116723D01*
X60715476Y-139116723D02*
X60763095Y-138926247D01*
X60763095Y-138926247D02*
X60763095Y-138545295D01*
X60763095Y-138545295D02*
X60715476Y-138450057D01*
X60715476Y-138450057D02*
X60667857Y-138402438D01*
X60667857Y-138402438D02*
X60572619Y-138354819D01*
X60572619Y-138354819D02*
X60382143Y-138354819D01*
X60382143Y-138354819D02*
X60286905Y-138402438D01*
X60286905Y-138402438D02*
X60239286Y-138450057D01*
X60239286Y-138450057D02*
X60191667Y-138545295D01*
X60191667Y-138545295D02*
X60191667Y-138783390D01*
X60191667Y-138783390D02*
X60239286Y-138878628D01*
X60239286Y-138878628D02*
X60286905Y-138926247D01*
X60286905Y-138926247D02*
X60382143Y-138973866D01*
X60382143Y-138973866D02*
X60572619Y-138973866D01*
X60572619Y-138973866D02*
X60667857Y-138926247D01*
X60667857Y-138926247D02*
X60715476Y-138878628D01*
X60715476Y-138878628D02*
X60763095Y-138783390D01*
X266802997Y-120257200D02*
X266945854Y-120304819D01*
X266945854Y-120304819D02*
X267183949Y-120304819D01*
X267183949Y-120304819D02*
X267279187Y-120257200D01*
X267279187Y-120257200D02*
X267326806Y-120209580D01*
X267326806Y-120209580D02*
X267374425Y-120114342D01*
X267374425Y-120114342D02*
X267374425Y-120019104D01*
X267374425Y-120019104D02*
X267326806Y-119923866D01*
X267326806Y-119923866D02*
X267279187Y-119876247D01*
X267279187Y-119876247D02*
X267183949Y-119828628D01*
X267183949Y-119828628D02*
X266993473Y-119781009D01*
X266993473Y-119781009D02*
X266898235Y-119733390D01*
X266898235Y-119733390D02*
X266850616Y-119685771D01*
X266850616Y-119685771D02*
X266802997Y-119590533D01*
X266802997Y-119590533D02*
X266802997Y-119495295D01*
X266802997Y-119495295D02*
X266850616Y-119400057D01*
X266850616Y-119400057D02*
X266898235Y-119352438D01*
X266898235Y-119352438D02*
X266993473Y-119304819D01*
X266993473Y-119304819D02*
X267231568Y-119304819D01*
X267231568Y-119304819D02*
X267374425Y-119352438D01*
X268231568Y-119638152D02*
X268231568Y-120304819D01*
X267993473Y-119257200D02*
X267755378Y-119971485D01*
X267755378Y-119971485D02*
X268374425Y-119971485D01*
X269231568Y-119304819D02*
X268755378Y-119304819D01*
X268755378Y-119304819D02*
X268707759Y-119781009D01*
X268707759Y-119781009D02*
X268755378Y-119733390D01*
X268755378Y-119733390D02*
X268850616Y-119685771D01*
X268850616Y-119685771D02*
X269088711Y-119685771D01*
X269088711Y-119685771D02*
X269183949Y-119733390D01*
X269183949Y-119733390D02*
X269231568Y-119781009D01*
X269231568Y-119781009D02*
X269279187Y-119876247D01*
X269279187Y-119876247D02*
X269279187Y-120114342D01*
X269279187Y-120114342D02*
X269231568Y-120209580D01*
X269231568Y-120209580D02*
X269183949Y-120257200D01*
X269183949Y-120257200D02*
X269088711Y-120304819D01*
X269088711Y-120304819D02*
X268850616Y-120304819D01*
X268850616Y-120304819D02*
X268755378Y-120257200D01*
X268755378Y-120257200D02*
X268707759Y-120209580D01*
X247752997Y-120257200D02*
X247895854Y-120304819D01*
X247895854Y-120304819D02*
X248133949Y-120304819D01*
X248133949Y-120304819D02*
X248229187Y-120257200D01*
X248229187Y-120257200D02*
X248276806Y-120209580D01*
X248276806Y-120209580D02*
X248324425Y-120114342D01*
X248324425Y-120114342D02*
X248324425Y-120019104D01*
X248324425Y-120019104D02*
X248276806Y-119923866D01*
X248276806Y-119923866D02*
X248229187Y-119876247D01*
X248229187Y-119876247D02*
X248133949Y-119828628D01*
X248133949Y-119828628D02*
X247943473Y-119781009D01*
X247943473Y-119781009D02*
X247848235Y-119733390D01*
X247848235Y-119733390D02*
X247800616Y-119685771D01*
X247800616Y-119685771D02*
X247752997Y-119590533D01*
X247752997Y-119590533D02*
X247752997Y-119495295D01*
X247752997Y-119495295D02*
X247800616Y-119400057D01*
X247800616Y-119400057D02*
X247848235Y-119352438D01*
X247848235Y-119352438D02*
X247943473Y-119304819D01*
X247943473Y-119304819D02*
X248181568Y-119304819D01*
X248181568Y-119304819D02*
X248324425Y-119352438D01*
X249181568Y-119638152D02*
X249181568Y-120304819D01*
X248943473Y-119257200D02*
X248705378Y-119971485D01*
X248705378Y-119971485D02*
X249324425Y-119971485D01*
X250133949Y-119638152D02*
X250133949Y-120304819D01*
X249895854Y-119257200D02*
X249657759Y-119971485D01*
X249657759Y-119971485D02*
X250276806Y-119971485D01*
X304902997Y-82157200D02*
X305045854Y-82204819D01*
X305045854Y-82204819D02*
X305283949Y-82204819D01*
X305283949Y-82204819D02*
X305379187Y-82157200D01*
X305379187Y-82157200D02*
X305426806Y-82109580D01*
X305426806Y-82109580D02*
X305474425Y-82014342D01*
X305474425Y-82014342D02*
X305474425Y-81919104D01*
X305474425Y-81919104D02*
X305426806Y-81823866D01*
X305426806Y-81823866D02*
X305379187Y-81776247D01*
X305379187Y-81776247D02*
X305283949Y-81728628D01*
X305283949Y-81728628D02*
X305093473Y-81681009D01*
X305093473Y-81681009D02*
X304998235Y-81633390D01*
X304998235Y-81633390D02*
X304950616Y-81585771D01*
X304950616Y-81585771D02*
X304902997Y-81490533D01*
X304902997Y-81490533D02*
X304902997Y-81395295D01*
X304902997Y-81395295D02*
X304950616Y-81300057D01*
X304950616Y-81300057D02*
X304998235Y-81252438D01*
X304998235Y-81252438D02*
X305093473Y-81204819D01*
X305093473Y-81204819D02*
X305331568Y-81204819D01*
X305331568Y-81204819D02*
X305474425Y-81252438D01*
X305855378Y-81300057D02*
X305902997Y-81252438D01*
X305902997Y-81252438D02*
X305998235Y-81204819D01*
X305998235Y-81204819D02*
X306236330Y-81204819D01*
X306236330Y-81204819D02*
X306331568Y-81252438D01*
X306331568Y-81252438D02*
X306379187Y-81300057D01*
X306379187Y-81300057D02*
X306426806Y-81395295D01*
X306426806Y-81395295D02*
X306426806Y-81490533D01*
X306426806Y-81490533D02*
X306379187Y-81633390D01*
X306379187Y-81633390D02*
X305807759Y-82204819D01*
X305807759Y-82204819D02*
X306426806Y-82204819D01*
X306760140Y-81204819D02*
X307379187Y-81204819D01*
X307379187Y-81204819D02*
X307045854Y-81585771D01*
X307045854Y-81585771D02*
X307188711Y-81585771D01*
X307188711Y-81585771D02*
X307283949Y-81633390D01*
X307283949Y-81633390D02*
X307331568Y-81681009D01*
X307331568Y-81681009D02*
X307379187Y-81776247D01*
X307379187Y-81776247D02*
X307379187Y-82014342D01*
X307379187Y-82014342D02*
X307331568Y-82109580D01*
X307331568Y-82109580D02*
X307283949Y-82157200D01*
X307283949Y-82157200D02*
X307188711Y-82204819D01*
X307188711Y-82204819D02*
X306902997Y-82204819D01*
X306902997Y-82204819D02*
X306807759Y-82157200D01*
X306807759Y-82157200D02*
X306760140Y-82109580D01*
X228702997Y-139307200D02*
X228845854Y-139354819D01*
X228845854Y-139354819D02*
X229083949Y-139354819D01*
X229083949Y-139354819D02*
X229179187Y-139307200D01*
X229179187Y-139307200D02*
X229226806Y-139259580D01*
X229226806Y-139259580D02*
X229274425Y-139164342D01*
X229274425Y-139164342D02*
X229274425Y-139069104D01*
X229274425Y-139069104D02*
X229226806Y-138973866D01*
X229226806Y-138973866D02*
X229179187Y-138926247D01*
X229179187Y-138926247D02*
X229083949Y-138878628D01*
X229083949Y-138878628D02*
X228893473Y-138831009D01*
X228893473Y-138831009D02*
X228798235Y-138783390D01*
X228798235Y-138783390D02*
X228750616Y-138735771D01*
X228750616Y-138735771D02*
X228702997Y-138640533D01*
X228702997Y-138640533D02*
X228702997Y-138545295D01*
X228702997Y-138545295D02*
X228750616Y-138450057D01*
X228750616Y-138450057D02*
X228798235Y-138402438D01*
X228798235Y-138402438D02*
X228893473Y-138354819D01*
X228893473Y-138354819D02*
X229131568Y-138354819D01*
X229131568Y-138354819D02*
X229274425Y-138402438D01*
X230179187Y-138354819D02*
X229702997Y-138354819D01*
X229702997Y-138354819D02*
X229655378Y-138831009D01*
X229655378Y-138831009D02*
X229702997Y-138783390D01*
X229702997Y-138783390D02*
X229798235Y-138735771D01*
X229798235Y-138735771D02*
X230036330Y-138735771D01*
X230036330Y-138735771D02*
X230131568Y-138783390D01*
X230131568Y-138783390D02*
X230179187Y-138831009D01*
X230179187Y-138831009D02*
X230226806Y-138926247D01*
X230226806Y-138926247D02*
X230226806Y-139164342D01*
X230226806Y-139164342D02*
X230179187Y-139259580D01*
X230179187Y-139259580D02*
X230131568Y-139307200D01*
X230131568Y-139307200D02*
X230036330Y-139354819D01*
X230036330Y-139354819D02*
X229798235Y-139354819D01*
X229798235Y-139354819D02*
X229702997Y-139307200D01*
X229702997Y-139307200D02*
X229655378Y-139259580D01*
X231131568Y-138354819D02*
X230655378Y-138354819D01*
X230655378Y-138354819D02*
X230607759Y-138831009D01*
X230607759Y-138831009D02*
X230655378Y-138783390D01*
X230655378Y-138783390D02*
X230750616Y-138735771D01*
X230750616Y-138735771D02*
X230988711Y-138735771D01*
X230988711Y-138735771D02*
X231083949Y-138783390D01*
X231083949Y-138783390D02*
X231131568Y-138831009D01*
X231131568Y-138831009D02*
X231179187Y-138926247D01*
X231179187Y-138926247D02*
X231179187Y-139164342D01*
X231179187Y-139164342D02*
X231131568Y-139259580D01*
X231131568Y-139259580D02*
X231083949Y-139307200D01*
X231083949Y-139307200D02*
X230988711Y-139354819D01*
X230988711Y-139354819D02*
X230750616Y-139354819D01*
X230750616Y-139354819D02*
X230655378Y-139307200D01*
X230655378Y-139307200D02*
X230607759Y-139259580D01*
X153536905Y-82157200D02*
X153679762Y-82204819D01*
X153679762Y-82204819D02*
X153917857Y-82204819D01*
X153917857Y-82204819D02*
X154013095Y-82157200D01*
X154013095Y-82157200D02*
X154060714Y-82109580D01*
X154060714Y-82109580D02*
X154108333Y-82014342D01*
X154108333Y-82014342D02*
X154108333Y-81919104D01*
X154108333Y-81919104D02*
X154060714Y-81823866D01*
X154060714Y-81823866D02*
X154013095Y-81776247D01*
X154013095Y-81776247D02*
X153917857Y-81728628D01*
X153917857Y-81728628D02*
X153727381Y-81681009D01*
X153727381Y-81681009D02*
X153632143Y-81633390D01*
X153632143Y-81633390D02*
X153584524Y-81585771D01*
X153584524Y-81585771D02*
X153536905Y-81490533D01*
X153536905Y-81490533D02*
X153536905Y-81395295D01*
X153536905Y-81395295D02*
X153584524Y-81300057D01*
X153584524Y-81300057D02*
X153632143Y-81252438D01*
X153632143Y-81252438D02*
X153727381Y-81204819D01*
X153727381Y-81204819D02*
X153965476Y-81204819D01*
X153965476Y-81204819D02*
X154108333Y-81252438D01*
X155060714Y-82204819D02*
X154489286Y-82204819D01*
X154775000Y-82204819D02*
X154775000Y-81204819D01*
X154775000Y-81204819D02*
X154679762Y-81347676D01*
X154679762Y-81347676D02*
X154584524Y-81442914D01*
X154584524Y-81442914D02*
X154489286Y-81490533D01*
X155632143Y-81633390D02*
X155536905Y-81585771D01*
X155536905Y-81585771D02*
X155489286Y-81538152D01*
X155489286Y-81538152D02*
X155441667Y-81442914D01*
X155441667Y-81442914D02*
X155441667Y-81395295D01*
X155441667Y-81395295D02*
X155489286Y-81300057D01*
X155489286Y-81300057D02*
X155536905Y-81252438D01*
X155536905Y-81252438D02*
X155632143Y-81204819D01*
X155632143Y-81204819D02*
X155822619Y-81204819D01*
X155822619Y-81204819D02*
X155917857Y-81252438D01*
X155917857Y-81252438D02*
X155965476Y-81300057D01*
X155965476Y-81300057D02*
X156013095Y-81395295D01*
X156013095Y-81395295D02*
X156013095Y-81442914D01*
X156013095Y-81442914D02*
X155965476Y-81538152D01*
X155965476Y-81538152D02*
X155917857Y-81585771D01*
X155917857Y-81585771D02*
X155822619Y-81633390D01*
X155822619Y-81633390D02*
X155632143Y-81633390D01*
X155632143Y-81633390D02*
X155536905Y-81681009D01*
X155536905Y-81681009D02*
X155489286Y-81728628D01*
X155489286Y-81728628D02*
X155441667Y-81823866D01*
X155441667Y-81823866D02*
X155441667Y-82014342D01*
X155441667Y-82014342D02*
X155489286Y-82109580D01*
X155489286Y-82109580D02*
X155536905Y-82157200D01*
X155536905Y-82157200D02*
X155632143Y-82204819D01*
X155632143Y-82204819D02*
X155822619Y-82204819D01*
X155822619Y-82204819D02*
X155917857Y-82157200D01*
X155917857Y-82157200D02*
X155965476Y-82109580D01*
X155965476Y-82109580D02*
X156013095Y-82014342D01*
X156013095Y-82014342D02*
X156013095Y-81823866D01*
X156013095Y-81823866D02*
X155965476Y-81728628D01*
X155965476Y-81728628D02*
X155917857Y-81681009D01*
X155917857Y-81681009D02*
X155822619Y-81633390D01*
X58286905Y-82157200D02*
X58429762Y-82204819D01*
X58429762Y-82204819D02*
X58667857Y-82204819D01*
X58667857Y-82204819D02*
X58763095Y-82157200D01*
X58763095Y-82157200D02*
X58810714Y-82109580D01*
X58810714Y-82109580D02*
X58858333Y-82014342D01*
X58858333Y-82014342D02*
X58858333Y-81919104D01*
X58858333Y-81919104D02*
X58810714Y-81823866D01*
X58810714Y-81823866D02*
X58763095Y-81776247D01*
X58763095Y-81776247D02*
X58667857Y-81728628D01*
X58667857Y-81728628D02*
X58477381Y-81681009D01*
X58477381Y-81681009D02*
X58382143Y-81633390D01*
X58382143Y-81633390D02*
X58334524Y-81585771D01*
X58334524Y-81585771D02*
X58286905Y-81490533D01*
X58286905Y-81490533D02*
X58286905Y-81395295D01*
X58286905Y-81395295D02*
X58334524Y-81300057D01*
X58334524Y-81300057D02*
X58382143Y-81252438D01*
X58382143Y-81252438D02*
X58477381Y-81204819D01*
X58477381Y-81204819D02*
X58715476Y-81204819D01*
X58715476Y-81204819D02*
X58858333Y-81252438D01*
X59810714Y-82204819D02*
X59239286Y-82204819D01*
X59525000Y-82204819D02*
X59525000Y-81204819D01*
X59525000Y-81204819D02*
X59429762Y-81347676D01*
X59429762Y-81347676D02*
X59334524Y-81442914D01*
X59334524Y-81442914D02*
X59239286Y-81490533D01*
X60144048Y-81204819D02*
X60763095Y-81204819D01*
X60763095Y-81204819D02*
X60429762Y-81585771D01*
X60429762Y-81585771D02*
X60572619Y-81585771D01*
X60572619Y-81585771D02*
X60667857Y-81633390D01*
X60667857Y-81633390D02*
X60715476Y-81681009D01*
X60715476Y-81681009D02*
X60763095Y-81776247D01*
X60763095Y-81776247D02*
X60763095Y-82014342D01*
X60763095Y-82014342D02*
X60715476Y-82109580D01*
X60715476Y-82109580D02*
X60667857Y-82157200D01*
X60667857Y-82157200D02*
X60572619Y-82204819D01*
X60572619Y-82204819D02*
X60286905Y-82204819D01*
X60286905Y-82204819D02*
X60191667Y-82157200D01*
X60191667Y-82157200D02*
X60144048Y-82109580D01*
X96386905Y-82157200D02*
X96529762Y-82204819D01*
X96529762Y-82204819D02*
X96767857Y-82204819D01*
X96767857Y-82204819D02*
X96863095Y-82157200D01*
X96863095Y-82157200D02*
X96910714Y-82109580D01*
X96910714Y-82109580D02*
X96958333Y-82014342D01*
X96958333Y-82014342D02*
X96958333Y-81919104D01*
X96958333Y-81919104D02*
X96910714Y-81823866D01*
X96910714Y-81823866D02*
X96863095Y-81776247D01*
X96863095Y-81776247D02*
X96767857Y-81728628D01*
X96767857Y-81728628D02*
X96577381Y-81681009D01*
X96577381Y-81681009D02*
X96482143Y-81633390D01*
X96482143Y-81633390D02*
X96434524Y-81585771D01*
X96434524Y-81585771D02*
X96386905Y-81490533D01*
X96386905Y-81490533D02*
X96386905Y-81395295D01*
X96386905Y-81395295D02*
X96434524Y-81300057D01*
X96434524Y-81300057D02*
X96482143Y-81252438D01*
X96482143Y-81252438D02*
X96577381Y-81204819D01*
X96577381Y-81204819D02*
X96815476Y-81204819D01*
X96815476Y-81204819D02*
X96958333Y-81252438D01*
X97910714Y-82204819D02*
X97339286Y-82204819D01*
X97625000Y-82204819D02*
X97625000Y-81204819D01*
X97625000Y-81204819D02*
X97529762Y-81347676D01*
X97529762Y-81347676D02*
X97434524Y-81442914D01*
X97434524Y-81442914D02*
X97339286Y-81490533D01*
X98815476Y-81204819D02*
X98339286Y-81204819D01*
X98339286Y-81204819D02*
X98291667Y-81681009D01*
X98291667Y-81681009D02*
X98339286Y-81633390D01*
X98339286Y-81633390D02*
X98434524Y-81585771D01*
X98434524Y-81585771D02*
X98672619Y-81585771D01*
X98672619Y-81585771D02*
X98767857Y-81633390D01*
X98767857Y-81633390D02*
X98815476Y-81681009D01*
X98815476Y-81681009D02*
X98863095Y-81776247D01*
X98863095Y-81776247D02*
X98863095Y-82014342D01*
X98863095Y-82014342D02*
X98815476Y-82109580D01*
X98815476Y-82109580D02*
X98767857Y-82157200D01*
X98767857Y-82157200D02*
X98672619Y-82204819D01*
X98672619Y-82204819D02*
X98434524Y-82204819D01*
X98434524Y-82204819D02*
X98339286Y-82157200D01*
X98339286Y-82157200D02*
X98291667Y-82109580D01*
X77336905Y-120257200D02*
X77479762Y-120304819D01*
X77479762Y-120304819D02*
X77717857Y-120304819D01*
X77717857Y-120304819D02*
X77813095Y-120257200D01*
X77813095Y-120257200D02*
X77860714Y-120209580D01*
X77860714Y-120209580D02*
X77908333Y-120114342D01*
X77908333Y-120114342D02*
X77908333Y-120019104D01*
X77908333Y-120019104D02*
X77860714Y-119923866D01*
X77860714Y-119923866D02*
X77813095Y-119876247D01*
X77813095Y-119876247D02*
X77717857Y-119828628D01*
X77717857Y-119828628D02*
X77527381Y-119781009D01*
X77527381Y-119781009D02*
X77432143Y-119733390D01*
X77432143Y-119733390D02*
X77384524Y-119685771D01*
X77384524Y-119685771D02*
X77336905Y-119590533D01*
X77336905Y-119590533D02*
X77336905Y-119495295D01*
X77336905Y-119495295D02*
X77384524Y-119400057D01*
X77384524Y-119400057D02*
X77432143Y-119352438D01*
X77432143Y-119352438D02*
X77527381Y-119304819D01*
X77527381Y-119304819D02*
X77765476Y-119304819D01*
X77765476Y-119304819D02*
X77908333Y-119352438D01*
X78241667Y-119304819D02*
X78860714Y-119304819D01*
X78860714Y-119304819D02*
X78527381Y-119685771D01*
X78527381Y-119685771D02*
X78670238Y-119685771D01*
X78670238Y-119685771D02*
X78765476Y-119733390D01*
X78765476Y-119733390D02*
X78813095Y-119781009D01*
X78813095Y-119781009D02*
X78860714Y-119876247D01*
X78860714Y-119876247D02*
X78860714Y-120114342D01*
X78860714Y-120114342D02*
X78813095Y-120209580D01*
X78813095Y-120209580D02*
X78765476Y-120257200D01*
X78765476Y-120257200D02*
X78670238Y-120304819D01*
X78670238Y-120304819D02*
X78384524Y-120304819D01*
X78384524Y-120304819D02*
X78289286Y-120257200D01*
X78289286Y-120257200D02*
X78241667Y-120209580D01*
X79432143Y-119733390D02*
X79336905Y-119685771D01*
X79336905Y-119685771D02*
X79289286Y-119638152D01*
X79289286Y-119638152D02*
X79241667Y-119542914D01*
X79241667Y-119542914D02*
X79241667Y-119495295D01*
X79241667Y-119495295D02*
X79289286Y-119400057D01*
X79289286Y-119400057D02*
X79336905Y-119352438D01*
X79336905Y-119352438D02*
X79432143Y-119304819D01*
X79432143Y-119304819D02*
X79622619Y-119304819D01*
X79622619Y-119304819D02*
X79717857Y-119352438D01*
X79717857Y-119352438D02*
X79765476Y-119400057D01*
X79765476Y-119400057D02*
X79813095Y-119495295D01*
X79813095Y-119495295D02*
X79813095Y-119542914D01*
X79813095Y-119542914D02*
X79765476Y-119638152D01*
X79765476Y-119638152D02*
X79717857Y-119685771D01*
X79717857Y-119685771D02*
X79622619Y-119733390D01*
X79622619Y-119733390D02*
X79432143Y-119733390D01*
X79432143Y-119733390D02*
X79336905Y-119781009D01*
X79336905Y-119781009D02*
X79289286Y-119828628D01*
X79289286Y-119828628D02*
X79241667Y-119923866D01*
X79241667Y-119923866D02*
X79241667Y-120114342D01*
X79241667Y-120114342D02*
X79289286Y-120209580D01*
X79289286Y-120209580D02*
X79336905Y-120257200D01*
X79336905Y-120257200D02*
X79432143Y-120304819D01*
X79432143Y-120304819D02*
X79622619Y-120304819D01*
X79622619Y-120304819D02*
X79717857Y-120257200D01*
X79717857Y-120257200D02*
X79765476Y-120209580D01*
X79765476Y-120209580D02*
X79813095Y-120114342D01*
X79813095Y-120114342D02*
X79813095Y-119923866D01*
X79813095Y-119923866D02*
X79765476Y-119828628D01*
X79765476Y-119828628D02*
X79717857Y-119781009D01*
X79717857Y-119781009D02*
X79622619Y-119733390D01*
X304902997Y-63107200D02*
X305045854Y-63154819D01*
X305045854Y-63154819D02*
X305283949Y-63154819D01*
X305283949Y-63154819D02*
X305379187Y-63107200D01*
X305379187Y-63107200D02*
X305426806Y-63059580D01*
X305426806Y-63059580D02*
X305474425Y-62964342D01*
X305474425Y-62964342D02*
X305474425Y-62869104D01*
X305474425Y-62869104D02*
X305426806Y-62773866D01*
X305426806Y-62773866D02*
X305379187Y-62726247D01*
X305379187Y-62726247D02*
X305283949Y-62678628D01*
X305283949Y-62678628D02*
X305093473Y-62631009D01*
X305093473Y-62631009D02*
X304998235Y-62583390D01*
X304998235Y-62583390D02*
X304950616Y-62535771D01*
X304950616Y-62535771D02*
X304902997Y-62440533D01*
X304902997Y-62440533D02*
X304902997Y-62345295D01*
X304902997Y-62345295D02*
X304950616Y-62250057D01*
X304950616Y-62250057D02*
X304998235Y-62202438D01*
X304998235Y-62202438D02*
X305093473Y-62154819D01*
X305093473Y-62154819D02*
X305331568Y-62154819D01*
X305331568Y-62154819D02*
X305474425Y-62202438D01*
X306426806Y-63154819D02*
X305855378Y-63154819D01*
X306141092Y-63154819D02*
X306141092Y-62154819D01*
X306141092Y-62154819D02*
X306045854Y-62297676D01*
X306045854Y-62297676D02*
X305950616Y-62392914D01*
X305950616Y-62392914D02*
X305855378Y-62440533D01*
X307379187Y-63154819D02*
X306807759Y-63154819D01*
X307093473Y-63154819D02*
X307093473Y-62154819D01*
X307093473Y-62154819D02*
X306998235Y-62297676D01*
X306998235Y-62297676D02*
X306902997Y-62392914D01*
X306902997Y-62392914D02*
X306807759Y-62440533D01*
X77336905Y-101207200D02*
X77479762Y-101254819D01*
X77479762Y-101254819D02*
X77717857Y-101254819D01*
X77717857Y-101254819D02*
X77813095Y-101207200D01*
X77813095Y-101207200D02*
X77860714Y-101159580D01*
X77860714Y-101159580D02*
X77908333Y-101064342D01*
X77908333Y-101064342D02*
X77908333Y-100969104D01*
X77908333Y-100969104D02*
X77860714Y-100873866D01*
X77860714Y-100873866D02*
X77813095Y-100826247D01*
X77813095Y-100826247D02*
X77717857Y-100778628D01*
X77717857Y-100778628D02*
X77527381Y-100731009D01*
X77527381Y-100731009D02*
X77432143Y-100683390D01*
X77432143Y-100683390D02*
X77384524Y-100635771D01*
X77384524Y-100635771D02*
X77336905Y-100540533D01*
X77336905Y-100540533D02*
X77336905Y-100445295D01*
X77336905Y-100445295D02*
X77384524Y-100350057D01*
X77384524Y-100350057D02*
X77432143Y-100302438D01*
X77432143Y-100302438D02*
X77527381Y-100254819D01*
X77527381Y-100254819D02*
X77765476Y-100254819D01*
X77765476Y-100254819D02*
X77908333Y-100302438D01*
X78289286Y-100350057D02*
X78336905Y-100302438D01*
X78336905Y-100302438D02*
X78432143Y-100254819D01*
X78432143Y-100254819D02*
X78670238Y-100254819D01*
X78670238Y-100254819D02*
X78765476Y-100302438D01*
X78765476Y-100302438D02*
X78813095Y-100350057D01*
X78813095Y-100350057D02*
X78860714Y-100445295D01*
X78860714Y-100445295D02*
X78860714Y-100540533D01*
X78860714Y-100540533D02*
X78813095Y-100683390D01*
X78813095Y-100683390D02*
X78241667Y-101254819D01*
X78241667Y-101254819D02*
X78860714Y-101254819D01*
X79717857Y-100254819D02*
X79527381Y-100254819D01*
X79527381Y-100254819D02*
X79432143Y-100302438D01*
X79432143Y-100302438D02*
X79384524Y-100350057D01*
X79384524Y-100350057D02*
X79289286Y-100492914D01*
X79289286Y-100492914D02*
X79241667Y-100683390D01*
X79241667Y-100683390D02*
X79241667Y-101064342D01*
X79241667Y-101064342D02*
X79289286Y-101159580D01*
X79289286Y-101159580D02*
X79336905Y-101207200D01*
X79336905Y-101207200D02*
X79432143Y-101254819D01*
X79432143Y-101254819D02*
X79622619Y-101254819D01*
X79622619Y-101254819D02*
X79717857Y-101207200D01*
X79717857Y-101207200D02*
X79765476Y-101159580D01*
X79765476Y-101159580D02*
X79813095Y-101064342D01*
X79813095Y-101064342D02*
X79813095Y-100826247D01*
X79813095Y-100826247D02*
X79765476Y-100731009D01*
X79765476Y-100731009D02*
X79717857Y-100683390D01*
X79717857Y-100683390D02*
X79622619Y-100635771D01*
X79622619Y-100635771D02*
X79432143Y-100635771D01*
X79432143Y-100635771D02*
X79336905Y-100683390D01*
X79336905Y-100683390D02*
X79289286Y-100731009D01*
X79289286Y-100731009D02*
X79241667Y-100826247D01*
X323952997Y-63107200D02*
X324095854Y-63154819D01*
X324095854Y-63154819D02*
X324333949Y-63154819D01*
X324333949Y-63154819D02*
X324429187Y-63107200D01*
X324429187Y-63107200D02*
X324476806Y-63059580D01*
X324476806Y-63059580D02*
X324524425Y-62964342D01*
X324524425Y-62964342D02*
X324524425Y-62869104D01*
X324524425Y-62869104D02*
X324476806Y-62773866D01*
X324476806Y-62773866D02*
X324429187Y-62726247D01*
X324429187Y-62726247D02*
X324333949Y-62678628D01*
X324333949Y-62678628D02*
X324143473Y-62631009D01*
X324143473Y-62631009D02*
X324048235Y-62583390D01*
X324048235Y-62583390D02*
X324000616Y-62535771D01*
X324000616Y-62535771D02*
X323952997Y-62440533D01*
X323952997Y-62440533D02*
X323952997Y-62345295D01*
X323952997Y-62345295D02*
X324000616Y-62250057D01*
X324000616Y-62250057D02*
X324048235Y-62202438D01*
X324048235Y-62202438D02*
X324143473Y-62154819D01*
X324143473Y-62154819D02*
X324381568Y-62154819D01*
X324381568Y-62154819D02*
X324524425Y-62202438D01*
X325476806Y-63154819D02*
X324905378Y-63154819D01*
X325191092Y-63154819D02*
X325191092Y-62154819D01*
X325191092Y-62154819D02*
X325095854Y-62297676D01*
X325095854Y-62297676D02*
X325000616Y-62392914D01*
X325000616Y-62392914D02*
X324905378Y-62440533D01*
X325857759Y-62250057D02*
X325905378Y-62202438D01*
X325905378Y-62202438D02*
X326000616Y-62154819D01*
X326000616Y-62154819D02*
X326238711Y-62154819D01*
X326238711Y-62154819D02*
X326333949Y-62202438D01*
X326333949Y-62202438D02*
X326381568Y-62250057D01*
X326381568Y-62250057D02*
X326429187Y-62345295D01*
X326429187Y-62345295D02*
X326429187Y-62440533D01*
X326429187Y-62440533D02*
X326381568Y-62583390D01*
X326381568Y-62583390D02*
X325810140Y-63154819D01*
X325810140Y-63154819D02*
X326429187Y-63154819D01*
X58286905Y-101207200D02*
X58429762Y-101254819D01*
X58429762Y-101254819D02*
X58667857Y-101254819D01*
X58667857Y-101254819D02*
X58763095Y-101207200D01*
X58763095Y-101207200D02*
X58810714Y-101159580D01*
X58810714Y-101159580D02*
X58858333Y-101064342D01*
X58858333Y-101064342D02*
X58858333Y-100969104D01*
X58858333Y-100969104D02*
X58810714Y-100873866D01*
X58810714Y-100873866D02*
X58763095Y-100826247D01*
X58763095Y-100826247D02*
X58667857Y-100778628D01*
X58667857Y-100778628D02*
X58477381Y-100731009D01*
X58477381Y-100731009D02*
X58382143Y-100683390D01*
X58382143Y-100683390D02*
X58334524Y-100635771D01*
X58334524Y-100635771D02*
X58286905Y-100540533D01*
X58286905Y-100540533D02*
X58286905Y-100445295D01*
X58286905Y-100445295D02*
X58334524Y-100350057D01*
X58334524Y-100350057D02*
X58382143Y-100302438D01*
X58382143Y-100302438D02*
X58477381Y-100254819D01*
X58477381Y-100254819D02*
X58715476Y-100254819D01*
X58715476Y-100254819D02*
X58858333Y-100302438D01*
X59239286Y-100350057D02*
X59286905Y-100302438D01*
X59286905Y-100302438D02*
X59382143Y-100254819D01*
X59382143Y-100254819D02*
X59620238Y-100254819D01*
X59620238Y-100254819D02*
X59715476Y-100302438D01*
X59715476Y-100302438D02*
X59763095Y-100350057D01*
X59763095Y-100350057D02*
X59810714Y-100445295D01*
X59810714Y-100445295D02*
X59810714Y-100540533D01*
X59810714Y-100540533D02*
X59763095Y-100683390D01*
X59763095Y-100683390D02*
X59191667Y-101254819D01*
X59191667Y-101254819D02*
X59810714Y-101254819D01*
X60715476Y-100254819D02*
X60239286Y-100254819D01*
X60239286Y-100254819D02*
X60191667Y-100731009D01*
X60191667Y-100731009D02*
X60239286Y-100683390D01*
X60239286Y-100683390D02*
X60334524Y-100635771D01*
X60334524Y-100635771D02*
X60572619Y-100635771D01*
X60572619Y-100635771D02*
X60667857Y-100683390D01*
X60667857Y-100683390D02*
X60715476Y-100731009D01*
X60715476Y-100731009D02*
X60763095Y-100826247D01*
X60763095Y-100826247D02*
X60763095Y-101064342D01*
X60763095Y-101064342D02*
X60715476Y-101159580D01*
X60715476Y-101159580D02*
X60667857Y-101207200D01*
X60667857Y-101207200D02*
X60572619Y-101254819D01*
X60572619Y-101254819D02*
X60334524Y-101254819D01*
X60334524Y-101254819D02*
X60239286Y-101207200D01*
X60239286Y-101207200D02*
X60191667Y-101159580D01*
X154013095Y-63107200D02*
X154155952Y-63154819D01*
X154155952Y-63154819D02*
X154394047Y-63154819D01*
X154394047Y-63154819D02*
X154489285Y-63107200D01*
X154489285Y-63107200D02*
X154536904Y-63059580D01*
X154536904Y-63059580D02*
X154584523Y-62964342D01*
X154584523Y-62964342D02*
X154584523Y-62869104D01*
X154584523Y-62869104D02*
X154536904Y-62773866D01*
X154536904Y-62773866D02*
X154489285Y-62726247D01*
X154489285Y-62726247D02*
X154394047Y-62678628D01*
X154394047Y-62678628D02*
X154203571Y-62631009D01*
X154203571Y-62631009D02*
X154108333Y-62583390D01*
X154108333Y-62583390D02*
X154060714Y-62535771D01*
X154060714Y-62535771D02*
X154013095Y-62440533D01*
X154013095Y-62440533D02*
X154013095Y-62345295D01*
X154013095Y-62345295D02*
X154060714Y-62250057D01*
X154060714Y-62250057D02*
X154108333Y-62202438D01*
X154108333Y-62202438D02*
X154203571Y-62154819D01*
X154203571Y-62154819D02*
X154441666Y-62154819D01*
X154441666Y-62154819D02*
X154584523Y-62202438D01*
X155441666Y-62154819D02*
X155251190Y-62154819D01*
X155251190Y-62154819D02*
X155155952Y-62202438D01*
X155155952Y-62202438D02*
X155108333Y-62250057D01*
X155108333Y-62250057D02*
X155013095Y-62392914D01*
X155013095Y-62392914D02*
X154965476Y-62583390D01*
X154965476Y-62583390D02*
X154965476Y-62964342D01*
X154965476Y-62964342D02*
X155013095Y-63059580D01*
X155013095Y-63059580D02*
X155060714Y-63107200D01*
X155060714Y-63107200D02*
X155155952Y-63154819D01*
X155155952Y-63154819D02*
X155346428Y-63154819D01*
X155346428Y-63154819D02*
X155441666Y-63107200D01*
X155441666Y-63107200D02*
X155489285Y-63059580D01*
X155489285Y-63059580D02*
X155536904Y-62964342D01*
X155536904Y-62964342D02*
X155536904Y-62726247D01*
X155536904Y-62726247D02*
X155489285Y-62631009D01*
X155489285Y-62631009D02*
X155441666Y-62583390D01*
X155441666Y-62583390D02*
X155346428Y-62535771D01*
X155346428Y-62535771D02*
X155155952Y-62535771D01*
X155155952Y-62535771D02*
X155060714Y-62583390D01*
X155060714Y-62583390D02*
X155013095Y-62631009D01*
X155013095Y-62631009D02*
X154965476Y-62726247D01*
X115436905Y-139307200D02*
X115579762Y-139354819D01*
X115579762Y-139354819D02*
X115817857Y-139354819D01*
X115817857Y-139354819D02*
X115913095Y-139307200D01*
X115913095Y-139307200D02*
X115960714Y-139259580D01*
X115960714Y-139259580D02*
X116008333Y-139164342D01*
X116008333Y-139164342D02*
X116008333Y-139069104D01*
X116008333Y-139069104D02*
X115960714Y-138973866D01*
X115960714Y-138973866D02*
X115913095Y-138926247D01*
X115913095Y-138926247D02*
X115817857Y-138878628D01*
X115817857Y-138878628D02*
X115627381Y-138831009D01*
X115627381Y-138831009D02*
X115532143Y-138783390D01*
X115532143Y-138783390D02*
X115484524Y-138735771D01*
X115484524Y-138735771D02*
X115436905Y-138640533D01*
X115436905Y-138640533D02*
X115436905Y-138545295D01*
X115436905Y-138545295D02*
X115484524Y-138450057D01*
X115484524Y-138450057D02*
X115532143Y-138402438D01*
X115532143Y-138402438D02*
X115627381Y-138354819D01*
X115627381Y-138354819D02*
X115865476Y-138354819D01*
X115865476Y-138354819D02*
X116008333Y-138402438D01*
X116913095Y-138354819D02*
X116436905Y-138354819D01*
X116436905Y-138354819D02*
X116389286Y-138831009D01*
X116389286Y-138831009D02*
X116436905Y-138783390D01*
X116436905Y-138783390D02*
X116532143Y-138735771D01*
X116532143Y-138735771D02*
X116770238Y-138735771D01*
X116770238Y-138735771D02*
X116865476Y-138783390D01*
X116865476Y-138783390D02*
X116913095Y-138831009D01*
X116913095Y-138831009D02*
X116960714Y-138926247D01*
X116960714Y-138926247D02*
X116960714Y-139164342D01*
X116960714Y-139164342D02*
X116913095Y-139259580D01*
X116913095Y-139259580D02*
X116865476Y-139307200D01*
X116865476Y-139307200D02*
X116770238Y-139354819D01*
X116770238Y-139354819D02*
X116532143Y-139354819D01*
X116532143Y-139354819D02*
X116436905Y-139307200D01*
X116436905Y-139307200D02*
X116389286Y-139259580D01*
X117341667Y-138450057D02*
X117389286Y-138402438D01*
X117389286Y-138402438D02*
X117484524Y-138354819D01*
X117484524Y-138354819D02*
X117722619Y-138354819D01*
X117722619Y-138354819D02*
X117817857Y-138402438D01*
X117817857Y-138402438D02*
X117865476Y-138450057D01*
X117865476Y-138450057D02*
X117913095Y-138545295D01*
X117913095Y-138545295D02*
X117913095Y-138640533D01*
X117913095Y-138640533D02*
X117865476Y-138783390D01*
X117865476Y-138783390D02*
X117294048Y-139354819D01*
X117294048Y-139354819D02*
X117913095Y-139354819D01*
X176655265Y-52397200D02*
X176798122Y-52444819D01*
X176798122Y-52444819D02*
X177036217Y-52444819D01*
X177036217Y-52444819D02*
X177131455Y-52397200D01*
X177131455Y-52397200D02*
X177179074Y-52349580D01*
X177179074Y-52349580D02*
X177226693Y-52254342D01*
X177226693Y-52254342D02*
X177226693Y-52159104D01*
X177226693Y-52159104D02*
X177179074Y-52063866D01*
X177179074Y-52063866D02*
X177131455Y-52016247D01*
X177131455Y-52016247D02*
X177036217Y-51968628D01*
X177036217Y-51968628D02*
X176845741Y-51921009D01*
X176845741Y-51921009D02*
X176750503Y-51873390D01*
X176750503Y-51873390D02*
X176702884Y-51825771D01*
X176702884Y-51825771D02*
X176655265Y-51730533D01*
X176655265Y-51730533D02*
X176655265Y-51635295D01*
X176655265Y-51635295D02*
X176702884Y-51540057D01*
X176702884Y-51540057D02*
X176750503Y-51492438D01*
X176750503Y-51492438D02*
X176845741Y-51444819D01*
X176845741Y-51444819D02*
X177083836Y-51444819D01*
X177083836Y-51444819D02*
X177226693Y-51492438D01*
X177560027Y-51444819D02*
X177798122Y-52444819D01*
X177798122Y-52444819D02*
X177988598Y-51730533D01*
X177988598Y-51730533D02*
X178179074Y-52444819D01*
X178179074Y-52444819D02*
X178417170Y-51444819D01*
X179321931Y-52444819D02*
X178750503Y-52444819D01*
X179036217Y-52444819D02*
X179036217Y-51444819D01*
X179036217Y-51444819D02*
X178940979Y-51587676D01*
X178940979Y-51587676D02*
X178845741Y-51682914D01*
X178845741Y-51682914D02*
X178750503Y-51730533D01*
X175106806Y-60892200D02*
X175249663Y-60939819D01*
X175249663Y-60939819D02*
X175487758Y-60939819D01*
X175487758Y-60939819D02*
X175582996Y-60892200D01*
X175582996Y-60892200D02*
X175630615Y-60844580D01*
X175630615Y-60844580D02*
X175678234Y-60749342D01*
X175678234Y-60749342D02*
X175678234Y-60654104D01*
X175678234Y-60654104D02*
X175630615Y-60558866D01*
X175630615Y-60558866D02*
X175582996Y-60511247D01*
X175582996Y-60511247D02*
X175487758Y-60463628D01*
X175487758Y-60463628D02*
X175297282Y-60416009D01*
X175297282Y-60416009D02*
X175202044Y-60368390D01*
X175202044Y-60368390D02*
X175154425Y-60320771D01*
X175154425Y-60320771D02*
X175106806Y-60225533D01*
X175106806Y-60225533D02*
X175106806Y-60130295D01*
X175106806Y-60130295D02*
X175154425Y-60035057D01*
X175154425Y-60035057D02*
X175202044Y-59987438D01*
X175202044Y-59987438D02*
X175297282Y-59939819D01*
X175297282Y-59939819D02*
X175535377Y-59939819D01*
X175535377Y-59939819D02*
X175678234Y-59987438D01*
X176011568Y-60273152D02*
X176202044Y-60939819D01*
X176202044Y-60939819D02*
X176392520Y-60463628D01*
X176392520Y-60463628D02*
X176582996Y-60939819D01*
X176582996Y-60939819D02*
X176773472Y-60273152D01*
X177154425Y-60939819D02*
X177154425Y-60273152D01*
X177154425Y-59939819D02*
X177106806Y-59987438D01*
X177106806Y-59987438D02*
X177154425Y-60035057D01*
X177154425Y-60035057D02*
X177202044Y-59987438D01*
X177202044Y-59987438D02*
X177154425Y-59939819D01*
X177154425Y-59939819D02*
X177154425Y-60035057D01*
X177487758Y-60273152D02*
X177868710Y-60273152D01*
X177630615Y-59939819D02*
X177630615Y-60796961D01*
X177630615Y-60796961D02*
X177678234Y-60892200D01*
X177678234Y-60892200D02*
X177773472Y-60939819D01*
X177773472Y-60939819D02*
X177868710Y-60939819D01*
X178630615Y-60892200D02*
X178535377Y-60939819D01*
X178535377Y-60939819D02*
X178344901Y-60939819D01*
X178344901Y-60939819D02*
X178249663Y-60892200D01*
X178249663Y-60892200D02*
X178202044Y-60844580D01*
X178202044Y-60844580D02*
X178154425Y-60749342D01*
X178154425Y-60749342D02*
X178154425Y-60463628D01*
X178154425Y-60463628D02*
X178202044Y-60368390D01*
X178202044Y-60368390D02*
X178249663Y-60320771D01*
X178249663Y-60320771D02*
X178344901Y-60273152D01*
X178344901Y-60273152D02*
X178535377Y-60273152D01*
X178535377Y-60273152D02*
X178630615Y-60320771D01*
X179059187Y-60939819D02*
X179059187Y-59939819D01*
X179487758Y-60939819D02*
X179487758Y-60416009D01*
X179487758Y-60416009D02*
X179440139Y-60320771D01*
X179440139Y-60320771D02*
X179344901Y-60273152D01*
X179344901Y-60273152D02*
X179202044Y-60273152D01*
X179202044Y-60273152D02*
X179106806Y-60320771D01*
X179106806Y-60320771D02*
X179059187Y-60368390D01*
X323952997Y-101207200D02*
X324095854Y-101254819D01*
X324095854Y-101254819D02*
X324333949Y-101254819D01*
X324333949Y-101254819D02*
X324429187Y-101207200D01*
X324429187Y-101207200D02*
X324476806Y-101159580D01*
X324476806Y-101159580D02*
X324524425Y-101064342D01*
X324524425Y-101064342D02*
X324524425Y-100969104D01*
X324524425Y-100969104D02*
X324476806Y-100873866D01*
X324476806Y-100873866D02*
X324429187Y-100826247D01*
X324429187Y-100826247D02*
X324333949Y-100778628D01*
X324333949Y-100778628D02*
X324143473Y-100731009D01*
X324143473Y-100731009D02*
X324048235Y-100683390D01*
X324048235Y-100683390D02*
X324000616Y-100635771D01*
X324000616Y-100635771D02*
X323952997Y-100540533D01*
X323952997Y-100540533D02*
X323952997Y-100445295D01*
X323952997Y-100445295D02*
X324000616Y-100350057D01*
X324000616Y-100350057D02*
X324048235Y-100302438D01*
X324048235Y-100302438D02*
X324143473Y-100254819D01*
X324143473Y-100254819D02*
X324381568Y-100254819D01*
X324381568Y-100254819D02*
X324524425Y-100302438D01*
X324857759Y-100254819D02*
X325476806Y-100254819D01*
X325476806Y-100254819D02*
X325143473Y-100635771D01*
X325143473Y-100635771D02*
X325286330Y-100635771D01*
X325286330Y-100635771D02*
X325381568Y-100683390D01*
X325381568Y-100683390D02*
X325429187Y-100731009D01*
X325429187Y-100731009D02*
X325476806Y-100826247D01*
X325476806Y-100826247D02*
X325476806Y-101064342D01*
X325476806Y-101064342D02*
X325429187Y-101159580D01*
X325429187Y-101159580D02*
X325381568Y-101207200D01*
X325381568Y-101207200D02*
X325286330Y-101254819D01*
X325286330Y-101254819D02*
X325000616Y-101254819D01*
X325000616Y-101254819D02*
X324905378Y-101207200D01*
X324905378Y-101207200D02*
X324857759Y-101159580D01*
X326333949Y-100254819D02*
X326143473Y-100254819D01*
X326143473Y-100254819D02*
X326048235Y-100302438D01*
X326048235Y-100302438D02*
X326000616Y-100350057D01*
X326000616Y-100350057D02*
X325905378Y-100492914D01*
X325905378Y-100492914D02*
X325857759Y-100683390D01*
X325857759Y-100683390D02*
X325857759Y-101064342D01*
X325857759Y-101064342D02*
X325905378Y-101159580D01*
X325905378Y-101159580D02*
X325952997Y-101207200D01*
X325952997Y-101207200D02*
X326048235Y-101254819D01*
X326048235Y-101254819D02*
X326238711Y-101254819D01*
X326238711Y-101254819D02*
X326333949Y-101207200D01*
X326333949Y-101207200D02*
X326381568Y-101159580D01*
X326381568Y-101159580D02*
X326429187Y-101064342D01*
X326429187Y-101064342D02*
X326429187Y-100826247D01*
X326429187Y-100826247D02*
X326381568Y-100731009D01*
X326381568Y-100731009D02*
X326333949Y-100683390D01*
X326333949Y-100683390D02*
X326238711Y-100635771D01*
X326238711Y-100635771D02*
X326048235Y-100635771D01*
X326048235Y-100635771D02*
X325952997Y-100683390D01*
X325952997Y-100683390D02*
X325905378Y-100731009D01*
X325905378Y-100731009D02*
X325857759Y-100826247D01*
X96386905Y-101207200D02*
X96529762Y-101254819D01*
X96529762Y-101254819D02*
X96767857Y-101254819D01*
X96767857Y-101254819D02*
X96863095Y-101207200D01*
X96863095Y-101207200D02*
X96910714Y-101159580D01*
X96910714Y-101159580D02*
X96958333Y-101064342D01*
X96958333Y-101064342D02*
X96958333Y-100969104D01*
X96958333Y-100969104D02*
X96910714Y-100873866D01*
X96910714Y-100873866D02*
X96863095Y-100826247D01*
X96863095Y-100826247D02*
X96767857Y-100778628D01*
X96767857Y-100778628D02*
X96577381Y-100731009D01*
X96577381Y-100731009D02*
X96482143Y-100683390D01*
X96482143Y-100683390D02*
X96434524Y-100635771D01*
X96434524Y-100635771D02*
X96386905Y-100540533D01*
X96386905Y-100540533D02*
X96386905Y-100445295D01*
X96386905Y-100445295D02*
X96434524Y-100350057D01*
X96434524Y-100350057D02*
X96482143Y-100302438D01*
X96482143Y-100302438D02*
X96577381Y-100254819D01*
X96577381Y-100254819D02*
X96815476Y-100254819D01*
X96815476Y-100254819D02*
X96958333Y-100302438D01*
X97339286Y-100350057D02*
X97386905Y-100302438D01*
X97386905Y-100302438D02*
X97482143Y-100254819D01*
X97482143Y-100254819D02*
X97720238Y-100254819D01*
X97720238Y-100254819D02*
X97815476Y-100302438D01*
X97815476Y-100302438D02*
X97863095Y-100350057D01*
X97863095Y-100350057D02*
X97910714Y-100445295D01*
X97910714Y-100445295D02*
X97910714Y-100540533D01*
X97910714Y-100540533D02*
X97863095Y-100683390D01*
X97863095Y-100683390D02*
X97291667Y-101254819D01*
X97291667Y-101254819D02*
X97910714Y-101254819D01*
X98244048Y-100254819D02*
X98910714Y-100254819D01*
X98910714Y-100254819D02*
X98482143Y-101254819D01*
X304902997Y-139307200D02*
X305045854Y-139354819D01*
X305045854Y-139354819D02*
X305283949Y-139354819D01*
X305283949Y-139354819D02*
X305379187Y-139307200D01*
X305379187Y-139307200D02*
X305426806Y-139259580D01*
X305426806Y-139259580D02*
X305474425Y-139164342D01*
X305474425Y-139164342D02*
X305474425Y-139069104D01*
X305474425Y-139069104D02*
X305426806Y-138973866D01*
X305426806Y-138973866D02*
X305379187Y-138926247D01*
X305379187Y-138926247D02*
X305283949Y-138878628D01*
X305283949Y-138878628D02*
X305093473Y-138831009D01*
X305093473Y-138831009D02*
X304998235Y-138783390D01*
X304998235Y-138783390D02*
X304950616Y-138735771D01*
X304950616Y-138735771D02*
X304902997Y-138640533D01*
X304902997Y-138640533D02*
X304902997Y-138545295D01*
X304902997Y-138545295D02*
X304950616Y-138450057D01*
X304950616Y-138450057D02*
X304998235Y-138402438D01*
X304998235Y-138402438D02*
X305093473Y-138354819D01*
X305093473Y-138354819D02*
X305331568Y-138354819D01*
X305331568Y-138354819D02*
X305474425Y-138402438D01*
X306379187Y-138354819D02*
X305902997Y-138354819D01*
X305902997Y-138354819D02*
X305855378Y-138831009D01*
X305855378Y-138831009D02*
X305902997Y-138783390D01*
X305902997Y-138783390D02*
X305998235Y-138735771D01*
X305998235Y-138735771D02*
X306236330Y-138735771D01*
X306236330Y-138735771D02*
X306331568Y-138783390D01*
X306331568Y-138783390D02*
X306379187Y-138831009D01*
X306379187Y-138831009D02*
X306426806Y-138926247D01*
X306426806Y-138926247D02*
X306426806Y-139164342D01*
X306426806Y-139164342D02*
X306379187Y-139259580D01*
X306379187Y-139259580D02*
X306331568Y-139307200D01*
X306331568Y-139307200D02*
X306236330Y-139354819D01*
X306236330Y-139354819D02*
X305998235Y-139354819D01*
X305998235Y-139354819D02*
X305902997Y-139307200D01*
X305902997Y-139307200D02*
X305855378Y-139259580D01*
X306902997Y-139354819D02*
X307093473Y-139354819D01*
X307093473Y-139354819D02*
X307188711Y-139307200D01*
X307188711Y-139307200D02*
X307236330Y-139259580D01*
X307236330Y-139259580D02*
X307331568Y-139116723D01*
X307331568Y-139116723D02*
X307379187Y-138926247D01*
X307379187Y-138926247D02*
X307379187Y-138545295D01*
X307379187Y-138545295D02*
X307331568Y-138450057D01*
X307331568Y-138450057D02*
X307283949Y-138402438D01*
X307283949Y-138402438D02*
X307188711Y-138354819D01*
X307188711Y-138354819D02*
X306998235Y-138354819D01*
X306998235Y-138354819D02*
X306902997Y-138402438D01*
X306902997Y-138402438D02*
X306855378Y-138450057D01*
X306855378Y-138450057D02*
X306807759Y-138545295D01*
X306807759Y-138545295D02*
X306807759Y-138783390D01*
X306807759Y-138783390D02*
X306855378Y-138878628D01*
X306855378Y-138878628D02*
X306902997Y-138926247D01*
X306902997Y-138926247D02*
X306998235Y-138973866D01*
X306998235Y-138973866D02*
X307188711Y-138973866D01*
X307188711Y-138973866D02*
X307283949Y-138926247D01*
X307283949Y-138926247D02*
X307331568Y-138878628D01*
X307331568Y-138878628D02*
X307379187Y-138783390D01*
X228702997Y-120257200D02*
X228845854Y-120304819D01*
X228845854Y-120304819D02*
X229083949Y-120304819D01*
X229083949Y-120304819D02*
X229179187Y-120257200D01*
X229179187Y-120257200D02*
X229226806Y-120209580D01*
X229226806Y-120209580D02*
X229274425Y-120114342D01*
X229274425Y-120114342D02*
X229274425Y-120019104D01*
X229274425Y-120019104D02*
X229226806Y-119923866D01*
X229226806Y-119923866D02*
X229179187Y-119876247D01*
X229179187Y-119876247D02*
X229083949Y-119828628D01*
X229083949Y-119828628D02*
X228893473Y-119781009D01*
X228893473Y-119781009D02*
X228798235Y-119733390D01*
X228798235Y-119733390D02*
X228750616Y-119685771D01*
X228750616Y-119685771D02*
X228702997Y-119590533D01*
X228702997Y-119590533D02*
X228702997Y-119495295D01*
X228702997Y-119495295D02*
X228750616Y-119400057D01*
X228750616Y-119400057D02*
X228798235Y-119352438D01*
X228798235Y-119352438D02*
X228893473Y-119304819D01*
X228893473Y-119304819D02*
X229131568Y-119304819D01*
X229131568Y-119304819D02*
X229274425Y-119352438D01*
X230131568Y-119638152D02*
X230131568Y-120304819D01*
X229893473Y-119257200D02*
X229655378Y-119971485D01*
X229655378Y-119971485D02*
X230274425Y-119971485D01*
X230560140Y-119304819D02*
X231179187Y-119304819D01*
X231179187Y-119304819D02*
X230845854Y-119685771D01*
X230845854Y-119685771D02*
X230988711Y-119685771D01*
X230988711Y-119685771D02*
X231083949Y-119733390D01*
X231083949Y-119733390D02*
X231131568Y-119781009D01*
X231131568Y-119781009D02*
X231179187Y-119876247D01*
X231179187Y-119876247D02*
X231179187Y-120114342D01*
X231179187Y-120114342D02*
X231131568Y-120209580D01*
X231131568Y-120209580D02*
X231083949Y-120257200D01*
X231083949Y-120257200D02*
X230988711Y-120304819D01*
X230988711Y-120304819D02*
X230702997Y-120304819D01*
X230702997Y-120304819D02*
X230607759Y-120257200D01*
X230607759Y-120257200D02*
X230560140Y-120209580D01*
X323952997Y-82157200D02*
X324095854Y-82204819D01*
X324095854Y-82204819D02*
X324333949Y-82204819D01*
X324333949Y-82204819D02*
X324429187Y-82157200D01*
X324429187Y-82157200D02*
X324476806Y-82109580D01*
X324476806Y-82109580D02*
X324524425Y-82014342D01*
X324524425Y-82014342D02*
X324524425Y-81919104D01*
X324524425Y-81919104D02*
X324476806Y-81823866D01*
X324476806Y-81823866D02*
X324429187Y-81776247D01*
X324429187Y-81776247D02*
X324333949Y-81728628D01*
X324333949Y-81728628D02*
X324143473Y-81681009D01*
X324143473Y-81681009D02*
X324048235Y-81633390D01*
X324048235Y-81633390D02*
X324000616Y-81585771D01*
X324000616Y-81585771D02*
X323952997Y-81490533D01*
X323952997Y-81490533D02*
X323952997Y-81395295D01*
X323952997Y-81395295D02*
X324000616Y-81300057D01*
X324000616Y-81300057D02*
X324048235Y-81252438D01*
X324048235Y-81252438D02*
X324143473Y-81204819D01*
X324143473Y-81204819D02*
X324381568Y-81204819D01*
X324381568Y-81204819D02*
X324524425Y-81252438D01*
X324905378Y-81300057D02*
X324952997Y-81252438D01*
X324952997Y-81252438D02*
X325048235Y-81204819D01*
X325048235Y-81204819D02*
X325286330Y-81204819D01*
X325286330Y-81204819D02*
X325381568Y-81252438D01*
X325381568Y-81252438D02*
X325429187Y-81300057D01*
X325429187Y-81300057D02*
X325476806Y-81395295D01*
X325476806Y-81395295D02*
X325476806Y-81490533D01*
X325476806Y-81490533D02*
X325429187Y-81633390D01*
X325429187Y-81633390D02*
X324857759Y-82204819D01*
X324857759Y-82204819D02*
X325476806Y-82204819D01*
X326333949Y-81538152D02*
X326333949Y-82204819D01*
X326095854Y-81157200D02*
X325857759Y-81871485D01*
X325857759Y-81871485D02*
X326476806Y-81871485D01*
X115436905Y-82157200D02*
X115579762Y-82204819D01*
X115579762Y-82204819D02*
X115817857Y-82204819D01*
X115817857Y-82204819D02*
X115913095Y-82157200D01*
X115913095Y-82157200D02*
X115960714Y-82109580D01*
X115960714Y-82109580D02*
X116008333Y-82014342D01*
X116008333Y-82014342D02*
X116008333Y-81919104D01*
X116008333Y-81919104D02*
X115960714Y-81823866D01*
X115960714Y-81823866D02*
X115913095Y-81776247D01*
X115913095Y-81776247D02*
X115817857Y-81728628D01*
X115817857Y-81728628D02*
X115627381Y-81681009D01*
X115627381Y-81681009D02*
X115532143Y-81633390D01*
X115532143Y-81633390D02*
X115484524Y-81585771D01*
X115484524Y-81585771D02*
X115436905Y-81490533D01*
X115436905Y-81490533D02*
X115436905Y-81395295D01*
X115436905Y-81395295D02*
X115484524Y-81300057D01*
X115484524Y-81300057D02*
X115532143Y-81252438D01*
X115532143Y-81252438D02*
X115627381Y-81204819D01*
X115627381Y-81204819D02*
X115865476Y-81204819D01*
X115865476Y-81204819D02*
X116008333Y-81252438D01*
X116960714Y-82204819D02*
X116389286Y-82204819D01*
X116675000Y-82204819D02*
X116675000Y-81204819D01*
X116675000Y-81204819D02*
X116579762Y-81347676D01*
X116579762Y-81347676D02*
X116484524Y-81442914D01*
X116484524Y-81442914D02*
X116389286Y-81490533D01*
X117817857Y-81204819D02*
X117627381Y-81204819D01*
X117627381Y-81204819D02*
X117532143Y-81252438D01*
X117532143Y-81252438D02*
X117484524Y-81300057D01*
X117484524Y-81300057D02*
X117389286Y-81442914D01*
X117389286Y-81442914D02*
X117341667Y-81633390D01*
X117341667Y-81633390D02*
X117341667Y-82014342D01*
X117341667Y-82014342D02*
X117389286Y-82109580D01*
X117389286Y-82109580D02*
X117436905Y-82157200D01*
X117436905Y-82157200D02*
X117532143Y-82204819D01*
X117532143Y-82204819D02*
X117722619Y-82204819D01*
X117722619Y-82204819D02*
X117817857Y-82157200D01*
X117817857Y-82157200D02*
X117865476Y-82109580D01*
X117865476Y-82109580D02*
X117913095Y-82014342D01*
X117913095Y-82014342D02*
X117913095Y-81776247D01*
X117913095Y-81776247D02*
X117865476Y-81681009D01*
X117865476Y-81681009D02*
X117817857Y-81633390D01*
X117817857Y-81633390D02*
X117722619Y-81585771D01*
X117722619Y-81585771D02*
X117532143Y-81585771D01*
X117532143Y-81585771D02*
X117436905Y-81633390D01*
X117436905Y-81633390D02*
X117389286Y-81681009D01*
X117389286Y-81681009D02*
X117341667Y-81776247D01*
X115913095Y-63107200D02*
X116055952Y-63154819D01*
X116055952Y-63154819D02*
X116294047Y-63154819D01*
X116294047Y-63154819D02*
X116389285Y-63107200D01*
X116389285Y-63107200D02*
X116436904Y-63059580D01*
X116436904Y-63059580D02*
X116484523Y-62964342D01*
X116484523Y-62964342D02*
X116484523Y-62869104D01*
X116484523Y-62869104D02*
X116436904Y-62773866D01*
X116436904Y-62773866D02*
X116389285Y-62726247D01*
X116389285Y-62726247D02*
X116294047Y-62678628D01*
X116294047Y-62678628D02*
X116103571Y-62631009D01*
X116103571Y-62631009D02*
X116008333Y-62583390D01*
X116008333Y-62583390D02*
X115960714Y-62535771D01*
X115960714Y-62535771D02*
X115913095Y-62440533D01*
X115913095Y-62440533D02*
X115913095Y-62345295D01*
X115913095Y-62345295D02*
X115960714Y-62250057D01*
X115960714Y-62250057D02*
X116008333Y-62202438D01*
X116008333Y-62202438D02*
X116103571Y-62154819D01*
X116103571Y-62154819D02*
X116341666Y-62154819D01*
X116341666Y-62154819D02*
X116484523Y-62202438D01*
X117341666Y-62488152D02*
X117341666Y-63154819D01*
X117103571Y-62107200D02*
X116865476Y-62821485D01*
X116865476Y-62821485D02*
X117484523Y-62821485D01*
X96386905Y-139307200D02*
X96529762Y-139354819D01*
X96529762Y-139354819D02*
X96767857Y-139354819D01*
X96767857Y-139354819D02*
X96863095Y-139307200D01*
X96863095Y-139307200D02*
X96910714Y-139259580D01*
X96910714Y-139259580D02*
X96958333Y-139164342D01*
X96958333Y-139164342D02*
X96958333Y-139069104D01*
X96958333Y-139069104D02*
X96910714Y-138973866D01*
X96910714Y-138973866D02*
X96863095Y-138926247D01*
X96863095Y-138926247D02*
X96767857Y-138878628D01*
X96767857Y-138878628D02*
X96577381Y-138831009D01*
X96577381Y-138831009D02*
X96482143Y-138783390D01*
X96482143Y-138783390D02*
X96434524Y-138735771D01*
X96434524Y-138735771D02*
X96386905Y-138640533D01*
X96386905Y-138640533D02*
X96386905Y-138545295D01*
X96386905Y-138545295D02*
X96434524Y-138450057D01*
X96434524Y-138450057D02*
X96482143Y-138402438D01*
X96482143Y-138402438D02*
X96577381Y-138354819D01*
X96577381Y-138354819D02*
X96815476Y-138354819D01*
X96815476Y-138354819D02*
X96958333Y-138402438D01*
X97863095Y-138354819D02*
X97386905Y-138354819D01*
X97386905Y-138354819D02*
X97339286Y-138831009D01*
X97339286Y-138831009D02*
X97386905Y-138783390D01*
X97386905Y-138783390D02*
X97482143Y-138735771D01*
X97482143Y-138735771D02*
X97720238Y-138735771D01*
X97720238Y-138735771D02*
X97815476Y-138783390D01*
X97815476Y-138783390D02*
X97863095Y-138831009D01*
X97863095Y-138831009D02*
X97910714Y-138926247D01*
X97910714Y-138926247D02*
X97910714Y-139164342D01*
X97910714Y-139164342D02*
X97863095Y-139259580D01*
X97863095Y-139259580D02*
X97815476Y-139307200D01*
X97815476Y-139307200D02*
X97720238Y-139354819D01*
X97720238Y-139354819D02*
X97482143Y-139354819D01*
X97482143Y-139354819D02*
X97386905Y-139307200D01*
X97386905Y-139307200D02*
X97339286Y-139259580D01*
X98863095Y-139354819D02*
X98291667Y-139354819D01*
X98577381Y-139354819D02*
X98577381Y-138354819D01*
X98577381Y-138354819D02*
X98482143Y-138497676D01*
X98482143Y-138497676D02*
X98386905Y-138592914D01*
X98386905Y-138592914D02*
X98291667Y-138640533D01*
X115309905Y-120257200D02*
X115452762Y-120304819D01*
X115452762Y-120304819D02*
X115690857Y-120304819D01*
X115690857Y-120304819D02*
X115786095Y-120257200D01*
X115786095Y-120257200D02*
X115833714Y-120209580D01*
X115833714Y-120209580D02*
X115881333Y-120114342D01*
X115881333Y-120114342D02*
X115881333Y-120019104D01*
X115881333Y-120019104D02*
X115833714Y-119923866D01*
X115833714Y-119923866D02*
X115786095Y-119876247D01*
X115786095Y-119876247D02*
X115690857Y-119828628D01*
X115690857Y-119828628D02*
X115500381Y-119781009D01*
X115500381Y-119781009D02*
X115405143Y-119733390D01*
X115405143Y-119733390D02*
X115357524Y-119685771D01*
X115357524Y-119685771D02*
X115309905Y-119590533D01*
X115309905Y-119590533D02*
X115309905Y-119495295D01*
X115309905Y-119495295D02*
X115357524Y-119400057D01*
X115357524Y-119400057D02*
X115405143Y-119352438D01*
X115405143Y-119352438D02*
X115500381Y-119304819D01*
X115500381Y-119304819D02*
X115738476Y-119304819D01*
X115738476Y-119304819D02*
X115881333Y-119352438D01*
X116738476Y-119638152D02*
X116738476Y-120304819D01*
X116500381Y-119257200D02*
X116262286Y-119971485D01*
X116262286Y-119971485D02*
X116881333Y-119971485D01*
X117452762Y-119304819D02*
X117548000Y-119304819D01*
X117548000Y-119304819D02*
X117643238Y-119352438D01*
X117643238Y-119352438D02*
X117690857Y-119400057D01*
X117690857Y-119400057D02*
X117738476Y-119495295D01*
X117738476Y-119495295D02*
X117786095Y-119685771D01*
X117786095Y-119685771D02*
X117786095Y-119923866D01*
X117786095Y-119923866D02*
X117738476Y-120114342D01*
X117738476Y-120114342D02*
X117690857Y-120209580D01*
X117690857Y-120209580D02*
X117643238Y-120257200D01*
X117643238Y-120257200D02*
X117548000Y-120304819D01*
X117548000Y-120304819D02*
X117452762Y-120304819D01*
X117452762Y-120304819D02*
X117357524Y-120257200D01*
X117357524Y-120257200D02*
X117309905Y-120209580D01*
X117309905Y-120209580D02*
X117262286Y-120114342D01*
X117262286Y-120114342D02*
X117214667Y-119923866D01*
X117214667Y-119923866D02*
X117214667Y-119685771D01*
X117214667Y-119685771D02*
X117262286Y-119495295D01*
X117262286Y-119495295D02*
X117309905Y-119400057D01*
X117309905Y-119400057D02*
X117357524Y-119352438D01*
X117357524Y-119352438D02*
X117452762Y-119304819D01*
X285852997Y-63107200D02*
X285995854Y-63154819D01*
X285995854Y-63154819D02*
X286233949Y-63154819D01*
X286233949Y-63154819D02*
X286329187Y-63107200D01*
X286329187Y-63107200D02*
X286376806Y-63059580D01*
X286376806Y-63059580D02*
X286424425Y-62964342D01*
X286424425Y-62964342D02*
X286424425Y-62869104D01*
X286424425Y-62869104D02*
X286376806Y-62773866D01*
X286376806Y-62773866D02*
X286329187Y-62726247D01*
X286329187Y-62726247D02*
X286233949Y-62678628D01*
X286233949Y-62678628D02*
X286043473Y-62631009D01*
X286043473Y-62631009D02*
X285948235Y-62583390D01*
X285948235Y-62583390D02*
X285900616Y-62535771D01*
X285900616Y-62535771D02*
X285852997Y-62440533D01*
X285852997Y-62440533D02*
X285852997Y-62345295D01*
X285852997Y-62345295D02*
X285900616Y-62250057D01*
X285900616Y-62250057D02*
X285948235Y-62202438D01*
X285948235Y-62202438D02*
X286043473Y-62154819D01*
X286043473Y-62154819D02*
X286281568Y-62154819D01*
X286281568Y-62154819D02*
X286424425Y-62202438D01*
X287376806Y-63154819D02*
X286805378Y-63154819D01*
X287091092Y-63154819D02*
X287091092Y-62154819D01*
X287091092Y-62154819D02*
X286995854Y-62297676D01*
X286995854Y-62297676D02*
X286900616Y-62392914D01*
X286900616Y-62392914D02*
X286805378Y-62440533D01*
X287995854Y-62154819D02*
X288091092Y-62154819D01*
X288091092Y-62154819D02*
X288186330Y-62202438D01*
X288186330Y-62202438D02*
X288233949Y-62250057D01*
X288233949Y-62250057D02*
X288281568Y-62345295D01*
X288281568Y-62345295D02*
X288329187Y-62535771D01*
X288329187Y-62535771D02*
X288329187Y-62773866D01*
X288329187Y-62773866D02*
X288281568Y-62964342D01*
X288281568Y-62964342D02*
X288233949Y-63059580D01*
X288233949Y-63059580D02*
X288186330Y-63107200D01*
X288186330Y-63107200D02*
X288091092Y-63154819D01*
X288091092Y-63154819D02*
X287995854Y-63154819D01*
X287995854Y-63154819D02*
X287900616Y-63107200D01*
X287900616Y-63107200D02*
X287852997Y-63059580D01*
X287852997Y-63059580D02*
X287805378Y-62964342D01*
X287805378Y-62964342D02*
X287757759Y-62773866D01*
X287757759Y-62773866D02*
X287757759Y-62535771D01*
X287757759Y-62535771D02*
X287805378Y-62345295D01*
X287805378Y-62345295D02*
X287852997Y-62250057D01*
X287852997Y-62250057D02*
X287900616Y-62202438D01*
X287900616Y-62202438D02*
X287995854Y-62154819D01*
X228702997Y-101207200D02*
X228845854Y-101254819D01*
X228845854Y-101254819D02*
X229083949Y-101254819D01*
X229083949Y-101254819D02*
X229179187Y-101207200D01*
X229179187Y-101207200D02*
X229226806Y-101159580D01*
X229226806Y-101159580D02*
X229274425Y-101064342D01*
X229274425Y-101064342D02*
X229274425Y-100969104D01*
X229274425Y-100969104D02*
X229226806Y-100873866D01*
X229226806Y-100873866D02*
X229179187Y-100826247D01*
X229179187Y-100826247D02*
X229083949Y-100778628D01*
X229083949Y-100778628D02*
X228893473Y-100731009D01*
X228893473Y-100731009D02*
X228798235Y-100683390D01*
X228798235Y-100683390D02*
X228750616Y-100635771D01*
X228750616Y-100635771D02*
X228702997Y-100540533D01*
X228702997Y-100540533D02*
X228702997Y-100445295D01*
X228702997Y-100445295D02*
X228750616Y-100350057D01*
X228750616Y-100350057D02*
X228798235Y-100302438D01*
X228798235Y-100302438D02*
X228893473Y-100254819D01*
X228893473Y-100254819D02*
X229131568Y-100254819D01*
X229131568Y-100254819D02*
X229274425Y-100302438D01*
X229607759Y-100254819D02*
X230226806Y-100254819D01*
X230226806Y-100254819D02*
X229893473Y-100635771D01*
X229893473Y-100635771D02*
X230036330Y-100635771D01*
X230036330Y-100635771D02*
X230131568Y-100683390D01*
X230131568Y-100683390D02*
X230179187Y-100731009D01*
X230179187Y-100731009D02*
X230226806Y-100826247D01*
X230226806Y-100826247D02*
X230226806Y-101064342D01*
X230226806Y-101064342D02*
X230179187Y-101159580D01*
X230179187Y-101159580D02*
X230131568Y-101207200D01*
X230131568Y-101207200D02*
X230036330Y-101254819D01*
X230036330Y-101254819D02*
X229750616Y-101254819D01*
X229750616Y-101254819D02*
X229655378Y-101207200D01*
X229655378Y-101207200D02*
X229607759Y-101159580D01*
X231179187Y-101254819D02*
X230607759Y-101254819D01*
X230893473Y-101254819D02*
X230893473Y-100254819D01*
X230893473Y-100254819D02*
X230798235Y-100397676D01*
X230798235Y-100397676D02*
X230702997Y-100492914D01*
X230702997Y-100492914D02*
X230607759Y-100540533D01*
X134486905Y-101207200D02*
X134629762Y-101254819D01*
X134629762Y-101254819D02*
X134867857Y-101254819D01*
X134867857Y-101254819D02*
X134963095Y-101207200D01*
X134963095Y-101207200D02*
X135010714Y-101159580D01*
X135010714Y-101159580D02*
X135058333Y-101064342D01*
X135058333Y-101064342D02*
X135058333Y-100969104D01*
X135058333Y-100969104D02*
X135010714Y-100873866D01*
X135010714Y-100873866D02*
X134963095Y-100826247D01*
X134963095Y-100826247D02*
X134867857Y-100778628D01*
X134867857Y-100778628D02*
X134677381Y-100731009D01*
X134677381Y-100731009D02*
X134582143Y-100683390D01*
X134582143Y-100683390D02*
X134534524Y-100635771D01*
X134534524Y-100635771D02*
X134486905Y-100540533D01*
X134486905Y-100540533D02*
X134486905Y-100445295D01*
X134486905Y-100445295D02*
X134534524Y-100350057D01*
X134534524Y-100350057D02*
X134582143Y-100302438D01*
X134582143Y-100302438D02*
X134677381Y-100254819D01*
X134677381Y-100254819D02*
X134915476Y-100254819D01*
X134915476Y-100254819D02*
X135058333Y-100302438D01*
X135439286Y-100350057D02*
X135486905Y-100302438D01*
X135486905Y-100302438D02*
X135582143Y-100254819D01*
X135582143Y-100254819D02*
X135820238Y-100254819D01*
X135820238Y-100254819D02*
X135915476Y-100302438D01*
X135915476Y-100302438D02*
X135963095Y-100350057D01*
X135963095Y-100350057D02*
X136010714Y-100445295D01*
X136010714Y-100445295D02*
X136010714Y-100540533D01*
X136010714Y-100540533D02*
X135963095Y-100683390D01*
X135963095Y-100683390D02*
X135391667Y-101254819D01*
X135391667Y-101254819D02*
X136010714Y-101254819D01*
X136486905Y-101254819D02*
X136677381Y-101254819D01*
X136677381Y-101254819D02*
X136772619Y-101207200D01*
X136772619Y-101207200D02*
X136820238Y-101159580D01*
X136820238Y-101159580D02*
X136915476Y-101016723D01*
X136915476Y-101016723D02*
X136963095Y-100826247D01*
X136963095Y-100826247D02*
X136963095Y-100445295D01*
X136963095Y-100445295D02*
X136915476Y-100350057D01*
X136915476Y-100350057D02*
X136867857Y-100302438D01*
X136867857Y-100302438D02*
X136772619Y-100254819D01*
X136772619Y-100254819D02*
X136582143Y-100254819D01*
X136582143Y-100254819D02*
X136486905Y-100302438D01*
X136486905Y-100302438D02*
X136439286Y-100350057D01*
X136439286Y-100350057D02*
X136391667Y-100445295D01*
X136391667Y-100445295D02*
X136391667Y-100683390D01*
X136391667Y-100683390D02*
X136439286Y-100778628D01*
X136439286Y-100778628D02*
X136486905Y-100826247D01*
X136486905Y-100826247D02*
X136582143Y-100873866D01*
X136582143Y-100873866D02*
X136772619Y-100873866D01*
X136772619Y-100873866D02*
X136867857Y-100826247D01*
X136867857Y-100826247D02*
X136915476Y-100778628D01*
X136915476Y-100778628D02*
X136963095Y-100683390D01*
X58286905Y-120257200D02*
X58429762Y-120304819D01*
X58429762Y-120304819D02*
X58667857Y-120304819D01*
X58667857Y-120304819D02*
X58763095Y-120257200D01*
X58763095Y-120257200D02*
X58810714Y-120209580D01*
X58810714Y-120209580D02*
X58858333Y-120114342D01*
X58858333Y-120114342D02*
X58858333Y-120019104D01*
X58858333Y-120019104D02*
X58810714Y-119923866D01*
X58810714Y-119923866D02*
X58763095Y-119876247D01*
X58763095Y-119876247D02*
X58667857Y-119828628D01*
X58667857Y-119828628D02*
X58477381Y-119781009D01*
X58477381Y-119781009D02*
X58382143Y-119733390D01*
X58382143Y-119733390D02*
X58334524Y-119685771D01*
X58334524Y-119685771D02*
X58286905Y-119590533D01*
X58286905Y-119590533D02*
X58286905Y-119495295D01*
X58286905Y-119495295D02*
X58334524Y-119400057D01*
X58334524Y-119400057D02*
X58382143Y-119352438D01*
X58382143Y-119352438D02*
X58477381Y-119304819D01*
X58477381Y-119304819D02*
X58715476Y-119304819D01*
X58715476Y-119304819D02*
X58858333Y-119352438D01*
X59191667Y-119304819D02*
X59810714Y-119304819D01*
X59810714Y-119304819D02*
X59477381Y-119685771D01*
X59477381Y-119685771D02*
X59620238Y-119685771D01*
X59620238Y-119685771D02*
X59715476Y-119733390D01*
X59715476Y-119733390D02*
X59763095Y-119781009D01*
X59763095Y-119781009D02*
X59810714Y-119876247D01*
X59810714Y-119876247D02*
X59810714Y-120114342D01*
X59810714Y-120114342D02*
X59763095Y-120209580D01*
X59763095Y-120209580D02*
X59715476Y-120257200D01*
X59715476Y-120257200D02*
X59620238Y-120304819D01*
X59620238Y-120304819D02*
X59334524Y-120304819D01*
X59334524Y-120304819D02*
X59239286Y-120257200D01*
X59239286Y-120257200D02*
X59191667Y-120209580D01*
X60144048Y-119304819D02*
X60810714Y-119304819D01*
X60810714Y-119304819D02*
X60382143Y-120304819D01*
X96863095Y-63107200D02*
X97005952Y-63154819D01*
X97005952Y-63154819D02*
X97244047Y-63154819D01*
X97244047Y-63154819D02*
X97339285Y-63107200D01*
X97339285Y-63107200D02*
X97386904Y-63059580D01*
X97386904Y-63059580D02*
X97434523Y-62964342D01*
X97434523Y-62964342D02*
X97434523Y-62869104D01*
X97434523Y-62869104D02*
X97386904Y-62773866D01*
X97386904Y-62773866D02*
X97339285Y-62726247D01*
X97339285Y-62726247D02*
X97244047Y-62678628D01*
X97244047Y-62678628D02*
X97053571Y-62631009D01*
X97053571Y-62631009D02*
X96958333Y-62583390D01*
X96958333Y-62583390D02*
X96910714Y-62535771D01*
X96910714Y-62535771D02*
X96863095Y-62440533D01*
X96863095Y-62440533D02*
X96863095Y-62345295D01*
X96863095Y-62345295D02*
X96910714Y-62250057D01*
X96910714Y-62250057D02*
X96958333Y-62202438D01*
X96958333Y-62202438D02*
X97053571Y-62154819D01*
X97053571Y-62154819D02*
X97291666Y-62154819D01*
X97291666Y-62154819D02*
X97434523Y-62202438D01*
X97767857Y-62154819D02*
X98386904Y-62154819D01*
X98386904Y-62154819D02*
X98053571Y-62535771D01*
X98053571Y-62535771D02*
X98196428Y-62535771D01*
X98196428Y-62535771D02*
X98291666Y-62583390D01*
X98291666Y-62583390D02*
X98339285Y-62631009D01*
X98339285Y-62631009D02*
X98386904Y-62726247D01*
X98386904Y-62726247D02*
X98386904Y-62964342D01*
X98386904Y-62964342D02*
X98339285Y-63059580D01*
X98339285Y-63059580D02*
X98291666Y-63107200D01*
X98291666Y-63107200D02*
X98196428Y-63154819D01*
X98196428Y-63154819D02*
X97910714Y-63154819D01*
X97910714Y-63154819D02*
X97815476Y-63107200D01*
X97815476Y-63107200D02*
X97767857Y-63059580D01*
X304902997Y-101207200D02*
X305045854Y-101254819D01*
X305045854Y-101254819D02*
X305283949Y-101254819D01*
X305283949Y-101254819D02*
X305379187Y-101207200D01*
X305379187Y-101207200D02*
X305426806Y-101159580D01*
X305426806Y-101159580D02*
X305474425Y-101064342D01*
X305474425Y-101064342D02*
X305474425Y-100969104D01*
X305474425Y-100969104D02*
X305426806Y-100873866D01*
X305426806Y-100873866D02*
X305379187Y-100826247D01*
X305379187Y-100826247D02*
X305283949Y-100778628D01*
X305283949Y-100778628D02*
X305093473Y-100731009D01*
X305093473Y-100731009D02*
X304998235Y-100683390D01*
X304998235Y-100683390D02*
X304950616Y-100635771D01*
X304950616Y-100635771D02*
X304902997Y-100540533D01*
X304902997Y-100540533D02*
X304902997Y-100445295D01*
X304902997Y-100445295D02*
X304950616Y-100350057D01*
X304950616Y-100350057D02*
X304998235Y-100302438D01*
X304998235Y-100302438D02*
X305093473Y-100254819D01*
X305093473Y-100254819D02*
X305331568Y-100254819D01*
X305331568Y-100254819D02*
X305474425Y-100302438D01*
X305807759Y-100254819D02*
X306426806Y-100254819D01*
X306426806Y-100254819D02*
X306093473Y-100635771D01*
X306093473Y-100635771D02*
X306236330Y-100635771D01*
X306236330Y-100635771D02*
X306331568Y-100683390D01*
X306331568Y-100683390D02*
X306379187Y-100731009D01*
X306379187Y-100731009D02*
X306426806Y-100826247D01*
X306426806Y-100826247D02*
X306426806Y-101064342D01*
X306426806Y-101064342D02*
X306379187Y-101159580D01*
X306379187Y-101159580D02*
X306331568Y-101207200D01*
X306331568Y-101207200D02*
X306236330Y-101254819D01*
X306236330Y-101254819D02*
X305950616Y-101254819D01*
X305950616Y-101254819D02*
X305855378Y-101207200D01*
X305855378Y-101207200D02*
X305807759Y-101159580D01*
X307331568Y-100254819D02*
X306855378Y-100254819D01*
X306855378Y-100254819D02*
X306807759Y-100731009D01*
X306807759Y-100731009D02*
X306855378Y-100683390D01*
X306855378Y-100683390D02*
X306950616Y-100635771D01*
X306950616Y-100635771D02*
X307188711Y-100635771D01*
X307188711Y-100635771D02*
X307283949Y-100683390D01*
X307283949Y-100683390D02*
X307331568Y-100731009D01*
X307331568Y-100731009D02*
X307379187Y-100826247D01*
X307379187Y-100826247D02*
X307379187Y-101064342D01*
X307379187Y-101064342D02*
X307331568Y-101159580D01*
X307331568Y-101159580D02*
X307283949Y-101207200D01*
X307283949Y-101207200D02*
X307188711Y-101254819D01*
X307188711Y-101254819D02*
X306950616Y-101254819D01*
X306950616Y-101254819D02*
X306855378Y-101207200D01*
X306855378Y-101207200D02*
X306807759Y-101159580D01*
X285852997Y-120257200D02*
X285995854Y-120304819D01*
X285995854Y-120304819D02*
X286233949Y-120304819D01*
X286233949Y-120304819D02*
X286329187Y-120257200D01*
X286329187Y-120257200D02*
X286376806Y-120209580D01*
X286376806Y-120209580D02*
X286424425Y-120114342D01*
X286424425Y-120114342D02*
X286424425Y-120019104D01*
X286424425Y-120019104D02*
X286376806Y-119923866D01*
X286376806Y-119923866D02*
X286329187Y-119876247D01*
X286329187Y-119876247D02*
X286233949Y-119828628D01*
X286233949Y-119828628D02*
X286043473Y-119781009D01*
X286043473Y-119781009D02*
X285948235Y-119733390D01*
X285948235Y-119733390D02*
X285900616Y-119685771D01*
X285900616Y-119685771D02*
X285852997Y-119590533D01*
X285852997Y-119590533D02*
X285852997Y-119495295D01*
X285852997Y-119495295D02*
X285900616Y-119400057D01*
X285900616Y-119400057D02*
X285948235Y-119352438D01*
X285948235Y-119352438D02*
X286043473Y-119304819D01*
X286043473Y-119304819D02*
X286281568Y-119304819D01*
X286281568Y-119304819D02*
X286424425Y-119352438D01*
X287281568Y-119638152D02*
X287281568Y-120304819D01*
X287043473Y-119257200D02*
X286805378Y-119971485D01*
X286805378Y-119971485D02*
X287424425Y-119971485D01*
X288233949Y-119304819D02*
X288043473Y-119304819D01*
X288043473Y-119304819D02*
X287948235Y-119352438D01*
X287948235Y-119352438D02*
X287900616Y-119400057D01*
X287900616Y-119400057D02*
X287805378Y-119542914D01*
X287805378Y-119542914D02*
X287757759Y-119733390D01*
X287757759Y-119733390D02*
X287757759Y-120114342D01*
X287757759Y-120114342D02*
X287805378Y-120209580D01*
X287805378Y-120209580D02*
X287852997Y-120257200D01*
X287852997Y-120257200D02*
X287948235Y-120304819D01*
X287948235Y-120304819D02*
X288138711Y-120304819D01*
X288138711Y-120304819D02*
X288233949Y-120257200D01*
X288233949Y-120257200D02*
X288281568Y-120209580D01*
X288281568Y-120209580D02*
X288329187Y-120114342D01*
X288329187Y-120114342D02*
X288329187Y-119876247D01*
X288329187Y-119876247D02*
X288281568Y-119781009D01*
X288281568Y-119781009D02*
X288233949Y-119733390D01*
X288233949Y-119733390D02*
X288138711Y-119685771D01*
X288138711Y-119685771D02*
X287948235Y-119685771D01*
X287948235Y-119685771D02*
X287852997Y-119733390D01*
X287852997Y-119733390D02*
X287805378Y-119781009D01*
X287805378Y-119781009D02*
X287757759Y-119876247D01*
X266802997Y-82157200D02*
X266945854Y-82204819D01*
X266945854Y-82204819D02*
X267183949Y-82204819D01*
X267183949Y-82204819D02*
X267279187Y-82157200D01*
X267279187Y-82157200D02*
X267326806Y-82109580D01*
X267326806Y-82109580D02*
X267374425Y-82014342D01*
X267374425Y-82014342D02*
X267374425Y-81919104D01*
X267374425Y-81919104D02*
X267326806Y-81823866D01*
X267326806Y-81823866D02*
X267279187Y-81776247D01*
X267279187Y-81776247D02*
X267183949Y-81728628D01*
X267183949Y-81728628D02*
X266993473Y-81681009D01*
X266993473Y-81681009D02*
X266898235Y-81633390D01*
X266898235Y-81633390D02*
X266850616Y-81585771D01*
X266850616Y-81585771D02*
X266802997Y-81490533D01*
X266802997Y-81490533D02*
X266802997Y-81395295D01*
X266802997Y-81395295D02*
X266850616Y-81300057D01*
X266850616Y-81300057D02*
X266898235Y-81252438D01*
X266898235Y-81252438D02*
X266993473Y-81204819D01*
X266993473Y-81204819D02*
X267231568Y-81204819D01*
X267231568Y-81204819D02*
X267374425Y-81252438D01*
X267755378Y-81300057D02*
X267802997Y-81252438D01*
X267802997Y-81252438D02*
X267898235Y-81204819D01*
X267898235Y-81204819D02*
X268136330Y-81204819D01*
X268136330Y-81204819D02*
X268231568Y-81252438D01*
X268231568Y-81252438D02*
X268279187Y-81300057D01*
X268279187Y-81300057D02*
X268326806Y-81395295D01*
X268326806Y-81395295D02*
X268326806Y-81490533D01*
X268326806Y-81490533D02*
X268279187Y-81633390D01*
X268279187Y-81633390D02*
X267707759Y-82204819D01*
X267707759Y-82204819D02*
X268326806Y-82204819D01*
X269279187Y-82204819D02*
X268707759Y-82204819D01*
X268993473Y-82204819D02*
X268993473Y-81204819D01*
X268993473Y-81204819D02*
X268898235Y-81347676D01*
X268898235Y-81347676D02*
X268802997Y-81442914D01*
X268802997Y-81442914D02*
X268707759Y-81490533D01*
X247752997Y-139307200D02*
X247895854Y-139354819D01*
X247895854Y-139354819D02*
X248133949Y-139354819D01*
X248133949Y-139354819D02*
X248229187Y-139307200D01*
X248229187Y-139307200D02*
X248276806Y-139259580D01*
X248276806Y-139259580D02*
X248324425Y-139164342D01*
X248324425Y-139164342D02*
X248324425Y-139069104D01*
X248324425Y-139069104D02*
X248276806Y-138973866D01*
X248276806Y-138973866D02*
X248229187Y-138926247D01*
X248229187Y-138926247D02*
X248133949Y-138878628D01*
X248133949Y-138878628D02*
X247943473Y-138831009D01*
X247943473Y-138831009D02*
X247848235Y-138783390D01*
X247848235Y-138783390D02*
X247800616Y-138735771D01*
X247800616Y-138735771D02*
X247752997Y-138640533D01*
X247752997Y-138640533D02*
X247752997Y-138545295D01*
X247752997Y-138545295D02*
X247800616Y-138450057D01*
X247800616Y-138450057D02*
X247848235Y-138402438D01*
X247848235Y-138402438D02*
X247943473Y-138354819D01*
X247943473Y-138354819D02*
X248181568Y-138354819D01*
X248181568Y-138354819D02*
X248324425Y-138402438D01*
X249229187Y-138354819D02*
X248752997Y-138354819D01*
X248752997Y-138354819D02*
X248705378Y-138831009D01*
X248705378Y-138831009D02*
X248752997Y-138783390D01*
X248752997Y-138783390D02*
X248848235Y-138735771D01*
X248848235Y-138735771D02*
X249086330Y-138735771D01*
X249086330Y-138735771D02*
X249181568Y-138783390D01*
X249181568Y-138783390D02*
X249229187Y-138831009D01*
X249229187Y-138831009D02*
X249276806Y-138926247D01*
X249276806Y-138926247D02*
X249276806Y-139164342D01*
X249276806Y-139164342D02*
X249229187Y-139259580D01*
X249229187Y-139259580D02*
X249181568Y-139307200D01*
X249181568Y-139307200D02*
X249086330Y-139354819D01*
X249086330Y-139354819D02*
X248848235Y-139354819D01*
X248848235Y-139354819D02*
X248752997Y-139307200D01*
X248752997Y-139307200D02*
X248705378Y-139259580D01*
X250133949Y-138354819D02*
X249943473Y-138354819D01*
X249943473Y-138354819D02*
X249848235Y-138402438D01*
X249848235Y-138402438D02*
X249800616Y-138450057D01*
X249800616Y-138450057D02*
X249705378Y-138592914D01*
X249705378Y-138592914D02*
X249657759Y-138783390D01*
X249657759Y-138783390D02*
X249657759Y-139164342D01*
X249657759Y-139164342D02*
X249705378Y-139259580D01*
X249705378Y-139259580D02*
X249752997Y-139307200D01*
X249752997Y-139307200D02*
X249848235Y-139354819D01*
X249848235Y-139354819D02*
X250038711Y-139354819D01*
X250038711Y-139354819D02*
X250133949Y-139307200D01*
X250133949Y-139307200D02*
X250181568Y-139259580D01*
X250181568Y-139259580D02*
X250229187Y-139164342D01*
X250229187Y-139164342D02*
X250229187Y-138926247D01*
X250229187Y-138926247D02*
X250181568Y-138831009D01*
X250181568Y-138831009D02*
X250133949Y-138783390D01*
X250133949Y-138783390D02*
X250038711Y-138735771D01*
X250038711Y-138735771D02*
X249848235Y-138735771D01*
X249848235Y-138735771D02*
X249752997Y-138783390D01*
X249752997Y-138783390D02*
X249705378Y-138831009D01*
X249705378Y-138831009D02*
X249657759Y-138926247D01*
X134486905Y-82157200D02*
X134629762Y-82204819D01*
X134629762Y-82204819D02*
X134867857Y-82204819D01*
X134867857Y-82204819D02*
X134963095Y-82157200D01*
X134963095Y-82157200D02*
X135010714Y-82109580D01*
X135010714Y-82109580D02*
X135058333Y-82014342D01*
X135058333Y-82014342D02*
X135058333Y-81919104D01*
X135058333Y-81919104D02*
X135010714Y-81823866D01*
X135010714Y-81823866D02*
X134963095Y-81776247D01*
X134963095Y-81776247D02*
X134867857Y-81728628D01*
X134867857Y-81728628D02*
X134677381Y-81681009D01*
X134677381Y-81681009D02*
X134582143Y-81633390D01*
X134582143Y-81633390D02*
X134534524Y-81585771D01*
X134534524Y-81585771D02*
X134486905Y-81490533D01*
X134486905Y-81490533D02*
X134486905Y-81395295D01*
X134486905Y-81395295D02*
X134534524Y-81300057D01*
X134534524Y-81300057D02*
X134582143Y-81252438D01*
X134582143Y-81252438D02*
X134677381Y-81204819D01*
X134677381Y-81204819D02*
X134915476Y-81204819D01*
X134915476Y-81204819D02*
X135058333Y-81252438D01*
X136010714Y-82204819D02*
X135439286Y-82204819D01*
X135725000Y-82204819D02*
X135725000Y-81204819D01*
X135725000Y-81204819D02*
X135629762Y-81347676D01*
X135629762Y-81347676D02*
X135534524Y-81442914D01*
X135534524Y-81442914D02*
X135439286Y-81490533D01*
X136344048Y-81204819D02*
X137010714Y-81204819D01*
X137010714Y-81204819D02*
X136582143Y-82204819D01*
X228829997Y-82157200D02*
X228972854Y-82204819D01*
X228972854Y-82204819D02*
X229210949Y-82204819D01*
X229210949Y-82204819D02*
X229306187Y-82157200D01*
X229306187Y-82157200D02*
X229353806Y-82109580D01*
X229353806Y-82109580D02*
X229401425Y-82014342D01*
X229401425Y-82014342D02*
X229401425Y-81919104D01*
X229401425Y-81919104D02*
X229353806Y-81823866D01*
X229353806Y-81823866D02*
X229306187Y-81776247D01*
X229306187Y-81776247D02*
X229210949Y-81728628D01*
X229210949Y-81728628D02*
X229020473Y-81681009D01*
X229020473Y-81681009D02*
X228925235Y-81633390D01*
X228925235Y-81633390D02*
X228877616Y-81585771D01*
X228877616Y-81585771D02*
X228829997Y-81490533D01*
X228829997Y-81490533D02*
X228829997Y-81395295D01*
X228829997Y-81395295D02*
X228877616Y-81300057D01*
X228877616Y-81300057D02*
X228925235Y-81252438D01*
X228925235Y-81252438D02*
X229020473Y-81204819D01*
X229020473Y-81204819D02*
X229258568Y-81204819D01*
X229258568Y-81204819D02*
X229401425Y-81252438D01*
X230353806Y-82204819D02*
X229782378Y-82204819D01*
X230068092Y-82204819D02*
X230068092Y-81204819D01*
X230068092Y-81204819D02*
X229972854Y-81347676D01*
X229972854Y-81347676D02*
X229877616Y-81442914D01*
X229877616Y-81442914D02*
X229782378Y-81490533D01*
X230829997Y-82204819D02*
X231020473Y-82204819D01*
X231020473Y-82204819D02*
X231115711Y-82157200D01*
X231115711Y-82157200D02*
X231163330Y-82109580D01*
X231163330Y-82109580D02*
X231258568Y-81966723D01*
X231258568Y-81966723D02*
X231306187Y-81776247D01*
X231306187Y-81776247D02*
X231306187Y-81395295D01*
X231306187Y-81395295D02*
X231258568Y-81300057D01*
X231258568Y-81300057D02*
X231210949Y-81252438D01*
X231210949Y-81252438D02*
X231115711Y-81204819D01*
X231115711Y-81204819D02*
X230925235Y-81204819D01*
X230925235Y-81204819D02*
X230829997Y-81252438D01*
X230829997Y-81252438D02*
X230782378Y-81300057D01*
X230782378Y-81300057D02*
X230734759Y-81395295D01*
X230734759Y-81395295D02*
X230734759Y-81633390D01*
X230734759Y-81633390D02*
X230782378Y-81728628D01*
X230782378Y-81728628D02*
X230829997Y-81776247D01*
X230829997Y-81776247D02*
X230925235Y-81823866D01*
X230925235Y-81823866D02*
X231115711Y-81823866D01*
X231115711Y-81823866D02*
X231210949Y-81776247D01*
X231210949Y-81776247D02*
X231258568Y-81728628D01*
X231258568Y-81728628D02*
X231306187Y-81633390D01*
X134963095Y-63107200D02*
X135105952Y-63154819D01*
X135105952Y-63154819D02*
X135344047Y-63154819D01*
X135344047Y-63154819D02*
X135439285Y-63107200D01*
X135439285Y-63107200D02*
X135486904Y-63059580D01*
X135486904Y-63059580D02*
X135534523Y-62964342D01*
X135534523Y-62964342D02*
X135534523Y-62869104D01*
X135534523Y-62869104D02*
X135486904Y-62773866D01*
X135486904Y-62773866D02*
X135439285Y-62726247D01*
X135439285Y-62726247D02*
X135344047Y-62678628D01*
X135344047Y-62678628D02*
X135153571Y-62631009D01*
X135153571Y-62631009D02*
X135058333Y-62583390D01*
X135058333Y-62583390D02*
X135010714Y-62535771D01*
X135010714Y-62535771D02*
X134963095Y-62440533D01*
X134963095Y-62440533D02*
X134963095Y-62345295D01*
X134963095Y-62345295D02*
X135010714Y-62250057D01*
X135010714Y-62250057D02*
X135058333Y-62202438D01*
X135058333Y-62202438D02*
X135153571Y-62154819D01*
X135153571Y-62154819D02*
X135391666Y-62154819D01*
X135391666Y-62154819D02*
X135534523Y-62202438D01*
X136439285Y-62154819D02*
X135963095Y-62154819D01*
X135963095Y-62154819D02*
X135915476Y-62631009D01*
X135915476Y-62631009D02*
X135963095Y-62583390D01*
X135963095Y-62583390D02*
X136058333Y-62535771D01*
X136058333Y-62535771D02*
X136296428Y-62535771D01*
X136296428Y-62535771D02*
X136391666Y-62583390D01*
X136391666Y-62583390D02*
X136439285Y-62631009D01*
X136439285Y-62631009D02*
X136486904Y-62726247D01*
X136486904Y-62726247D02*
X136486904Y-62964342D01*
X136486904Y-62964342D02*
X136439285Y-63059580D01*
X136439285Y-63059580D02*
X136391666Y-63107200D01*
X136391666Y-63107200D02*
X136296428Y-63154819D01*
X136296428Y-63154819D02*
X136058333Y-63154819D01*
X136058333Y-63154819D02*
X135963095Y-63107200D01*
X135963095Y-63107200D02*
X135915476Y-63059580D01*
X304902997Y-120257200D02*
X305045854Y-120304819D01*
X305045854Y-120304819D02*
X305283949Y-120304819D01*
X305283949Y-120304819D02*
X305379187Y-120257200D01*
X305379187Y-120257200D02*
X305426806Y-120209580D01*
X305426806Y-120209580D02*
X305474425Y-120114342D01*
X305474425Y-120114342D02*
X305474425Y-120019104D01*
X305474425Y-120019104D02*
X305426806Y-119923866D01*
X305426806Y-119923866D02*
X305379187Y-119876247D01*
X305379187Y-119876247D02*
X305283949Y-119828628D01*
X305283949Y-119828628D02*
X305093473Y-119781009D01*
X305093473Y-119781009D02*
X304998235Y-119733390D01*
X304998235Y-119733390D02*
X304950616Y-119685771D01*
X304950616Y-119685771D02*
X304902997Y-119590533D01*
X304902997Y-119590533D02*
X304902997Y-119495295D01*
X304902997Y-119495295D02*
X304950616Y-119400057D01*
X304950616Y-119400057D02*
X304998235Y-119352438D01*
X304998235Y-119352438D02*
X305093473Y-119304819D01*
X305093473Y-119304819D02*
X305331568Y-119304819D01*
X305331568Y-119304819D02*
X305474425Y-119352438D01*
X306331568Y-119638152D02*
X306331568Y-120304819D01*
X306093473Y-119257200D02*
X305855378Y-119971485D01*
X305855378Y-119971485D02*
X306474425Y-119971485D01*
X306760140Y-119304819D02*
X307426806Y-119304819D01*
X307426806Y-119304819D02*
X306998235Y-120304819D01*
X153536905Y-139307200D02*
X153679762Y-139354819D01*
X153679762Y-139354819D02*
X153917857Y-139354819D01*
X153917857Y-139354819D02*
X154013095Y-139307200D01*
X154013095Y-139307200D02*
X154060714Y-139259580D01*
X154060714Y-139259580D02*
X154108333Y-139164342D01*
X154108333Y-139164342D02*
X154108333Y-139069104D01*
X154108333Y-139069104D02*
X154060714Y-138973866D01*
X154060714Y-138973866D02*
X154013095Y-138926247D01*
X154013095Y-138926247D02*
X153917857Y-138878628D01*
X153917857Y-138878628D02*
X153727381Y-138831009D01*
X153727381Y-138831009D02*
X153632143Y-138783390D01*
X153632143Y-138783390D02*
X153584524Y-138735771D01*
X153584524Y-138735771D02*
X153536905Y-138640533D01*
X153536905Y-138640533D02*
X153536905Y-138545295D01*
X153536905Y-138545295D02*
X153584524Y-138450057D01*
X153584524Y-138450057D02*
X153632143Y-138402438D01*
X153632143Y-138402438D02*
X153727381Y-138354819D01*
X153727381Y-138354819D02*
X153965476Y-138354819D01*
X153965476Y-138354819D02*
X154108333Y-138402438D01*
X155013095Y-138354819D02*
X154536905Y-138354819D01*
X154536905Y-138354819D02*
X154489286Y-138831009D01*
X154489286Y-138831009D02*
X154536905Y-138783390D01*
X154536905Y-138783390D02*
X154632143Y-138735771D01*
X154632143Y-138735771D02*
X154870238Y-138735771D01*
X154870238Y-138735771D02*
X154965476Y-138783390D01*
X154965476Y-138783390D02*
X155013095Y-138831009D01*
X155013095Y-138831009D02*
X155060714Y-138926247D01*
X155060714Y-138926247D02*
X155060714Y-139164342D01*
X155060714Y-139164342D02*
X155013095Y-139259580D01*
X155013095Y-139259580D02*
X154965476Y-139307200D01*
X154965476Y-139307200D02*
X154870238Y-139354819D01*
X154870238Y-139354819D02*
X154632143Y-139354819D01*
X154632143Y-139354819D02*
X154536905Y-139307200D01*
X154536905Y-139307200D02*
X154489286Y-139259580D01*
X155917857Y-138688152D02*
X155917857Y-139354819D01*
X155679762Y-138307200D02*
X155441667Y-139021485D01*
X155441667Y-139021485D02*
X156060714Y-139021485D01*
X229179187Y-63107200D02*
X229322044Y-63154819D01*
X229322044Y-63154819D02*
X229560139Y-63154819D01*
X229560139Y-63154819D02*
X229655377Y-63107200D01*
X229655377Y-63107200D02*
X229702996Y-63059580D01*
X229702996Y-63059580D02*
X229750615Y-62964342D01*
X229750615Y-62964342D02*
X229750615Y-62869104D01*
X229750615Y-62869104D02*
X229702996Y-62773866D01*
X229702996Y-62773866D02*
X229655377Y-62726247D01*
X229655377Y-62726247D02*
X229560139Y-62678628D01*
X229560139Y-62678628D02*
X229369663Y-62631009D01*
X229369663Y-62631009D02*
X229274425Y-62583390D01*
X229274425Y-62583390D02*
X229226806Y-62535771D01*
X229226806Y-62535771D02*
X229179187Y-62440533D01*
X229179187Y-62440533D02*
X229179187Y-62345295D01*
X229179187Y-62345295D02*
X229226806Y-62250057D01*
X229226806Y-62250057D02*
X229274425Y-62202438D01*
X229274425Y-62202438D02*
X229369663Y-62154819D01*
X229369663Y-62154819D02*
X229607758Y-62154819D01*
X229607758Y-62154819D02*
X229750615Y-62202438D01*
X230083949Y-62154819D02*
X230750615Y-62154819D01*
X230750615Y-62154819D02*
X230322044Y-63154819D01*
X285852997Y-101207200D02*
X285995854Y-101254819D01*
X285995854Y-101254819D02*
X286233949Y-101254819D01*
X286233949Y-101254819D02*
X286329187Y-101207200D01*
X286329187Y-101207200D02*
X286376806Y-101159580D01*
X286376806Y-101159580D02*
X286424425Y-101064342D01*
X286424425Y-101064342D02*
X286424425Y-100969104D01*
X286424425Y-100969104D02*
X286376806Y-100873866D01*
X286376806Y-100873866D02*
X286329187Y-100826247D01*
X286329187Y-100826247D02*
X286233949Y-100778628D01*
X286233949Y-100778628D02*
X286043473Y-100731009D01*
X286043473Y-100731009D02*
X285948235Y-100683390D01*
X285948235Y-100683390D02*
X285900616Y-100635771D01*
X285900616Y-100635771D02*
X285852997Y-100540533D01*
X285852997Y-100540533D02*
X285852997Y-100445295D01*
X285852997Y-100445295D02*
X285900616Y-100350057D01*
X285900616Y-100350057D02*
X285948235Y-100302438D01*
X285948235Y-100302438D02*
X286043473Y-100254819D01*
X286043473Y-100254819D02*
X286281568Y-100254819D01*
X286281568Y-100254819D02*
X286424425Y-100302438D01*
X286757759Y-100254819D02*
X287376806Y-100254819D01*
X287376806Y-100254819D02*
X287043473Y-100635771D01*
X287043473Y-100635771D02*
X287186330Y-100635771D01*
X287186330Y-100635771D02*
X287281568Y-100683390D01*
X287281568Y-100683390D02*
X287329187Y-100731009D01*
X287329187Y-100731009D02*
X287376806Y-100826247D01*
X287376806Y-100826247D02*
X287376806Y-101064342D01*
X287376806Y-101064342D02*
X287329187Y-101159580D01*
X287329187Y-101159580D02*
X287281568Y-101207200D01*
X287281568Y-101207200D02*
X287186330Y-101254819D01*
X287186330Y-101254819D02*
X286900616Y-101254819D01*
X286900616Y-101254819D02*
X286805378Y-101207200D01*
X286805378Y-101207200D02*
X286757759Y-101159580D01*
X288233949Y-100588152D02*
X288233949Y-101254819D01*
X287995854Y-100207200D02*
X287757759Y-100921485D01*
X287757759Y-100921485D02*
X288376806Y-100921485D01*
D11*
%TO.C,J4*%
X178986092Y-76475000D02*
X178986092Y-74075000D01*
X178986092Y-74075000D02*
X174086092Y-74075000D01*
X174086092Y-76475000D02*
X178986092Y-76475000D01*
X174086092Y-74075000D02*
X174086092Y-76475000D01*
D12*
%TO.C,SW1*%
X180341092Y-55925000D02*
X180341092Y-57925000D01*
X175941092Y-59525000D02*
X179541092Y-59525000D01*
X175941092Y-54325000D02*
X179541092Y-54325000D01*
X175141092Y-55925000D02*
X175141092Y-57925000D01*
X179241092Y-56925000D02*
G75*
G03*
X179241092Y-56925000I-1500000J0D01*
G01*
%TD*%
M02*
