M48
; DRILL file {KiCad 7.0.8-unknown-202310192121~e85eec2e6b~ubuntu22.04.1} date Tue 07 Nov 2023 13:40:34
; FORMAT={-:-/ absolute / inch / decimal}
; #@! TF.CreationDate,2023-11-07T13:40:34+08:00
; #@! TF.GenerationSoftware,Kicad,Pcbnew,7.0.8-unknown-202310192121~e85eec2e6b~ubuntu22.04.1
; #@! TF.FileFunction,NonPlated,1,2,NPTH
FMAT,2
INCH
; #@! TA.AperFunction,NonPlated,NPTH,ComponentDrill
T1C0.0669
; #@! TA.AperFunction,NonPlated,NPTH,ComponentDrill
T2C0.0670
; #@! TA.AperFunction,NonPlated,NPTH,ComponentDrill
T3C0.0689
; #@! TA.AperFunction,NonPlated,NPTH,ComponentDrill
T4C0.0866
; #@! TA.AperFunction,NonPlated,NPTH,ComponentDrill
T5C0.1200
; #@! TA.AperFunction,NonPlated,NPTH,ComponentDrill
T6C0.1570
%
G90
G05
T1
X2.127Y-2.3435
X2.127Y-2.3435
X2.127Y-3.0935
X2.127Y-3.0935
X2.127Y-3.8435
X2.127Y-3.8435
X2.127Y-4.5935
X2.127Y-4.5935
X2.127Y-5.3435
X2.127Y-5.3435
X2.56Y-2.3435
X2.56Y-2.3435
X2.56Y-3.0935
X2.56Y-3.0935
X2.56Y-3.8435
X2.56Y-3.8435
X2.56Y-4.5935
X2.56Y-4.5935
X2.56Y-5.3435
X2.56Y-5.3435
X2.877Y-2.3435
X2.877Y-2.3435
X2.877Y-3.0935
X2.877Y-3.0935
X2.877Y-3.8435
X2.877Y-3.8435
X2.877Y-4.5935
X2.877Y-4.5935
X2.877Y-5.3435
X2.877Y-5.3435
X3.31Y-2.3435
X3.31Y-2.3435
X3.31Y-3.0935
X3.31Y-3.0935
X3.31Y-3.8435
X3.31Y-3.8435
X3.31Y-4.5935
X3.31Y-4.5935
X3.31Y-5.3435
X3.31Y-5.3435
X3.627Y-2.3435
X3.627Y-2.3435
X3.627Y-3.0935
X3.627Y-3.0935
X3.627Y-3.8435
X3.627Y-3.8435
X3.627Y-4.5935
X3.627Y-4.5935
X3.627Y-5.3435
X3.627Y-5.3435
X4.06Y-2.3435
X4.06Y-2.3435
X4.06Y-3.0935
X4.06Y-3.0935
X4.06Y-3.8435
X4.06Y-3.8435
X4.06Y-4.5935
X4.06Y-4.5935
X4.06Y-5.3435
X4.06Y-5.3435
X4.372Y-4.5935
X4.372Y-4.5935
X4.377Y-2.3435
X4.377Y-2.3435
X4.377Y-3.0935
X4.377Y-3.0935
X4.377Y-3.8435
X4.377Y-3.8435
X4.377Y-5.3435
X4.377Y-5.3435
X4.805Y-4.5935
X4.805Y-4.5935
X4.81Y-2.3435
X4.81Y-2.3435
X4.81Y-3.0935
X4.81Y-3.0935
X4.81Y-3.8435
X4.81Y-3.8435
X4.81Y-5.3435
X4.81Y-5.3435
X5.127Y-2.3435
X5.127Y-2.3435
X5.127Y-3.0935
X5.127Y-3.0935
X5.127Y-3.8435
X5.127Y-3.8435
X5.127Y-4.5935
X5.127Y-4.5935
X5.127Y-5.3435
X5.127Y-5.3435
X5.56Y-2.3435
X5.56Y-2.3435
X5.56Y-3.0935
X5.56Y-3.0935
X5.56Y-3.8435
X5.56Y-3.8435
X5.56Y-4.5935
X5.56Y-4.5935
X5.56Y-5.3435
X5.56Y-5.3435
X5.877Y-2.3435
X5.877Y-2.3435
X5.877Y-3.0935
X5.877Y-3.0935
X5.877Y-3.8435
X5.877Y-3.8435
X5.877Y-4.5935
X5.877Y-4.5935
X5.877Y-5.3435
X5.877Y-5.3435
X6.31Y-2.3435
X6.31Y-2.3435
X6.31Y-3.0935
X6.31Y-3.0935
X6.31Y-3.8435
X6.31Y-3.8435
X6.31Y-4.5935
X6.31Y-4.5935
X6.31Y-5.3435
X6.31Y-5.3435
X8.8363Y-2.3435
X8.8363Y-2.3435
X8.8363Y-3.8435
X8.8363Y-3.8435
X8.8363Y-4.5935
X8.8363Y-4.5935
X8.8363Y-5.3435
X8.8363Y-5.3435
X8.8413Y-3.0935
X8.8413Y-3.0935
X9.2693Y-2.3435
X9.2693Y-2.3435
X9.2693Y-3.8435
X9.2693Y-3.8435
X9.2693Y-4.5935
X9.2693Y-4.5935
X9.2693Y-5.3435
X9.2693Y-5.3435
X9.2743Y-3.0935
X9.2743Y-3.0935
X9.5863Y-2.3435
X9.5863Y-2.3435
X9.5863Y-3.8435
X9.5863Y-3.8435
X9.5863Y-4.5935
X9.5863Y-4.5935
X9.5863Y-5.3435
X9.5863Y-5.3435
X9.5913Y-3.0935
X9.5913Y-3.0935
X10.0193Y-2.3435
X10.0193Y-2.3435
X10.0193Y-3.8435
X10.0193Y-3.8435
X10.0193Y-4.5935
X10.0193Y-4.5935
X10.0193Y-5.3435
X10.0193Y-5.3435
X10.0243Y-3.0935
X10.0243Y-3.0935
X10.3363Y-2.3435
X10.3363Y-2.3435
X10.3363Y-3.0935
X10.3363Y-3.0935
X10.3363Y-3.8435
X10.3363Y-3.8435
X10.3363Y-4.5935
X10.3363Y-4.5935
X10.3363Y-5.3435
X10.3363Y-5.3435
X10.7693Y-2.3435
X10.7693Y-2.3435
X10.7693Y-3.0935
X10.7693Y-3.0935
X10.7693Y-3.8435
X10.7693Y-3.8435
X10.7693Y-4.5935
X10.7693Y-4.5935
X10.7693Y-5.3435
X10.7693Y-5.3435
X11.0863Y-2.3435
X11.0863Y-2.3435
X11.0863Y-3.0935
X11.0863Y-3.0935
X11.0863Y-3.8435
X11.0863Y-3.8435
X11.0863Y-4.5935
X11.0863Y-4.5935
X11.0863Y-5.3435
X11.0863Y-5.3435
X11.5193Y-2.3435
X11.5193Y-2.3435
X11.5193Y-3.0935
X11.5193Y-3.0935
X11.5193Y-3.8435
X11.5193Y-3.8435
X11.5193Y-4.5935
X11.5193Y-4.5935
X11.5193Y-5.3435
X11.5193Y-5.3435
X11.8363Y-2.3435
X11.8363Y-2.3435
X11.8363Y-3.0935
X11.8363Y-3.0935
X11.8363Y-3.8435
X11.8363Y-3.8435
X11.8363Y-4.5935
X11.8363Y-4.5935
X11.8363Y-5.3435
X11.8363Y-5.3435
X12.2693Y-2.3435
X12.2693Y-2.3435
X12.2693Y-3.0935
X12.2693Y-3.0935
X12.2693Y-3.8435
X12.2693Y-3.8435
X12.2693Y-4.5935
X12.2693Y-4.5935
X12.2693Y-5.3435
X12.2693Y-5.3435
X12.5863Y-2.3435
X12.5863Y-2.3435
X12.5863Y-3.0935
X12.5863Y-3.0935
X12.5863Y-3.8435
X12.5863Y-3.8435
X12.5863Y-4.5935
X12.5863Y-4.5935
X12.5863Y-5.3435
X12.5863Y-5.3435
X13.0193Y-2.3435
X13.0193Y-2.3435
X13.0193Y-3.0935
X13.0193Y-3.0935
X13.0193Y-3.8435
X13.0193Y-3.8435
X13.0193Y-4.5935
X13.0193Y-4.5935
X13.0193Y-5.3435
X13.0193Y-5.3435
T2
X5.5135Y-5.3385
X5.9135Y-5.3385
X9.2328Y-5.3385
X9.6328Y-5.3385
T3
X2.1435Y-2.3435
X2.1435Y-2.3435
X2.1435Y-3.0935
X2.1435Y-3.0935
X2.1435Y-3.8435
X2.1435Y-3.8435
X2.1435Y-4.5935
X2.1435Y-4.5935
X2.1435Y-5.3435
X2.1435Y-5.3435
X2.5435Y-2.3435
X2.5435Y-2.3435
X2.5435Y-3.0935
X2.5435Y-3.0935
X2.5435Y-3.8435
X2.5435Y-3.8435
X2.5435Y-4.5935
X2.5435Y-4.5935
X2.5435Y-5.3435
X2.5435Y-5.3435
X2.8935Y-2.3435
X2.8935Y-2.3435
X2.8935Y-3.0935
X2.8935Y-3.0935
X2.8935Y-3.8435
X2.8935Y-3.8435
X2.8935Y-4.5935
X2.8935Y-4.5935
X2.8935Y-5.3435
X2.8935Y-5.3435
X3.2935Y-2.3435
X3.2935Y-2.3435
X3.2935Y-3.0935
X3.2935Y-3.0935
X3.2935Y-3.8435
X3.2935Y-3.8435
X3.2935Y-4.5935
X3.2935Y-4.5935
X3.2935Y-5.3435
X3.2935Y-5.3435
X3.6435Y-2.3435
X3.6435Y-2.3435
X3.6435Y-3.0935
X3.6435Y-3.0935
X3.6435Y-3.8435
X3.6435Y-3.8435
X3.6435Y-4.5935
X3.6435Y-4.5935
X3.6435Y-5.3435
X3.6435Y-5.3435
X4.0435Y-2.3435
X4.0435Y-2.3435
X4.0435Y-3.0935
X4.0435Y-3.0935
X4.0435Y-3.8435
X4.0435Y-3.8435
X4.0435Y-4.5935
X4.0435Y-4.5935
X4.0435Y-5.3435
X4.0435Y-5.3435
X4.3885Y-4.5935
X4.3885Y-4.5935
X4.3935Y-2.3435
X4.3935Y-2.3435
X4.3935Y-3.0935
X4.3935Y-3.0935
X4.3935Y-3.8435
X4.3935Y-3.8435
X4.3935Y-5.3435
X4.3935Y-5.3435
X4.7885Y-4.5935
X4.7885Y-4.5935
X4.7935Y-2.3435
X4.7935Y-2.3435
X4.7935Y-3.0935
X4.7935Y-3.0935
X4.7935Y-3.8435
X4.7935Y-3.8435
X4.7935Y-5.3435
X4.7935Y-5.3435
X5.1435Y-2.3435
X5.1435Y-2.3435
X5.1435Y-3.0935
X5.1435Y-3.0935
X5.1435Y-3.8435
X5.1435Y-3.8435
X5.1435Y-4.5935
X5.1435Y-4.5935
X5.1435Y-5.3435
X5.1435Y-5.3435
X5.5435Y-2.3435
X5.5435Y-2.3435
X5.5435Y-3.0935
X5.5435Y-3.0935
X5.5435Y-3.8435
X5.5435Y-3.8435
X5.5435Y-4.5935
X5.5435Y-4.5935
X5.5435Y-5.3435
X5.5435Y-5.3435
X5.8935Y-2.3435
X5.8935Y-2.3435
X5.8935Y-3.0935
X5.8935Y-3.0935
X5.8935Y-3.8435
X5.8935Y-3.8435
X5.8935Y-4.5935
X5.8935Y-4.5935
X5.8935Y-5.3435
X5.8935Y-5.3435
X6.2935Y-2.3435
X6.2935Y-2.3435
X6.2935Y-3.0935
X6.2935Y-3.0935
X6.2935Y-3.8435
X6.2935Y-3.8435
X6.2935Y-4.5935
X6.2935Y-4.5935
X6.2935Y-5.3435
X6.2935Y-5.3435
X8.8528Y-2.3435
X8.8528Y-2.3435
X8.8528Y-3.8435
X8.8528Y-3.8435
X8.8528Y-4.5935
X8.8528Y-4.5935
X8.8528Y-5.3435
X8.8528Y-5.3435
X8.8578Y-3.0935
X8.8578Y-3.0935
X9.2528Y-2.3435
X9.2528Y-2.3435
X9.2528Y-3.8435
X9.2528Y-3.8435
X9.2528Y-4.5935
X9.2528Y-4.5935
X9.2528Y-5.3435
X9.2528Y-5.3435
X9.2578Y-3.0935
X9.2578Y-3.0935
X9.6028Y-2.3435
X9.6028Y-2.3435
X9.6028Y-3.8435
X9.6028Y-3.8435
X9.6028Y-4.5935
X9.6028Y-4.5935
X9.6028Y-5.3435
X9.6028Y-5.3435
X9.6078Y-3.0935
X9.6078Y-3.0935
X10.0028Y-2.3435
X10.0028Y-2.3435
X10.0028Y-3.8435
X10.0028Y-3.8435
X10.0028Y-4.5935
X10.0028Y-4.5935
X10.0028Y-5.3435
X10.0028Y-5.3435
X10.0078Y-3.0935
X10.0078Y-3.0935
X10.3528Y-2.3435
X10.3528Y-2.3435
X10.3528Y-3.0935
X10.3528Y-3.0935
X10.3528Y-3.8435
X10.3528Y-3.8435
X10.3528Y-4.5935
X10.3528Y-4.5935
X10.3528Y-5.3435
X10.3528Y-5.3435
X10.7528Y-2.3435
X10.7528Y-2.3435
X10.7528Y-3.0935
X10.7528Y-3.0935
X10.7528Y-3.8435
X10.7528Y-3.8435
X10.7528Y-4.5935
X10.7528Y-4.5935
X10.7528Y-5.3435
X10.7528Y-5.3435
X11.1028Y-2.3435
X11.1028Y-2.3435
X11.1028Y-3.0935
X11.1028Y-3.0935
X11.1028Y-3.8435
X11.1028Y-3.8435
X11.1028Y-4.5935
X11.1028Y-4.5935
X11.1028Y-5.3435
X11.1028Y-5.3435
X11.5028Y-2.3435
X11.5028Y-2.3435
X11.5028Y-3.0935
X11.5028Y-3.0935
X11.5028Y-3.8435
X11.5028Y-3.8435
X11.5028Y-4.5935
X11.5028Y-4.5935
X11.5028Y-5.3435
X11.5028Y-5.3435
X11.8528Y-2.3435
X11.8528Y-2.3435
X11.8528Y-3.0935
X11.8528Y-3.0935
X11.8528Y-3.8435
X11.8528Y-3.8435
X11.8528Y-4.5935
X11.8528Y-4.5935
X11.8528Y-5.3435
X11.8528Y-5.3435
X12.2528Y-2.3435
X12.2528Y-2.3435
X12.2528Y-3.0935
X12.2528Y-3.0935
X12.2528Y-3.8435
X12.2528Y-3.8435
X12.2528Y-4.5935
X12.2528Y-4.5935
X12.2528Y-5.3435
X12.2528Y-5.3435
X12.6028Y-2.3435
X12.6028Y-2.3435
X12.6028Y-3.0935
X12.6028Y-3.0935
X12.6028Y-3.8435
X12.6028Y-3.8435
X12.6028Y-4.5935
X12.6028Y-4.5935
X12.6028Y-5.3435
X12.6028Y-5.3435
X13.0028Y-2.3435
X13.0028Y-2.3435
X13.0028Y-3.0935
X13.0028Y-3.0935
X13.0028Y-3.8435
X13.0028Y-3.8435
X13.0028Y-4.5935
X13.0028Y-4.5935
X13.0028Y-5.3435
X13.0028Y-5.3435
T4
X2.6881Y-2.7372
X6.6256Y-2.1747
X6.6256Y-5.5263
X8.5006Y-2.1747
X8.5006Y-5.5263
X12.4381Y-2.7372
X12.4381Y-4.9872
T5
X5.2435Y-5.6135
X6.1835Y-5.6135
X8.9628Y-5.6135
X9.9028Y-5.6135
T6
X2.3435Y-2.3435
X2.3435Y-2.3435
X2.3435Y-3.0935
X2.3435Y-3.0935
X2.3435Y-3.8435
X2.3435Y-3.8435
X2.3435Y-4.5935
X2.3435Y-4.5935
X2.3435Y-5.3435
X2.3435Y-5.3435
X3.0935Y-2.3435
X3.0935Y-2.3435
X3.0935Y-3.0935
X3.0935Y-3.0935
X3.0935Y-3.8435
X3.0935Y-3.8435
X3.0935Y-4.5935
X3.0935Y-4.5935
X3.0935Y-5.3435
X3.0935Y-5.3435
X3.8435Y-2.3435
X3.8435Y-2.3435
X3.8435Y-3.0935
X3.8435Y-3.0935
X3.8435Y-3.8435
X3.8435Y-3.8435
X3.8435Y-4.5935
X3.8435Y-4.5935
X3.8435Y-5.3435
X3.8435Y-5.3435
X4.5885Y-4.5935
X4.5885Y-4.5935
X4.5935Y-2.3435
X4.5935Y-2.3435
X4.5935Y-3.0935
X4.5935Y-3.0935
X4.5935Y-3.8435
X4.5935Y-3.8435
X4.5935Y-5.3435
X4.5935Y-5.3435
X5.2435Y-5.0135
X5.3435Y-2.3435
X5.3435Y-2.3435
X5.3435Y-3.0935
X5.3435Y-3.0935
X5.3435Y-3.8435
X5.3435Y-3.8435
X5.3435Y-4.5935
X5.3435Y-4.5935
X5.3435Y-5.3435
X5.3435Y-5.3435
X5.7135Y-5.3385
X6.0935Y-2.3435
X6.0935Y-2.3435
X6.0935Y-3.0935
X6.0935Y-3.0935
X6.0935Y-3.8435
X6.0935Y-3.8435
X6.0935Y-4.5935
X6.0935Y-4.5935
X6.0935Y-5.3435
X6.0935Y-5.3435
X6.1835Y-5.0135
X8.9628Y-5.0135
X9.0528Y-2.3435
X9.0528Y-2.3435
X9.0528Y-3.8435
X9.0528Y-3.8435
X9.0528Y-4.5935
X9.0528Y-4.5935
X9.0528Y-5.3435
X9.0528Y-5.3435
X9.0578Y-3.0935
X9.0578Y-3.0935
X9.4328Y-5.3385
X9.8028Y-2.3435
X9.8028Y-2.3435
X9.8028Y-3.8435
X9.8028Y-3.8435
X9.8028Y-4.5935
X9.8028Y-4.5935
X9.8028Y-5.3435
X9.8028Y-5.3435
X9.8078Y-3.0935
X9.8078Y-3.0935
X9.9028Y-5.0135
X10.5528Y-2.3435
X10.5528Y-2.3435
X10.5528Y-3.0935
X10.5528Y-3.0935
X10.5528Y-3.8435
X10.5528Y-3.8435
X10.5528Y-4.5935
X10.5528Y-4.5935
X10.5528Y-5.3435
X10.5528Y-5.3435
X11.3028Y-2.3435
X11.3028Y-2.3435
X11.3028Y-3.0935
X11.3028Y-3.0935
X11.3028Y-3.8435
X11.3028Y-3.8435
X11.3028Y-4.5935
X11.3028Y-4.5935
X11.3028Y-5.3435
X11.3028Y-5.3435
X12.0528Y-2.3435
X12.0528Y-2.3435
X12.0528Y-3.0935
X12.0528Y-3.0935
X12.0528Y-3.8435
X12.0528Y-3.8435
X12.0528Y-4.5935
X12.0528Y-4.5935
X12.0528Y-5.3435
X12.0528Y-5.3435
X12.8028Y-2.3435
X12.8028Y-2.3435
X12.8028Y-3.0935
X12.8028Y-3.0935
X12.8028Y-3.8435
X12.8028Y-3.8435
X12.8028Y-4.5935
X12.8028Y-4.5935
X12.8028Y-5.3435
X12.8028Y-5.3435
T4
G00X1.9488Y-4.2138
M15
G01X2.2087Y-4.2138
M16
G05
G00X7.0006Y-3.9016
M15
G01X7.0006Y-3.8228
M16
G05
G00X12.9176Y-4.2138
M15
G01X13.1774Y-4.2138
M16
G05
T0
M30
