%TF.GenerationSoftware,KiCad,Pcbnew,7.0.8-unknown-202310192121~e85eec2e6b~ubuntu22.04.1*%
%TF.CreationDate,2023-11-07T13:39:59+08:00*%
%TF.ProjectId,Cthulhu,43746875-6c68-4752-9e6b-696361645f70,rev?*%
%TF.SameCoordinates,Original*%
%TF.FileFunction,Legend,Bot*%
%TF.FilePolarity,Positive*%
%FSLAX46Y46*%
G04 Gerber Fmt 4.6, Leading zero omitted, Abs format (unit mm)*
G04 Created by KiCad (PCBNEW 7.0.8-unknown-202310192121~e85eec2e6b~ubuntu22.04.1) date 2023-11-07 13:39:59*
%MOMM*%
%LPD*%
G01*
G04 APERTURE LIST*
%ADD10C,0.150000*%
%ADD11C,0.120000*%
G04 APERTURE END LIST*
D10*
X141580377Y-101904819D02*
X141580377Y-100904819D01*
X141580377Y-100904819D02*
X141342282Y-100904819D01*
X141342282Y-100904819D02*
X141199425Y-100952438D01*
X141199425Y-100952438D02*
X141104187Y-101047676D01*
X141104187Y-101047676D02*
X141056568Y-101142914D01*
X141056568Y-101142914D02*
X141008949Y-101333390D01*
X141008949Y-101333390D02*
X141008949Y-101476247D01*
X141008949Y-101476247D02*
X141056568Y-101666723D01*
X141056568Y-101666723D02*
X141104187Y-101761961D01*
X141104187Y-101761961D02*
X141199425Y-101857200D01*
X141199425Y-101857200D02*
X141342282Y-101904819D01*
X141342282Y-101904819D02*
X141580377Y-101904819D01*
X140675615Y-100904819D02*
X140056568Y-100904819D01*
X140056568Y-100904819D02*
X140389901Y-101285771D01*
X140389901Y-101285771D02*
X140247044Y-101285771D01*
X140247044Y-101285771D02*
X140151806Y-101333390D01*
X140151806Y-101333390D02*
X140104187Y-101381009D01*
X140104187Y-101381009D02*
X140056568Y-101476247D01*
X140056568Y-101476247D02*
X140056568Y-101714342D01*
X140056568Y-101714342D02*
X140104187Y-101809580D01*
X140104187Y-101809580D02*
X140151806Y-101857200D01*
X140151806Y-101857200D02*
X140247044Y-101904819D01*
X140247044Y-101904819D02*
X140532758Y-101904819D01*
X140532758Y-101904819D02*
X140627996Y-101857200D01*
X140627996Y-101857200D02*
X140675615Y-101809580D01*
X139437520Y-100904819D02*
X139342282Y-100904819D01*
X139342282Y-100904819D02*
X139247044Y-100952438D01*
X139247044Y-100952438D02*
X139199425Y-101000057D01*
X139199425Y-101000057D02*
X139151806Y-101095295D01*
X139151806Y-101095295D02*
X139104187Y-101285771D01*
X139104187Y-101285771D02*
X139104187Y-101523866D01*
X139104187Y-101523866D02*
X139151806Y-101714342D01*
X139151806Y-101714342D02*
X139199425Y-101809580D01*
X139199425Y-101809580D02*
X139247044Y-101857200D01*
X139247044Y-101857200D02*
X139342282Y-101904819D01*
X139342282Y-101904819D02*
X139437520Y-101904819D01*
X139437520Y-101904819D02*
X139532758Y-101857200D01*
X139532758Y-101857200D02*
X139580377Y-101809580D01*
X139580377Y-101809580D02*
X139627996Y-101714342D01*
X139627996Y-101714342D02*
X139675615Y-101523866D01*
X139675615Y-101523866D02*
X139675615Y-101285771D01*
X139675615Y-101285771D02*
X139627996Y-101095295D01*
X139627996Y-101095295D02*
X139580377Y-101000057D01*
X139580377Y-101000057D02*
X139532758Y-100952438D01*
X139532758Y-100952438D02*
X139437520Y-100904819D01*
X312005377Y-120979819D02*
X312005377Y-119979819D01*
X312005377Y-119979819D02*
X311767282Y-119979819D01*
X311767282Y-119979819D02*
X311624425Y-120027438D01*
X311624425Y-120027438D02*
X311529187Y-120122676D01*
X311529187Y-120122676D02*
X311481568Y-120217914D01*
X311481568Y-120217914D02*
X311433949Y-120408390D01*
X311433949Y-120408390D02*
X311433949Y-120551247D01*
X311433949Y-120551247D02*
X311481568Y-120741723D01*
X311481568Y-120741723D02*
X311529187Y-120836961D01*
X311529187Y-120836961D02*
X311624425Y-120932200D01*
X311624425Y-120932200D02*
X311767282Y-120979819D01*
X311767282Y-120979819D02*
X312005377Y-120979819D01*
X310576806Y-120313152D02*
X310576806Y-120979819D01*
X310814901Y-119932200D02*
X311052996Y-120646485D01*
X311052996Y-120646485D02*
X310433949Y-120646485D01*
X309910139Y-120408390D02*
X310005377Y-120360771D01*
X310005377Y-120360771D02*
X310052996Y-120313152D01*
X310052996Y-120313152D02*
X310100615Y-120217914D01*
X310100615Y-120217914D02*
X310100615Y-120170295D01*
X310100615Y-120170295D02*
X310052996Y-120075057D01*
X310052996Y-120075057D02*
X310005377Y-120027438D01*
X310005377Y-120027438D02*
X309910139Y-119979819D01*
X309910139Y-119979819D02*
X309719663Y-119979819D01*
X309719663Y-119979819D02*
X309624425Y-120027438D01*
X309624425Y-120027438D02*
X309576806Y-120075057D01*
X309576806Y-120075057D02*
X309529187Y-120170295D01*
X309529187Y-120170295D02*
X309529187Y-120217914D01*
X309529187Y-120217914D02*
X309576806Y-120313152D01*
X309576806Y-120313152D02*
X309624425Y-120360771D01*
X309624425Y-120360771D02*
X309719663Y-120408390D01*
X309719663Y-120408390D02*
X309910139Y-120408390D01*
X309910139Y-120408390D02*
X310005377Y-120456009D01*
X310005377Y-120456009D02*
X310052996Y-120503628D01*
X310052996Y-120503628D02*
X310100615Y-120598866D01*
X310100615Y-120598866D02*
X310100615Y-120789342D01*
X310100615Y-120789342D02*
X310052996Y-120884580D01*
X310052996Y-120884580D02*
X310005377Y-120932200D01*
X310005377Y-120932200D02*
X309910139Y-120979819D01*
X309910139Y-120979819D02*
X309719663Y-120979819D01*
X309719663Y-120979819D02*
X309624425Y-120932200D01*
X309624425Y-120932200D02*
X309576806Y-120884580D01*
X309576806Y-120884580D02*
X309529187Y-120789342D01*
X309529187Y-120789342D02*
X309529187Y-120598866D01*
X309529187Y-120598866D02*
X309576806Y-120503628D01*
X309576806Y-120503628D02*
X309624425Y-120456009D01*
X309624425Y-120456009D02*
X309719663Y-120408390D01*
X141580377Y-82854819D02*
X141580377Y-81854819D01*
X141580377Y-81854819D02*
X141342282Y-81854819D01*
X141342282Y-81854819D02*
X141199425Y-81902438D01*
X141199425Y-81902438D02*
X141104187Y-81997676D01*
X141104187Y-81997676D02*
X141056568Y-82092914D01*
X141056568Y-82092914D02*
X141008949Y-82283390D01*
X141008949Y-82283390D02*
X141008949Y-82426247D01*
X141008949Y-82426247D02*
X141056568Y-82616723D01*
X141056568Y-82616723D02*
X141104187Y-82711961D01*
X141104187Y-82711961D02*
X141199425Y-82807200D01*
X141199425Y-82807200D02*
X141342282Y-82854819D01*
X141342282Y-82854819D02*
X141580377Y-82854819D01*
X140056568Y-82854819D02*
X140627996Y-82854819D01*
X140342282Y-82854819D02*
X140342282Y-81854819D01*
X140342282Y-81854819D02*
X140437520Y-81997676D01*
X140437520Y-81997676D02*
X140532758Y-82092914D01*
X140532758Y-82092914D02*
X140627996Y-82140533D01*
X139485139Y-82283390D02*
X139580377Y-82235771D01*
X139580377Y-82235771D02*
X139627996Y-82188152D01*
X139627996Y-82188152D02*
X139675615Y-82092914D01*
X139675615Y-82092914D02*
X139675615Y-82045295D01*
X139675615Y-82045295D02*
X139627996Y-81950057D01*
X139627996Y-81950057D02*
X139580377Y-81902438D01*
X139580377Y-81902438D02*
X139485139Y-81854819D01*
X139485139Y-81854819D02*
X139294663Y-81854819D01*
X139294663Y-81854819D02*
X139199425Y-81902438D01*
X139199425Y-81902438D02*
X139151806Y-81950057D01*
X139151806Y-81950057D02*
X139104187Y-82045295D01*
X139104187Y-82045295D02*
X139104187Y-82092914D01*
X139104187Y-82092914D02*
X139151806Y-82188152D01*
X139151806Y-82188152D02*
X139199425Y-82235771D01*
X139199425Y-82235771D02*
X139294663Y-82283390D01*
X139294663Y-82283390D02*
X139485139Y-82283390D01*
X139485139Y-82283390D02*
X139580377Y-82331009D01*
X139580377Y-82331009D02*
X139627996Y-82378628D01*
X139627996Y-82378628D02*
X139675615Y-82473866D01*
X139675615Y-82473866D02*
X139675615Y-82664342D01*
X139675615Y-82664342D02*
X139627996Y-82759580D01*
X139627996Y-82759580D02*
X139580377Y-82807200D01*
X139580377Y-82807200D02*
X139485139Y-82854819D01*
X139485139Y-82854819D02*
X139294663Y-82854819D01*
X139294663Y-82854819D02*
X139199425Y-82807200D01*
X139199425Y-82807200D02*
X139151806Y-82759580D01*
X139151806Y-82759580D02*
X139104187Y-82664342D01*
X139104187Y-82664342D02*
X139104187Y-82473866D01*
X139104187Y-82473866D02*
X139151806Y-82378628D01*
X139151806Y-82378628D02*
X139199425Y-82331009D01*
X139199425Y-82331009D02*
X139294663Y-82283390D01*
X331071469Y-82854819D02*
X331071469Y-81854819D01*
X331071469Y-81854819D02*
X330833374Y-81854819D01*
X330833374Y-81854819D02*
X330690517Y-81902438D01*
X330690517Y-81902438D02*
X330595279Y-81997676D01*
X330595279Y-81997676D02*
X330547660Y-82092914D01*
X330547660Y-82092914D02*
X330500041Y-82283390D01*
X330500041Y-82283390D02*
X330500041Y-82426247D01*
X330500041Y-82426247D02*
X330547660Y-82616723D01*
X330547660Y-82616723D02*
X330595279Y-82711961D01*
X330595279Y-82711961D02*
X330690517Y-82807200D01*
X330690517Y-82807200D02*
X330833374Y-82854819D01*
X330833374Y-82854819D02*
X331071469Y-82854819D01*
X330119088Y-81950057D02*
X330071469Y-81902438D01*
X330071469Y-81902438D02*
X329976231Y-81854819D01*
X329976231Y-81854819D02*
X329738136Y-81854819D01*
X329738136Y-81854819D02*
X329642898Y-81902438D01*
X329642898Y-81902438D02*
X329595279Y-81950057D01*
X329595279Y-81950057D02*
X329547660Y-82045295D01*
X329547660Y-82045295D02*
X329547660Y-82140533D01*
X329547660Y-82140533D02*
X329595279Y-82283390D01*
X329595279Y-82283390D02*
X330166707Y-82854819D01*
X330166707Y-82854819D02*
X329547660Y-82854819D01*
X328642898Y-81854819D02*
X329119088Y-81854819D01*
X329119088Y-81854819D02*
X329166707Y-82331009D01*
X329166707Y-82331009D02*
X329119088Y-82283390D01*
X329119088Y-82283390D02*
X329023850Y-82235771D01*
X329023850Y-82235771D02*
X328785755Y-82235771D01*
X328785755Y-82235771D02*
X328690517Y-82283390D01*
X328690517Y-82283390D02*
X328642898Y-82331009D01*
X328642898Y-82331009D02*
X328595279Y-82426247D01*
X328595279Y-82426247D02*
X328595279Y-82664342D01*
X328595279Y-82664342D02*
X328642898Y-82759580D01*
X328642898Y-82759580D02*
X328690517Y-82807200D01*
X328690517Y-82807200D02*
X328785755Y-82854819D01*
X328785755Y-82854819D02*
X329023850Y-82854819D01*
X329023850Y-82854819D02*
X329119088Y-82807200D01*
X329119088Y-82807200D02*
X329166707Y-82759580D01*
X312030377Y-101879819D02*
X312030377Y-100879819D01*
X312030377Y-100879819D02*
X311792282Y-100879819D01*
X311792282Y-100879819D02*
X311649425Y-100927438D01*
X311649425Y-100927438D02*
X311554187Y-101022676D01*
X311554187Y-101022676D02*
X311506568Y-101117914D01*
X311506568Y-101117914D02*
X311458949Y-101308390D01*
X311458949Y-101308390D02*
X311458949Y-101451247D01*
X311458949Y-101451247D02*
X311506568Y-101641723D01*
X311506568Y-101641723D02*
X311554187Y-101736961D01*
X311554187Y-101736961D02*
X311649425Y-101832200D01*
X311649425Y-101832200D02*
X311792282Y-101879819D01*
X311792282Y-101879819D02*
X312030377Y-101879819D01*
X311125615Y-100879819D02*
X310506568Y-100879819D01*
X310506568Y-100879819D02*
X310839901Y-101260771D01*
X310839901Y-101260771D02*
X310697044Y-101260771D01*
X310697044Y-101260771D02*
X310601806Y-101308390D01*
X310601806Y-101308390D02*
X310554187Y-101356009D01*
X310554187Y-101356009D02*
X310506568Y-101451247D01*
X310506568Y-101451247D02*
X310506568Y-101689342D01*
X310506568Y-101689342D02*
X310554187Y-101784580D01*
X310554187Y-101784580D02*
X310601806Y-101832200D01*
X310601806Y-101832200D02*
X310697044Y-101879819D01*
X310697044Y-101879819D02*
X310982758Y-101879819D01*
X310982758Y-101879819D02*
X311077996Y-101832200D01*
X311077996Y-101832200D02*
X311125615Y-101784580D01*
X309649425Y-100879819D02*
X309839901Y-100879819D01*
X309839901Y-100879819D02*
X309935139Y-100927438D01*
X309935139Y-100927438D02*
X309982758Y-100975057D01*
X309982758Y-100975057D02*
X310077996Y-101117914D01*
X310077996Y-101117914D02*
X310125615Y-101308390D01*
X310125615Y-101308390D02*
X310125615Y-101689342D01*
X310125615Y-101689342D02*
X310077996Y-101784580D01*
X310077996Y-101784580D02*
X310030377Y-101832200D01*
X310030377Y-101832200D02*
X309935139Y-101879819D01*
X309935139Y-101879819D02*
X309744663Y-101879819D01*
X309744663Y-101879819D02*
X309649425Y-101832200D01*
X309649425Y-101832200D02*
X309601806Y-101784580D01*
X309601806Y-101784580D02*
X309554187Y-101689342D01*
X309554187Y-101689342D02*
X309554187Y-101451247D01*
X309554187Y-101451247D02*
X309601806Y-101356009D01*
X309601806Y-101356009D02*
X309649425Y-101308390D01*
X309649425Y-101308390D02*
X309744663Y-101260771D01*
X309744663Y-101260771D02*
X309935139Y-101260771D01*
X309935139Y-101260771D02*
X310030377Y-101308390D01*
X310030377Y-101308390D02*
X310077996Y-101356009D01*
X310077996Y-101356009D02*
X310125615Y-101451247D01*
X165471361Y-139160022D02*
X164471361Y-139160022D01*
X164471361Y-139160022D02*
X164471361Y-139398117D01*
X164471361Y-139398117D02*
X164518980Y-139540974D01*
X164518980Y-139540974D02*
X164614218Y-139636212D01*
X164614218Y-139636212D02*
X164709456Y-139683831D01*
X164709456Y-139683831D02*
X164899932Y-139731450D01*
X164899932Y-139731450D02*
X165042789Y-139731450D01*
X165042789Y-139731450D02*
X165233265Y-139683831D01*
X165233265Y-139683831D02*
X165328503Y-139636212D01*
X165328503Y-139636212D02*
X165423742Y-139540974D01*
X165423742Y-139540974D02*
X165471361Y-139398117D01*
X165471361Y-139398117D02*
X165471361Y-139160022D01*
X164471361Y-140636212D02*
X164471361Y-140160022D01*
X164471361Y-140160022D02*
X164947551Y-140112403D01*
X164947551Y-140112403D02*
X164899932Y-140160022D01*
X164899932Y-140160022D02*
X164852313Y-140255260D01*
X164852313Y-140255260D02*
X164852313Y-140493355D01*
X164852313Y-140493355D02*
X164899932Y-140588593D01*
X164899932Y-140588593D02*
X164947551Y-140636212D01*
X164947551Y-140636212D02*
X165042789Y-140683831D01*
X165042789Y-140683831D02*
X165280884Y-140683831D01*
X165280884Y-140683831D02*
X165376122Y-140636212D01*
X165376122Y-140636212D02*
X165423742Y-140588593D01*
X165423742Y-140588593D02*
X165471361Y-140493355D01*
X165471361Y-140493355D02*
X165471361Y-140255260D01*
X165471361Y-140255260D02*
X165423742Y-140160022D01*
X165423742Y-140160022D02*
X165376122Y-140112403D01*
X164471361Y-141588593D02*
X164471361Y-141112403D01*
X164471361Y-141112403D02*
X164947551Y-141064784D01*
X164947551Y-141064784D02*
X164899932Y-141112403D01*
X164899932Y-141112403D02*
X164852313Y-141207641D01*
X164852313Y-141207641D02*
X164852313Y-141445736D01*
X164852313Y-141445736D02*
X164899932Y-141540974D01*
X164899932Y-141540974D02*
X164947551Y-141588593D01*
X164947551Y-141588593D02*
X165042789Y-141636212D01*
X165042789Y-141636212D02*
X165280884Y-141636212D01*
X165280884Y-141636212D02*
X165376122Y-141588593D01*
X165376122Y-141588593D02*
X165423742Y-141540974D01*
X165423742Y-141540974D02*
X165471361Y-141445736D01*
X165471361Y-141445736D02*
X165471361Y-141207641D01*
X165471361Y-141207641D02*
X165423742Y-141112403D01*
X165423742Y-141112403D02*
X165376122Y-141064784D01*
X331055377Y-120979819D02*
X331055377Y-119979819D01*
X331055377Y-119979819D02*
X330817282Y-119979819D01*
X330817282Y-119979819D02*
X330674425Y-120027438D01*
X330674425Y-120027438D02*
X330579187Y-120122676D01*
X330579187Y-120122676D02*
X330531568Y-120217914D01*
X330531568Y-120217914D02*
X330483949Y-120408390D01*
X330483949Y-120408390D02*
X330483949Y-120551247D01*
X330483949Y-120551247D02*
X330531568Y-120741723D01*
X330531568Y-120741723D02*
X330579187Y-120836961D01*
X330579187Y-120836961D02*
X330674425Y-120932200D01*
X330674425Y-120932200D02*
X330817282Y-120979819D01*
X330817282Y-120979819D02*
X331055377Y-120979819D01*
X329626806Y-120313152D02*
X329626806Y-120979819D01*
X329864901Y-119932200D02*
X330102996Y-120646485D01*
X330102996Y-120646485D02*
X329483949Y-120646485D01*
X329055377Y-120979819D02*
X328864901Y-120979819D01*
X328864901Y-120979819D02*
X328769663Y-120932200D01*
X328769663Y-120932200D02*
X328722044Y-120884580D01*
X328722044Y-120884580D02*
X328626806Y-120741723D01*
X328626806Y-120741723D02*
X328579187Y-120551247D01*
X328579187Y-120551247D02*
X328579187Y-120170295D01*
X328579187Y-120170295D02*
X328626806Y-120075057D01*
X328626806Y-120075057D02*
X328674425Y-120027438D01*
X328674425Y-120027438D02*
X328769663Y-119979819D01*
X328769663Y-119979819D02*
X328960139Y-119979819D01*
X328960139Y-119979819D02*
X329055377Y-120027438D01*
X329055377Y-120027438D02*
X329102996Y-120075057D01*
X329102996Y-120075057D02*
X329150615Y-120170295D01*
X329150615Y-120170295D02*
X329150615Y-120408390D01*
X329150615Y-120408390D02*
X329102996Y-120503628D01*
X329102996Y-120503628D02*
X329055377Y-120551247D01*
X329055377Y-120551247D02*
X328960139Y-120598866D01*
X328960139Y-120598866D02*
X328769663Y-120598866D01*
X328769663Y-120598866D02*
X328674425Y-120551247D01*
X328674425Y-120551247D02*
X328626806Y-120503628D01*
X328626806Y-120503628D02*
X328579187Y-120408390D01*
X103505377Y-101929819D02*
X103505377Y-100929819D01*
X103505377Y-100929819D02*
X103267282Y-100929819D01*
X103267282Y-100929819D02*
X103124425Y-100977438D01*
X103124425Y-100977438D02*
X103029187Y-101072676D01*
X103029187Y-101072676D02*
X102981568Y-101167914D01*
X102981568Y-101167914D02*
X102933949Y-101358390D01*
X102933949Y-101358390D02*
X102933949Y-101501247D01*
X102933949Y-101501247D02*
X102981568Y-101691723D01*
X102981568Y-101691723D02*
X103029187Y-101786961D01*
X103029187Y-101786961D02*
X103124425Y-101882200D01*
X103124425Y-101882200D02*
X103267282Y-101929819D01*
X103267282Y-101929819D02*
X103505377Y-101929819D01*
X102552996Y-101025057D02*
X102505377Y-100977438D01*
X102505377Y-100977438D02*
X102410139Y-100929819D01*
X102410139Y-100929819D02*
X102172044Y-100929819D01*
X102172044Y-100929819D02*
X102076806Y-100977438D01*
X102076806Y-100977438D02*
X102029187Y-101025057D01*
X102029187Y-101025057D02*
X101981568Y-101120295D01*
X101981568Y-101120295D02*
X101981568Y-101215533D01*
X101981568Y-101215533D02*
X102029187Y-101358390D01*
X102029187Y-101358390D02*
X102600615Y-101929819D01*
X102600615Y-101929819D02*
X101981568Y-101929819D01*
X101410139Y-101358390D02*
X101505377Y-101310771D01*
X101505377Y-101310771D02*
X101552996Y-101263152D01*
X101552996Y-101263152D02*
X101600615Y-101167914D01*
X101600615Y-101167914D02*
X101600615Y-101120295D01*
X101600615Y-101120295D02*
X101552996Y-101025057D01*
X101552996Y-101025057D02*
X101505377Y-100977438D01*
X101505377Y-100977438D02*
X101410139Y-100929819D01*
X101410139Y-100929819D02*
X101219663Y-100929819D01*
X101219663Y-100929819D02*
X101124425Y-100977438D01*
X101124425Y-100977438D02*
X101076806Y-101025057D01*
X101076806Y-101025057D02*
X101029187Y-101120295D01*
X101029187Y-101120295D02*
X101029187Y-101167914D01*
X101029187Y-101167914D02*
X101076806Y-101263152D01*
X101076806Y-101263152D02*
X101124425Y-101310771D01*
X101124425Y-101310771D02*
X101219663Y-101358390D01*
X101219663Y-101358390D02*
X101410139Y-101358390D01*
X101410139Y-101358390D02*
X101505377Y-101406009D01*
X101505377Y-101406009D02*
X101552996Y-101453628D01*
X101552996Y-101453628D02*
X101600615Y-101548866D01*
X101600615Y-101548866D02*
X101600615Y-101739342D01*
X101600615Y-101739342D02*
X101552996Y-101834580D01*
X101552996Y-101834580D02*
X101505377Y-101882200D01*
X101505377Y-101882200D02*
X101410139Y-101929819D01*
X101410139Y-101929819D02*
X101219663Y-101929819D01*
X101219663Y-101929819D02*
X101124425Y-101882200D01*
X101124425Y-101882200D02*
X101076806Y-101834580D01*
X101076806Y-101834580D02*
X101029187Y-101739342D01*
X101029187Y-101739342D02*
X101029187Y-101548866D01*
X101029187Y-101548866D02*
X101076806Y-101453628D01*
X101076806Y-101453628D02*
X101124425Y-101406009D01*
X101124425Y-101406009D02*
X101219663Y-101358390D01*
X273905377Y-101954819D02*
X273905377Y-100954819D01*
X273905377Y-100954819D02*
X273667282Y-100954819D01*
X273667282Y-100954819D02*
X273524425Y-101002438D01*
X273524425Y-101002438D02*
X273429187Y-101097676D01*
X273429187Y-101097676D02*
X273381568Y-101192914D01*
X273381568Y-101192914D02*
X273333949Y-101383390D01*
X273333949Y-101383390D02*
X273333949Y-101526247D01*
X273333949Y-101526247D02*
X273381568Y-101716723D01*
X273381568Y-101716723D02*
X273429187Y-101811961D01*
X273429187Y-101811961D02*
X273524425Y-101907200D01*
X273524425Y-101907200D02*
X273667282Y-101954819D01*
X273667282Y-101954819D02*
X273905377Y-101954819D01*
X273000615Y-100954819D02*
X272381568Y-100954819D01*
X272381568Y-100954819D02*
X272714901Y-101335771D01*
X272714901Y-101335771D02*
X272572044Y-101335771D01*
X272572044Y-101335771D02*
X272476806Y-101383390D01*
X272476806Y-101383390D02*
X272429187Y-101431009D01*
X272429187Y-101431009D02*
X272381568Y-101526247D01*
X272381568Y-101526247D02*
X272381568Y-101764342D01*
X272381568Y-101764342D02*
X272429187Y-101859580D01*
X272429187Y-101859580D02*
X272476806Y-101907200D01*
X272476806Y-101907200D02*
X272572044Y-101954819D01*
X272572044Y-101954819D02*
X272857758Y-101954819D01*
X272857758Y-101954819D02*
X272952996Y-101907200D01*
X272952996Y-101907200D02*
X273000615Y-101859580D01*
X271524425Y-101288152D02*
X271524425Y-101954819D01*
X271762520Y-100907200D02*
X272000615Y-101621485D01*
X272000615Y-101621485D02*
X271381568Y-101621485D01*
X235948469Y-82879819D02*
X235948469Y-81879819D01*
X235948469Y-81879819D02*
X235710374Y-81879819D01*
X235710374Y-81879819D02*
X235567517Y-81927438D01*
X235567517Y-81927438D02*
X235472279Y-82022676D01*
X235472279Y-82022676D02*
X235424660Y-82117914D01*
X235424660Y-82117914D02*
X235377041Y-82308390D01*
X235377041Y-82308390D02*
X235377041Y-82451247D01*
X235377041Y-82451247D02*
X235424660Y-82641723D01*
X235424660Y-82641723D02*
X235472279Y-82736961D01*
X235472279Y-82736961D02*
X235567517Y-82832200D01*
X235567517Y-82832200D02*
X235710374Y-82879819D01*
X235710374Y-82879819D02*
X235948469Y-82879819D01*
X234996088Y-81975057D02*
X234948469Y-81927438D01*
X234948469Y-81927438D02*
X234853231Y-81879819D01*
X234853231Y-81879819D02*
X234615136Y-81879819D01*
X234615136Y-81879819D02*
X234519898Y-81927438D01*
X234519898Y-81927438D02*
X234472279Y-81975057D01*
X234472279Y-81975057D02*
X234424660Y-82070295D01*
X234424660Y-82070295D02*
X234424660Y-82165533D01*
X234424660Y-82165533D02*
X234472279Y-82308390D01*
X234472279Y-82308390D02*
X235043707Y-82879819D01*
X235043707Y-82879819D02*
X234424660Y-82879819D01*
X233805612Y-81879819D02*
X233710374Y-81879819D01*
X233710374Y-81879819D02*
X233615136Y-81927438D01*
X233615136Y-81927438D02*
X233567517Y-81975057D01*
X233567517Y-81975057D02*
X233519898Y-82070295D01*
X233519898Y-82070295D02*
X233472279Y-82260771D01*
X233472279Y-82260771D02*
X233472279Y-82498866D01*
X233472279Y-82498866D02*
X233519898Y-82689342D01*
X233519898Y-82689342D02*
X233567517Y-82784580D01*
X233567517Y-82784580D02*
X233615136Y-82832200D01*
X233615136Y-82832200D02*
X233710374Y-82879819D01*
X233710374Y-82879819D02*
X233805612Y-82879819D01*
X233805612Y-82879819D02*
X233900850Y-82832200D01*
X233900850Y-82832200D02*
X233948469Y-82784580D01*
X233948469Y-82784580D02*
X233996088Y-82689342D01*
X233996088Y-82689342D02*
X234043707Y-82498866D01*
X234043707Y-82498866D02*
X234043707Y-82260771D01*
X234043707Y-82260771D02*
X233996088Y-82070295D01*
X233996088Y-82070295D02*
X233948469Y-81975057D01*
X233948469Y-81975057D02*
X233900850Y-81927438D01*
X233900850Y-81927438D02*
X233805612Y-81879819D01*
X213595911Y-126766666D02*
X214310196Y-126766666D01*
X214310196Y-126766666D02*
X214453053Y-126719047D01*
X214453053Y-126719047D02*
X214548292Y-126623809D01*
X214548292Y-126623809D02*
X214595911Y-126480952D01*
X214595911Y-126480952D02*
X214595911Y-126385714D01*
X213691149Y-127195238D02*
X213643530Y-127242857D01*
X213643530Y-127242857D02*
X213595911Y-127338095D01*
X213595911Y-127338095D02*
X213595911Y-127576190D01*
X213595911Y-127576190D02*
X213643530Y-127671428D01*
X213643530Y-127671428D02*
X213691149Y-127719047D01*
X213691149Y-127719047D02*
X213786387Y-127766666D01*
X213786387Y-127766666D02*
X213881625Y-127766666D01*
X213881625Y-127766666D02*
X214024482Y-127719047D01*
X214024482Y-127719047D02*
X214595911Y-127147619D01*
X214595911Y-127147619D02*
X214595911Y-127766666D01*
X235830377Y-120979819D02*
X235830377Y-119979819D01*
X235830377Y-119979819D02*
X235592282Y-119979819D01*
X235592282Y-119979819D02*
X235449425Y-120027438D01*
X235449425Y-120027438D02*
X235354187Y-120122676D01*
X235354187Y-120122676D02*
X235306568Y-120217914D01*
X235306568Y-120217914D02*
X235258949Y-120408390D01*
X235258949Y-120408390D02*
X235258949Y-120551247D01*
X235258949Y-120551247D02*
X235306568Y-120741723D01*
X235306568Y-120741723D02*
X235354187Y-120836961D01*
X235354187Y-120836961D02*
X235449425Y-120932200D01*
X235449425Y-120932200D02*
X235592282Y-120979819D01*
X235592282Y-120979819D02*
X235830377Y-120979819D01*
X234401806Y-120313152D02*
X234401806Y-120979819D01*
X234639901Y-119932200D02*
X234877996Y-120646485D01*
X234877996Y-120646485D02*
X234258949Y-120646485D01*
X233449425Y-120313152D02*
X233449425Y-120979819D01*
X233687520Y-119932200D02*
X233925615Y-120646485D01*
X233925615Y-120646485D02*
X233306568Y-120646485D01*
X64904186Y-63804819D02*
X64904186Y-62804819D01*
X64904186Y-62804819D02*
X64666091Y-62804819D01*
X64666091Y-62804819D02*
X64523234Y-62852438D01*
X64523234Y-62852438D02*
X64427996Y-62947676D01*
X64427996Y-62947676D02*
X64380377Y-63042914D01*
X64380377Y-63042914D02*
X64332758Y-63233390D01*
X64332758Y-63233390D02*
X64332758Y-63376247D01*
X64332758Y-63376247D02*
X64380377Y-63566723D01*
X64380377Y-63566723D02*
X64427996Y-63661961D01*
X64427996Y-63661961D02*
X64523234Y-63757200D01*
X64523234Y-63757200D02*
X64666091Y-63804819D01*
X64666091Y-63804819D02*
X64904186Y-63804819D01*
X63951805Y-62900057D02*
X63904186Y-62852438D01*
X63904186Y-62852438D02*
X63808948Y-62804819D01*
X63808948Y-62804819D02*
X63570853Y-62804819D01*
X63570853Y-62804819D02*
X63475615Y-62852438D01*
X63475615Y-62852438D02*
X63427996Y-62900057D01*
X63427996Y-62900057D02*
X63380377Y-62995295D01*
X63380377Y-62995295D02*
X63380377Y-63090533D01*
X63380377Y-63090533D02*
X63427996Y-63233390D01*
X63427996Y-63233390D02*
X63999424Y-63804819D01*
X63999424Y-63804819D02*
X63380377Y-63804819D01*
X103489285Y-120979819D02*
X103489285Y-119979819D01*
X103489285Y-119979819D02*
X103251190Y-119979819D01*
X103251190Y-119979819D02*
X103108333Y-120027438D01*
X103108333Y-120027438D02*
X103013095Y-120122676D01*
X103013095Y-120122676D02*
X102965476Y-120217914D01*
X102965476Y-120217914D02*
X102917857Y-120408390D01*
X102917857Y-120408390D02*
X102917857Y-120551247D01*
X102917857Y-120551247D02*
X102965476Y-120741723D01*
X102965476Y-120741723D02*
X103013095Y-120836961D01*
X103013095Y-120836961D02*
X103108333Y-120932200D01*
X103108333Y-120932200D02*
X103251190Y-120979819D01*
X103251190Y-120979819D02*
X103489285Y-120979819D01*
X102060714Y-120313152D02*
X102060714Y-120979819D01*
X102298809Y-119932200D02*
X102536904Y-120646485D01*
X102536904Y-120646485D02*
X101917857Y-120646485D01*
X101346428Y-119979819D02*
X101251190Y-119979819D01*
X101251190Y-119979819D02*
X101155952Y-120027438D01*
X101155952Y-120027438D02*
X101108333Y-120075057D01*
X101108333Y-120075057D02*
X101060714Y-120170295D01*
X101060714Y-120170295D02*
X101013095Y-120360771D01*
X101013095Y-120360771D02*
X101013095Y-120598866D01*
X101013095Y-120598866D02*
X101060714Y-120789342D01*
X101060714Y-120789342D02*
X101108333Y-120884580D01*
X101108333Y-120884580D02*
X101155952Y-120932200D01*
X101155952Y-120932200D02*
X101251190Y-120979819D01*
X101251190Y-120979819D02*
X101346428Y-120979819D01*
X101346428Y-120979819D02*
X101441666Y-120932200D01*
X101441666Y-120932200D02*
X101489285Y-120884580D01*
X101489285Y-120884580D02*
X101536904Y-120789342D01*
X101536904Y-120789342D02*
X101584523Y-120598866D01*
X101584523Y-120598866D02*
X101584523Y-120360771D01*
X101584523Y-120360771D02*
X101536904Y-120170295D01*
X101536904Y-120170295D02*
X101489285Y-120075057D01*
X101489285Y-120075057D02*
X101441666Y-120027438D01*
X101441666Y-120027438D02*
X101346428Y-119979819D01*
X141104186Y-63804819D02*
X141104186Y-62804819D01*
X141104186Y-62804819D02*
X140866091Y-62804819D01*
X140866091Y-62804819D02*
X140723234Y-62852438D01*
X140723234Y-62852438D02*
X140627996Y-62947676D01*
X140627996Y-62947676D02*
X140580377Y-63042914D01*
X140580377Y-63042914D02*
X140532758Y-63233390D01*
X140532758Y-63233390D02*
X140532758Y-63376247D01*
X140532758Y-63376247D02*
X140580377Y-63566723D01*
X140580377Y-63566723D02*
X140627996Y-63661961D01*
X140627996Y-63661961D02*
X140723234Y-63757200D01*
X140723234Y-63757200D02*
X140866091Y-63804819D01*
X140866091Y-63804819D02*
X141104186Y-63804819D01*
X139675615Y-62804819D02*
X139866091Y-62804819D01*
X139866091Y-62804819D02*
X139961329Y-62852438D01*
X139961329Y-62852438D02*
X140008948Y-62900057D01*
X140008948Y-62900057D02*
X140104186Y-63042914D01*
X140104186Y-63042914D02*
X140151805Y-63233390D01*
X140151805Y-63233390D02*
X140151805Y-63614342D01*
X140151805Y-63614342D02*
X140104186Y-63709580D01*
X140104186Y-63709580D02*
X140056567Y-63757200D01*
X140056567Y-63757200D02*
X139961329Y-63804819D01*
X139961329Y-63804819D02*
X139770853Y-63804819D01*
X139770853Y-63804819D02*
X139675615Y-63757200D01*
X139675615Y-63757200D02*
X139627996Y-63709580D01*
X139627996Y-63709580D02*
X139580377Y-63614342D01*
X139580377Y-63614342D02*
X139580377Y-63376247D01*
X139580377Y-63376247D02*
X139627996Y-63281009D01*
X139627996Y-63281009D02*
X139675615Y-63233390D01*
X139675615Y-63233390D02*
X139770853Y-63185771D01*
X139770853Y-63185771D02*
X139961329Y-63185771D01*
X139961329Y-63185771D02*
X140056567Y-63233390D01*
X140056567Y-63233390D02*
X140104186Y-63281009D01*
X140104186Y-63281009D02*
X140151805Y-63376247D01*
X122530377Y-101929819D02*
X122530377Y-100929819D01*
X122530377Y-100929819D02*
X122292282Y-100929819D01*
X122292282Y-100929819D02*
X122149425Y-100977438D01*
X122149425Y-100977438D02*
X122054187Y-101072676D01*
X122054187Y-101072676D02*
X122006568Y-101167914D01*
X122006568Y-101167914D02*
X121958949Y-101358390D01*
X121958949Y-101358390D02*
X121958949Y-101501247D01*
X121958949Y-101501247D02*
X122006568Y-101691723D01*
X122006568Y-101691723D02*
X122054187Y-101786961D01*
X122054187Y-101786961D02*
X122149425Y-101882200D01*
X122149425Y-101882200D02*
X122292282Y-101929819D01*
X122292282Y-101929819D02*
X122530377Y-101929819D01*
X121577996Y-101025057D02*
X121530377Y-100977438D01*
X121530377Y-100977438D02*
X121435139Y-100929819D01*
X121435139Y-100929819D02*
X121197044Y-100929819D01*
X121197044Y-100929819D02*
X121101806Y-100977438D01*
X121101806Y-100977438D02*
X121054187Y-101025057D01*
X121054187Y-101025057D02*
X121006568Y-101120295D01*
X121006568Y-101120295D02*
X121006568Y-101215533D01*
X121006568Y-101215533D02*
X121054187Y-101358390D01*
X121054187Y-101358390D02*
X121625615Y-101929819D01*
X121625615Y-101929819D02*
X121006568Y-101929819D01*
X120530377Y-101929819D02*
X120339901Y-101929819D01*
X120339901Y-101929819D02*
X120244663Y-101882200D01*
X120244663Y-101882200D02*
X120197044Y-101834580D01*
X120197044Y-101834580D02*
X120101806Y-101691723D01*
X120101806Y-101691723D02*
X120054187Y-101501247D01*
X120054187Y-101501247D02*
X120054187Y-101120295D01*
X120054187Y-101120295D02*
X120101806Y-101025057D01*
X120101806Y-101025057D02*
X120149425Y-100977438D01*
X120149425Y-100977438D02*
X120244663Y-100929819D01*
X120244663Y-100929819D02*
X120435139Y-100929819D01*
X120435139Y-100929819D02*
X120530377Y-100977438D01*
X120530377Y-100977438D02*
X120577996Y-101025057D01*
X120577996Y-101025057D02*
X120625615Y-101120295D01*
X120625615Y-101120295D02*
X120625615Y-101358390D01*
X120625615Y-101358390D02*
X120577996Y-101453628D01*
X120577996Y-101453628D02*
X120530377Y-101501247D01*
X120530377Y-101501247D02*
X120435139Y-101548866D01*
X120435139Y-101548866D02*
X120244663Y-101548866D01*
X120244663Y-101548866D02*
X120149425Y-101501247D01*
X120149425Y-101501247D02*
X120101806Y-101453628D01*
X120101806Y-101453628D02*
X120054187Y-101358390D01*
X273905377Y-120979819D02*
X273905377Y-119979819D01*
X273905377Y-119979819D02*
X273667282Y-119979819D01*
X273667282Y-119979819D02*
X273524425Y-120027438D01*
X273524425Y-120027438D02*
X273429187Y-120122676D01*
X273429187Y-120122676D02*
X273381568Y-120217914D01*
X273381568Y-120217914D02*
X273333949Y-120408390D01*
X273333949Y-120408390D02*
X273333949Y-120551247D01*
X273333949Y-120551247D02*
X273381568Y-120741723D01*
X273381568Y-120741723D02*
X273429187Y-120836961D01*
X273429187Y-120836961D02*
X273524425Y-120932200D01*
X273524425Y-120932200D02*
X273667282Y-120979819D01*
X273667282Y-120979819D02*
X273905377Y-120979819D01*
X272476806Y-120313152D02*
X272476806Y-120979819D01*
X272714901Y-119932200D02*
X272952996Y-120646485D01*
X272952996Y-120646485D02*
X272333949Y-120646485D01*
X271524425Y-119979819D02*
X271714901Y-119979819D01*
X271714901Y-119979819D02*
X271810139Y-120027438D01*
X271810139Y-120027438D02*
X271857758Y-120075057D01*
X271857758Y-120075057D02*
X271952996Y-120217914D01*
X271952996Y-120217914D02*
X272000615Y-120408390D01*
X272000615Y-120408390D02*
X272000615Y-120789342D01*
X272000615Y-120789342D02*
X271952996Y-120884580D01*
X271952996Y-120884580D02*
X271905377Y-120932200D01*
X271905377Y-120932200D02*
X271810139Y-120979819D01*
X271810139Y-120979819D02*
X271619663Y-120979819D01*
X271619663Y-120979819D02*
X271524425Y-120932200D01*
X271524425Y-120932200D02*
X271476806Y-120884580D01*
X271476806Y-120884580D02*
X271429187Y-120789342D01*
X271429187Y-120789342D02*
X271429187Y-120551247D01*
X271429187Y-120551247D02*
X271476806Y-120456009D01*
X271476806Y-120456009D02*
X271524425Y-120408390D01*
X271524425Y-120408390D02*
X271619663Y-120360771D01*
X271619663Y-120360771D02*
X271810139Y-120360771D01*
X271810139Y-120360771D02*
X271905377Y-120408390D01*
X271905377Y-120408390D02*
X271952996Y-120456009D01*
X271952996Y-120456009D02*
X272000615Y-120551247D01*
X312021469Y-63804819D02*
X312021469Y-62804819D01*
X312021469Y-62804819D02*
X311783374Y-62804819D01*
X311783374Y-62804819D02*
X311640517Y-62852438D01*
X311640517Y-62852438D02*
X311545279Y-62947676D01*
X311545279Y-62947676D02*
X311497660Y-63042914D01*
X311497660Y-63042914D02*
X311450041Y-63233390D01*
X311450041Y-63233390D02*
X311450041Y-63376247D01*
X311450041Y-63376247D02*
X311497660Y-63566723D01*
X311497660Y-63566723D02*
X311545279Y-63661961D01*
X311545279Y-63661961D02*
X311640517Y-63757200D01*
X311640517Y-63757200D02*
X311783374Y-63804819D01*
X311783374Y-63804819D02*
X312021469Y-63804819D01*
X310497660Y-63804819D02*
X311069088Y-63804819D01*
X310783374Y-63804819D02*
X310783374Y-62804819D01*
X310783374Y-62804819D02*
X310878612Y-62947676D01*
X310878612Y-62947676D02*
X310973850Y-63042914D01*
X310973850Y-63042914D02*
X311069088Y-63090533D01*
X310116707Y-62900057D02*
X310069088Y-62852438D01*
X310069088Y-62852438D02*
X309973850Y-62804819D01*
X309973850Y-62804819D02*
X309735755Y-62804819D01*
X309735755Y-62804819D02*
X309640517Y-62852438D01*
X309640517Y-62852438D02*
X309592898Y-62900057D01*
X309592898Y-62900057D02*
X309545279Y-62995295D01*
X309545279Y-62995295D02*
X309545279Y-63090533D01*
X309545279Y-63090533D02*
X309592898Y-63233390D01*
X309592898Y-63233390D02*
X310164326Y-63804819D01*
X310164326Y-63804819D02*
X309545279Y-63804819D01*
X201169312Y-83474819D02*
X201169312Y-84284342D01*
X201169312Y-84284342D02*
X201121693Y-84379580D01*
X201121693Y-84379580D02*
X201074074Y-84427200D01*
X201074074Y-84427200D02*
X200978836Y-84474819D01*
X200978836Y-84474819D02*
X200788360Y-84474819D01*
X200788360Y-84474819D02*
X200693122Y-84427200D01*
X200693122Y-84427200D02*
X200645503Y-84379580D01*
X200645503Y-84379580D02*
X200597884Y-84284342D01*
X200597884Y-84284342D02*
X200597884Y-83474819D01*
X199597884Y-84474819D02*
X200169312Y-84474819D01*
X199883598Y-84474819D02*
X199883598Y-83474819D01*
X199883598Y-83474819D02*
X199978836Y-83617676D01*
X199978836Y-83617676D02*
X200074074Y-83712914D01*
X200074074Y-83712914D02*
X200169312Y-83760533D01*
X197795377Y-54367319D02*
X198366805Y-54367319D01*
X198081091Y-54367319D02*
X198081091Y-53367319D01*
X198081091Y-53367319D02*
X198176329Y-53510176D01*
X198176329Y-53510176D02*
X198271567Y-53605414D01*
X198271567Y-53605414D02*
X198366805Y-53653033D01*
X194985139Y-52183152D02*
X194604187Y-52183152D01*
X194842282Y-51849819D02*
X194842282Y-52706961D01*
X194842282Y-52706961D02*
X194794663Y-52802200D01*
X194794663Y-52802200D02*
X194699425Y-52849819D01*
X194699425Y-52849819D02*
X194604187Y-52849819D01*
X194127996Y-52849819D02*
X194223234Y-52802200D01*
X194223234Y-52802200D02*
X194270853Y-52754580D01*
X194270853Y-52754580D02*
X194318472Y-52659342D01*
X194318472Y-52659342D02*
X194318472Y-52373628D01*
X194318472Y-52373628D02*
X194270853Y-52278390D01*
X194270853Y-52278390D02*
X194223234Y-52230771D01*
X194223234Y-52230771D02*
X194127996Y-52183152D01*
X194127996Y-52183152D02*
X193985139Y-52183152D01*
X193985139Y-52183152D02*
X193889901Y-52230771D01*
X193889901Y-52230771D02*
X193842282Y-52278390D01*
X193842282Y-52278390D02*
X193794663Y-52373628D01*
X193794663Y-52373628D02*
X193794663Y-52659342D01*
X193794663Y-52659342D02*
X193842282Y-52754580D01*
X193842282Y-52754580D02*
X193889901Y-52802200D01*
X193889901Y-52802200D02*
X193985139Y-52849819D01*
X193985139Y-52849819D02*
X194127996Y-52849819D01*
X193366091Y-52183152D02*
X193366091Y-53183152D01*
X193366091Y-52230771D02*
X193270853Y-52183152D01*
X193270853Y-52183152D02*
X193080377Y-52183152D01*
X193080377Y-52183152D02*
X192985139Y-52230771D01*
X192985139Y-52230771D02*
X192937520Y-52278390D01*
X192937520Y-52278390D02*
X192889901Y-52373628D01*
X192889901Y-52373628D02*
X192889901Y-52659342D01*
X192889901Y-52659342D02*
X192937520Y-52754580D01*
X192937520Y-52754580D02*
X192985139Y-52802200D01*
X192985139Y-52802200D02*
X193080377Y-52849819D01*
X193080377Y-52849819D02*
X193270853Y-52849819D01*
X193270853Y-52849819D02*
X193366091Y-52802200D01*
X192508948Y-52802200D02*
X192413710Y-52849819D01*
X192413710Y-52849819D02*
X192223234Y-52849819D01*
X192223234Y-52849819D02*
X192127996Y-52802200D01*
X192127996Y-52802200D02*
X192080377Y-52706961D01*
X192080377Y-52706961D02*
X192080377Y-52659342D01*
X192080377Y-52659342D02*
X192127996Y-52564104D01*
X192127996Y-52564104D02*
X192223234Y-52516485D01*
X192223234Y-52516485D02*
X192366091Y-52516485D01*
X192366091Y-52516485D02*
X192461329Y-52468866D01*
X192461329Y-52468866D02*
X192508948Y-52373628D01*
X192508948Y-52373628D02*
X192508948Y-52326009D01*
X192508948Y-52326009D02*
X192461329Y-52230771D01*
X192461329Y-52230771D02*
X192366091Y-52183152D01*
X192366091Y-52183152D02*
X192223234Y-52183152D01*
X192223234Y-52183152D02*
X192127996Y-52230771D01*
X191651805Y-52849819D02*
X191651805Y-52183152D01*
X191651805Y-51849819D02*
X191699424Y-51897438D01*
X191699424Y-51897438D02*
X191651805Y-51945057D01*
X191651805Y-51945057D02*
X191604186Y-51897438D01*
X191604186Y-51897438D02*
X191651805Y-51849819D01*
X191651805Y-51849819D02*
X191651805Y-51945057D01*
X190747044Y-52849819D02*
X190747044Y-51849819D01*
X190747044Y-52802200D02*
X190842282Y-52849819D01*
X190842282Y-52849819D02*
X191032758Y-52849819D01*
X191032758Y-52849819D02*
X191127996Y-52802200D01*
X191127996Y-52802200D02*
X191175615Y-52754580D01*
X191175615Y-52754580D02*
X191223234Y-52659342D01*
X191223234Y-52659342D02*
X191223234Y-52373628D01*
X191223234Y-52373628D02*
X191175615Y-52278390D01*
X191175615Y-52278390D02*
X191127996Y-52230771D01*
X191127996Y-52230771D02*
X191032758Y-52183152D01*
X191032758Y-52183152D02*
X190842282Y-52183152D01*
X190842282Y-52183152D02*
X190747044Y-52230771D01*
X189889901Y-52802200D02*
X189985139Y-52849819D01*
X189985139Y-52849819D02*
X190175615Y-52849819D01*
X190175615Y-52849819D02*
X190270853Y-52802200D01*
X190270853Y-52802200D02*
X190318472Y-52706961D01*
X190318472Y-52706961D02*
X190318472Y-52326009D01*
X190318472Y-52326009D02*
X190270853Y-52230771D01*
X190270853Y-52230771D02*
X190175615Y-52183152D01*
X190175615Y-52183152D02*
X189985139Y-52183152D01*
X189985139Y-52183152D02*
X189889901Y-52230771D01*
X189889901Y-52230771D02*
X189842282Y-52326009D01*
X189842282Y-52326009D02*
X189842282Y-52421247D01*
X189842282Y-52421247D02*
X190318472Y-52516485D01*
X193627996Y-50449819D02*
X193627996Y-51259342D01*
X193627996Y-51259342D02*
X193580377Y-51354580D01*
X193580377Y-51354580D02*
X193532758Y-51402200D01*
X193532758Y-51402200D02*
X193437520Y-51449819D01*
X193437520Y-51449819D02*
X193247044Y-51449819D01*
X193247044Y-51449819D02*
X193151806Y-51402200D01*
X193151806Y-51402200D02*
X193104187Y-51354580D01*
X193104187Y-51354580D02*
X193056568Y-51259342D01*
X193056568Y-51259342D02*
X193056568Y-50449819D01*
X192627996Y-51402200D02*
X192485139Y-51449819D01*
X192485139Y-51449819D02*
X192247044Y-51449819D01*
X192247044Y-51449819D02*
X192151806Y-51402200D01*
X192151806Y-51402200D02*
X192104187Y-51354580D01*
X192104187Y-51354580D02*
X192056568Y-51259342D01*
X192056568Y-51259342D02*
X192056568Y-51164104D01*
X192056568Y-51164104D02*
X192104187Y-51068866D01*
X192104187Y-51068866D02*
X192151806Y-51021247D01*
X192151806Y-51021247D02*
X192247044Y-50973628D01*
X192247044Y-50973628D02*
X192437520Y-50926009D01*
X192437520Y-50926009D02*
X192532758Y-50878390D01*
X192532758Y-50878390D02*
X192580377Y-50830771D01*
X192580377Y-50830771D02*
X192627996Y-50735533D01*
X192627996Y-50735533D02*
X192627996Y-50640295D01*
X192627996Y-50640295D02*
X192580377Y-50545057D01*
X192580377Y-50545057D02*
X192532758Y-50497438D01*
X192532758Y-50497438D02*
X192437520Y-50449819D01*
X192437520Y-50449819D02*
X192199425Y-50449819D01*
X192199425Y-50449819D02*
X192056568Y-50497438D01*
X191294663Y-50926009D02*
X191151806Y-50973628D01*
X191151806Y-50973628D02*
X191104187Y-51021247D01*
X191104187Y-51021247D02*
X191056568Y-51116485D01*
X191056568Y-51116485D02*
X191056568Y-51259342D01*
X191056568Y-51259342D02*
X191104187Y-51354580D01*
X191104187Y-51354580D02*
X191151806Y-51402200D01*
X191151806Y-51402200D02*
X191247044Y-51449819D01*
X191247044Y-51449819D02*
X191627996Y-51449819D01*
X191627996Y-51449819D02*
X191627996Y-50449819D01*
X191627996Y-50449819D02*
X191294663Y-50449819D01*
X191294663Y-50449819D02*
X191199425Y-50497438D01*
X191199425Y-50497438D02*
X191151806Y-50545057D01*
X191151806Y-50545057D02*
X191104187Y-50640295D01*
X191104187Y-50640295D02*
X191104187Y-50735533D01*
X191104187Y-50735533D02*
X191151806Y-50830771D01*
X191151806Y-50830771D02*
X191199425Y-50878390D01*
X191199425Y-50878390D02*
X191294663Y-50926009D01*
X191294663Y-50926009D02*
X191627996Y-50926009D01*
X235805377Y-140029819D02*
X235805377Y-139029819D01*
X235805377Y-139029819D02*
X235567282Y-139029819D01*
X235567282Y-139029819D02*
X235424425Y-139077438D01*
X235424425Y-139077438D02*
X235329187Y-139172676D01*
X235329187Y-139172676D02*
X235281568Y-139267914D01*
X235281568Y-139267914D02*
X235233949Y-139458390D01*
X235233949Y-139458390D02*
X235233949Y-139601247D01*
X235233949Y-139601247D02*
X235281568Y-139791723D01*
X235281568Y-139791723D02*
X235329187Y-139886961D01*
X235329187Y-139886961D02*
X235424425Y-139982200D01*
X235424425Y-139982200D02*
X235567282Y-140029819D01*
X235567282Y-140029819D02*
X235805377Y-140029819D01*
X234329187Y-139029819D02*
X234805377Y-139029819D01*
X234805377Y-139029819D02*
X234852996Y-139506009D01*
X234852996Y-139506009D02*
X234805377Y-139458390D01*
X234805377Y-139458390D02*
X234710139Y-139410771D01*
X234710139Y-139410771D02*
X234472044Y-139410771D01*
X234472044Y-139410771D02*
X234376806Y-139458390D01*
X234376806Y-139458390D02*
X234329187Y-139506009D01*
X234329187Y-139506009D02*
X234281568Y-139601247D01*
X234281568Y-139601247D02*
X234281568Y-139839342D01*
X234281568Y-139839342D02*
X234329187Y-139934580D01*
X234329187Y-139934580D02*
X234376806Y-139982200D01*
X234376806Y-139982200D02*
X234472044Y-140029819D01*
X234472044Y-140029819D02*
X234710139Y-140029819D01*
X234710139Y-140029819D02*
X234805377Y-139982200D01*
X234805377Y-139982200D02*
X234852996Y-139934580D01*
X233424425Y-139029819D02*
X233614901Y-139029819D01*
X233614901Y-139029819D02*
X233710139Y-139077438D01*
X233710139Y-139077438D02*
X233757758Y-139125057D01*
X233757758Y-139125057D02*
X233852996Y-139267914D01*
X233852996Y-139267914D02*
X233900615Y-139458390D01*
X233900615Y-139458390D02*
X233900615Y-139839342D01*
X233900615Y-139839342D02*
X233852996Y-139934580D01*
X233852996Y-139934580D02*
X233805377Y-139982200D01*
X233805377Y-139982200D02*
X233710139Y-140029819D01*
X233710139Y-140029819D02*
X233519663Y-140029819D01*
X233519663Y-140029819D02*
X233424425Y-139982200D01*
X233424425Y-139982200D02*
X233376806Y-139934580D01*
X233376806Y-139934580D02*
X233329187Y-139839342D01*
X233329187Y-139839342D02*
X233329187Y-139601247D01*
X233329187Y-139601247D02*
X233376806Y-139506009D01*
X233376806Y-139506009D02*
X233424425Y-139458390D01*
X233424425Y-139458390D02*
X233519663Y-139410771D01*
X233519663Y-139410771D02*
X233710139Y-139410771D01*
X233710139Y-139410771D02*
X233805377Y-139458390D01*
X233805377Y-139458390D02*
X233852996Y-139506009D01*
X233852996Y-139506009D02*
X233900615Y-139601247D01*
X122530377Y-82879819D02*
X122530377Y-81879819D01*
X122530377Y-81879819D02*
X122292282Y-81879819D01*
X122292282Y-81879819D02*
X122149425Y-81927438D01*
X122149425Y-81927438D02*
X122054187Y-82022676D01*
X122054187Y-82022676D02*
X122006568Y-82117914D01*
X122006568Y-82117914D02*
X121958949Y-82308390D01*
X121958949Y-82308390D02*
X121958949Y-82451247D01*
X121958949Y-82451247D02*
X122006568Y-82641723D01*
X122006568Y-82641723D02*
X122054187Y-82736961D01*
X122054187Y-82736961D02*
X122149425Y-82832200D01*
X122149425Y-82832200D02*
X122292282Y-82879819D01*
X122292282Y-82879819D02*
X122530377Y-82879819D01*
X121006568Y-82879819D02*
X121577996Y-82879819D01*
X121292282Y-82879819D02*
X121292282Y-81879819D01*
X121292282Y-81879819D02*
X121387520Y-82022676D01*
X121387520Y-82022676D02*
X121482758Y-82117914D01*
X121482758Y-82117914D02*
X121577996Y-82165533D01*
X120673234Y-81879819D02*
X120006568Y-81879819D01*
X120006568Y-81879819D02*
X120435139Y-82879819D01*
X65381193Y-101926851D02*
X65381193Y-100926851D01*
X65381193Y-100926851D02*
X65143098Y-100926851D01*
X65143098Y-100926851D02*
X65000241Y-100974470D01*
X65000241Y-100974470D02*
X64905003Y-101069708D01*
X64905003Y-101069708D02*
X64857384Y-101164946D01*
X64857384Y-101164946D02*
X64809765Y-101355422D01*
X64809765Y-101355422D02*
X64809765Y-101498279D01*
X64809765Y-101498279D02*
X64857384Y-101688755D01*
X64857384Y-101688755D02*
X64905003Y-101783993D01*
X64905003Y-101783993D02*
X65000241Y-101879232D01*
X65000241Y-101879232D02*
X65143098Y-101926851D01*
X65143098Y-101926851D02*
X65381193Y-101926851D01*
X64428812Y-101022089D02*
X64381193Y-100974470D01*
X64381193Y-100974470D02*
X64285955Y-100926851D01*
X64285955Y-100926851D02*
X64047860Y-100926851D01*
X64047860Y-100926851D02*
X63952622Y-100974470D01*
X63952622Y-100974470D02*
X63905003Y-101022089D01*
X63905003Y-101022089D02*
X63857384Y-101117327D01*
X63857384Y-101117327D02*
X63857384Y-101212565D01*
X63857384Y-101212565D02*
X63905003Y-101355422D01*
X63905003Y-101355422D02*
X64476431Y-101926851D01*
X64476431Y-101926851D02*
X63857384Y-101926851D01*
X63000241Y-100926851D02*
X63190717Y-100926851D01*
X63190717Y-100926851D02*
X63285955Y-100974470D01*
X63285955Y-100974470D02*
X63333574Y-101022089D01*
X63333574Y-101022089D02*
X63428812Y-101164946D01*
X63428812Y-101164946D02*
X63476431Y-101355422D01*
X63476431Y-101355422D02*
X63476431Y-101736374D01*
X63476431Y-101736374D02*
X63428812Y-101831612D01*
X63428812Y-101831612D02*
X63381193Y-101879232D01*
X63381193Y-101879232D02*
X63285955Y-101926851D01*
X63285955Y-101926851D02*
X63095479Y-101926851D01*
X63095479Y-101926851D02*
X63000241Y-101879232D01*
X63000241Y-101879232D02*
X62952622Y-101831612D01*
X62952622Y-101831612D02*
X62905003Y-101736374D01*
X62905003Y-101736374D02*
X62905003Y-101498279D01*
X62905003Y-101498279D02*
X62952622Y-101403041D01*
X62952622Y-101403041D02*
X63000241Y-101355422D01*
X63000241Y-101355422D02*
X63095479Y-101307803D01*
X63095479Y-101307803D02*
X63285955Y-101307803D01*
X63285955Y-101307803D02*
X63381193Y-101355422D01*
X63381193Y-101355422D02*
X63428812Y-101403041D01*
X63428812Y-101403041D02*
X63476431Y-101498279D01*
X312005377Y-140029819D02*
X312005377Y-139029819D01*
X312005377Y-139029819D02*
X311767282Y-139029819D01*
X311767282Y-139029819D02*
X311624425Y-139077438D01*
X311624425Y-139077438D02*
X311529187Y-139172676D01*
X311529187Y-139172676D02*
X311481568Y-139267914D01*
X311481568Y-139267914D02*
X311433949Y-139458390D01*
X311433949Y-139458390D02*
X311433949Y-139601247D01*
X311433949Y-139601247D02*
X311481568Y-139791723D01*
X311481568Y-139791723D02*
X311529187Y-139886961D01*
X311529187Y-139886961D02*
X311624425Y-139982200D01*
X311624425Y-139982200D02*
X311767282Y-140029819D01*
X311767282Y-140029819D02*
X312005377Y-140029819D01*
X310576806Y-139029819D02*
X310767282Y-139029819D01*
X310767282Y-139029819D02*
X310862520Y-139077438D01*
X310862520Y-139077438D02*
X310910139Y-139125057D01*
X310910139Y-139125057D02*
X311005377Y-139267914D01*
X311005377Y-139267914D02*
X311052996Y-139458390D01*
X311052996Y-139458390D02*
X311052996Y-139839342D01*
X311052996Y-139839342D02*
X311005377Y-139934580D01*
X311005377Y-139934580D02*
X310957758Y-139982200D01*
X310957758Y-139982200D02*
X310862520Y-140029819D01*
X310862520Y-140029819D02*
X310672044Y-140029819D01*
X310672044Y-140029819D02*
X310576806Y-139982200D01*
X310576806Y-139982200D02*
X310529187Y-139934580D01*
X310529187Y-139934580D02*
X310481568Y-139839342D01*
X310481568Y-139839342D02*
X310481568Y-139601247D01*
X310481568Y-139601247D02*
X310529187Y-139506009D01*
X310529187Y-139506009D02*
X310576806Y-139458390D01*
X310576806Y-139458390D02*
X310672044Y-139410771D01*
X310672044Y-139410771D02*
X310862520Y-139410771D01*
X310862520Y-139410771D02*
X310957758Y-139458390D01*
X310957758Y-139458390D02*
X311005377Y-139506009D01*
X311005377Y-139506009D02*
X311052996Y-139601247D01*
X309862520Y-139029819D02*
X309767282Y-139029819D01*
X309767282Y-139029819D02*
X309672044Y-139077438D01*
X309672044Y-139077438D02*
X309624425Y-139125057D01*
X309624425Y-139125057D02*
X309576806Y-139220295D01*
X309576806Y-139220295D02*
X309529187Y-139410771D01*
X309529187Y-139410771D02*
X309529187Y-139648866D01*
X309529187Y-139648866D02*
X309576806Y-139839342D01*
X309576806Y-139839342D02*
X309624425Y-139934580D01*
X309624425Y-139934580D02*
X309672044Y-139982200D01*
X309672044Y-139982200D02*
X309767282Y-140029819D01*
X309767282Y-140029819D02*
X309862520Y-140029819D01*
X309862520Y-140029819D02*
X309957758Y-139982200D01*
X309957758Y-139982200D02*
X310005377Y-139934580D01*
X310005377Y-139934580D02*
X310052996Y-139839342D01*
X310052996Y-139839342D02*
X310100615Y-139648866D01*
X310100615Y-139648866D02*
X310100615Y-139410771D01*
X310100615Y-139410771D02*
X310052996Y-139220295D01*
X310052996Y-139220295D02*
X310005377Y-139125057D01*
X310005377Y-139125057D02*
X309957758Y-139077438D01*
X309957758Y-139077438D02*
X309862520Y-139029819D01*
X84430377Y-101929819D02*
X84430377Y-100929819D01*
X84430377Y-100929819D02*
X84192282Y-100929819D01*
X84192282Y-100929819D02*
X84049425Y-100977438D01*
X84049425Y-100977438D02*
X83954187Y-101072676D01*
X83954187Y-101072676D02*
X83906568Y-101167914D01*
X83906568Y-101167914D02*
X83858949Y-101358390D01*
X83858949Y-101358390D02*
X83858949Y-101501247D01*
X83858949Y-101501247D02*
X83906568Y-101691723D01*
X83906568Y-101691723D02*
X83954187Y-101786961D01*
X83954187Y-101786961D02*
X84049425Y-101882200D01*
X84049425Y-101882200D02*
X84192282Y-101929819D01*
X84192282Y-101929819D02*
X84430377Y-101929819D01*
X83477996Y-101025057D02*
X83430377Y-100977438D01*
X83430377Y-100977438D02*
X83335139Y-100929819D01*
X83335139Y-100929819D02*
X83097044Y-100929819D01*
X83097044Y-100929819D02*
X83001806Y-100977438D01*
X83001806Y-100977438D02*
X82954187Y-101025057D01*
X82954187Y-101025057D02*
X82906568Y-101120295D01*
X82906568Y-101120295D02*
X82906568Y-101215533D01*
X82906568Y-101215533D02*
X82954187Y-101358390D01*
X82954187Y-101358390D02*
X83525615Y-101929819D01*
X83525615Y-101929819D02*
X82906568Y-101929819D01*
X82573234Y-100929819D02*
X81906568Y-100929819D01*
X81906568Y-100929819D02*
X82335139Y-101929819D01*
X65414285Y-120954819D02*
X65414285Y-119954819D01*
X65414285Y-119954819D02*
X65176190Y-119954819D01*
X65176190Y-119954819D02*
X65033333Y-120002438D01*
X65033333Y-120002438D02*
X64938095Y-120097676D01*
X64938095Y-120097676D02*
X64890476Y-120192914D01*
X64890476Y-120192914D02*
X64842857Y-120383390D01*
X64842857Y-120383390D02*
X64842857Y-120526247D01*
X64842857Y-120526247D02*
X64890476Y-120716723D01*
X64890476Y-120716723D02*
X64938095Y-120811961D01*
X64938095Y-120811961D02*
X65033333Y-120907200D01*
X65033333Y-120907200D02*
X65176190Y-120954819D01*
X65176190Y-120954819D02*
X65414285Y-120954819D01*
X64509523Y-119954819D02*
X63890476Y-119954819D01*
X63890476Y-119954819D02*
X64223809Y-120335771D01*
X64223809Y-120335771D02*
X64080952Y-120335771D01*
X64080952Y-120335771D02*
X63985714Y-120383390D01*
X63985714Y-120383390D02*
X63938095Y-120431009D01*
X63938095Y-120431009D02*
X63890476Y-120526247D01*
X63890476Y-120526247D02*
X63890476Y-120764342D01*
X63890476Y-120764342D02*
X63938095Y-120859580D01*
X63938095Y-120859580D02*
X63985714Y-120907200D01*
X63985714Y-120907200D02*
X64080952Y-120954819D01*
X64080952Y-120954819D02*
X64366666Y-120954819D01*
X64366666Y-120954819D02*
X64461904Y-120907200D01*
X64461904Y-120907200D02*
X64509523Y-120859580D01*
X63319047Y-120383390D02*
X63414285Y-120335771D01*
X63414285Y-120335771D02*
X63461904Y-120288152D01*
X63461904Y-120288152D02*
X63509523Y-120192914D01*
X63509523Y-120192914D02*
X63509523Y-120145295D01*
X63509523Y-120145295D02*
X63461904Y-120050057D01*
X63461904Y-120050057D02*
X63414285Y-120002438D01*
X63414285Y-120002438D02*
X63319047Y-119954819D01*
X63319047Y-119954819D02*
X63128571Y-119954819D01*
X63128571Y-119954819D02*
X63033333Y-120002438D01*
X63033333Y-120002438D02*
X62985714Y-120050057D01*
X62985714Y-120050057D02*
X62938095Y-120145295D01*
X62938095Y-120145295D02*
X62938095Y-120192914D01*
X62938095Y-120192914D02*
X62985714Y-120288152D01*
X62985714Y-120288152D02*
X63033333Y-120335771D01*
X63033333Y-120335771D02*
X63128571Y-120383390D01*
X63128571Y-120383390D02*
X63319047Y-120383390D01*
X63319047Y-120383390D02*
X63414285Y-120431009D01*
X63414285Y-120431009D02*
X63461904Y-120478628D01*
X63461904Y-120478628D02*
X63509523Y-120573866D01*
X63509523Y-120573866D02*
X63509523Y-120764342D01*
X63509523Y-120764342D02*
X63461904Y-120859580D01*
X63461904Y-120859580D02*
X63414285Y-120907200D01*
X63414285Y-120907200D02*
X63319047Y-120954819D01*
X63319047Y-120954819D02*
X63128571Y-120954819D01*
X63128571Y-120954819D02*
X63033333Y-120907200D01*
X63033333Y-120907200D02*
X62985714Y-120859580D01*
X62985714Y-120859580D02*
X62938095Y-120764342D01*
X62938095Y-120764342D02*
X62938095Y-120573866D01*
X62938095Y-120573866D02*
X62985714Y-120478628D01*
X62985714Y-120478628D02*
X63033333Y-120431009D01*
X63033333Y-120431009D02*
X63128571Y-120383390D01*
X292946469Y-82854819D02*
X292946469Y-81854819D01*
X292946469Y-81854819D02*
X292708374Y-81854819D01*
X292708374Y-81854819D02*
X292565517Y-81902438D01*
X292565517Y-81902438D02*
X292470279Y-81997676D01*
X292470279Y-81997676D02*
X292422660Y-82092914D01*
X292422660Y-82092914D02*
X292375041Y-82283390D01*
X292375041Y-82283390D02*
X292375041Y-82426247D01*
X292375041Y-82426247D02*
X292422660Y-82616723D01*
X292422660Y-82616723D02*
X292470279Y-82711961D01*
X292470279Y-82711961D02*
X292565517Y-82807200D01*
X292565517Y-82807200D02*
X292708374Y-82854819D01*
X292708374Y-82854819D02*
X292946469Y-82854819D01*
X291994088Y-81950057D02*
X291946469Y-81902438D01*
X291946469Y-81902438D02*
X291851231Y-81854819D01*
X291851231Y-81854819D02*
X291613136Y-81854819D01*
X291613136Y-81854819D02*
X291517898Y-81902438D01*
X291517898Y-81902438D02*
X291470279Y-81950057D01*
X291470279Y-81950057D02*
X291422660Y-82045295D01*
X291422660Y-82045295D02*
X291422660Y-82140533D01*
X291422660Y-82140533D02*
X291470279Y-82283390D01*
X291470279Y-82283390D02*
X292041707Y-82854819D01*
X292041707Y-82854819D02*
X291422660Y-82854819D01*
X291089326Y-81854819D02*
X290470279Y-81854819D01*
X290470279Y-81854819D02*
X290803612Y-82235771D01*
X290803612Y-82235771D02*
X290660755Y-82235771D01*
X290660755Y-82235771D02*
X290565517Y-82283390D01*
X290565517Y-82283390D02*
X290517898Y-82331009D01*
X290517898Y-82331009D02*
X290470279Y-82426247D01*
X290470279Y-82426247D02*
X290470279Y-82664342D01*
X290470279Y-82664342D02*
X290517898Y-82759580D01*
X290517898Y-82759580D02*
X290565517Y-82807200D01*
X290565517Y-82807200D02*
X290660755Y-82854819D01*
X290660755Y-82854819D02*
X290946469Y-82854819D01*
X290946469Y-82854819D02*
X291041707Y-82807200D01*
X291041707Y-82807200D02*
X291089326Y-82759580D01*
X103480377Y-82879819D02*
X103480377Y-81879819D01*
X103480377Y-81879819D02*
X103242282Y-81879819D01*
X103242282Y-81879819D02*
X103099425Y-81927438D01*
X103099425Y-81927438D02*
X103004187Y-82022676D01*
X103004187Y-82022676D02*
X102956568Y-82117914D01*
X102956568Y-82117914D02*
X102908949Y-82308390D01*
X102908949Y-82308390D02*
X102908949Y-82451247D01*
X102908949Y-82451247D02*
X102956568Y-82641723D01*
X102956568Y-82641723D02*
X103004187Y-82736961D01*
X103004187Y-82736961D02*
X103099425Y-82832200D01*
X103099425Y-82832200D02*
X103242282Y-82879819D01*
X103242282Y-82879819D02*
X103480377Y-82879819D01*
X101956568Y-82879819D02*
X102527996Y-82879819D01*
X102242282Y-82879819D02*
X102242282Y-81879819D01*
X102242282Y-81879819D02*
X102337520Y-82022676D01*
X102337520Y-82022676D02*
X102432758Y-82117914D01*
X102432758Y-82117914D02*
X102527996Y-82165533D01*
X101099425Y-81879819D02*
X101289901Y-81879819D01*
X101289901Y-81879819D02*
X101385139Y-81927438D01*
X101385139Y-81927438D02*
X101432758Y-81975057D01*
X101432758Y-81975057D02*
X101527996Y-82117914D01*
X101527996Y-82117914D02*
X101575615Y-82308390D01*
X101575615Y-82308390D02*
X101575615Y-82689342D01*
X101575615Y-82689342D02*
X101527996Y-82784580D01*
X101527996Y-82784580D02*
X101480377Y-82832200D01*
X101480377Y-82832200D02*
X101385139Y-82879819D01*
X101385139Y-82879819D02*
X101194663Y-82879819D01*
X101194663Y-82879819D02*
X101099425Y-82832200D01*
X101099425Y-82832200D02*
X101051806Y-82784580D01*
X101051806Y-82784580D02*
X101004187Y-82689342D01*
X101004187Y-82689342D02*
X101004187Y-82451247D01*
X101004187Y-82451247D02*
X101051806Y-82356009D01*
X101051806Y-82356009D02*
X101099425Y-82308390D01*
X101099425Y-82308390D02*
X101194663Y-82260771D01*
X101194663Y-82260771D02*
X101385139Y-82260771D01*
X101385139Y-82260771D02*
X101480377Y-82308390D01*
X101480377Y-82308390D02*
X101527996Y-82356009D01*
X101527996Y-82356009D02*
X101575615Y-82451247D01*
X160154186Y-63829819D02*
X160154186Y-62829819D01*
X160154186Y-62829819D02*
X159916091Y-62829819D01*
X159916091Y-62829819D02*
X159773234Y-62877438D01*
X159773234Y-62877438D02*
X159677996Y-62972676D01*
X159677996Y-62972676D02*
X159630377Y-63067914D01*
X159630377Y-63067914D02*
X159582758Y-63258390D01*
X159582758Y-63258390D02*
X159582758Y-63401247D01*
X159582758Y-63401247D02*
X159630377Y-63591723D01*
X159630377Y-63591723D02*
X159677996Y-63686961D01*
X159677996Y-63686961D02*
X159773234Y-63782200D01*
X159773234Y-63782200D02*
X159916091Y-63829819D01*
X159916091Y-63829819D02*
X160154186Y-63829819D01*
X159249424Y-62829819D02*
X158582758Y-62829819D01*
X158582758Y-62829819D02*
X159011329Y-63829819D01*
X83954186Y-63804819D02*
X83954186Y-62804819D01*
X83954186Y-62804819D02*
X83716091Y-62804819D01*
X83716091Y-62804819D02*
X83573234Y-62852438D01*
X83573234Y-62852438D02*
X83477996Y-62947676D01*
X83477996Y-62947676D02*
X83430377Y-63042914D01*
X83430377Y-63042914D02*
X83382758Y-63233390D01*
X83382758Y-63233390D02*
X83382758Y-63376247D01*
X83382758Y-63376247D02*
X83430377Y-63566723D01*
X83430377Y-63566723D02*
X83477996Y-63661961D01*
X83477996Y-63661961D02*
X83573234Y-63757200D01*
X83573234Y-63757200D02*
X83716091Y-63804819D01*
X83716091Y-63804819D02*
X83954186Y-63804819D01*
X83049424Y-62804819D02*
X82430377Y-62804819D01*
X82430377Y-62804819D02*
X82763710Y-63185771D01*
X82763710Y-63185771D02*
X82620853Y-63185771D01*
X82620853Y-63185771D02*
X82525615Y-63233390D01*
X82525615Y-63233390D02*
X82477996Y-63281009D01*
X82477996Y-63281009D02*
X82430377Y-63376247D01*
X82430377Y-63376247D02*
X82430377Y-63614342D01*
X82430377Y-63614342D02*
X82477996Y-63709580D01*
X82477996Y-63709580D02*
X82525615Y-63757200D01*
X82525615Y-63757200D02*
X82620853Y-63804819D01*
X82620853Y-63804819D02*
X82906567Y-63804819D01*
X82906567Y-63804819D02*
X83001805Y-63757200D01*
X83001805Y-63757200D02*
X83049424Y-63709580D01*
X331055377Y-140029819D02*
X331055377Y-139029819D01*
X331055377Y-139029819D02*
X330817282Y-139029819D01*
X330817282Y-139029819D02*
X330674425Y-139077438D01*
X330674425Y-139077438D02*
X330579187Y-139172676D01*
X330579187Y-139172676D02*
X330531568Y-139267914D01*
X330531568Y-139267914D02*
X330483949Y-139458390D01*
X330483949Y-139458390D02*
X330483949Y-139601247D01*
X330483949Y-139601247D02*
X330531568Y-139791723D01*
X330531568Y-139791723D02*
X330579187Y-139886961D01*
X330579187Y-139886961D02*
X330674425Y-139982200D01*
X330674425Y-139982200D02*
X330817282Y-140029819D01*
X330817282Y-140029819D02*
X331055377Y-140029819D01*
X329626806Y-139029819D02*
X329817282Y-139029819D01*
X329817282Y-139029819D02*
X329912520Y-139077438D01*
X329912520Y-139077438D02*
X329960139Y-139125057D01*
X329960139Y-139125057D02*
X330055377Y-139267914D01*
X330055377Y-139267914D02*
X330102996Y-139458390D01*
X330102996Y-139458390D02*
X330102996Y-139839342D01*
X330102996Y-139839342D02*
X330055377Y-139934580D01*
X330055377Y-139934580D02*
X330007758Y-139982200D01*
X330007758Y-139982200D02*
X329912520Y-140029819D01*
X329912520Y-140029819D02*
X329722044Y-140029819D01*
X329722044Y-140029819D02*
X329626806Y-139982200D01*
X329626806Y-139982200D02*
X329579187Y-139934580D01*
X329579187Y-139934580D02*
X329531568Y-139839342D01*
X329531568Y-139839342D02*
X329531568Y-139601247D01*
X329531568Y-139601247D02*
X329579187Y-139506009D01*
X329579187Y-139506009D02*
X329626806Y-139458390D01*
X329626806Y-139458390D02*
X329722044Y-139410771D01*
X329722044Y-139410771D02*
X329912520Y-139410771D01*
X329912520Y-139410771D02*
X330007758Y-139458390D01*
X330007758Y-139458390D02*
X330055377Y-139506009D01*
X330055377Y-139506009D02*
X330102996Y-139601247D01*
X328579187Y-140029819D02*
X329150615Y-140029819D01*
X328864901Y-140029819D02*
X328864901Y-139029819D01*
X328864901Y-139029819D02*
X328960139Y-139172676D01*
X328960139Y-139172676D02*
X329055377Y-139267914D01*
X329055377Y-139267914D02*
X329150615Y-139315533D01*
X273905377Y-140029819D02*
X273905377Y-139029819D01*
X273905377Y-139029819D02*
X273667282Y-139029819D01*
X273667282Y-139029819D02*
X273524425Y-139077438D01*
X273524425Y-139077438D02*
X273429187Y-139172676D01*
X273429187Y-139172676D02*
X273381568Y-139267914D01*
X273381568Y-139267914D02*
X273333949Y-139458390D01*
X273333949Y-139458390D02*
X273333949Y-139601247D01*
X273333949Y-139601247D02*
X273381568Y-139791723D01*
X273381568Y-139791723D02*
X273429187Y-139886961D01*
X273429187Y-139886961D02*
X273524425Y-139982200D01*
X273524425Y-139982200D02*
X273667282Y-140029819D01*
X273667282Y-140029819D02*
X273905377Y-140029819D01*
X272429187Y-139029819D02*
X272905377Y-139029819D01*
X272905377Y-139029819D02*
X272952996Y-139506009D01*
X272952996Y-139506009D02*
X272905377Y-139458390D01*
X272905377Y-139458390D02*
X272810139Y-139410771D01*
X272810139Y-139410771D02*
X272572044Y-139410771D01*
X272572044Y-139410771D02*
X272476806Y-139458390D01*
X272476806Y-139458390D02*
X272429187Y-139506009D01*
X272429187Y-139506009D02*
X272381568Y-139601247D01*
X272381568Y-139601247D02*
X272381568Y-139839342D01*
X272381568Y-139839342D02*
X272429187Y-139934580D01*
X272429187Y-139934580D02*
X272476806Y-139982200D01*
X272476806Y-139982200D02*
X272572044Y-140029819D01*
X272572044Y-140029819D02*
X272810139Y-140029819D01*
X272810139Y-140029819D02*
X272905377Y-139982200D01*
X272905377Y-139982200D02*
X272952996Y-139934580D01*
X271810139Y-139458390D02*
X271905377Y-139410771D01*
X271905377Y-139410771D02*
X271952996Y-139363152D01*
X271952996Y-139363152D02*
X272000615Y-139267914D01*
X272000615Y-139267914D02*
X272000615Y-139220295D01*
X272000615Y-139220295D02*
X271952996Y-139125057D01*
X271952996Y-139125057D02*
X271905377Y-139077438D01*
X271905377Y-139077438D02*
X271810139Y-139029819D01*
X271810139Y-139029819D02*
X271619663Y-139029819D01*
X271619663Y-139029819D02*
X271524425Y-139077438D01*
X271524425Y-139077438D02*
X271476806Y-139125057D01*
X271476806Y-139125057D02*
X271429187Y-139220295D01*
X271429187Y-139220295D02*
X271429187Y-139267914D01*
X271429187Y-139267914D02*
X271476806Y-139363152D01*
X271476806Y-139363152D02*
X271524425Y-139410771D01*
X271524425Y-139410771D02*
X271619663Y-139458390D01*
X271619663Y-139458390D02*
X271810139Y-139458390D01*
X271810139Y-139458390D02*
X271905377Y-139506009D01*
X271905377Y-139506009D02*
X271952996Y-139553628D01*
X271952996Y-139553628D02*
X272000615Y-139648866D01*
X272000615Y-139648866D02*
X272000615Y-139839342D01*
X272000615Y-139839342D02*
X271952996Y-139934580D01*
X271952996Y-139934580D02*
X271905377Y-139982200D01*
X271905377Y-139982200D02*
X271810139Y-140029819D01*
X271810139Y-140029819D02*
X271619663Y-140029819D01*
X271619663Y-140029819D02*
X271524425Y-139982200D01*
X271524425Y-139982200D02*
X271476806Y-139934580D01*
X271476806Y-139934580D02*
X271429187Y-139839342D01*
X271429187Y-139839342D02*
X271429187Y-139648866D01*
X271429187Y-139648866D02*
X271476806Y-139553628D01*
X271476806Y-139553628D02*
X271524425Y-139506009D01*
X271524425Y-139506009D02*
X271619663Y-139458390D01*
X141589285Y-120954819D02*
X141589285Y-119954819D01*
X141589285Y-119954819D02*
X141351190Y-119954819D01*
X141351190Y-119954819D02*
X141208333Y-120002438D01*
X141208333Y-120002438D02*
X141113095Y-120097676D01*
X141113095Y-120097676D02*
X141065476Y-120192914D01*
X141065476Y-120192914D02*
X141017857Y-120383390D01*
X141017857Y-120383390D02*
X141017857Y-120526247D01*
X141017857Y-120526247D02*
X141065476Y-120716723D01*
X141065476Y-120716723D02*
X141113095Y-120811961D01*
X141113095Y-120811961D02*
X141208333Y-120907200D01*
X141208333Y-120907200D02*
X141351190Y-120954819D01*
X141351190Y-120954819D02*
X141589285Y-120954819D01*
X140160714Y-120288152D02*
X140160714Y-120954819D01*
X140398809Y-119907200D02*
X140636904Y-120621485D01*
X140636904Y-120621485D02*
X140017857Y-120621485D01*
X139684523Y-120050057D02*
X139636904Y-120002438D01*
X139636904Y-120002438D02*
X139541666Y-119954819D01*
X139541666Y-119954819D02*
X139303571Y-119954819D01*
X139303571Y-119954819D02*
X139208333Y-120002438D01*
X139208333Y-120002438D02*
X139160714Y-120050057D01*
X139160714Y-120050057D02*
X139113095Y-120145295D01*
X139113095Y-120145295D02*
X139113095Y-120240533D01*
X139113095Y-120240533D02*
X139160714Y-120383390D01*
X139160714Y-120383390D02*
X139732142Y-120954819D01*
X139732142Y-120954819D02*
X139113095Y-120954819D01*
X84439285Y-140029819D02*
X84439285Y-139029819D01*
X84439285Y-139029819D02*
X84201190Y-139029819D01*
X84201190Y-139029819D02*
X84058333Y-139077438D01*
X84058333Y-139077438D02*
X83963095Y-139172676D01*
X83963095Y-139172676D02*
X83915476Y-139267914D01*
X83915476Y-139267914D02*
X83867857Y-139458390D01*
X83867857Y-139458390D02*
X83867857Y-139601247D01*
X83867857Y-139601247D02*
X83915476Y-139791723D01*
X83915476Y-139791723D02*
X83963095Y-139886961D01*
X83963095Y-139886961D02*
X84058333Y-139982200D01*
X84058333Y-139982200D02*
X84201190Y-140029819D01*
X84201190Y-140029819D02*
X84439285Y-140029819D01*
X82963095Y-139029819D02*
X83439285Y-139029819D01*
X83439285Y-139029819D02*
X83486904Y-139506009D01*
X83486904Y-139506009D02*
X83439285Y-139458390D01*
X83439285Y-139458390D02*
X83344047Y-139410771D01*
X83344047Y-139410771D02*
X83105952Y-139410771D01*
X83105952Y-139410771D02*
X83010714Y-139458390D01*
X83010714Y-139458390D02*
X82963095Y-139506009D01*
X82963095Y-139506009D02*
X82915476Y-139601247D01*
X82915476Y-139601247D02*
X82915476Y-139839342D01*
X82915476Y-139839342D02*
X82963095Y-139934580D01*
X82963095Y-139934580D02*
X83010714Y-139982200D01*
X83010714Y-139982200D02*
X83105952Y-140029819D01*
X83105952Y-140029819D02*
X83344047Y-140029819D01*
X83344047Y-140029819D02*
X83439285Y-139982200D01*
X83439285Y-139982200D02*
X83486904Y-139934580D01*
X81963095Y-140029819D02*
X82534523Y-140029819D01*
X82248809Y-140029819D02*
X82248809Y-139029819D01*
X82248809Y-139029819D02*
X82344047Y-139172676D01*
X82344047Y-139172676D02*
X82439285Y-139267914D01*
X82439285Y-139267914D02*
X82534523Y-139315533D01*
X84439285Y-120954819D02*
X84439285Y-119954819D01*
X84439285Y-119954819D02*
X84201190Y-119954819D01*
X84201190Y-119954819D02*
X84058333Y-120002438D01*
X84058333Y-120002438D02*
X83963095Y-120097676D01*
X83963095Y-120097676D02*
X83915476Y-120192914D01*
X83915476Y-120192914D02*
X83867857Y-120383390D01*
X83867857Y-120383390D02*
X83867857Y-120526247D01*
X83867857Y-120526247D02*
X83915476Y-120716723D01*
X83915476Y-120716723D02*
X83963095Y-120811961D01*
X83963095Y-120811961D02*
X84058333Y-120907200D01*
X84058333Y-120907200D02*
X84201190Y-120954819D01*
X84201190Y-120954819D02*
X84439285Y-120954819D01*
X83534523Y-119954819D02*
X82915476Y-119954819D01*
X82915476Y-119954819D02*
X83248809Y-120335771D01*
X83248809Y-120335771D02*
X83105952Y-120335771D01*
X83105952Y-120335771D02*
X83010714Y-120383390D01*
X83010714Y-120383390D02*
X82963095Y-120431009D01*
X82963095Y-120431009D02*
X82915476Y-120526247D01*
X82915476Y-120526247D02*
X82915476Y-120764342D01*
X82915476Y-120764342D02*
X82963095Y-120859580D01*
X82963095Y-120859580D02*
X83010714Y-120907200D01*
X83010714Y-120907200D02*
X83105952Y-120954819D01*
X83105952Y-120954819D02*
X83391666Y-120954819D01*
X83391666Y-120954819D02*
X83486904Y-120907200D01*
X83486904Y-120907200D02*
X83534523Y-120859580D01*
X82439285Y-120954819D02*
X82248809Y-120954819D01*
X82248809Y-120954819D02*
X82153571Y-120907200D01*
X82153571Y-120907200D02*
X82105952Y-120859580D01*
X82105952Y-120859580D02*
X82010714Y-120716723D01*
X82010714Y-120716723D02*
X81963095Y-120526247D01*
X81963095Y-120526247D02*
X81963095Y-120145295D01*
X81963095Y-120145295D02*
X82010714Y-120050057D01*
X82010714Y-120050057D02*
X82058333Y-120002438D01*
X82058333Y-120002438D02*
X82153571Y-119954819D01*
X82153571Y-119954819D02*
X82344047Y-119954819D01*
X82344047Y-119954819D02*
X82439285Y-120002438D01*
X82439285Y-120002438D02*
X82486904Y-120050057D01*
X82486904Y-120050057D02*
X82534523Y-120145295D01*
X82534523Y-120145295D02*
X82534523Y-120383390D01*
X82534523Y-120383390D02*
X82486904Y-120478628D01*
X82486904Y-120478628D02*
X82439285Y-120526247D01*
X82439285Y-120526247D02*
X82344047Y-120573866D01*
X82344047Y-120573866D02*
X82153571Y-120573866D01*
X82153571Y-120573866D02*
X82058333Y-120526247D01*
X82058333Y-120526247D02*
X82010714Y-120478628D01*
X82010714Y-120478628D02*
X81963095Y-120383390D01*
X122539285Y-140054819D02*
X122539285Y-139054819D01*
X122539285Y-139054819D02*
X122301190Y-139054819D01*
X122301190Y-139054819D02*
X122158333Y-139102438D01*
X122158333Y-139102438D02*
X122063095Y-139197676D01*
X122063095Y-139197676D02*
X122015476Y-139292914D01*
X122015476Y-139292914D02*
X121967857Y-139483390D01*
X121967857Y-139483390D02*
X121967857Y-139626247D01*
X121967857Y-139626247D02*
X122015476Y-139816723D01*
X122015476Y-139816723D02*
X122063095Y-139911961D01*
X122063095Y-139911961D02*
X122158333Y-140007200D01*
X122158333Y-140007200D02*
X122301190Y-140054819D01*
X122301190Y-140054819D02*
X122539285Y-140054819D01*
X121063095Y-139054819D02*
X121539285Y-139054819D01*
X121539285Y-139054819D02*
X121586904Y-139531009D01*
X121586904Y-139531009D02*
X121539285Y-139483390D01*
X121539285Y-139483390D02*
X121444047Y-139435771D01*
X121444047Y-139435771D02*
X121205952Y-139435771D01*
X121205952Y-139435771D02*
X121110714Y-139483390D01*
X121110714Y-139483390D02*
X121063095Y-139531009D01*
X121063095Y-139531009D02*
X121015476Y-139626247D01*
X121015476Y-139626247D02*
X121015476Y-139864342D01*
X121015476Y-139864342D02*
X121063095Y-139959580D01*
X121063095Y-139959580D02*
X121110714Y-140007200D01*
X121110714Y-140007200D02*
X121205952Y-140054819D01*
X121205952Y-140054819D02*
X121444047Y-140054819D01*
X121444047Y-140054819D02*
X121539285Y-140007200D01*
X121539285Y-140007200D02*
X121586904Y-139959580D01*
X120682142Y-139054819D02*
X120063095Y-139054819D01*
X120063095Y-139054819D02*
X120396428Y-139435771D01*
X120396428Y-139435771D02*
X120253571Y-139435771D01*
X120253571Y-139435771D02*
X120158333Y-139483390D01*
X120158333Y-139483390D02*
X120110714Y-139531009D01*
X120110714Y-139531009D02*
X120063095Y-139626247D01*
X120063095Y-139626247D02*
X120063095Y-139864342D01*
X120063095Y-139864342D02*
X120110714Y-139959580D01*
X120110714Y-139959580D02*
X120158333Y-140007200D01*
X120158333Y-140007200D02*
X120253571Y-140054819D01*
X120253571Y-140054819D02*
X120539285Y-140054819D01*
X120539285Y-140054819D02*
X120634523Y-140007200D01*
X120634523Y-140007200D02*
X120682142Y-139959580D01*
X331046469Y-63804819D02*
X331046469Y-62804819D01*
X331046469Y-62804819D02*
X330808374Y-62804819D01*
X330808374Y-62804819D02*
X330665517Y-62852438D01*
X330665517Y-62852438D02*
X330570279Y-62947676D01*
X330570279Y-62947676D02*
X330522660Y-63042914D01*
X330522660Y-63042914D02*
X330475041Y-63233390D01*
X330475041Y-63233390D02*
X330475041Y-63376247D01*
X330475041Y-63376247D02*
X330522660Y-63566723D01*
X330522660Y-63566723D02*
X330570279Y-63661961D01*
X330570279Y-63661961D02*
X330665517Y-63757200D01*
X330665517Y-63757200D02*
X330808374Y-63804819D01*
X330808374Y-63804819D02*
X331046469Y-63804819D01*
X329522660Y-63804819D02*
X330094088Y-63804819D01*
X329808374Y-63804819D02*
X329808374Y-62804819D01*
X329808374Y-62804819D02*
X329903612Y-62947676D01*
X329903612Y-62947676D02*
X329998850Y-63042914D01*
X329998850Y-63042914D02*
X330094088Y-63090533D01*
X329189326Y-62804819D02*
X328570279Y-62804819D01*
X328570279Y-62804819D02*
X328903612Y-63185771D01*
X328903612Y-63185771D02*
X328760755Y-63185771D01*
X328760755Y-63185771D02*
X328665517Y-63233390D01*
X328665517Y-63233390D02*
X328617898Y-63281009D01*
X328617898Y-63281009D02*
X328570279Y-63376247D01*
X328570279Y-63376247D02*
X328570279Y-63614342D01*
X328570279Y-63614342D02*
X328617898Y-63709580D01*
X328617898Y-63709580D02*
X328665517Y-63757200D01*
X328665517Y-63757200D02*
X328760755Y-63804819D01*
X328760755Y-63804819D02*
X329046469Y-63804819D01*
X329046469Y-63804819D02*
X329141707Y-63757200D01*
X329141707Y-63757200D02*
X329189326Y-63709580D01*
X84430377Y-82879819D02*
X84430377Y-81879819D01*
X84430377Y-81879819D02*
X84192282Y-81879819D01*
X84192282Y-81879819D02*
X84049425Y-81927438D01*
X84049425Y-81927438D02*
X83954187Y-82022676D01*
X83954187Y-82022676D02*
X83906568Y-82117914D01*
X83906568Y-82117914D02*
X83858949Y-82308390D01*
X83858949Y-82308390D02*
X83858949Y-82451247D01*
X83858949Y-82451247D02*
X83906568Y-82641723D01*
X83906568Y-82641723D02*
X83954187Y-82736961D01*
X83954187Y-82736961D02*
X84049425Y-82832200D01*
X84049425Y-82832200D02*
X84192282Y-82879819D01*
X84192282Y-82879819D02*
X84430377Y-82879819D01*
X82906568Y-82879819D02*
X83477996Y-82879819D01*
X83192282Y-82879819D02*
X83192282Y-81879819D01*
X83192282Y-81879819D02*
X83287520Y-82022676D01*
X83287520Y-82022676D02*
X83382758Y-82117914D01*
X83382758Y-82117914D02*
X83477996Y-82165533D01*
X82001806Y-81879819D02*
X82477996Y-81879819D01*
X82477996Y-81879819D02*
X82525615Y-82356009D01*
X82525615Y-82356009D02*
X82477996Y-82308390D01*
X82477996Y-82308390D02*
X82382758Y-82260771D01*
X82382758Y-82260771D02*
X82144663Y-82260771D01*
X82144663Y-82260771D02*
X82049425Y-82308390D01*
X82049425Y-82308390D02*
X82001806Y-82356009D01*
X82001806Y-82356009D02*
X81954187Y-82451247D01*
X81954187Y-82451247D02*
X81954187Y-82689342D01*
X81954187Y-82689342D02*
X82001806Y-82784580D01*
X82001806Y-82784580D02*
X82049425Y-82832200D01*
X82049425Y-82832200D02*
X82144663Y-82879819D01*
X82144663Y-82879819D02*
X82382758Y-82879819D01*
X82382758Y-82879819D02*
X82477996Y-82832200D01*
X82477996Y-82832200D02*
X82525615Y-82784580D01*
X292955377Y-101929819D02*
X292955377Y-100929819D01*
X292955377Y-100929819D02*
X292717282Y-100929819D01*
X292717282Y-100929819D02*
X292574425Y-100977438D01*
X292574425Y-100977438D02*
X292479187Y-101072676D01*
X292479187Y-101072676D02*
X292431568Y-101167914D01*
X292431568Y-101167914D02*
X292383949Y-101358390D01*
X292383949Y-101358390D02*
X292383949Y-101501247D01*
X292383949Y-101501247D02*
X292431568Y-101691723D01*
X292431568Y-101691723D02*
X292479187Y-101786961D01*
X292479187Y-101786961D02*
X292574425Y-101882200D01*
X292574425Y-101882200D02*
X292717282Y-101929819D01*
X292717282Y-101929819D02*
X292955377Y-101929819D01*
X292050615Y-100929819D02*
X291431568Y-100929819D01*
X291431568Y-100929819D02*
X291764901Y-101310771D01*
X291764901Y-101310771D02*
X291622044Y-101310771D01*
X291622044Y-101310771D02*
X291526806Y-101358390D01*
X291526806Y-101358390D02*
X291479187Y-101406009D01*
X291479187Y-101406009D02*
X291431568Y-101501247D01*
X291431568Y-101501247D02*
X291431568Y-101739342D01*
X291431568Y-101739342D02*
X291479187Y-101834580D01*
X291479187Y-101834580D02*
X291526806Y-101882200D01*
X291526806Y-101882200D02*
X291622044Y-101929819D01*
X291622044Y-101929819D02*
X291907758Y-101929819D01*
X291907758Y-101929819D02*
X292002996Y-101882200D01*
X292002996Y-101882200D02*
X292050615Y-101834580D01*
X290526806Y-100929819D02*
X291002996Y-100929819D01*
X291002996Y-100929819D02*
X291050615Y-101406009D01*
X291050615Y-101406009D02*
X291002996Y-101358390D01*
X291002996Y-101358390D02*
X290907758Y-101310771D01*
X290907758Y-101310771D02*
X290669663Y-101310771D01*
X290669663Y-101310771D02*
X290574425Y-101358390D01*
X290574425Y-101358390D02*
X290526806Y-101406009D01*
X290526806Y-101406009D02*
X290479187Y-101501247D01*
X290479187Y-101501247D02*
X290479187Y-101739342D01*
X290479187Y-101739342D02*
X290526806Y-101834580D01*
X290526806Y-101834580D02*
X290574425Y-101882200D01*
X290574425Y-101882200D02*
X290669663Y-101929819D01*
X290669663Y-101929819D02*
X290907758Y-101929819D01*
X290907758Y-101929819D02*
X291002996Y-101882200D01*
X291002996Y-101882200D02*
X291050615Y-101834580D01*
X292946469Y-63804819D02*
X292946469Y-62804819D01*
X292946469Y-62804819D02*
X292708374Y-62804819D01*
X292708374Y-62804819D02*
X292565517Y-62852438D01*
X292565517Y-62852438D02*
X292470279Y-62947676D01*
X292470279Y-62947676D02*
X292422660Y-63042914D01*
X292422660Y-63042914D02*
X292375041Y-63233390D01*
X292375041Y-63233390D02*
X292375041Y-63376247D01*
X292375041Y-63376247D02*
X292422660Y-63566723D01*
X292422660Y-63566723D02*
X292470279Y-63661961D01*
X292470279Y-63661961D02*
X292565517Y-63757200D01*
X292565517Y-63757200D02*
X292708374Y-63804819D01*
X292708374Y-63804819D02*
X292946469Y-63804819D01*
X291422660Y-63804819D02*
X291994088Y-63804819D01*
X291708374Y-63804819D02*
X291708374Y-62804819D01*
X291708374Y-62804819D02*
X291803612Y-62947676D01*
X291803612Y-62947676D02*
X291898850Y-63042914D01*
X291898850Y-63042914D02*
X291994088Y-63090533D01*
X290470279Y-63804819D02*
X291041707Y-63804819D01*
X290755993Y-63804819D02*
X290755993Y-62804819D01*
X290755993Y-62804819D02*
X290851231Y-62947676D01*
X290851231Y-62947676D02*
X290946469Y-63042914D01*
X290946469Y-63042914D02*
X291041707Y-63090533D01*
X292955377Y-120979819D02*
X292955377Y-119979819D01*
X292955377Y-119979819D02*
X292717282Y-119979819D01*
X292717282Y-119979819D02*
X292574425Y-120027438D01*
X292574425Y-120027438D02*
X292479187Y-120122676D01*
X292479187Y-120122676D02*
X292431568Y-120217914D01*
X292431568Y-120217914D02*
X292383949Y-120408390D01*
X292383949Y-120408390D02*
X292383949Y-120551247D01*
X292383949Y-120551247D02*
X292431568Y-120741723D01*
X292431568Y-120741723D02*
X292479187Y-120836961D01*
X292479187Y-120836961D02*
X292574425Y-120932200D01*
X292574425Y-120932200D02*
X292717282Y-120979819D01*
X292717282Y-120979819D02*
X292955377Y-120979819D01*
X291526806Y-120313152D02*
X291526806Y-120979819D01*
X291764901Y-119932200D02*
X292002996Y-120646485D01*
X292002996Y-120646485D02*
X291383949Y-120646485D01*
X291098234Y-119979819D02*
X290431568Y-119979819D01*
X290431568Y-119979819D02*
X290860139Y-120979819D01*
X254855377Y-120979819D02*
X254855377Y-119979819D01*
X254855377Y-119979819D02*
X254617282Y-119979819D01*
X254617282Y-119979819D02*
X254474425Y-120027438D01*
X254474425Y-120027438D02*
X254379187Y-120122676D01*
X254379187Y-120122676D02*
X254331568Y-120217914D01*
X254331568Y-120217914D02*
X254283949Y-120408390D01*
X254283949Y-120408390D02*
X254283949Y-120551247D01*
X254283949Y-120551247D02*
X254331568Y-120741723D01*
X254331568Y-120741723D02*
X254379187Y-120836961D01*
X254379187Y-120836961D02*
X254474425Y-120932200D01*
X254474425Y-120932200D02*
X254617282Y-120979819D01*
X254617282Y-120979819D02*
X254855377Y-120979819D01*
X253426806Y-120313152D02*
X253426806Y-120979819D01*
X253664901Y-119932200D02*
X253902996Y-120646485D01*
X253902996Y-120646485D02*
X253283949Y-120646485D01*
X252426806Y-119979819D02*
X252902996Y-119979819D01*
X252902996Y-119979819D02*
X252950615Y-120456009D01*
X252950615Y-120456009D02*
X252902996Y-120408390D01*
X252902996Y-120408390D02*
X252807758Y-120360771D01*
X252807758Y-120360771D02*
X252569663Y-120360771D01*
X252569663Y-120360771D02*
X252474425Y-120408390D01*
X252474425Y-120408390D02*
X252426806Y-120456009D01*
X252426806Y-120456009D02*
X252379187Y-120551247D01*
X252379187Y-120551247D02*
X252379187Y-120789342D01*
X252379187Y-120789342D02*
X252426806Y-120884580D01*
X252426806Y-120884580D02*
X252474425Y-120932200D01*
X252474425Y-120932200D02*
X252569663Y-120979819D01*
X252569663Y-120979819D02*
X252807758Y-120979819D01*
X252807758Y-120979819D02*
X252902996Y-120932200D01*
X252902996Y-120932200D02*
X252950615Y-120884580D01*
X122405377Y-121004819D02*
X122405377Y-120004819D01*
X122405377Y-120004819D02*
X122167282Y-120004819D01*
X122167282Y-120004819D02*
X122024425Y-120052438D01*
X122024425Y-120052438D02*
X121929187Y-120147676D01*
X121929187Y-120147676D02*
X121881568Y-120242914D01*
X121881568Y-120242914D02*
X121833949Y-120433390D01*
X121833949Y-120433390D02*
X121833949Y-120576247D01*
X121833949Y-120576247D02*
X121881568Y-120766723D01*
X121881568Y-120766723D02*
X121929187Y-120861961D01*
X121929187Y-120861961D02*
X122024425Y-120957200D01*
X122024425Y-120957200D02*
X122167282Y-121004819D01*
X122167282Y-121004819D02*
X122405377Y-121004819D01*
X120976806Y-120338152D02*
X120976806Y-121004819D01*
X121214901Y-119957200D02*
X121452996Y-120671485D01*
X121452996Y-120671485D02*
X120833949Y-120671485D01*
X119929187Y-121004819D02*
X120500615Y-121004819D01*
X120214901Y-121004819D02*
X120214901Y-120004819D01*
X120214901Y-120004819D02*
X120310139Y-120147676D01*
X120310139Y-120147676D02*
X120405377Y-120242914D01*
X120405377Y-120242914D02*
X120500615Y-120290533D01*
X273896469Y-63829819D02*
X273896469Y-62829819D01*
X273896469Y-62829819D02*
X273658374Y-62829819D01*
X273658374Y-62829819D02*
X273515517Y-62877438D01*
X273515517Y-62877438D02*
X273420279Y-62972676D01*
X273420279Y-62972676D02*
X273372660Y-63067914D01*
X273372660Y-63067914D02*
X273325041Y-63258390D01*
X273325041Y-63258390D02*
X273325041Y-63401247D01*
X273325041Y-63401247D02*
X273372660Y-63591723D01*
X273372660Y-63591723D02*
X273420279Y-63686961D01*
X273420279Y-63686961D02*
X273515517Y-63782200D01*
X273515517Y-63782200D02*
X273658374Y-63829819D01*
X273658374Y-63829819D02*
X273896469Y-63829819D01*
X272372660Y-63829819D02*
X272944088Y-63829819D01*
X272658374Y-63829819D02*
X272658374Y-62829819D01*
X272658374Y-62829819D02*
X272753612Y-62972676D01*
X272753612Y-62972676D02*
X272848850Y-63067914D01*
X272848850Y-63067914D02*
X272944088Y-63115533D01*
X271753612Y-62829819D02*
X271658374Y-62829819D01*
X271658374Y-62829819D02*
X271563136Y-62877438D01*
X271563136Y-62877438D02*
X271515517Y-62925057D01*
X271515517Y-62925057D02*
X271467898Y-63020295D01*
X271467898Y-63020295D02*
X271420279Y-63210771D01*
X271420279Y-63210771D02*
X271420279Y-63448866D01*
X271420279Y-63448866D02*
X271467898Y-63639342D01*
X271467898Y-63639342D02*
X271515517Y-63734580D01*
X271515517Y-63734580D02*
X271563136Y-63782200D01*
X271563136Y-63782200D02*
X271658374Y-63829819D01*
X271658374Y-63829819D02*
X271753612Y-63829819D01*
X271753612Y-63829819D02*
X271848850Y-63782200D01*
X271848850Y-63782200D02*
X271896469Y-63734580D01*
X271896469Y-63734580D02*
X271944088Y-63639342D01*
X271944088Y-63639342D02*
X271991707Y-63448866D01*
X271991707Y-63448866D02*
X271991707Y-63210771D01*
X271991707Y-63210771D02*
X271944088Y-63020295D01*
X271944088Y-63020295D02*
X271896469Y-62925057D01*
X271896469Y-62925057D02*
X271848850Y-62877438D01*
X271848850Y-62877438D02*
X271753612Y-62829819D01*
X292980377Y-138879819D02*
X292980377Y-137879819D01*
X292980377Y-137879819D02*
X292742282Y-137879819D01*
X292742282Y-137879819D02*
X292599425Y-137927438D01*
X292599425Y-137927438D02*
X292504187Y-138022676D01*
X292504187Y-138022676D02*
X292456568Y-138117914D01*
X292456568Y-138117914D02*
X292408949Y-138308390D01*
X292408949Y-138308390D02*
X292408949Y-138451247D01*
X292408949Y-138451247D02*
X292456568Y-138641723D01*
X292456568Y-138641723D02*
X292504187Y-138736961D01*
X292504187Y-138736961D02*
X292599425Y-138832200D01*
X292599425Y-138832200D02*
X292742282Y-138879819D01*
X292742282Y-138879819D02*
X292980377Y-138879819D01*
X291504187Y-137879819D02*
X291980377Y-137879819D01*
X291980377Y-137879819D02*
X292027996Y-138356009D01*
X292027996Y-138356009D02*
X291980377Y-138308390D01*
X291980377Y-138308390D02*
X291885139Y-138260771D01*
X291885139Y-138260771D02*
X291647044Y-138260771D01*
X291647044Y-138260771D02*
X291551806Y-138308390D01*
X291551806Y-138308390D02*
X291504187Y-138356009D01*
X291504187Y-138356009D02*
X291456568Y-138451247D01*
X291456568Y-138451247D02*
X291456568Y-138689342D01*
X291456568Y-138689342D02*
X291504187Y-138784580D01*
X291504187Y-138784580D02*
X291551806Y-138832200D01*
X291551806Y-138832200D02*
X291647044Y-138879819D01*
X291647044Y-138879819D02*
X291885139Y-138879819D01*
X291885139Y-138879819D02*
X291980377Y-138832200D01*
X291980377Y-138832200D02*
X292027996Y-138784580D01*
X290980377Y-138879819D02*
X290789901Y-138879819D01*
X290789901Y-138879819D02*
X290694663Y-138832200D01*
X290694663Y-138832200D02*
X290647044Y-138784580D01*
X290647044Y-138784580D02*
X290551806Y-138641723D01*
X290551806Y-138641723D02*
X290504187Y-138451247D01*
X290504187Y-138451247D02*
X290504187Y-138070295D01*
X290504187Y-138070295D02*
X290551806Y-137975057D01*
X290551806Y-137975057D02*
X290599425Y-137927438D01*
X290599425Y-137927438D02*
X290694663Y-137879819D01*
X290694663Y-137879819D02*
X290885139Y-137879819D01*
X290885139Y-137879819D02*
X290980377Y-137927438D01*
X290980377Y-137927438D02*
X291027996Y-137975057D01*
X291027996Y-137975057D02*
X291075615Y-138070295D01*
X291075615Y-138070295D02*
X291075615Y-138308390D01*
X291075615Y-138308390D02*
X291027996Y-138403628D01*
X291027996Y-138403628D02*
X290980377Y-138451247D01*
X290980377Y-138451247D02*
X290885139Y-138498866D01*
X290885139Y-138498866D02*
X290694663Y-138498866D01*
X290694663Y-138498866D02*
X290599425Y-138451247D01*
X290599425Y-138451247D02*
X290551806Y-138403628D01*
X290551806Y-138403628D02*
X290504187Y-138308390D01*
X65380377Y-82879819D02*
X65380377Y-81879819D01*
X65380377Y-81879819D02*
X65142282Y-81879819D01*
X65142282Y-81879819D02*
X64999425Y-81927438D01*
X64999425Y-81927438D02*
X64904187Y-82022676D01*
X64904187Y-82022676D02*
X64856568Y-82117914D01*
X64856568Y-82117914D02*
X64808949Y-82308390D01*
X64808949Y-82308390D02*
X64808949Y-82451247D01*
X64808949Y-82451247D02*
X64856568Y-82641723D01*
X64856568Y-82641723D02*
X64904187Y-82736961D01*
X64904187Y-82736961D02*
X64999425Y-82832200D01*
X64999425Y-82832200D02*
X65142282Y-82879819D01*
X65142282Y-82879819D02*
X65380377Y-82879819D01*
X63856568Y-82879819D02*
X64427996Y-82879819D01*
X64142282Y-82879819D02*
X64142282Y-81879819D01*
X64142282Y-81879819D02*
X64237520Y-82022676D01*
X64237520Y-82022676D02*
X64332758Y-82117914D01*
X64332758Y-82117914D02*
X64427996Y-82165533D01*
X62999425Y-82213152D02*
X62999425Y-82879819D01*
X63237520Y-81832200D02*
X63475615Y-82546485D01*
X63475615Y-82546485D02*
X62856568Y-82546485D01*
X122054186Y-63829819D02*
X122054186Y-62829819D01*
X122054186Y-62829819D02*
X121816091Y-62829819D01*
X121816091Y-62829819D02*
X121673234Y-62877438D01*
X121673234Y-62877438D02*
X121577996Y-62972676D01*
X121577996Y-62972676D02*
X121530377Y-63067914D01*
X121530377Y-63067914D02*
X121482758Y-63258390D01*
X121482758Y-63258390D02*
X121482758Y-63401247D01*
X121482758Y-63401247D02*
X121530377Y-63591723D01*
X121530377Y-63591723D02*
X121577996Y-63686961D01*
X121577996Y-63686961D02*
X121673234Y-63782200D01*
X121673234Y-63782200D02*
X121816091Y-63829819D01*
X121816091Y-63829819D02*
X122054186Y-63829819D01*
X120577996Y-62829819D02*
X121054186Y-62829819D01*
X121054186Y-62829819D02*
X121101805Y-63306009D01*
X121101805Y-63306009D02*
X121054186Y-63258390D01*
X121054186Y-63258390D02*
X120958948Y-63210771D01*
X120958948Y-63210771D02*
X120720853Y-63210771D01*
X120720853Y-63210771D02*
X120625615Y-63258390D01*
X120625615Y-63258390D02*
X120577996Y-63306009D01*
X120577996Y-63306009D02*
X120530377Y-63401247D01*
X120530377Y-63401247D02*
X120530377Y-63639342D01*
X120530377Y-63639342D02*
X120577996Y-63734580D01*
X120577996Y-63734580D02*
X120625615Y-63782200D01*
X120625615Y-63782200D02*
X120720853Y-63829819D01*
X120720853Y-63829819D02*
X120958948Y-63829819D01*
X120958948Y-63829819D02*
X121054186Y-63782200D01*
X121054186Y-63782200D02*
X121101805Y-63734580D01*
X65389285Y-140029819D02*
X65389285Y-139029819D01*
X65389285Y-139029819D02*
X65151190Y-139029819D01*
X65151190Y-139029819D02*
X65008333Y-139077438D01*
X65008333Y-139077438D02*
X64913095Y-139172676D01*
X64913095Y-139172676D02*
X64865476Y-139267914D01*
X64865476Y-139267914D02*
X64817857Y-139458390D01*
X64817857Y-139458390D02*
X64817857Y-139601247D01*
X64817857Y-139601247D02*
X64865476Y-139791723D01*
X64865476Y-139791723D02*
X64913095Y-139886961D01*
X64913095Y-139886961D02*
X65008333Y-139982200D01*
X65008333Y-139982200D02*
X65151190Y-140029819D01*
X65151190Y-140029819D02*
X65389285Y-140029819D01*
X63913095Y-139029819D02*
X64389285Y-139029819D01*
X64389285Y-139029819D02*
X64436904Y-139506009D01*
X64436904Y-139506009D02*
X64389285Y-139458390D01*
X64389285Y-139458390D02*
X64294047Y-139410771D01*
X64294047Y-139410771D02*
X64055952Y-139410771D01*
X64055952Y-139410771D02*
X63960714Y-139458390D01*
X63960714Y-139458390D02*
X63913095Y-139506009D01*
X63913095Y-139506009D02*
X63865476Y-139601247D01*
X63865476Y-139601247D02*
X63865476Y-139839342D01*
X63865476Y-139839342D02*
X63913095Y-139934580D01*
X63913095Y-139934580D02*
X63960714Y-139982200D01*
X63960714Y-139982200D02*
X64055952Y-140029819D01*
X64055952Y-140029819D02*
X64294047Y-140029819D01*
X64294047Y-140029819D02*
X64389285Y-139982200D01*
X64389285Y-139982200D02*
X64436904Y-139934580D01*
X63246428Y-139029819D02*
X63151190Y-139029819D01*
X63151190Y-139029819D02*
X63055952Y-139077438D01*
X63055952Y-139077438D02*
X63008333Y-139125057D01*
X63008333Y-139125057D02*
X62960714Y-139220295D01*
X62960714Y-139220295D02*
X62913095Y-139410771D01*
X62913095Y-139410771D02*
X62913095Y-139648866D01*
X62913095Y-139648866D02*
X62960714Y-139839342D01*
X62960714Y-139839342D02*
X63008333Y-139934580D01*
X63008333Y-139934580D02*
X63055952Y-139982200D01*
X63055952Y-139982200D02*
X63151190Y-140029819D01*
X63151190Y-140029819D02*
X63246428Y-140029819D01*
X63246428Y-140029819D02*
X63341666Y-139982200D01*
X63341666Y-139982200D02*
X63389285Y-139934580D01*
X63389285Y-139934580D02*
X63436904Y-139839342D01*
X63436904Y-139839342D02*
X63484523Y-139648866D01*
X63484523Y-139648866D02*
X63484523Y-139410771D01*
X63484523Y-139410771D02*
X63436904Y-139220295D01*
X63436904Y-139220295D02*
X63389285Y-139125057D01*
X63389285Y-139125057D02*
X63341666Y-139077438D01*
X63341666Y-139077438D02*
X63246428Y-139029819D01*
X103004186Y-63804819D02*
X103004186Y-62804819D01*
X103004186Y-62804819D02*
X102766091Y-62804819D01*
X102766091Y-62804819D02*
X102623234Y-62852438D01*
X102623234Y-62852438D02*
X102527996Y-62947676D01*
X102527996Y-62947676D02*
X102480377Y-63042914D01*
X102480377Y-63042914D02*
X102432758Y-63233390D01*
X102432758Y-63233390D02*
X102432758Y-63376247D01*
X102432758Y-63376247D02*
X102480377Y-63566723D01*
X102480377Y-63566723D02*
X102527996Y-63661961D01*
X102527996Y-63661961D02*
X102623234Y-63757200D01*
X102623234Y-63757200D02*
X102766091Y-63804819D01*
X102766091Y-63804819D02*
X103004186Y-63804819D01*
X101575615Y-63138152D02*
X101575615Y-63804819D01*
X101813710Y-62757200D02*
X102051805Y-63471485D01*
X102051805Y-63471485D02*
X101432758Y-63471485D01*
X141589285Y-140004819D02*
X141589285Y-139004819D01*
X141589285Y-139004819D02*
X141351190Y-139004819D01*
X141351190Y-139004819D02*
X141208333Y-139052438D01*
X141208333Y-139052438D02*
X141113095Y-139147676D01*
X141113095Y-139147676D02*
X141065476Y-139242914D01*
X141065476Y-139242914D02*
X141017857Y-139433390D01*
X141017857Y-139433390D02*
X141017857Y-139576247D01*
X141017857Y-139576247D02*
X141065476Y-139766723D01*
X141065476Y-139766723D02*
X141113095Y-139861961D01*
X141113095Y-139861961D02*
X141208333Y-139957200D01*
X141208333Y-139957200D02*
X141351190Y-140004819D01*
X141351190Y-140004819D02*
X141589285Y-140004819D01*
X140113095Y-139004819D02*
X140589285Y-139004819D01*
X140589285Y-139004819D02*
X140636904Y-139481009D01*
X140636904Y-139481009D02*
X140589285Y-139433390D01*
X140589285Y-139433390D02*
X140494047Y-139385771D01*
X140494047Y-139385771D02*
X140255952Y-139385771D01*
X140255952Y-139385771D02*
X140160714Y-139433390D01*
X140160714Y-139433390D02*
X140113095Y-139481009D01*
X140113095Y-139481009D02*
X140065476Y-139576247D01*
X140065476Y-139576247D02*
X140065476Y-139814342D01*
X140065476Y-139814342D02*
X140113095Y-139909580D01*
X140113095Y-139909580D02*
X140160714Y-139957200D01*
X140160714Y-139957200D02*
X140255952Y-140004819D01*
X140255952Y-140004819D02*
X140494047Y-140004819D01*
X140494047Y-140004819D02*
X140589285Y-139957200D01*
X140589285Y-139957200D02*
X140636904Y-139909580D01*
X139208333Y-139338152D02*
X139208333Y-140004819D01*
X139446428Y-138957200D02*
X139684523Y-139671485D01*
X139684523Y-139671485D02*
X139065476Y-139671485D01*
X161420911Y-101085714D02*
X160420911Y-101085714D01*
X160420911Y-101085714D02*
X160420911Y-101323809D01*
X160420911Y-101323809D02*
X160468530Y-101466666D01*
X160468530Y-101466666D02*
X160563768Y-101561904D01*
X160563768Y-101561904D02*
X160659006Y-101609523D01*
X160659006Y-101609523D02*
X160849482Y-101657142D01*
X160849482Y-101657142D02*
X160992339Y-101657142D01*
X160992339Y-101657142D02*
X161182815Y-101609523D01*
X161182815Y-101609523D02*
X161278053Y-101561904D01*
X161278053Y-101561904D02*
X161373292Y-101466666D01*
X161373292Y-101466666D02*
X161420911Y-101323809D01*
X161420911Y-101323809D02*
X161420911Y-101085714D01*
X160420911Y-101990476D02*
X160420911Y-102609523D01*
X160420911Y-102609523D02*
X160801863Y-102276190D01*
X160801863Y-102276190D02*
X160801863Y-102419047D01*
X160801863Y-102419047D02*
X160849482Y-102514285D01*
X160849482Y-102514285D02*
X160897101Y-102561904D01*
X160897101Y-102561904D02*
X160992339Y-102609523D01*
X160992339Y-102609523D02*
X161230434Y-102609523D01*
X161230434Y-102609523D02*
X161325672Y-102561904D01*
X161325672Y-102561904D02*
X161373292Y-102514285D01*
X161373292Y-102514285D02*
X161420911Y-102419047D01*
X161420911Y-102419047D02*
X161420911Y-102133333D01*
X161420911Y-102133333D02*
X161373292Y-102038095D01*
X161373292Y-102038095D02*
X161325672Y-101990476D01*
X161420911Y-103561904D02*
X161420911Y-102990476D01*
X161420911Y-103276190D02*
X160420911Y-103276190D01*
X160420911Y-103276190D02*
X160563768Y-103180952D01*
X160563768Y-103180952D02*
X160659006Y-103085714D01*
X160659006Y-103085714D02*
X160706625Y-102990476D01*
X254998469Y-82879819D02*
X254998469Y-81879819D01*
X254998469Y-81879819D02*
X254760374Y-81879819D01*
X254760374Y-81879819D02*
X254617517Y-81927438D01*
X254617517Y-81927438D02*
X254522279Y-82022676D01*
X254522279Y-82022676D02*
X254474660Y-82117914D01*
X254474660Y-82117914D02*
X254427041Y-82308390D01*
X254427041Y-82308390D02*
X254427041Y-82451247D01*
X254427041Y-82451247D02*
X254474660Y-82641723D01*
X254474660Y-82641723D02*
X254522279Y-82736961D01*
X254522279Y-82736961D02*
X254617517Y-82832200D01*
X254617517Y-82832200D02*
X254760374Y-82879819D01*
X254760374Y-82879819D02*
X254998469Y-82879819D01*
X254046088Y-81975057D02*
X253998469Y-81927438D01*
X253998469Y-81927438D02*
X253903231Y-81879819D01*
X253903231Y-81879819D02*
X253665136Y-81879819D01*
X253665136Y-81879819D02*
X253569898Y-81927438D01*
X253569898Y-81927438D02*
X253522279Y-81975057D01*
X253522279Y-81975057D02*
X253474660Y-82070295D01*
X253474660Y-82070295D02*
X253474660Y-82165533D01*
X253474660Y-82165533D02*
X253522279Y-82308390D01*
X253522279Y-82308390D02*
X254093707Y-82879819D01*
X254093707Y-82879819D02*
X253474660Y-82879819D01*
X252522279Y-82879819D02*
X253093707Y-82879819D01*
X252807993Y-82879819D02*
X252807993Y-81879819D01*
X252807993Y-81879819D02*
X252903231Y-82022676D01*
X252903231Y-82022676D02*
X252998469Y-82117914D01*
X252998469Y-82117914D02*
X253093707Y-82165533D01*
X255670911Y-139160714D02*
X254670911Y-139160714D01*
X254670911Y-139160714D02*
X254670911Y-139398809D01*
X254670911Y-139398809D02*
X254718530Y-139541666D01*
X254718530Y-139541666D02*
X254813768Y-139636904D01*
X254813768Y-139636904D02*
X254909006Y-139684523D01*
X254909006Y-139684523D02*
X255099482Y-139732142D01*
X255099482Y-139732142D02*
X255242339Y-139732142D01*
X255242339Y-139732142D02*
X255432815Y-139684523D01*
X255432815Y-139684523D02*
X255528053Y-139636904D01*
X255528053Y-139636904D02*
X255623292Y-139541666D01*
X255623292Y-139541666D02*
X255670911Y-139398809D01*
X255670911Y-139398809D02*
X255670911Y-139160714D01*
X254670911Y-140636904D02*
X254670911Y-140160714D01*
X254670911Y-140160714D02*
X255147101Y-140113095D01*
X255147101Y-140113095D02*
X255099482Y-140160714D01*
X255099482Y-140160714D02*
X255051863Y-140255952D01*
X255051863Y-140255952D02*
X255051863Y-140494047D01*
X255051863Y-140494047D02*
X255099482Y-140589285D01*
X255099482Y-140589285D02*
X255147101Y-140636904D01*
X255147101Y-140636904D02*
X255242339Y-140684523D01*
X255242339Y-140684523D02*
X255480434Y-140684523D01*
X255480434Y-140684523D02*
X255575672Y-140636904D01*
X255575672Y-140636904D02*
X255623292Y-140589285D01*
X255623292Y-140589285D02*
X255670911Y-140494047D01*
X255670911Y-140494047D02*
X255670911Y-140255952D01*
X255670911Y-140255952D02*
X255623292Y-140160714D01*
X255623292Y-140160714D02*
X255575672Y-140113095D01*
X254670911Y-141017857D02*
X254670911Y-141684523D01*
X254670911Y-141684523D02*
X255670911Y-141255952D01*
X273896469Y-82879819D02*
X273896469Y-81879819D01*
X273896469Y-81879819D02*
X273658374Y-81879819D01*
X273658374Y-81879819D02*
X273515517Y-81927438D01*
X273515517Y-81927438D02*
X273420279Y-82022676D01*
X273420279Y-82022676D02*
X273372660Y-82117914D01*
X273372660Y-82117914D02*
X273325041Y-82308390D01*
X273325041Y-82308390D02*
X273325041Y-82451247D01*
X273325041Y-82451247D02*
X273372660Y-82641723D01*
X273372660Y-82641723D02*
X273420279Y-82736961D01*
X273420279Y-82736961D02*
X273515517Y-82832200D01*
X273515517Y-82832200D02*
X273658374Y-82879819D01*
X273658374Y-82879819D02*
X273896469Y-82879819D01*
X272944088Y-81975057D02*
X272896469Y-81927438D01*
X272896469Y-81927438D02*
X272801231Y-81879819D01*
X272801231Y-81879819D02*
X272563136Y-81879819D01*
X272563136Y-81879819D02*
X272467898Y-81927438D01*
X272467898Y-81927438D02*
X272420279Y-81975057D01*
X272420279Y-81975057D02*
X272372660Y-82070295D01*
X272372660Y-82070295D02*
X272372660Y-82165533D01*
X272372660Y-82165533D02*
X272420279Y-82308390D01*
X272420279Y-82308390D02*
X272991707Y-82879819D01*
X272991707Y-82879819D02*
X272372660Y-82879819D01*
X271991707Y-81975057D02*
X271944088Y-81927438D01*
X271944088Y-81927438D02*
X271848850Y-81879819D01*
X271848850Y-81879819D02*
X271610755Y-81879819D01*
X271610755Y-81879819D02*
X271515517Y-81927438D01*
X271515517Y-81927438D02*
X271467898Y-81975057D01*
X271467898Y-81975057D02*
X271420279Y-82070295D01*
X271420279Y-82070295D02*
X271420279Y-82165533D01*
X271420279Y-82165533D02*
X271467898Y-82308390D01*
X271467898Y-82308390D02*
X272039326Y-82879819D01*
X272039326Y-82879819D02*
X271420279Y-82879819D01*
X235805377Y-101929819D02*
X235805377Y-100929819D01*
X235805377Y-100929819D02*
X235567282Y-100929819D01*
X235567282Y-100929819D02*
X235424425Y-100977438D01*
X235424425Y-100977438D02*
X235329187Y-101072676D01*
X235329187Y-101072676D02*
X235281568Y-101167914D01*
X235281568Y-101167914D02*
X235233949Y-101358390D01*
X235233949Y-101358390D02*
X235233949Y-101501247D01*
X235233949Y-101501247D02*
X235281568Y-101691723D01*
X235281568Y-101691723D02*
X235329187Y-101786961D01*
X235329187Y-101786961D02*
X235424425Y-101882200D01*
X235424425Y-101882200D02*
X235567282Y-101929819D01*
X235567282Y-101929819D02*
X235805377Y-101929819D01*
X234900615Y-100929819D02*
X234281568Y-100929819D01*
X234281568Y-100929819D02*
X234614901Y-101310771D01*
X234614901Y-101310771D02*
X234472044Y-101310771D01*
X234472044Y-101310771D02*
X234376806Y-101358390D01*
X234376806Y-101358390D02*
X234329187Y-101406009D01*
X234329187Y-101406009D02*
X234281568Y-101501247D01*
X234281568Y-101501247D02*
X234281568Y-101739342D01*
X234281568Y-101739342D02*
X234329187Y-101834580D01*
X234329187Y-101834580D02*
X234376806Y-101882200D01*
X234376806Y-101882200D02*
X234472044Y-101929819D01*
X234472044Y-101929819D02*
X234757758Y-101929819D01*
X234757758Y-101929819D02*
X234852996Y-101882200D01*
X234852996Y-101882200D02*
X234900615Y-101834580D01*
X233900615Y-101025057D02*
X233852996Y-100977438D01*
X233852996Y-100977438D02*
X233757758Y-100929819D01*
X233757758Y-100929819D02*
X233519663Y-100929819D01*
X233519663Y-100929819D02*
X233424425Y-100977438D01*
X233424425Y-100977438D02*
X233376806Y-101025057D01*
X233376806Y-101025057D02*
X233329187Y-101120295D01*
X233329187Y-101120295D02*
X233329187Y-101215533D01*
X233329187Y-101215533D02*
X233376806Y-101358390D01*
X233376806Y-101358390D02*
X233948234Y-101929819D01*
X233948234Y-101929819D02*
X233329187Y-101929819D01*
X235320278Y-63829819D02*
X235320278Y-62829819D01*
X235320278Y-62829819D02*
X235082183Y-62829819D01*
X235082183Y-62829819D02*
X234939326Y-62877438D01*
X234939326Y-62877438D02*
X234844088Y-62972676D01*
X234844088Y-62972676D02*
X234796469Y-63067914D01*
X234796469Y-63067914D02*
X234748850Y-63258390D01*
X234748850Y-63258390D02*
X234748850Y-63401247D01*
X234748850Y-63401247D02*
X234796469Y-63591723D01*
X234796469Y-63591723D02*
X234844088Y-63686961D01*
X234844088Y-63686961D02*
X234939326Y-63782200D01*
X234939326Y-63782200D02*
X235082183Y-63829819D01*
X235082183Y-63829819D02*
X235320278Y-63829819D01*
X234177421Y-63258390D02*
X234272659Y-63210771D01*
X234272659Y-63210771D02*
X234320278Y-63163152D01*
X234320278Y-63163152D02*
X234367897Y-63067914D01*
X234367897Y-63067914D02*
X234367897Y-63020295D01*
X234367897Y-63020295D02*
X234320278Y-62925057D01*
X234320278Y-62925057D02*
X234272659Y-62877438D01*
X234272659Y-62877438D02*
X234177421Y-62829819D01*
X234177421Y-62829819D02*
X233986945Y-62829819D01*
X233986945Y-62829819D02*
X233891707Y-62877438D01*
X233891707Y-62877438D02*
X233844088Y-62925057D01*
X233844088Y-62925057D02*
X233796469Y-63020295D01*
X233796469Y-63020295D02*
X233796469Y-63067914D01*
X233796469Y-63067914D02*
X233844088Y-63163152D01*
X233844088Y-63163152D02*
X233891707Y-63210771D01*
X233891707Y-63210771D02*
X233986945Y-63258390D01*
X233986945Y-63258390D02*
X234177421Y-63258390D01*
X234177421Y-63258390D02*
X234272659Y-63306009D01*
X234272659Y-63306009D02*
X234320278Y-63353628D01*
X234320278Y-63353628D02*
X234367897Y-63448866D01*
X234367897Y-63448866D02*
X234367897Y-63639342D01*
X234367897Y-63639342D02*
X234320278Y-63734580D01*
X234320278Y-63734580D02*
X234272659Y-63782200D01*
X234272659Y-63782200D02*
X234177421Y-63829819D01*
X234177421Y-63829819D02*
X233986945Y-63829819D01*
X233986945Y-63829819D02*
X233891707Y-63782200D01*
X233891707Y-63782200D02*
X233844088Y-63734580D01*
X233844088Y-63734580D02*
X233796469Y-63639342D01*
X233796469Y-63639342D02*
X233796469Y-63448866D01*
X233796469Y-63448866D02*
X233844088Y-63353628D01*
X233844088Y-63353628D02*
X233891707Y-63306009D01*
X233891707Y-63306009D02*
X233986945Y-63258390D01*
X331030377Y-100604819D02*
X331030377Y-99604819D01*
X331030377Y-99604819D02*
X330792282Y-99604819D01*
X330792282Y-99604819D02*
X330649425Y-99652438D01*
X330649425Y-99652438D02*
X330554187Y-99747676D01*
X330554187Y-99747676D02*
X330506568Y-99842914D01*
X330506568Y-99842914D02*
X330458949Y-100033390D01*
X330458949Y-100033390D02*
X330458949Y-100176247D01*
X330458949Y-100176247D02*
X330506568Y-100366723D01*
X330506568Y-100366723D02*
X330554187Y-100461961D01*
X330554187Y-100461961D02*
X330649425Y-100557200D01*
X330649425Y-100557200D02*
X330792282Y-100604819D01*
X330792282Y-100604819D02*
X331030377Y-100604819D01*
X330125615Y-99604819D02*
X329506568Y-99604819D01*
X329506568Y-99604819D02*
X329839901Y-99985771D01*
X329839901Y-99985771D02*
X329697044Y-99985771D01*
X329697044Y-99985771D02*
X329601806Y-100033390D01*
X329601806Y-100033390D02*
X329554187Y-100081009D01*
X329554187Y-100081009D02*
X329506568Y-100176247D01*
X329506568Y-100176247D02*
X329506568Y-100414342D01*
X329506568Y-100414342D02*
X329554187Y-100509580D01*
X329554187Y-100509580D02*
X329601806Y-100557200D01*
X329601806Y-100557200D02*
X329697044Y-100604819D01*
X329697044Y-100604819D02*
X329982758Y-100604819D01*
X329982758Y-100604819D02*
X330077996Y-100557200D01*
X330077996Y-100557200D02*
X330125615Y-100509580D01*
X329173234Y-99604819D02*
X328506568Y-99604819D01*
X328506568Y-99604819D02*
X328935139Y-100604819D01*
X254370278Y-63829819D02*
X254370278Y-62829819D01*
X254370278Y-62829819D02*
X254132183Y-62829819D01*
X254132183Y-62829819D02*
X253989326Y-62877438D01*
X253989326Y-62877438D02*
X253894088Y-62972676D01*
X253894088Y-62972676D02*
X253846469Y-63067914D01*
X253846469Y-63067914D02*
X253798850Y-63258390D01*
X253798850Y-63258390D02*
X253798850Y-63401247D01*
X253798850Y-63401247D02*
X253846469Y-63591723D01*
X253846469Y-63591723D02*
X253894088Y-63686961D01*
X253894088Y-63686961D02*
X253989326Y-63782200D01*
X253989326Y-63782200D02*
X254132183Y-63829819D01*
X254132183Y-63829819D02*
X254370278Y-63829819D01*
X253322659Y-63829819D02*
X253132183Y-63829819D01*
X253132183Y-63829819D02*
X253036945Y-63782200D01*
X253036945Y-63782200D02*
X252989326Y-63734580D01*
X252989326Y-63734580D02*
X252894088Y-63591723D01*
X252894088Y-63591723D02*
X252846469Y-63401247D01*
X252846469Y-63401247D02*
X252846469Y-63020295D01*
X252846469Y-63020295D02*
X252894088Y-62925057D01*
X252894088Y-62925057D02*
X252941707Y-62877438D01*
X252941707Y-62877438D02*
X253036945Y-62829819D01*
X253036945Y-62829819D02*
X253227421Y-62829819D01*
X253227421Y-62829819D02*
X253322659Y-62877438D01*
X253322659Y-62877438D02*
X253370278Y-62925057D01*
X253370278Y-62925057D02*
X253417897Y-63020295D01*
X253417897Y-63020295D02*
X253417897Y-63258390D01*
X253417897Y-63258390D02*
X253370278Y-63353628D01*
X253370278Y-63353628D02*
X253322659Y-63401247D01*
X253322659Y-63401247D02*
X253227421Y-63448866D01*
X253227421Y-63448866D02*
X253036945Y-63448866D01*
X253036945Y-63448866D02*
X252941707Y-63401247D01*
X252941707Y-63401247D02*
X252894088Y-63353628D01*
X252894088Y-63353628D02*
X252846469Y-63258390D01*
X311996469Y-82879819D02*
X311996469Y-81879819D01*
X311996469Y-81879819D02*
X311758374Y-81879819D01*
X311758374Y-81879819D02*
X311615517Y-81927438D01*
X311615517Y-81927438D02*
X311520279Y-82022676D01*
X311520279Y-82022676D02*
X311472660Y-82117914D01*
X311472660Y-82117914D02*
X311425041Y-82308390D01*
X311425041Y-82308390D02*
X311425041Y-82451247D01*
X311425041Y-82451247D02*
X311472660Y-82641723D01*
X311472660Y-82641723D02*
X311520279Y-82736961D01*
X311520279Y-82736961D02*
X311615517Y-82832200D01*
X311615517Y-82832200D02*
X311758374Y-82879819D01*
X311758374Y-82879819D02*
X311996469Y-82879819D01*
X311044088Y-81975057D02*
X310996469Y-81927438D01*
X310996469Y-81927438D02*
X310901231Y-81879819D01*
X310901231Y-81879819D02*
X310663136Y-81879819D01*
X310663136Y-81879819D02*
X310567898Y-81927438D01*
X310567898Y-81927438D02*
X310520279Y-81975057D01*
X310520279Y-81975057D02*
X310472660Y-82070295D01*
X310472660Y-82070295D02*
X310472660Y-82165533D01*
X310472660Y-82165533D02*
X310520279Y-82308390D01*
X310520279Y-82308390D02*
X311091707Y-82879819D01*
X311091707Y-82879819D02*
X310472660Y-82879819D01*
X309615517Y-82213152D02*
X309615517Y-82879819D01*
X309853612Y-81832200D02*
X310091707Y-82546485D01*
X310091707Y-82546485D02*
X309472660Y-82546485D01*
X160630377Y-82879819D02*
X160630377Y-81879819D01*
X160630377Y-81879819D02*
X160392282Y-81879819D01*
X160392282Y-81879819D02*
X160249425Y-81927438D01*
X160249425Y-81927438D02*
X160154187Y-82022676D01*
X160154187Y-82022676D02*
X160106568Y-82117914D01*
X160106568Y-82117914D02*
X160058949Y-82308390D01*
X160058949Y-82308390D02*
X160058949Y-82451247D01*
X160058949Y-82451247D02*
X160106568Y-82641723D01*
X160106568Y-82641723D02*
X160154187Y-82736961D01*
X160154187Y-82736961D02*
X160249425Y-82832200D01*
X160249425Y-82832200D02*
X160392282Y-82879819D01*
X160392282Y-82879819D02*
X160630377Y-82879819D01*
X159106568Y-82879819D02*
X159677996Y-82879819D01*
X159392282Y-82879819D02*
X159392282Y-81879819D01*
X159392282Y-81879819D02*
X159487520Y-82022676D01*
X159487520Y-82022676D02*
X159582758Y-82117914D01*
X159582758Y-82117914D02*
X159677996Y-82165533D01*
X158630377Y-82879819D02*
X158439901Y-82879819D01*
X158439901Y-82879819D02*
X158344663Y-82832200D01*
X158344663Y-82832200D02*
X158297044Y-82784580D01*
X158297044Y-82784580D02*
X158201806Y-82641723D01*
X158201806Y-82641723D02*
X158154187Y-82451247D01*
X158154187Y-82451247D02*
X158154187Y-82070295D01*
X158154187Y-82070295D02*
X158201806Y-81975057D01*
X158201806Y-81975057D02*
X158249425Y-81927438D01*
X158249425Y-81927438D02*
X158344663Y-81879819D01*
X158344663Y-81879819D02*
X158535139Y-81879819D01*
X158535139Y-81879819D02*
X158630377Y-81927438D01*
X158630377Y-81927438D02*
X158677996Y-81975057D01*
X158677996Y-81975057D02*
X158725615Y-82070295D01*
X158725615Y-82070295D02*
X158725615Y-82308390D01*
X158725615Y-82308390D02*
X158677996Y-82403628D01*
X158677996Y-82403628D02*
X158630377Y-82451247D01*
X158630377Y-82451247D02*
X158535139Y-82498866D01*
X158535139Y-82498866D02*
X158344663Y-82498866D01*
X158344663Y-82498866D02*
X158249425Y-82451247D01*
X158249425Y-82451247D02*
X158201806Y-82403628D01*
X158201806Y-82403628D02*
X158154187Y-82308390D01*
X254855377Y-101904819D02*
X254855377Y-100904819D01*
X254855377Y-100904819D02*
X254617282Y-100904819D01*
X254617282Y-100904819D02*
X254474425Y-100952438D01*
X254474425Y-100952438D02*
X254379187Y-101047676D01*
X254379187Y-101047676D02*
X254331568Y-101142914D01*
X254331568Y-101142914D02*
X254283949Y-101333390D01*
X254283949Y-101333390D02*
X254283949Y-101476247D01*
X254283949Y-101476247D02*
X254331568Y-101666723D01*
X254331568Y-101666723D02*
X254379187Y-101761961D01*
X254379187Y-101761961D02*
X254474425Y-101857200D01*
X254474425Y-101857200D02*
X254617282Y-101904819D01*
X254617282Y-101904819D02*
X254855377Y-101904819D01*
X253950615Y-100904819D02*
X253331568Y-100904819D01*
X253331568Y-100904819D02*
X253664901Y-101285771D01*
X253664901Y-101285771D02*
X253522044Y-101285771D01*
X253522044Y-101285771D02*
X253426806Y-101333390D01*
X253426806Y-101333390D02*
X253379187Y-101381009D01*
X253379187Y-101381009D02*
X253331568Y-101476247D01*
X253331568Y-101476247D02*
X253331568Y-101714342D01*
X253331568Y-101714342D02*
X253379187Y-101809580D01*
X253379187Y-101809580D02*
X253426806Y-101857200D01*
X253426806Y-101857200D02*
X253522044Y-101904819D01*
X253522044Y-101904819D02*
X253807758Y-101904819D01*
X253807758Y-101904819D02*
X253902996Y-101857200D01*
X253902996Y-101857200D02*
X253950615Y-101809580D01*
X252998234Y-100904819D02*
X252379187Y-100904819D01*
X252379187Y-100904819D02*
X252712520Y-101285771D01*
X252712520Y-101285771D02*
X252569663Y-101285771D01*
X252569663Y-101285771D02*
X252474425Y-101333390D01*
X252474425Y-101333390D02*
X252426806Y-101381009D01*
X252426806Y-101381009D02*
X252379187Y-101476247D01*
X252379187Y-101476247D02*
X252379187Y-101714342D01*
X252379187Y-101714342D02*
X252426806Y-101809580D01*
X252426806Y-101809580D02*
X252474425Y-101857200D01*
X252474425Y-101857200D02*
X252569663Y-101904819D01*
X252569663Y-101904819D02*
X252855377Y-101904819D01*
X252855377Y-101904819D02*
X252950615Y-101857200D01*
X252950615Y-101857200D02*
X252998234Y-101809580D01*
X103489285Y-140029819D02*
X103489285Y-139029819D01*
X103489285Y-139029819D02*
X103251190Y-139029819D01*
X103251190Y-139029819D02*
X103108333Y-139077438D01*
X103108333Y-139077438D02*
X103013095Y-139172676D01*
X103013095Y-139172676D02*
X102965476Y-139267914D01*
X102965476Y-139267914D02*
X102917857Y-139458390D01*
X102917857Y-139458390D02*
X102917857Y-139601247D01*
X102917857Y-139601247D02*
X102965476Y-139791723D01*
X102965476Y-139791723D02*
X103013095Y-139886961D01*
X103013095Y-139886961D02*
X103108333Y-139982200D01*
X103108333Y-139982200D02*
X103251190Y-140029819D01*
X103251190Y-140029819D02*
X103489285Y-140029819D01*
X102013095Y-139029819D02*
X102489285Y-139029819D01*
X102489285Y-139029819D02*
X102536904Y-139506009D01*
X102536904Y-139506009D02*
X102489285Y-139458390D01*
X102489285Y-139458390D02*
X102394047Y-139410771D01*
X102394047Y-139410771D02*
X102155952Y-139410771D01*
X102155952Y-139410771D02*
X102060714Y-139458390D01*
X102060714Y-139458390D02*
X102013095Y-139506009D01*
X102013095Y-139506009D02*
X101965476Y-139601247D01*
X101965476Y-139601247D02*
X101965476Y-139839342D01*
X101965476Y-139839342D02*
X102013095Y-139934580D01*
X102013095Y-139934580D02*
X102060714Y-139982200D01*
X102060714Y-139982200D02*
X102155952Y-140029819D01*
X102155952Y-140029819D02*
X102394047Y-140029819D01*
X102394047Y-140029819D02*
X102489285Y-139982200D01*
X102489285Y-139982200D02*
X102536904Y-139934580D01*
X101584523Y-139125057D02*
X101536904Y-139077438D01*
X101536904Y-139077438D02*
X101441666Y-139029819D01*
X101441666Y-139029819D02*
X101203571Y-139029819D01*
X101203571Y-139029819D02*
X101108333Y-139077438D01*
X101108333Y-139077438D02*
X101060714Y-139125057D01*
X101060714Y-139125057D02*
X101013095Y-139220295D01*
X101013095Y-139220295D02*
X101013095Y-139315533D01*
X101013095Y-139315533D02*
X101060714Y-139458390D01*
X101060714Y-139458390D02*
X101632142Y-140029819D01*
X101632142Y-140029819D02*
X101013095Y-140029819D01*
X160639285Y-120979819D02*
X160639285Y-119979819D01*
X160639285Y-119979819D02*
X160401190Y-119979819D01*
X160401190Y-119979819D02*
X160258333Y-120027438D01*
X160258333Y-120027438D02*
X160163095Y-120122676D01*
X160163095Y-120122676D02*
X160115476Y-120217914D01*
X160115476Y-120217914D02*
X160067857Y-120408390D01*
X160067857Y-120408390D02*
X160067857Y-120551247D01*
X160067857Y-120551247D02*
X160115476Y-120741723D01*
X160115476Y-120741723D02*
X160163095Y-120836961D01*
X160163095Y-120836961D02*
X160258333Y-120932200D01*
X160258333Y-120932200D02*
X160401190Y-120979819D01*
X160401190Y-120979819D02*
X160639285Y-120979819D01*
X159210714Y-120313152D02*
X159210714Y-120979819D01*
X159448809Y-119932200D02*
X159686904Y-120646485D01*
X159686904Y-120646485D02*
X159067857Y-120646485D01*
X158782142Y-119979819D02*
X158163095Y-119979819D01*
X158163095Y-119979819D02*
X158496428Y-120360771D01*
X158496428Y-120360771D02*
X158353571Y-120360771D01*
X158353571Y-120360771D02*
X158258333Y-120408390D01*
X158258333Y-120408390D02*
X158210714Y-120456009D01*
X158210714Y-120456009D02*
X158163095Y-120551247D01*
X158163095Y-120551247D02*
X158163095Y-120789342D01*
X158163095Y-120789342D02*
X158210714Y-120884580D01*
X158210714Y-120884580D02*
X158258333Y-120932200D01*
X158258333Y-120932200D02*
X158353571Y-120979819D01*
X158353571Y-120979819D02*
X158639285Y-120979819D01*
X158639285Y-120979819D02*
X158734523Y-120932200D01*
X158734523Y-120932200D02*
X158782142Y-120884580D01*
%TO.C,D30*%
X141116092Y-103450000D02*
X140716092Y-103450000D01*
X140716092Y-103450000D02*
X140716092Y-104000000D01*
X140716092Y-103450000D02*
X140716092Y-102900000D01*
X140716092Y-103450000D02*
X140116092Y-103050000D01*
X140116092Y-103850000D02*
X140716092Y-103450000D01*
X140116092Y-103450000D02*
X139616092Y-103450000D01*
X140116092Y-103050000D02*
X140116092Y-103850000D01*
%TO.C,D48*%
X311541092Y-122525000D02*
X311141092Y-122525000D01*
X311141092Y-122525000D02*
X311141092Y-123075000D01*
X311141092Y-122525000D02*
X311141092Y-121975000D01*
X311141092Y-122525000D02*
X310541092Y-122125000D01*
X310541092Y-122925000D02*
X311141092Y-122525000D01*
X310541092Y-122525000D02*
X310041092Y-122525000D01*
X310541092Y-122125000D02*
X310541092Y-122925000D01*
%TO.C,D18*%
X141116092Y-84400000D02*
X140716092Y-84400000D01*
X140716092Y-84400000D02*
X140716092Y-84950000D01*
X140716092Y-84400000D02*
X140716092Y-83850000D01*
X140716092Y-84400000D02*
X140116092Y-84000000D01*
X140116092Y-84800000D02*
X140716092Y-84400000D01*
X140116092Y-84400000D02*
X139616092Y-84400000D01*
X140116092Y-84000000D02*
X140116092Y-84800000D01*
%TO.C,D25*%
X330607184Y-84400000D02*
X330207184Y-84400000D01*
X330207184Y-84400000D02*
X330207184Y-84950000D01*
X330207184Y-84400000D02*
X330207184Y-83850000D01*
X330207184Y-84400000D02*
X329607184Y-84000000D01*
X329607184Y-84800000D02*
X330207184Y-84400000D01*
X329607184Y-84400000D02*
X329107184Y-84400000D01*
X329607184Y-84000000D02*
X329607184Y-84800000D01*
%TO.C,D36*%
X311566092Y-103425000D02*
X311166092Y-103425000D01*
X311166092Y-103425000D02*
X311166092Y-103975000D01*
X311166092Y-103425000D02*
X311166092Y-102875000D01*
X311166092Y-103425000D02*
X310566092Y-103025000D01*
X310566092Y-103825000D02*
X311166092Y-103425000D01*
X310566092Y-103425000D02*
X310066092Y-103425000D01*
X310566092Y-103025000D02*
X310566092Y-103825000D01*
%TO.C,D55*%
X163016542Y-141124308D02*
X163016542Y-140724308D01*
X163016542Y-140724308D02*
X162466542Y-140724308D01*
X163016542Y-140724308D02*
X163566542Y-140724308D01*
X163016542Y-140724308D02*
X163416542Y-140124308D01*
X162616542Y-140124308D02*
X163016542Y-140724308D01*
X163016542Y-140124308D02*
X163016542Y-139624308D01*
X163416542Y-140124308D02*
X162616542Y-140124308D01*
%TO.C,D49*%
X330591092Y-122525000D02*
X330191092Y-122525000D01*
X330191092Y-122525000D02*
X330191092Y-123075000D01*
X330191092Y-122525000D02*
X330191092Y-121975000D01*
X330191092Y-122525000D02*
X329591092Y-122125000D01*
X329591092Y-122925000D02*
X330191092Y-122525000D01*
X329591092Y-122525000D02*
X329091092Y-122525000D01*
X329591092Y-122125000D02*
X329591092Y-122925000D01*
%TO.C,D28*%
X103041092Y-103475000D02*
X102641092Y-103475000D01*
X102641092Y-103475000D02*
X102641092Y-104025000D01*
X102641092Y-103475000D02*
X102641092Y-102925000D01*
X102641092Y-103475000D02*
X102041092Y-103075000D01*
X102041092Y-103875000D02*
X102641092Y-103475000D01*
X102041092Y-103475000D02*
X101541092Y-103475000D01*
X102041092Y-103075000D02*
X102041092Y-103875000D01*
%TO.C,D34*%
X273441092Y-103500000D02*
X273041092Y-103500000D01*
X273041092Y-103500000D02*
X273041092Y-104050000D01*
X273041092Y-103500000D02*
X273041092Y-102950000D01*
X273041092Y-103500000D02*
X272441092Y-103100000D01*
X272441092Y-103900000D02*
X273041092Y-103500000D01*
X272441092Y-103500000D02*
X271941092Y-103500000D01*
X272441092Y-103100000D02*
X272441092Y-103900000D01*
%TO.C,D20*%
X235484184Y-84425000D02*
X235084184Y-84425000D01*
X235084184Y-84425000D02*
X235084184Y-84975000D01*
X235084184Y-84425000D02*
X235084184Y-83875000D01*
X235084184Y-84425000D02*
X234484184Y-84025000D01*
X234484184Y-84825000D02*
X235084184Y-84425000D01*
X234484184Y-84425000D02*
X233984184Y-84425000D01*
X234484184Y-84025000D02*
X234484184Y-84825000D01*
D11*
%TO.C,J2*%
X223651092Y-121990000D02*
X215231092Y-121990000D01*
X216451092Y-121990000D02*
X216451092Y-123210000D01*
X215231092Y-121990000D02*
X215231092Y-132210000D01*
X223651092Y-123210000D02*
X223651092Y-121990000D01*
X221451092Y-123210000D02*
X221451092Y-121990000D01*
X221451092Y-123210000D02*
X223651092Y-123210000D01*
X220451092Y-123210000D02*
X220451092Y-130990000D01*
X216451092Y-123210000D02*
X221451092Y-123210000D01*
X220451092Y-124280000D02*
X217031092Y-124280000D01*
X217031092Y-124280000D02*
X216951092Y-124600000D01*
X224141092Y-124300000D02*
X224141092Y-124900000D01*
X223541092Y-124600000D02*
X224141092Y-124300000D01*
X220451092Y-124600000D02*
X220451092Y-124280000D01*
X216951092Y-124600000D02*
X217031092Y-124920000D01*
X224141092Y-124900000D02*
X223541092Y-124600000D01*
X220451092Y-124920000D02*
X220451092Y-124600000D01*
X217031092Y-124920000D02*
X220451092Y-124920000D01*
X221451092Y-125770000D02*
X221451092Y-125930000D01*
X220451092Y-126780000D02*
X217031092Y-126780000D01*
X217031092Y-126780000D02*
X216951092Y-127100000D01*
X220451092Y-127100000D02*
X220451092Y-126780000D01*
X216951092Y-127100000D02*
X217031092Y-127420000D01*
X220451092Y-127420000D02*
X220451092Y-127100000D01*
X217031092Y-127420000D02*
X220451092Y-127420000D01*
X221451092Y-128270000D02*
X221451092Y-128430000D01*
X220451092Y-129280000D02*
X217031092Y-129280000D01*
X217031092Y-129280000D02*
X216951092Y-129600000D01*
X220451092Y-129600000D02*
X220451092Y-129280000D01*
X216951092Y-129600000D02*
X217031092Y-129920000D01*
X220451092Y-129920000D02*
X220451092Y-129600000D01*
X217031092Y-129920000D02*
X220451092Y-129920000D01*
X223651092Y-130990000D02*
X221451092Y-130990000D01*
X221451092Y-130990000D02*
X221451092Y-132210000D01*
X216451092Y-130990000D02*
X221451092Y-130990000D01*
X223651092Y-132210000D02*
X223651092Y-130990000D01*
X216451092Y-132210000D02*
X216451092Y-130990000D01*
X215231092Y-132210000D02*
X223651092Y-132210000D01*
D10*
%TO.C,D44*%
X235366092Y-122525000D02*
X234966092Y-122525000D01*
X234966092Y-122525000D02*
X234966092Y-123075000D01*
X234966092Y-122525000D02*
X234966092Y-121975000D01*
X234966092Y-122525000D02*
X234366092Y-122125000D01*
X234366092Y-122925000D02*
X234966092Y-122525000D01*
X234366092Y-122525000D02*
X233866092Y-122525000D01*
X234366092Y-122125000D02*
X234366092Y-122925000D01*
%TO.C,D2*%
X64916092Y-65350000D02*
X64516092Y-65350000D01*
X64516092Y-65350000D02*
X64516092Y-65900000D01*
X64516092Y-65350000D02*
X64516092Y-64800000D01*
X64516092Y-65350000D02*
X63916092Y-64950000D01*
X63916092Y-65750000D02*
X64516092Y-65350000D01*
X63916092Y-65350000D02*
X63416092Y-65350000D01*
X63916092Y-64950000D02*
X63916092Y-65750000D01*
%TO.C,D40*%
X103025000Y-122525000D02*
X102625000Y-122525000D01*
X102625000Y-122525000D02*
X102625000Y-123075000D01*
X102625000Y-122525000D02*
X102625000Y-121975000D01*
X102625000Y-122525000D02*
X102025000Y-122125000D01*
X102025000Y-122925000D02*
X102625000Y-122525000D01*
X102025000Y-122525000D02*
X101525000Y-122525000D01*
X102025000Y-122125000D02*
X102025000Y-122925000D01*
%TO.C,D6*%
X141116092Y-65350000D02*
X140716092Y-65350000D01*
X140716092Y-65350000D02*
X140716092Y-65900000D01*
X140716092Y-65350000D02*
X140716092Y-64800000D01*
X140716092Y-65350000D02*
X140116092Y-64950000D01*
X140116092Y-65750000D02*
X140716092Y-65350000D01*
X140116092Y-65350000D02*
X139616092Y-65350000D01*
X140116092Y-64950000D02*
X140116092Y-65750000D01*
%TO.C,D29*%
X122066092Y-103475000D02*
X121666092Y-103475000D01*
X121666092Y-103475000D02*
X121666092Y-104025000D01*
X121666092Y-103475000D02*
X121666092Y-102925000D01*
X121666092Y-103475000D02*
X121066092Y-103075000D01*
X121066092Y-103875000D02*
X121666092Y-103475000D01*
X121066092Y-103475000D02*
X120566092Y-103475000D01*
X121066092Y-103075000D02*
X121066092Y-103875000D01*
%TO.C,D46*%
X273441092Y-122525000D02*
X273041092Y-122525000D01*
X273041092Y-122525000D02*
X273041092Y-123075000D01*
X273041092Y-122525000D02*
X273041092Y-121975000D01*
X273041092Y-122525000D02*
X272441092Y-122125000D01*
X272441092Y-122925000D02*
X273041092Y-122525000D01*
X272441092Y-122525000D02*
X271941092Y-122525000D01*
X272441092Y-122125000D02*
X272441092Y-122925000D01*
%TO.C,D12*%
X311557184Y-65350000D02*
X311157184Y-65350000D01*
X311157184Y-65350000D02*
X311157184Y-65900000D01*
X311157184Y-65350000D02*
X311157184Y-64800000D01*
X311157184Y-65350000D02*
X310557184Y-64950000D01*
X310557184Y-65750000D02*
X311157184Y-65350000D01*
X310557184Y-65350000D02*
X310057184Y-65350000D01*
X310557184Y-64950000D02*
X310557184Y-65750000D01*
%TO.C,U1*%
X195916092Y-53580000D02*
X195916092Y-50000000D01*
X188816092Y-53580000D02*
X195916092Y-53580000D01*
X188816092Y-53580000D02*
X188816092Y-50000000D01*
X201256092Y-50000000D02*
X183476092Y-50000000D01*
X183476092Y-50000000D02*
X183476092Y-83020000D01*
X183476092Y-83020000D02*
X201256092Y-83020000D01*
X201256092Y-83020000D02*
X201256092Y-50000000D01*
%TO.C,D56*%
X235341092Y-141575000D02*
X234941092Y-141575000D01*
X234941092Y-141575000D02*
X234941092Y-142125000D01*
X234941092Y-141575000D02*
X234941092Y-141025000D01*
X234941092Y-141575000D02*
X234341092Y-141175000D01*
X234341092Y-141975000D02*
X234941092Y-141575000D01*
X234341092Y-141575000D02*
X233841092Y-141575000D01*
X234341092Y-141175000D02*
X234341092Y-141975000D01*
%TO.C,D17*%
X122066092Y-84425000D02*
X121666092Y-84425000D01*
X121666092Y-84425000D02*
X121666092Y-84975000D01*
X121666092Y-84425000D02*
X121666092Y-83875000D01*
X121666092Y-84425000D02*
X121066092Y-84025000D01*
X121066092Y-84825000D02*
X121666092Y-84425000D01*
X121066092Y-84425000D02*
X120566092Y-84425000D01*
X121066092Y-84025000D02*
X121066092Y-84825000D01*
%TO.C,D26*%
X64916908Y-103472032D02*
X64516908Y-103472032D01*
X64516908Y-103472032D02*
X64516908Y-104022032D01*
X64516908Y-103472032D02*
X64516908Y-102922032D01*
X64516908Y-103472032D02*
X63916908Y-103072032D01*
X63916908Y-103872032D02*
X64516908Y-103472032D01*
X63916908Y-103472032D02*
X63416908Y-103472032D01*
X63916908Y-103072032D02*
X63916908Y-103872032D01*
%TO.C,D60*%
X311541092Y-141575000D02*
X311141092Y-141575000D01*
X311141092Y-141575000D02*
X311141092Y-142125000D01*
X311141092Y-141575000D02*
X311141092Y-141025000D01*
X311141092Y-141575000D02*
X310541092Y-141175000D01*
X310541092Y-141975000D02*
X311141092Y-141575000D01*
X310541092Y-141575000D02*
X310041092Y-141575000D01*
X310541092Y-141175000D02*
X310541092Y-141975000D01*
%TO.C,D27*%
X83966092Y-103475000D02*
X83566092Y-103475000D01*
X83566092Y-103475000D02*
X83566092Y-104025000D01*
X83566092Y-103475000D02*
X83566092Y-102925000D01*
X83566092Y-103475000D02*
X82966092Y-103075000D01*
X82966092Y-103875000D02*
X83566092Y-103475000D01*
X82966092Y-103475000D02*
X82466092Y-103475000D01*
X82966092Y-103075000D02*
X82966092Y-103875000D01*
%TO.C,D38*%
X64950000Y-122500000D02*
X64550000Y-122500000D01*
X64550000Y-122500000D02*
X64550000Y-123050000D01*
X64550000Y-122500000D02*
X64550000Y-121950000D01*
X64550000Y-122500000D02*
X63950000Y-122100000D01*
X63950000Y-122900000D02*
X64550000Y-122500000D01*
X63950000Y-122500000D02*
X63450000Y-122500000D01*
X63950000Y-122100000D02*
X63950000Y-122900000D01*
%TO.C,D23*%
X292482184Y-84400000D02*
X292082184Y-84400000D01*
X292082184Y-84400000D02*
X292082184Y-84950000D01*
X292082184Y-84400000D02*
X292082184Y-83850000D01*
X292082184Y-84400000D02*
X291482184Y-84000000D01*
X291482184Y-84800000D02*
X292082184Y-84400000D01*
X291482184Y-84400000D02*
X290982184Y-84400000D01*
X291482184Y-84000000D02*
X291482184Y-84800000D01*
%TO.C,D16*%
X103016092Y-84425000D02*
X102616092Y-84425000D01*
X102616092Y-84425000D02*
X102616092Y-84975000D01*
X102616092Y-84425000D02*
X102616092Y-83875000D01*
X102616092Y-84425000D02*
X102016092Y-84025000D01*
X102016092Y-84825000D02*
X102616092Y-84425000D01*
X102016092Y-84425000D02*
X101516092Y-84425000D01*
X102016092Y-84025000D02*
X102016092Y-84825000D01*
%TO.C,D7*%
X160166092Y-65375000D02*
X159766092Y-65375000D01*
X159766092Y-65375000D02*
X159766092Y-65925000D01*
X159766092Y-65375000D02*
X159766092Y-64825000D01*
X159766092Y-65375000D02*
X159166092Y-64975000D01*
X159166092Y-65775000D02*
X159766092Y-65375000D01*
X159166092Y-65375000D02*
X158666092Y-65375000D01*
X159166092Y-64975000D02*
X159166092Y-65775000D01*
%TO.C,D3*%
X83966092Y-65350000D02*
X83566092Y-65350000D01*
X83566092Y-65350000D02*
X83566092Y-65900000D01*
X83566092Y-65350000D02*
X83566092Y-64800000D01*
X83566092Y-65350000D02*
X82966092Y-64950000D01*
X82966092Y-65750000D02*
X83566092Y-65350000D01*
X82966092Y-65350000D02*
X82466092Y-65350000D01*
X82966092Y-64950000D02*
X82966092Y-65750000D01*
%TO.C,D61*%
X330591092Y-141575000D02*
X330191092Y-141575000D01*
X330191092Y-141575000D02*
X330191092Y-142125000D01*
X330191092Y-141575000D02*
X330191092Y-141025000D01*
X330191092Y-141575000D02*
X329591092Y-141175000D01*
X329591092Y-141975000D02*
X330191092Y-141575000D01*
X329591092Y-141575000D02*
X329091092Y-141575000D01*
X329591092Y-141175000D02*
X329591092Y-141975000D01*
%TO.C,D58*%
X273441092Y-141575000D02*
X273041092Y-141575000D01*
X273041092Y-141575000D02*
X273041092Y-142125000D01*
X273041092Y-141575000D02*
X273041092Y-141025000D01*
X273041092Y-141575000D02*
X272441092Y-141175000D01*
X272441092Y-141975000D02*
X273041092Y-141575000D01*
X272441092Y-141575000D02*
X271941092Y-141575000D01*
X272441092Y-141175000D02*
X272441092Y-141975000D01*
%TO.C,D42*%
X141125000Y-122500000D02*
X140725000Y-122500000D01*
X140725000Y-122500000D02*
X140725000Y-123050000D01*
X140725000Y-122500000D02*
X140725000Y-121950000D01*
X140725000Y-122500000D02*
X140125000Y-122100000D01*
X140125000Y-122900000D02*
X140725000Y-122500000D01*
X140125000Y-122500000D02*
X139625000Y-122500000D01*
X140125000Y-122100000D02*
X140125000Y-122900000D01*
%TO.C,D51*%
X83975000Y-141575000D02*
X83575000Y-141575000D01*
X83575000Y-141575000D02*
X83575000Y-142125000D01*
X83575000Y-141575000D02*
X83575000Y-141025000D01*
X83575000Y-141575000D02*
X82975000Y-141175000D01*
X82975000Y-141975000D02*
X83575000Y-141575000D01*
X82975000Y-141575000D02*
X82475000Y-141575000D01*
X82975000Y-141175000D02*
X82975000Y-141975000D01*
%TO.C,D39*%
X83975000Y-122500000D02*
X83575000Y-122500000D01*
X83575000Y-122500000D02*
X83575000Y-123050000D01*
X83575000Y-122500000D02*
X83575000Y-121950000D01*
X83575000Y-122500000D02*
X82975000Y-122100000D01*
X82975000Y-122900000D02*
X83575000Y-122500000D01*
X82975000Y-122500000D02*
X82475000Y-122500000D01*
X82975000Y-122100000D02*
X82975000Y-122900000D01*
%TO.C,D53*%
X122075000Y-141600000D02*
X121675000Y-141600000D01*
X121675000Y-141600000D02*
X121675000Y-142150000D01*
X121675000Y-141600000D02*
X121675000Y-141050000D01*
X121675000Y-141600000D02*
X121075000Y-141200000D01*
X121075000Y-142000000D02*
X121675000Y-141600000D01*
X121075000Y-141600000D02*
X120575000Y-141600000D01*
X121075000Y-141200000D02*
X121075000Y-142000000D01*
%TO.C,D13*%
X330582184Y-65350000D02*
X330182184Y-65350000D01*
X330182184Y-65350000D02*
X330182184Y-65900000D01*
X330182184Y-65350000D02*
X330182184Y-64800000D01*
X330182184Y-65350000D02*
X329582184Y-64950000D01*
X329582184Y-65750000D02*
X330182184Y-65350000D01*
X329582184Y-65350000D02*
X329082184Y-65350000D01*
X329582184Y-64950000D02*
X329582184Y-65750000D01*
%TO.C,D15*%
X83966092Y-84425000D02*
X83566092Y-84425000D01*
X83566092Y-84425000D02*
X83566092Y-84975000D01*
X83566092Y-84425000D02*
X83566092Y-83875000D01*
X83566092Y-84425000D02*
X82966092Y-84025000D01*
X82966092Y-84825000D02*
X83566092Y-84425000D01*
X82966092Y-84425000D02*
X82466092Y-84425000D01*
X82966092Y-84025000D02*
X82966092Y-84825000D01*
%TO.C,D35*%
X292491092Y-103475000D02*
X292091092Y-103475000D01*
X292091092Y-103475000D02*
X292091092Y-104025000D01*
X292091092Y-103475000D02*
X292091092Y-102925000D01*
X292091092Y-103475000D02*
X291491092Y-103075000D01*
X291491092Y-103875000D02*
X292091092Y-103475000D01*
X291491092Y-103475000D02*
X290991092Y-103475000D01*
X291491092Y-103075000D02*
X291491092Y-103875000D01*
%TO.C,D11*%
X292482184Y-65350000D02*
X292082184Y-65350000D01*
X292082184Y-65350000D02*
X292082184Y-65900000D01*
X292082184Y-65350000D02*
X292082184Y-64800000D01*
X292082184Y-65350000D02*
X291482184Y-64950000D01*
X291482184Y-65750000D02*
X292082184Y-65350000D01*
X291482184Y-65350000D02*
X290982184Y-65350000D01*
X291482184Y-64950000D02*
X291482184Y-65750000D01*
%TO.C,D47*%
X292491092Y-122525000D02*
X292091092Y-122525000D01*
X292091092Y-122525000D02*
X292091092Y-123075000D01*
X292091092Y-122525000D02*
X292091092Y-121975000D01*
X292091092Y-122525000D02*
X291491092Y-122125000D01*
X291491092Y-122925000D02*
X292091092Y-122525000D01*
X291491092Y-122525000D02*
X290991092Y-122525000D01*
X291491092Y-122125000D02*
X291491092Y-122925000D01*
%TO.C,D45*%
X254391092Y-122525000D02*
X253991092Y-122525000D01*
X253991092Y-122525000D02*
X253991092Y-123075000D01*
X253991092Y-122525000D02*
X253991092Y-121975000D01*
X253991092Y-122525000D02*
X253391092Y-122125000D01*
X253391092Y-122925000D02*
X253991092Y-122525000D01*
X253391092Y-122525000D02*
X252891092Y-122525000D01*
X253391092Y-122125000D02*
X253391092Y-122925000D01*
%TO.C,D41*%
X121941092Y-122550000D02*
X121541092Y-122550000D01*
X121541092Y-122550000D02*
X121541092Y-123100000D01*
X121541092Y-122550000D02*
X121541092Y-122000000D01*
X121541092Y-122550000D02*
X120941092Y-122150000D01*
X120941092Y-122950000D02*
X121541092Y-122550000D01*
X120941092Y-122550000D02*
X120441092Y-122550000D01*
X120941092Y-122150000D02*
X120941092Y-122950000D01*
%TO.C,D10*%
X273432184Y-65375000D02*
X273032184Y-65375000D01*
X273032184Y-65375000D02*
X273032184Y-65925000D01*
X273032184Y-65375000D02*
X273032184Y-64825000D01*
X273032184Y-65375000D02*
X272432184Y-64975000D01*
X272432184Y-65775000D02*
X273032184Y-65375000D01*
X272432184Y-65375000D02*
X271932184Y-65375000D01*
X272432184Y-64975000D02*
X272432184Y-65775000D01*
%TO.C,D59*%
X292516092Y-140425000D02*
X292116092Y-140425000D01*
X292116092Y-140425000D02*
X292116092Y-140975000D01*
X292116092Y-140425000D02*
X292116092Y-139875000D01*
X292116092Y-140425000D02*
X291516092Y-140025000D01*
X291516092Y-140825000D02*
X292116092Y-140425000D01*
X291516092Y-140425000D02*
X291016092Y-140425000D01*
X291516092Y-140025000D02*
X291516092Y-140825000D01*
%TO.C,D14*%
X64916092Y-84425000D02*
X64516092Y-84425000D01*
X64516092Y-84425000D02*
X64516092Y-84975000D01*
X64516092Y-84425000D02*
X64516092Y-83875000D01*
X64516092Y-84425000D02*
X63916092Y-84025000D01*
X63916092Y-84825000D02*
X64516092Y-84425000D01*
X63916092Y-84425000D02*
X63416092Y-84425000D01*
X63916092Y-84025000D02*
X63916092Y-84825000D01*
%TO.C,D5*%
X122066092Y-65375000D02*
X121666092Y-65375000D01*
X121666092Y-65375000D02*
X121666092Y-65925000D01*
X121666092Y-65375000D02*
X121666092Y-64825000D01*
X121666092Y-65375000D02*
X121066092Y-64975000D01*
X121066092Y-65775000D02*
X121666092Y-65375000D01*
X121066092Y-65375000D02*
X120566092Y-65375000D01*
X121066092Y-64975000D02*
X121066092Y-65775000D01*
%TO.C,D50*%
X64925000Y-141575000D02*
X64525000Y-141575000D01*
X64525000Y-141575000D02*
X64525000Y-142125000D01*
X64525000Y-141575000D02*
X64525000Y-141025000D01*
X64525000Y-141575000D02*
X63925000Y-141175000D01*
X63925000Y-141975000D02*
X64525000Y-141575000D01*
X63925000Y-141575000D02*
X63425000Y-141575000D01*
X63925000Y-141175000D02*
X63925000Y-141975000D01*
%TO.C,D4*%
X103016092Y-65350000D02*
X102616092Y-65350000D01*
X102616092Y-65350000D02*
X102616092Y-65900000D01*
X102616092Y-65350000D02*
X102616092Y-64800000D01*
X102616092Y-65350000D02*
X102016092Y-64950000D01*
X102016092Y-65750000D02*
X102616092Y-65350000D01*
X102016092Y-65350000D02*
X101516092Y-65350000D01*
X102016092Y-64950000D02*
X102016092Y-65750000D01*
%TO.C,D54*%
X141125000Y-141550000D02*
X140725000Y-141550000D01*
X140725000Y-141550000D02*
X140725000Y-142100000D01*
X140725000Y-141550000D02*
X140725000Y-141000000D01*
X140725000Y-141550000D02*
X140125000Y-141150000D01*
X140125000Y-141950000D02*
X140725000Y-141550000D01*
X140125000Y-141550000D02*
X139625000Y-141550000D01*
X140125000Y-141150000D02*
X140125000Y-141950000D01*
%TO.C,D31*%
X162966092Y-101550000D02*
X162966092Y-101950000D01*
X162966092Y-101950000D02*
X163516092Y-101950000D01*
X162966092Y-101950000D02*
X162416092Y-101950000D01*
X162966092Y-101950000D02*
X162566092Y-102550000D01*
X163366092Y-102550000D02*
X162966092Y-101950000D01*
X162966092Y-102550000D02*
X162966092Y-103050000D01*
X162566092Y-102550000D02*
X163366092Y-102550000D01*
%TO.C,D21*%
X254534184Y-84425000D02*
X254134184Y-84425000D01*
X254134184Y-84425000D02*
X254134184Y-84975000D01*
X254134184Y-84425000D02*
X254134184Y-83875000D01*
X254134184Y-84425000D02*
X253534184Y-84025000D01*
X253534184Y-84825000D02*
X254134184Y-84425000D01*
X253534184Y-84425000D02*
X253034184Y-84425000D01*
X253534184Y-84025000D02*
X253534184Y-84825000D01*
%TO.C,D57*%
X257216092Y-139625000D02*
X257216092Y-140025000D01*
X257216092Y-140025000D02*
X257766092Y-140025000D01*
X257216092Y-140025000D02*
X256666092Y-140025000D01*
X257216092Y-140025000D02*
X256816092Y-140625000D01*
X257616092Y-140625000D02*
X257216092Y-140025000D01*
X257216092Y-140625000D02*
X257216092Y-141125000D01*
X256816092Y-140625000D02*
X257616092Y-140625000D01*
%TO.C,D22*%
X273432184Y-84425000D02*
X273032184Y-84425000D01*
X273032184Y-84425000D02*
X273032184Y-84975000D01*
X273032184Y-84425000D02*
X273032184Y-83875000D01*
X273032184Y-84425000D02*
X272432184Y-84025000D01*
X272432184Y-84825000D02*
X273032184Y-84425000D01*
X272432184Y-84425000D02*
X271932184Y-84425000D01*
X272432184Y-84025000D02*
X272432184Y-84825000D01*
%TO.C,D32*%
X235341092Y-103475000D02*
X234941092Y-103475000D01*
X234941092Y-103475000D02*
X234941092Y-104025000D01*
X234941092Y-103475000D02*
X234941092Y-102925000D01*
X234941092Y-103475000D02*
X234341092Y-103075000D01*
X234341092Y-103875000D02*
X234941092Y-103475000D01*
X234341092Y-103475000D02*
X233841092Y-103475000D01*
X234341092Y-103075000D02*
X234341092Y-103875000D01*
%TO.C,D8*%
X235332184Y-65375000D02*
X234932184Y-65375000D01*
X234932184Y-65375000D02*
X234932184Y-65925000D01*
X234932184Y-65375000D02*
X234932184Y-64825000D01*
X234932184Y-65375000D02*
X234332184Y-64975000D01*
X234332184Y-65775000D02*
X234932184Y-65375000D01*
X234332184Y-65375000D02*
X233832184Y-65375000D01*
X234332184Y-64975000D02*
X234332184Y-65775000D01*
%TO.C,D37*%
X330566092Y-102150000D02*
X330166092Y-102150000D01*
X330166092Y-102150000D02*
X330166092Y-102700000D01*
X330166092Y-102150000D02*
X330166092Y-101600000D01*
X330166092Y-102150000D02*
X329566092Y-101750000D01*
X329566092Y-102550000D02*
X330166092Y-102150000D01*
X329566092Y-102150000D02*
X329066092Y-102150000D01*
X329566092Y-101750000D02*
X329566092Y-102550000D01*
%TO.C,D9*%
X254382184Y-65375000D02*
X253982184Y-65375000D01*
X253982184Y-65375000D02*
X253982184Y-65925000D01*
X253982184Y-65375000D02*
X253982184Y-64825000D01*
X253982184Y-65375000D02*
X253382184Y-64975000D01*
X253382184Y-65775000D02*
X253982184Y-65375000D01*
X253382184Y-65375000D02*
X252882184Y-65375000D01*
X253382184Y-64975000D02*
X253382184Y-65775000D01*
%TO.C,D24*%
X311532184Y-84425000D02*
X311132184Y-84425000D01*
X311132184Y-84425000D02*
X311132184Y-84975000D01*
X311132184Y-84425000D02*
X311132184Y-83875000D01*
X311132184Y-84425000D02*
X310532184Y-84025000D01*
X310532184Y-84825000D02*
X311132184Y-84425000D01*
X310532184Y-84425000D02*
X310032184Y-84425000D01*
X310532184Y-84025000D02*
X310532184Y-84825000D01*
%TO.C,D19*%
X160166092Y-84425000D02*
X159766092Y-84425000D01*
X159766092Y-84425000D02*
X159766092Y-84975000D01*
X159766092Y-84425000D02*
X159766092Y-83875000D01*
X159766092Y-84425000D02*
X159166092Y-84025000D01*
X159166092Y-84825000D02*
X159766092Y-84425000D01*
X159166092Y-84425000D02*
X158666092Y-84425000D01*
X159166092Y-84025000D02*
X159166092Y-84825000D01*
%TO.C,D33*%
X254391092Y-103450000D02*
X253991092Y-103450000D01*
X253991092Y-103450000D02*
X253991092Y-104000000D01*
X253991092Y-103450000D02*
X253991092Y-102900000D01*
X253991092Y-103450000D02*
X253391092Y-103050000D01*
X253391092Y-103850000D02*
X253991092Y-103450000D01*
X253391092Y-103450000D02*
X252891092Y-103450000D01*
X253391092Y-103050000D02*
X253391092Y-103850000D01*
%TO.C,D52*%
X103025000Y-141575000D02*
X102625000Y-141575000D01*
X102625000Y-141575000D02*
X102625000Y-142125000D01*
X102625000Y-141575000D02*
X102625000Y-141025000D01*
X102625000Y-141575000D02*
X102025000Y-141175000D01*
X102025000Y-141975000D02*
X102625000Y-141575000D01*
X102025000Y-141575000D02*
X101525000Y-141575000D01*
X102025000Y-141175000D02*
X102025000Y-141975000D01*
%TO.C,D43*%
X160175000Y-122525000D02*
X159775000Y-122525000D01*
X159775000Y-122525000D02*
X159775000Y-123075000D01*
X159775000Y-122525000D02*
X159775000Y-121975000D01*
X159775000Y-122525000D02*
X159175000Y-122125000D01*
X159175000Y-122925000D02*
X159775000Y-122525000D01*
X159175000Y-122525000D02*
X158675000Y-122525000D01*
X159175000Y-122125000D02*
X159175000Y-122925000D01*
%TD*%
M02*
